<svg width="133" height="41" viewBox="0 0 133 41" fill="none" xmlns="http://www.w3.org/2000/svg">
<g clip-path="url(#clip0_907_12688)">
<path fill-rule="evenodd" clip-rule="evenodd" d="M10.366 11.545L18.609 3.33902L15.257 0H0V15.2L10.371 25.526V11.545H10.366ZM21.566 36.671L21.793 36.897L24.917 40.01H40.176V24.81L29.806 14.485V28.46L21.566 36.671ZM3.34998 21.471L3.12201 21.697L0 24.81V40.01H15.261L27.723 27.602V9.465L36.83 18.533L40.183 15.195V0H24.917L12.456 12.41V30.546L3.34998 21.471Z" fill="white"/>
<path fill-rule="evenodd" clip-rule="evenodd" d="M125.126 28.1737V31.7918H128.588C128.588 31.7918 128.596 32.2207 128.582 32.6647C128.62 33.5839 128.309 34.4834 127.711 35.1827C127.339 35.558 126.886 35.844 126.387 36.0193C125.889 36.1945 125.357 36.2545 124.831 36.1947C124.374 36.2154 123.917 36.1405 123.49 35.9749C123.062 35.8093 122.674 35.5565 122.35 35.2327C121.933 34.7713 121.664 34.1956 121.576 33.5797C121.409 32.3312 121.342 31.0711 121.376 29.8117C121.332 28.5337 121.399 27.2542 121.576 25.9877C121.684 25.4055 121.948 24.8638 122.341 24.4208C122.673 24.0906 123.069 23.8321 123.504 23.6614C123.94 23.4908 124.406 23.4116 124.873 23.4287C126.573 23.4287 127.445 23.9287 128.02 24.8967C128.117 25.0663 128.196 25.2452 128.256 25.4307H132.879C132.78 24.8969 132.614 24.3776 132.386 23.8847C131.305 21.4847 128.732 19.6368 124.976 19.6368H124.829C123.745 19.5721 122.659 19.7367 121.642 20.1199C120.626 20.5031 119.701 21.0963 118.929 21.8608C116.882 23.8608 116.775 26.1677 116.775 29.2757V30.2417C116.775 33.3477 116.975 36.0587 118.925 37.8227C120.547 39.2714 122.658 40.0508 124.832 40.0037H124.854C125.981 40.0504 127.106 39.8678 128.161 39.467C129.215 39.0661 130.177 38.4554 130.988 37.6717C132.745 35.9097 133 33.4458 133 30.8998V28.1737H125.126ZM90.4594 27.9737L88.0943 27.6448C87.4476 27.5818 86.8335 27.3304 86.3283 26.9217C86.155 26.7592 86.018 26.5619 85.9263 26.3427C85.8346 26.1234 85.7903 25.8873 85.7963 25.6498C85.7963 24.4178 86.7083 23.3718 88.7173 23.3648C90.1643 23.2513 91.5972 23.7159 92.7023 24.6567L92.8273 24.7727L95.5554 22.1538L95.4273 22.0347C94.5434 21.2267 93.506 20.6048 92.3768 20.2061C91.2475 19.8073 90.0496 19.6399 88.8543 19.7138H88.8273C84.4273 19.7358 81.6883 22.2257 81.6693 25.7997V25.8097C81.6297 26.5324 81.7413 27.2555 81.9968 27.9327C82.2523 28.6098 82.6462 29.2263 83.1533 29.7427C84.2761 30.7011 85.6706 31.2843 87.1414 31.4107L89.5723 31.7367C90.1832 31.7662 90.7686 31.9909 91.2423 32.3778C91.4373 32.5775 91.5883 32.8158 91.6856 33.0775C91.7829 33.3391 91.8243 33.6181 91.8073 33.8967C91.8182 34.2202 91.7474 34.5412 91.6013 34.83C91.4551 35.1187 91.2384 35.366 90.9713 35.5487C90.2005 35.983 89.3202 36.1838 88.4373 36.1267C87.5875 36.1772 86.7361 36.0584 85.9326 35.7772C85.129 35.496 84.3893 35.0581 83.7563 34.4887L83.6303 34.3697L80.8803 37.1757L80.9533 37.2607C82.9433 39.2117 85.3153 39.9087 88.3403 39.9097H88.3943C92.6383 39.8957 95.9734 37.6727 95.9854 33.7847C96.0354 33.0026 95.9186 32.2188 95.6428 31.4852C95.3669 30.7517 94.9383 30.0851 94.3853 29.5297C93.2718 28.6148 91.8994 28.0721 90.4613 27.9777M109.444 32.4567C109.501 32.9786 109.442 33.5065 109.272 34.0031C109.102 34.4997 108.825 34.9529 108.46 35.3308C108.031 35.7524 107.516 36.0764 106.95 36.2806C106.383 36.4848 105.78 36.5643 105.18 36.5137H105.159C104.276 36.5669 103.407 36.2706 102.74 35.6887C102.49 35.4466 102.294 35.1536 102.166 34.8295C102.038 34.5054 101.982 34.1577 101.999 33.8097C101.983 33.4551 102.053 33.1018 102.203 32.78C102.353 32.4582 102.578 32.1774 102.86 31.9617C103.543 31.5026 104.355 31.2754 105.177 31.3137H109.438V32.4577L109.444 32.4567ZM111.744 21.4567C110.352 20.3137 108.423 19.7197 105.614 19.7197C104.361 19.6511 103.106 19.8324 101.923 20.2532C100.74 20.674 99.6521 21.3258 98.7233 22.1708L101.623 24.9617C102.555 24.1454 103.721 23.6436 104.954 23.5274C106.188 23.4113 107.426 23.6868 108.494 24.3147C108.837 24.6531 109.1 25.0628 109.266 25.5147C109.431 25.9665 109.495 26.4494 109.452 26.9287L109.399 28.1197H104.428C99.8133 28.1427 97.9523 30.6597 97.9283 33.7707C97.8484 35.3507 98.395 36.8984 99.4493 38.0777C100.09 38.7183 100.857 39.2181 101.702 39.5452C102.547 39.8724 103.45 40.0197 104.355 39.9777C105.262 40.0487 106.174 39.9148 107.022 39.5859C107.87 39.2571 108.633 38.7416 109.255 38.0777L109.52 37.7398V39.6607H113.806V26.6148C113.88 25.6532 113.732 24.6876 113.373 23.7926C113.014 22.8976 112.454 22.0973 111.735 21.4537M64.6093 30.8747L64.4093 31.6647L60.9093 19.8937H57.7293L54.2293 31.6578L51.2623 19.8948H46.8203L52.2493 39.6687H55.7783L59.3233 28.2987L62.8703 39.6687H66.3893L71.8453 19.8948H67.4093L64.6093 30.8747ZM74.2883 39.6687H78.6043V19.8937H74.2883V39.6687Z" fill="white"/>
</g>
<defs>
<clipPath id="clip0_907_12688">
<rect width="133.001" height="40.011" fill="white"/>
</clipPath>
</defs>
</svg>
