<svg width="240" height="116" viewBox="0 0 240 116" fill="none" xmlns="http://www.w3.org/2000/svg">
<g clip-path="url(#clip0_1031_1425)">
<path d="M1.1 64.2C5.4 50.6 14.7 25.6 18.7 18C21 13.6 24.3 11.2 28.2 9.6C33.7 7.3 50.8 3.2 59.1 1.3C68.6 -0.900003 74.3 0.799998 79 6.5C83.7 12.2 93.2 25.7 96.7 31.8C99.1 36.1 99 42.5 96.9 47.9C94.9 53.2 86.7 83.3 84 89.6C82.3 93.6 77.5 96.8 70.7 95.8C55 93.4 17.1 80.8 6.3 76.5C2.8 75 -0.600002 70 1.1 64.2Z" fill="#C70C6F"/>
<path d="M31.8997 65.6C32.3997 65.6 42.8997 56.3 46.6997 56.4C49.9997 56.5 52.0997 62.4 58.5997 62.6C67.1997 62.9 79.8997 42.3 79.2997 42C78.6997 41.6 64.7997 55.7 58.2997 55C52.8997 54.4 50.9997 50.2 47.1997 50.2C43.4997 50.2 35.1997 56.6 32.1997 59.3C32.3997 54.6 33.0997 47.7 36.1997 39.4C40.5997 27.5 43.7996 23.4 46.0996 23.3C48.5996 23.2 51.5997 32.2 52.2997 32.2C53.0997 32.2 55.3997 23.5 55.3997 23C55.3997 22.5 51.1997 16.3 46.2997 16.3C35.9997 16.4 22.3997 51.8 22.9997 61.7C23.2997 64.7 30.8997 65.9 31.8997 65.6ZM57.4997 69.1C52.0997 68.5 50.1997 64.3 46.3997 64.3C41.8997 64.3 31.7997 73.2 31.6997 73.8C31.5997 74.4 32.6997 78.2 33.2997 78.2C33.7997 78.2 42.1997 70.4 45.9997 70.5C49.2997 70.6 51.3997 76.5 57.8997 76.7C66.4997 77 79.1997 56.4 78.5997 56.1C77.8997 55.7 63.9997 69.7 57.4997 69.1Z" fill="white"/>
<path d="M115.7 76.9C114.7 76.5 113.5 76 112.1 76C110.9 76 109.9 76.5 109.9 77.8C109.9 80.4 116.8 80.7 116.8 85.1C116.8 87.8 114.6 89.2 111.5 89.2C109.6 89.2 107.9 88.7 107.5 88.6V86C108.4 86.5 109.8 87.4 111.6 87.4C113.5 87.4 114.1 86.3 114.1 85.4C114.1 82.2 107.2 82.1 107.2 77.9C107.2 75.3 109.4 74.2 112.2 74.2C113.8 74.2 115.2 74.5 115.8 74.6V76.9H115.7Z" fill="#646363"/>
<path d="M122.4 76.3H118.8V74.4H128.5V76.3H124.9V89H122.4V76.3Z" fill="#646363"/>
<path d="M134.6 74.4H137.6L142.5 88.9H139.9L138.6 85H133.4L132.1 88.9H129.5L134.6 74.4ZM134 83.2H138L136 76.8L134 83.2Z" fill="#646363"/>
<path d="M145.5 74.4H149.1C153.7 74.4 155.5 76.4 155.5 81.6C155.5 88.3 152.1 88.9 149.1 88.9H145.5V74.4ZM148 87.2H149.1C151.6 87.2 152.8 86.1 152.8 81.6C152.8 78.1 152.2 76.1 149.1 76.1H148V87.2Z" fill="#646363"/>
<path d="M161.1 76.3H157.5V74.4H167.2V76.3H163.6V89H161.1V76.3Z" fill="#646363"/>
<path d="M169.2 74.4H171.4L173.5 85.3L177.2 74.4H179.2L182.9 85.3L184.9 74.4H187.1L184.6 89H182L178.3 78.3L174.5 89H172L169.2 74.4Z" fill="#646363"/>
<path d="M190.8 74.4H199.3V76.3H193.3V80.5H199V82.4H193.3V87.1H199.5V89H190.9V74.4H190.8Z" fill="#646363"/>
<path d="M203.101 74.4H207.501C210.201 74.4 212.201 75.4 212.201 78.2C212.201 80.5 210.801 81.2 209.301 81.6C211.301 82 211.601 83.3 211.901 84.8L212.801 88.9H210.301L209.601 85.8C209.101 83.5 208.801 82.7 206.601 82.7H205.601V89H203.101V74.4ZM205.601 81H206.601C208.101 81 209.701 80.7 209.701 78.5C209.701 77 208.901 76.2 207.501 76.2H205.601V81Z" fill="#646363"/>
<path d="M216.3 74.4H218.8V80.7L223.5 74.4H226.5L221.4 81.3L226.9 88.9H223.9L218.8 81.8V89H216.3V74.4Z" fill="#646363"/>
<path d="M229.9 74.4H238.4V76.3H232.4V80.5H238.1V82.4H232.4V87.1H238.6V89H230V74.4H229.9Z" fill="#646363"/>
<path d="M108.3 100.7H109.6V114.1H114.8V115.3H108.4V100.7H108.3Z" fill="#646363"/>
<path d="M120.9 100.7H122.5L127.2 115.2H126L124.5 110.5H119L117.5 115.2H116.3L120.9 100.7ZM119.3 109.4H124L121.6 101.8L119.3 109.4Z" fill="#646363"/>
<path d="M130.701 100.7H132.401L138.601 113.7V100.7H139.901V115.2H138.001L131.901 102.6V115.2H130.601V100.7H130.701Z" fill="#646363"/>
<path d="M145 100.7H148.2C151.5 100.7 154.2 102.4 154.2 107.9C154.2 113.9 151.4 115.2 147.6 115.2H145V100.7ZM146.3 114.1H147.5C150.8 114.1 152.8 113.2 152.8 108C152.8 102.6 150.5 101.9 147.2 101.9H146.3V114.1Z" fill="#646363"/>
<path d="M162.601 107.4C164.101 108.2 165.701 109.1 165.701 111.4C165.701 114.4 163.201 115.5 160.701 115.5C159.001 115.5 158.001 115.2 157.701 115.1V113.8C158.201 113.9 159.101 114.2 161.101 114.2C162.801 114.2 164.501 113.2 164.501 111.5C164.501 109.6 162.801 109 161.901 108.5L160.701 107.8C159.401 107.1 157.601 106.3 157.601 104.1C157.601 103.5 157.901 100.4 162.001 100.4C163.101 100.4 164.401 100.6 164.901 100.8V102.1C164.401 101.9 163.301 101.6 162.001 101.6C159.801 101.6 158.801 102.6 158.801 104C158.801 105.4 160.201 106 161.401 106.7L162.601 107.4Z" fill="#646363"/>
<path d="M169.8 100.7H173.3C175.6 100.7 177.2 102 177.2 104.2C177.2 106.5 176 107.2 175.2 107.5C176.3 107.8 177.8 108.5 177.8 111.3C177.8 113.3 176.5 115.2 173.4 115.2H169.8V100.7ZM171 107.2H172.9C173.4 107.2 175.8 107.2 175.8 104.4C175.8 102 173.7 102 172.6 102H171V107.2ZM171 114.1H172.4C173.8 114.1 176.4 114.1 176.4 111.2C176.4 109.5 175.3 108.3 173.3 108.3H171V114.1Z" fill="#646363"/>
<path d="M182.101 100.7H188.601V101.9H183.401V107.1H188.301V108.3H183.401V114.2H188.801V115.4H182.201V100.7H182.101Z" fill="#646363"/>
<path d="M193 100.7H196C197.8 100.7 200.6 101.1 200.6 104.4C200.6 107.6 198 107.9 197.7 108C199.6 108.5 199.8 109.6 200.1 111.2L200.9 115.1H199.6L198.9 111.7C198.5 109.7 198.1 108.6 195.9 108.6H194.2V115.2H193V100.7ZM194.2 107.5H195.3C197.3 107.5 199.3 106.8 199.3 104.4C199.3 101.9 196.8 101.8 195.8 101.8H194.1V107.5H194.2Z" fill="#646363"/>
<path d="M214.8 114.1C214.3 114.5 212.9 115.5 210.6 115.5C206.2 115.5 205 111.7 205 107.5C205 103.8 206.5 100.5 210.3 100.5C213.5 100.5 215.1 102.7 215.1 104.7H213.6C213.6 103.3 212.8 101.7 210.3 101.7C207.3 101.7 206.4 104.6 206.4 107.5C206.4 110.5 207 114.3 210.6 114.3C212.2 114.3 213.4 113.6 213.6 113.4V108.4H209.9V107.2H214.9V114.1H214.8Z" fill="#646363"/>
</g>
<defs>
<clipPath id="clip0_1031_1425">
<rect width="239.2" height="115.5" fill="white"/>
</clipPath>
</defs>
</svg>
