<svg width="266" height="177" viewBox="0 0 266 177" fill="none" xmlns="http://www.w3.org/2000/svg">
<g clip-path="url(#clip0_1027_1420)">
<g filter="url(#filter0_d_1027_1420)">
<path d="M98.3594 141.105H167.795V123.746C167.787 117.303 165.225 111.125 160.669 106.569C156.113 102.013 149.936 99.4507 143.492 99.4433H122.662C116.219 99.4507 110.041 102.013 105.485 106.569C100.93 111.125 98.3667 117.303 98.3594 123.746V141.105ZM108.775 68.1974C108.775 73.004 110.2 77.7026 112.87 81.6991C115.541 85.6956 119.336 88.8105 123.777 90.6499C128.218 92.4893 133.104 92.9705 137.818 92.0328C142.532 91.0951 146.863 88.7805 150.261 85.3818C153.66 81.983 155.975 77.6528 156.912 72.9386C157.85 68.2244 157.369 63.338 155.53 58.8973C153.69 54.4566 150.575 50.6611 146.579 47.9907C142.582 45.3203 137.884 43.895 133.077 43.895C126.632 43.895 120.45 46.4554 115.893 51.013C111.335 55.5706 108.775 61.752 108.775 68.1974Z" fill="url(#paint0_linear_1027_1420)" shape-rendering="crispEdges"/>
<path d="M122.662 100.082H143.491C149.765 100.089 155.78 102.585 160.217 107.021C164.515 111.319 166.991 117.098 167.148 123.159L167.156 123.747V140.466H98.998V123.747C99.0052 117.473 101.5 111.457 105.937 107.021C110.234 102.723 116.014 100.246 122.075 100.089L122.662 100.082ZM133.077 44.5337C137.757 44.5337 142.332 45.9218 146.224 48.522C150.115 51.1222 153.148 54.8181 154.939 59.1421C156.73 63.466 157.199 68.2237 156.286 72.814C155.373 77.4043 153.119 81.6207 149.81 84.9302C146.5 88.2396 142.284 90.4937 137.693 91.4067C133.103 92.3197 128.345 91.851 124.021 90.0601C119.697 88.269 116.002 85.2357 113.401 81.3442C110.801 77.4528 109.413 72.8779 109.413 68.1978C109.413 61.9218 111.906 55.9022 116.344 51.4644C120.782 47.0265 126.801 44.5337 133.077 44.5337Z" stroke="url(#paint1_linear_1027_1420)" stroke-width="1.27697" shape-rendering="crispEdges"/>
</g>
<path opacity="0.55" d="M133.075 24.1021C141.796 24.1021 150.323 26.6884 157.574 31.5337C164.825 36.3788 170.476 43.2658 173.813 51.3228C177.151 59.3801 178.025 68.2476 176.323 76.8013C175.415 81.3646 173.792 85.7271 171.543 89.7427C172.622 90.6323 173.665 91.5753 174.663 92.5737C182.925 100.836 187.572 112.039 187.586 123.723V160.898H78.5645V123.723L78.5791 122.628C78.8719 111.341 83.4835 100.578 91.4873 92.5737C92.4851 91.5759 93.527 90.6328 94.6055 89.7437C90.9279 83.1776 88.9795 75.7621 88.9795 68.1978C88.9795 56.503 93.6261 45.2875 101.896 37.0181C110.165 28.7486 121.38 24.1021 133.075 24.1021Z" stroke="url(#paint2_linear_1027_1420)" stroke-width="1.27697"/>
<path opacity="0.27" d="M213.122 186.438H53.0215V123.692C53.038 109.508 57.3823 95.7753 65.3184 84.2549C64.0774 79.0214 63.4365 73.6345 63.4365 68.1973C63.4366 49.7284 70.7736 32.0165 83.832 18.958C96.8906 5.89941 114.603 -1.4375 133.072 -1.4375C146.844 -1.43743 160.308 2.64719 171.76 10.2988C182.507 17.48 191.028 27.5002 196.392 39.2217L196.901 40.3613L196.903 40.3672L197.403 41.543L197.405 41.5488C202.676 54.273 204.055 68.2761 201.368 81.7832C201.203 82.6121 201.019 83.4362 200.824 84.2559C208.76 95.7763 213.106 109.508 213.122 123.692V186.438Z" stroke="url(#paint3_linear_1027_1420)" stroke-width="1.27697"/>
<path opacity="0.15" d="M133.078 -34.6387C153.1 -34.6386 172.679 -28.7929 189.417 -17.832L190.212 -17.3066L190.217 -17.3037L191.732 -16.2715L191.737 -16.2676C207.395 -5.39392 219.721 9.61821 227.34 27.0889L227.4 27.2285L227.402 27.2324L227.462 27.3721L227.463 27.374L228.024 28.6934L228.028 28.7031L228.085 28.8438L228.679 30.3076C234.665 45.4117 236.964 61.6779 235.46 77.7686C242.52 91.8849 246.31 107.571 246.329 123.654V219.639H19.8262V123.654C19.8449 107.572 23.6345 91.8865 30.6934 77.7705C30.3962 74.5999 30.2412 71.4055 30.2412 68.1973C30.2413 40.923 41.0764 14.7664 60.3613 -4.51855C79.6464 -23.8036 105.804 -34.6387 133.078 -34.6387Z" stroke="url(#paint4_linear_1027_1420)" stroke-width="1.27697"/>
</g>
<defs>
<filter id="filter0_d_1027_1420" x="94.2177" y="39.7534" width="84.9197" height="112.696" filterUnits="userSpaceOnUse" color-interpolation-filters="sRGB">
<feFlood flood-opacity="0" result="BackgroundImageFix"/>
<feColorMatrix in="SourceAlpha" type="matrix" values="0 0 0 0 0 0 0 0 0 0 0 0 0 0 0 0 0 0 127 0" result="hardAlpha"/>
<feOffset dx="3.60143" dy="3.60143"/>
<feGaussianBlur stdDeviation="3.87153"/>
<feComposite in2="hardAlpha" operator="out"/>
<feColorMatrix type="matrix" values="0 0 0 0 0 0 0 0 0 0 0 0 0 0 0 0 0 0 0.06 0"/>
<feBlend mode="normal" in2="BackgroundImageFix" result="effect1_dropShadow_1027_1420"/>
<feBlend mode="normal" in="SourceGraphic" in2="effect1_dropShadow_1027_1420" result="shape"/>
</filter>
<linearGradient id="paint0_linear_1027_1420" x1="133.077" y1="43.895" x2="149.678" y2="152.518" gradientUnits="userSpaceOnUse">
<stop stop-color="#4E99FB" stop-opacity="0.18"/>
<stop offset="0.389423" stop-color="#4E99FB" stop-opacity="0.28"/>
<stop offset="1" stop-color="#4E99FB" stop-opacity="0.18"/>
</linearGradient>
<linearGradient id="paint1_linear_1027_1420" x1="133.077" y1="43.895" x2="168" y2="144.5" gradientUnits="userSpaceOnUse">
<stop stop-color="#4E99FB"/>
<stop offset="1" stop-color="#4E99FB" stop-opacity="0.16"/>
</linearGradient>
<linearGradient id="paint2_linear_1027_1420" x1="133.075" y1="24.7407" x2="152.368" y2="166.779" gradientUnits="userSpaceOnUse">
<stop stop-color="#4E99FB"/>
<stop offset="1" stop-color="#4E99FB" stop-opacity="0.2"/>
</linearGradient>
<linearGradient id="paint3_linear_1027_1420" x1="88.4364" y1="-0.68672" x2="204.582" y2="175.333" gradientUnits="userSpaceOnUse">
<stop stop-color="#4E99FB"/>
<stop offset="1" stop-color="#4E99FB" stop-opacity="0"/>
</linearGradient>
<linearGradient id="paint4_linear_1027_1420" x1="68.1837" y1="-6.53912" x2="143.814" y2="184.336" gradientUnits="userSpaceOnUse">
<stop stop-color="#4E99FB" stop-opacity="0.27"/>
<stop offset="0.524038" stop-color="#4E99FB"/>
<stop offset="1" stop-color="#4E99FB" stop-opacity="0.42"/>
</linearGradient>
<clipPath id="clip0_1027_1420">
<rect width="266" height="177" fill="white"/>
</clipPath>
</defs>
</svg>
