<svg width="100" height="70" viewBox="0 0 100 70" fill="none" xmlns="http://www.w3.org/2000/svg">
<g clip-path="url(#clip0_970_13468)">
<path d="M90 0H10C4.5 0 0 4.5 0 10V60C0 65.5 4.5 70 10 70H90C95.5 70 100 65.5 100 59.9V10C100 4.5 95.5 0 90 0Z" fill="#F01414"/>
<path d="M92.6998 59.9C92.7998 61.4 91.5998 62.7 89.9998 62.8H9.99977C8.49977 62.8 7.29977 61.5 7.29977 60V10C7.19977 8.50001 8.39977 7.20001 9.89977 7.10001H89.9998C91.4998 7.10001 92.6998 8.40001 92.6998 9.90001V59.9Z" fill="white"/>
<path d="M30.5998 57.9H13.7998V12.1H30.5998C42.4998 12.1 48.9998 19.5 48.9998 34.8C48.9998 48 44.4998 57.8 30.5998 57.9ZM37.8998 35.7C37.8998 26.5 36.8998 19.3 26.9998 19.3H24.7998V50.5H28.6998C34.4998 50.5 37.8998 45.8 37.8998 35.7ZM77.9998 33.9C82.6998 32.5 85.8998 28.2 85.9998 23.2C85.9998 22.2 85.7998 12 72.8998 12H53.7998V57.8H69.9998C74.2998 57.8 87.6998 57.8 87.6998 44.9C87.6998 41.8 86.2998 35.7 77.9998 33.9ZM64.6998 19.2H68.1998C73.0998 19.2 75.0998 20.9 75.0998 24.7C75.0998 27.7 72.8998 30.2 69.0998 30.2H64.7998V19.2H64.6998ZM69.1998 50.5H64.6998V38.7H69.4998C75.1998 38.7 76.5998 42 76.5998 44.6C76.5998 50.5 70.9998 50.5 69.1998 50.5Z" fill="#F01414"/>
</g>
<defs>
<clipPath id="clip0_970_13468">
<rect width="100" height="70" fill="white"/>
</clipPath>
</defs>
</svg>
