<svg width="255" height="46" viewBox="0 0 255 46" fill="none" xmlns="http://www.w3.org/2000/svg">
<g clip-path="url(#clip0_970_13474)">
<path d="M192.1 5.69999V11H185.5V7.09999C185.5 6.39999 184.9 5.79999 184.2 5.79999H182.9C182.2 5.79999 181.6 6.39999 181.6 7.09999V20.2C181.6 20.9 182.2 21.5 182.9 21.5H184.2C184.9 21.5 185.5 20.9 185.5 20.2V16.2H192.1V21.5C192.1 24.4 189.7 26.8 186.8 26.8H180.2C177.3 26.8 174.9 24.4 174.9 21.5V5.69999C174.9 2.79999 177.3 0.399994 180.2 0.399994H186.8C189.7 0.399994 192.1 2.69999 192.1 5.69999ZM163.6 13.6H159.6V6.99999C159.6 6.29999 160.2 5.69999 160.9 5.69999H162.2C162.9 5.69999 163.5 6.29999 163.5 6.99999V13.6H163.6ZM164.9 0.399994H158.3C155.4 0.399994 153 2.69999 153 5.69999V26.7H159.6V18.8H163.6V26.7H170.2V5.69999C170.2 2.79999 167.8 0.399994 164.9 0.399994ZM10.6 19.5C10.6 20.6 9.7 21.5 8.6 21.5H6.6V5.69999H8.6C9.7 5.69999 10.6 6.59999 10.6 7.69999V19.5ZM10.6 0.399994H0V26.7H10.6C14.3 26.7 17.2 23.8 17.2 20.1V6.99999C17.2 3.39999 14.2 0.399994 10.6 0.399994ZM248.1 9.59999C248.1 10.3 247.5 10.9 246.8 10.9H244.1V5.59999H246.7C247.4 5.59999 248 6.19999 248 6.89999V9.49999L248.1 9.59999ZM248.1 0.399994H237.5V26.7H244.1V16.2H246.1C247.2 16.2 248.1 17.1 248.1 18.2V26.7H254.7V18.8C254.7 17.3 254.2 15.9 253.4 14.9C253 14.4 252.6 14 252.1 13.6C252.6 13.2 253 12.8 253.4 12.3C254.3 11.2 254.7 9.79999 254.7 8.39999V7.09999C254.7 3.49999 251.7 0.499994 248.1 0.499994V0.399994ZM207.5 0.399994H214.1V26.7H207.5V16.2H203.5V26.7H196.9V0.399994H203.5V10.9H207.5V0.399994ZM119.3 0.399994H125.9V26.7H119.2L112.6 12.7V26.7H106V0.399994H112.7L119.3 14.4V0.399994ZM69.9 0.399994H83.2V5.69999H76.6V11H83.2V16.3H76.6V26.8H70V0.399994H69.9ZM52 0.399994H65.3V5.69999H58.7V11H65.3V16.3H58.7V26.8H52.1V0.399994H52ZM219.3 0.399994H232.6V5.69999H226V11H232.6V16.3H226V21.6H232.6V26.9H219.3V0.399994ZM87.8 0.399994H101.1V5.69999H94.5V11H101.1V16.3H94.5V21.6H101.1V26.9H87.8V0.399994ZM33.8 0.399994H47.1V5.69999H40.5V11H47.1V16.3H40.5V21.6H47.1V26.9H33.8V0.399994ZM22 26.7H28.6V0.399994H22V26.7ZM141.7 9.59999C141.7 10.3 141.1 10.9 140.4 10.9H137.8V5.59999H140.4C141.1 5.59999 141.7 6.19999 141.7 6.89999V9.49999V9.59999ZM141.7 20.1C141.7 20.8 141.1 21.4 140.4 21.4H137.7V16.1H140.4C141.1 16.1 141.7 16.7 141.7 17.4V20V20.1ZM141.7 0.399994H131.1V26.7H141.7C145.4 26.7 148.3 23.8 148.3 20.1V18.8C148.3 17.4 147.8 16 147 14.9C146.6 14.4 146.2 14 145.7 13.6C146.2 13.2 146.6 12.8 147 12.3C147.9 11.2 148.3 9.79999 148.3 8.39999V7.09999C148.3 3.49999 145.3 0.499994 141.7 0.499994V0.399994Z" fill="black"/>
<path d="M8.2 36.1L6.1 42.4L4.1 36.1H0V45.6H2.5V38.3L4.8 45.6H7.1L9.5 38.3V45.6H11.9V36.1H8H8.2ZM18.3 43.9C19.8 43.9 20.5 42.4 20.5 40.9C20.5 39.4 19.9 37.9 18.3 37.9C16.7 37.9 16.1 39.3 16.1 40.9C16.1 42.5 16.7 43.9 18.3 43.9ZM18.3 36C21.4 36 23.1 37.9 23.1 40.9C23.1 43.9 21.4 45.8 18.3 45.8C15.2 45.8 13.5 43.9 13.5 40.9C13.5 37.9 15.1 36 18.3 36ZM23.3 36.1H26L28.1 43.5L30.2 36.1H32.8L29.6 45.6H26.5L23.3 36.1ZM34.1 36.1H40.8V37.9H36.6V39.9H40.6V41.7H36.6V43.8H40.9V45.6H34V36.1H34.1ZM47 36.1H53.4V37.9H49.6V40H53.3V41.8H49.6V45.6H47.1V36.1H47ZM59.3 43.9C60.8 43.9 61.5 42.4 61.5 40.9C61.5 39.4 60.9 37.9 59.3 37.9C57.7 37.9 57.1 39.3 57.1 40.9C57.1 42.5 57.7 43.9 59.3 43.9ZM59.3 36C62.4 36 64.1 37.9 64.1 40.9C64.1 43.9 62.4 45.8 59.3 45.8C56.2 45.8 54.5 43.9 54.5 40.9C54.5 37.9 56.1 36 59.3 36ZM68.1 40.1H68.8C69.6 40.1 70.7 40.1 70.7 39C70.7 37.9 69.8 38 68.8 38H68.1V40.1ZM65.5 36.1H70C71.7 36.1 73.1 36.9 73.1 38.5C73.1 40.1 72.5 40.6 71.3 40.9C72.1 41.1 72.2 41.9 72.6 43L73.5 45.6H70.8L70.2 43.9C69.7 42.3 69.4 41.9 68.4 41.9H67.9V45.6H65.4V36.1H65.5ZM74.2 36.1H76.8L78 43.4L79.3 36.1H82.5L83.8 43.4L85 36.1H87.5L85.4 45.6H82.1L80.8 38.3L79.5 45.6H76.2L74.1 36.1H74.2ZM92.5 38.1L91.3 41.8H93.7L92.6 38.1H92.5ZM90.9 36.1H94L97.7 45.6H94.9L94.2 43.6H90.6L89.8 45.6H87.2L90.8 36.1H90.9ZM101.5 40.1H102.2C103 40.1 104.1 40.1 104.1 39C104.1 37.9 103.2 38 102.2 38H101.5V40.1ZM98.9 36.1H103.4C105.1 36.1 106.5 36.9 106.5 38.5C106.5 40.1 105.9 40.6 104.7 40.9C105.5 41.1 105.6 41.9 106 43L106.9 45.6H104.2L103.6 43.9C103.1 42.3 102.8 41.9 101.8 41.9H101.3V45.6H98.8V36.1H98.9ZM110.8 43.7H111.8C113.7 43.7 114.8 42.7 114.8 40.8C114.8 38.9 113.7 37.9 111.8 37.9H110.8V43.6V43.7ZM108.3 36.1H111.8C115.1 36.1 117.4 37.1 117.4 40.8C117.4 44.5 115 45.6 111.8 45.6H108.3V36.1ZM119.1 45.6H121.4V43.4H119.1V45.6Z" fill="black"/>
<path d="M127.2 38H124.9V36.1H132.1V38H129.7V45.6H127.2V38ZM137.5 43.9C139 43.9 139.7 42.4 139.7 40.9C139.7 39.4 139.1 37.9 137.5 37.9C135.9 37.9 135.3 39.3 135.3 40.9C135.3 42.5 135.9 43.9 137.5 43.9ZM137.5 36C140.6 36 142.3 37.8 142.3 40.9C142.3 44 140.6 45.8 137.5 45.8C134.4 45.8 132.7 43.9 132.7 40.9C132.7 37.9 134.3 36 137.5 36ZM152.7 45.3C151.1 45.7 149.9 45.7 149 45.7C146.5 45.7 143.5 44.4 143.5 40.9C143.5 37.4 146 36 149.5 36C153 36 151.4 36 152.4 36.4L152.2 38.5C151.4 38 150.5 37.9 149.9 37.9C147.8 37.9 146.1 38.7 146.1 41C146.1 43.3 147.4 44 149.3 44C151.2 44 150 44 150.2 43.8V41.9H148.7V40.1H152.6V45.4L152.7 45.3ZM154.4 36.1H161.1V37.9H156.9V39.9H160.8V41.7H156.9V43.8H161.2V45.6H154.3V36.1H154.4ZM164.8 38H162.4V36.1H169.6V38H167.2V45.6H164.7V38H164.8ZM171.2 36.1H173.7V39.7H176.7V36.1H179.2V45.6H176.7V41.6H173.7V45.6H171.2V36.1ZM180.9 36.1H187.6V37.9H183.4V39.9H187.3V41.7H183.4V43.8H187.7V45.6H180.8V36.1H180.9ZM191.9 40.1H192.6C193.4 40.1 194.5 40.1 194.5 39C194.5 37.9 193.6 38 192.6 38H191.9V40.1ZM189.3 36.1H193.8C195.5 36.1 196.9 36.9 196.9 38.5C196.9 40.1 196.3 40.6 195.1 40.9C195.9 41.1 196 41.9 196.5 43L197.4 45.6H194.8L194.2 43.9C193.7 42.3 193.3 41.9 192.4 41.9H191.9V45.6H189.4V36.1H189.3ZM198.7 45.6H201V43.4H198.7V45.6Z" fill="black"/>
</g>
<defs>
<clipPath id="clip0_970_13474">
<rect width="255" height="46" fill="white"/>
</clipPath>
</defs>
</svg>
