<svg width="133" height="41" viewBox="0 0 133 41" fill="none" xmlns="http://www.w3.org/2000/svg">
<g clip-path="url(#clip0_1065_326)">
<path fill-rule="evenodd" clip-rule="evenodd" d="M10.366 11.545L18.609 3.33902L15.257 0H0V15.2L10.371 25.526V11.545H10.366ZM21.566 36.671L21.793 36.897L24.917 40.01H40.176V24.81L29.806 14.485V28.46L21.566 36.671ZM3.34998 21.471L3.12201 21.697L0 24.81V40.01H15.261L27.723 27.602V9.465L36.83 18.533L40.183 15.195V0H24.917L12.456 12.41V30.546L3.34998 21.471Z" fill="white"/>
<path fill-rule="evenodd" clip-rule="evenodd" d="M125.126 28.174V31.792H128.588C128.588 31.792 128.596 32.221 128.582 32.665C128.62 33.5841 128.309 34.4836 127.711 35.183C127.339 35.5582 126.886 35.8442 126.387 36.0195C125.889 36.1948 125.357 36.2548 124.831 36.195C124.374 36.2156 123.917 36.1408 123.49 35.9751C123.062 35.8095 122.674 35.5568 122.35 35.233C121.933 34.7716 121.664 34.1959 121.576 33.58C121.409 32.3314 121.342 31.0713 121.376 29.812C121.332 28.5339 121.399 27.2544 121.576 25.988C121.684 25.4058 121.948 24.864 122.341 24.421C122.673 24.0908 123.069 23.8323 123.504 23.6617C123.94 23.491 124.406 23.4118 124.873 23.429C126.573 23.429 127.445 23.929 128.02 24.897C128.117 25.0666 128.196 25.2455 128.256 25.431H132.879C132.78 24.8971 132.614 24.3778 132.386 23.885C131.305 21.485 128.732 19.637 124.976 19.637H124.829C123.745 19.5723 122.659 19.7369 121.642 20.1202C120.626 20.5034 119.701 21.0965 118.929 21.861C116.882 23.861 116.775 26.168 116.775 29.276V30.242C116.775 33.348 116.975 36.059 118.925 37.823C120.547 39.2716 122.658 40.0511 124.832 40.004H124.854C125.981 40.0507 127.106 39.8681 128.161 39.4672C129.215 39.0664 130.177 38.4556 130.988 37.672C132.745 35.91 133 33.446 133 30.9V28.174H125.126ZM90.4594 27.974L88.0943 27.645C87.4476 27.582 86.8335 27.3306 86.3283 26.922C86.155 26.7594 86.018 26.5621 85.9263 26.3429C85.8346 26.1237 85.7903 25.8875 85.7963 25.65C85.7963 24.418 86.7083 23.372 88.7173 23.365C90.1643 23.2516 91.5972 23.7161 92.7023 24.657L92.8273 24.773L95.5554 22.154L95.4273 22.035C94.5434 21.227 93.506 20.605 92.3768 20.2063C91.2475 19.8076 90.0496 19.6401 88.8543 19.714H88.8273C84.4273 19.736 81.6883 22.226 81.6693 25.8V25.81C81.6297 26.5327 81.7413 27.2557 81.9968 27.9329C82.2523 28.6101 82.6462 29.2266 83.1533 29.743C84.2761 30.7014 85.6706 31.2846 87.1414 31.411L89.5723 31.737C90.1832 31.7664 90.7686 31.9911 91.2423 32.378C91.4373 32.5777 91.5883 32.8161 91.6856 33.0777C91.7829 33.3393 91.8243 33.6184 91.8073 33.897C91.8182 34.2204 91.7474 34.5414 91.6013 34.8302C91.4551 35.119 91.2384 35.3662 90.9713 35.549C90.2005 35.9832 89.3202 36.184 88.4373 36.127C87.5875 36.1774 86.7361 36.0586 85.9326 35.7774C85.129 35.4963 84.3893 35.0583 83.7563 34.489L83.6303 34.37L80.8803 37.176L80.9533 37.261C82.9433 39.212 85.3153 39.909 88.3403 39.91H88.3943C92.6383 39.896 95.9734 37.673 95.9854 33.785C96.0354 33.0029 95.9186 32.219 95.6428 31.4855C95.3669 30.7519 94.9383 30.0853 94.3853 29.53C93.2718 28.6151 91.8994 28.0723 90.4613 27.978M109.444 32.457C109.501 32.9788 109.442 33.5067 109.272 34.0033C109.102 34.4999 108.825 34.9532 108.46 35.331C108.031 35.7527 107.516 36.0767 106.95 36.2808C106.383 36.485 105.78 36.5645 105.18 36.514H105.159C104.276 36.5672 103.407 36.2708 102.74 35.689C102.49 35.4468 102.294 35.1539 102.166 34.8297C102.038 34.5056 101.982 34.1579 101.999 33.81C101.983 33.4553 102.053 33.102 102.203 32.7802C102.353 32.4584 102.578 32.1777 102.86 31.962C103.543 31.5028 104.355 31.2756 105.177 31.314H109.438V32.458L109.444 32.457ZM111.744 21.457C110.352 20.314 108.423 19.72 105.614 19.72C104.361 19.6513 103.106 19.8327 101.923 20.2535C100.74 20.6742 99.6521 21.3261 98.7233 22.171L101.623 24.962C102.555 24.1457 103.721 23.6438 104.954 23.5277C106.188 23.4115 107.426 23.687 108.494 24.315C108.837 24.6533 109.1 25.063 109.266 25.5149C109.431 25.9668 109.495 26.4496 109.452 26.929L109.399 28.12H104.428C99.8133 28.143 97.9523 30.66 97.9283 33.771C97.8484 35.3509 98.395 36.8986 99.4493 38.078C100.09 38.7185 100.857 39.2183 101.702 39.5455C102.547 39.8726 103.45 40.0199 104.355 39.978C105.262 40.049 106.174 39.9151 107.022 39.5862C107.87 39.2573 108.633 38.7418 109.255 38.078L109.52 37.74V39.661H113.806V26.615C113.88 25.6535 113.732 24.6878 113.373 23.7929C113.014 22.8979 112.454 22.0976 111.735 21.454M64.6093 30.875L64.4093 31.665L60.9093 19.894H57.7293L54.2293 31.658L51.2623 19.895H46.8203L52.2493 39.669H55.7783L59.3233 28.299L62.8703 39.669H66.3893L71.8453 19.895H67.4093L64.6093 30.875ZM74.2883 39.669H78.6043V19.894H74.2883V39.669Z" fill="white"/>
</g>
<defs>
<clipPath id="clip0_1065_326">
<rect width="133.001" height="40.011" fill="white"/>
</clipPath>
</defs>
</svg>
