<svg width="200" height="77" viewBox="0 0 200 77" fill="none" xmlns="http://www.w3.org/2000/svg">
<path d="M11.0898 48.1074H19.7744V29.207H33.375V48.1074H42.0605V23.165H19.7744V8.08691H82.6016V16.3789H91.7881V8.08691H197.807V23.1738H178.335V48.1152H186.969V29.2148H197.807V57.2188H0.015625V8.08691H11.0898V48.1074ZM48.4336 48.1152H76.7529V42.7773H57.1465V38.5947H76.7012V23.1738H48.4336V48.1152ZM97.7988 48.1152H106.595V29.2148H113.202V48.1152H121.875V29.2148H128.603V48.1152H137.278V23.1738H97.7988V48.1152ZM143.599 48.1152H171.95V42.748H152.322V38.5947H171.95V23.1738H143.599V48.1152ZM82.8018 48.1123H91.583V23.1738H82.8018V48.1123ZM68.1416 33.1523H57.1465V29.2148H68.1133L68.1416 33.1523ZM163.295 33.1523H152.322V29.2129H163.295V33.1523Z" fill="white"/>
<path d="M0 62.584V72.596H5.91205V70.893H2.04303V62.584H0Z" fill="white"/>
<path d="M10.8536 69.2071C9.83261 69.2071 9.06557 69.3631 8.74057 69.9291C8.65657 70.0851 8.62656 70.2561 8.62656 70.4121C8.62656 70.8231 8.89658 71.4331 9.78958 71.4331C10.2286 71.4331 11.3346 71.1771 11.5486 69.8011C11.5766 69.5891 11.5906 69.2491 11.5906 69.2351C11.3496 69.2211 11.1086 69.2071 10.8536 69.2071ZM11.6336 72.5961V71.5041C11.5206 71.7171 11.3216 72.0281 10.8256 72.3271C10.2706 72.6521 9.70556 72.7241 9.16556 72.7241C7.12256 72.7241 6.64159 71.3471 6.65659 70.4401C6.66959 69.6451 6.99457 69.1491 7.36557 68.8241C7.97457 68.2711 8.98157 68.0151 10.4566 68.0011H10.5416C10.9096 68.0011 11.1786 68.0151 11.5486 68.0441C11.5206 67.7031 11.5206 67.2921 11.2776 66.9521C11.0506 66.6401 10.6976 66.4271 10.0586 66.4001H9.8746C9.1656 66.4121 8.65658 66.6121 8.35758 66.7391C8.21458 66.8091 7.96056 66.9091 7.60556 67.1921L7.54855 65.5191C8.14555 65.2921 8.82559 65.0371 10.0886 65.0231C10.8256 65.0091 11.7466 65.0951 12.4696 65.7191C12.6546 65.8881 12.9506 66.1851 13.1066 66.6551C13.2926 67.1361 13.2926 67.9311 13.2926 68.4121V70.1711C13.2926 71.0641 13.3216 71.7031 13.3486 72.5961H11.6336Z" fill="white"/>
<path d="M19.9736 66.839C19.7186 66.725 19.3916 66.584 18.8386 66.584C17.6476 66.584 17.0816 67.293 16.8536 67.931C16.7136 68.328 16.7256 68.767 16.7256 68.88C16.7256 69.391 16.8266 70.043 17.2936 70.553C17.7896 71.051 18.3866 71.179 18.8826 71.179C19.5196 71.179 19.9026 70.98 20.1866 70.837L20.3146 72.455C19.9586 72.553 19.3496 72.739 18.4996 72.739C17.1376 72.739 16.2735 72.228 15.7195 71.645C15.6635 71.576 15.6346 71.533 15.5776 71.476C15.2376 71.065 15.0536 70.625 15.0106 70.512C14.7266 69.788 14.7266 69.08 14.7266 68.839C14.7266 67.633 15.0815 66.868 15.5065 66.357C15.9335 65.832 16.4146 65.577 16.5856 65.479C16.9676 65.293 17.3636 65.18 17.7476 65.123C17.8336 65.108 18.2436 65.052 18.5836 65.052C19.3066 65.052 19.8036 65.208 20.1016 65.293L19.9736 66.839Z" fill="white"/>
<path d="M23.7822 68.172C24.0232 67.817 24.2062 67.576 24.4632 67.251L26.1362 65.165H28.3622L25.5962 68.441L28.7162 72.596H26.3342L24.7032 70.341C24.3352 69.831 24.1072 69.448 23.7822 68.909V72.596H21.8672V61.761H23.7822V68.172Z" fill="white"/>
<path d="M31.6702 72.5961H29.7422V65.1651H31.6702V72.5961ZM31.6702 63.8051H29.7422V62.0171H31.6702V63.8051Z" fill="white"/>
<path d="M38.551 68.2001C38.521 67.7881 38.48 67.3771 38.183 66.9801C37.741 66.3851 37.147 66.3711 36.976 66.3711C36.863 66.3711 36.069 66.3711 35.587 67.0931C35.289 67.5751 35.26 68.0571 35.247 68.2001H38.551ZM35.247 69.5471C35.26 69.5891 35.332 70.0011 35.517 70.2851C36.013 71.1071 36.877 71.2771 37.501 71.2771C38.069 71.2771 38.679 71.1491 39.247 70.8651C39.472 70.7671 39.756 70.5671 39.812 70.5401L39.841 72.1991C39.275 72.4401 38.521 72.7521 37.275 72.7521C37.063 72.7521 36.324 72.7651 35.601 72.4971C34.424 72.0431 33.375 70.9791 33.375 68.9651C33.375 68.0441 33.587 67.4051 33.757 67.0231C33.843 66.8521 33.969 66.6251 33.984 66.5831C34.071 66.4551 34.155 66.3281 34.268 66.2151C34.821 65.5631 35.657 65.0081 36.976 65.0081C39.388 65.0081 40.323 66.7951 40.323 68.7951C40.323 69.0511 40.323 69.2911 40.309 69.5471H35.247Z" fill="white"/>
<path d="M46.3911 66.9229C46.2781 66.8949 46.0931 66.8239 45.8101 66.8239C45.5831 66.8239 44.4911 66.8369 44.0941 68.0439C44.0091 68.2709 43.9671 68.4689 43.9381 68.9229C43.9231 69.2069 43.9232 69.4039 43.9232 69.6879V72.5959H41.9951V67.0929C41.9951 66.3849 41.9811 65.8749 41.9531 65.1649H43.7672V66.9519C43.8662 66.5679 43.9231 66.4119 44.0231 66.2289C44.4631 65.4199 45.1861 65.0649 45.8661 65.0649C46.0371 65.0649 46.2211 65.0949 46.3911 65.1209V66.9229Z" fill="white"/>
<path d="M51.1749 69.2071C50.1529 69.2071 49.3868 69.3631 49.0608 69.9291C48.9768 70.0851 48.9478 70.2561 48.9478 70.4121C48.9478 70.8231 49.2168 71.4331 50.1108 71.4331C50.5488 71.4331 51.6558 71.1771 51.8678 69.8011C51.8968 69.5891 51.9119 69.2491 51.9119 69.2351C51.6709 69.2211 51.4289 69.2071 51.1749 69.2071ZM51.9548 72.5961V71.5041C51.8408 71.7171 51.6408 72.0281 51.1448 72.3271C50.5918 72.6521 50.0268 72.7241 49.4868 72.7241C47.4438 72.7241 46.9629 71.3471 46.9769 70.4401C46.9909 69.6451 47.3158 69.1491 47.6868 68.8241C48.2958 68.2711 49.3028 68.0151 50.7768 68.0011H50.8628C51.2308 68.0011 51.4998 68.0151 51.8678 68.0441C51.8408 67.7031 51.8408 67.2921 51.5988 66.9521C51.3718 66.6401 51.0188 66.4271 50.3798 66.4001H50.1959C49.4869 66.4121 48.9768 66.6121 48.6788 66.7391C48.5358 66.8091 48.2808 66.9091 47.9268 67.1921L47.8688 65.5191C48.4668 65.2921 49.1448 65.0371 50.4088 65.0231C51.1448 65.0091 52.0678 65.0951 52.7908 65.7191C52.9748 65.8881 53.2718 66.1851 53.4278 66.6551C53.6128 67.1361 53.6128 67.9311 53.6128 68.4121V70.1711C53.6128 71.0641 53.6408 71.7031 53.6688 72.5961H51.9548Z" fill="white"/>
<path d="M60.7785 72.596V69.008C60.7635 68.128 60.7355 67.661 60.5235 67.249C60.3955 67.009 60.2395 66.852 59.9685 66.725C59.8705 66.681 59.6715 66.612 59.4025 66.612C59.2745 66.597 58.8505 66.612 58.4385 66.937C57.7565 67.461 57.7005 68.256 57.6875 69.123V72.596H55.7444V66.952C55.7444 66.299 55.7155 65.832 55.6875 65.165H57.5445V66.313C57.6435 66.185 57.7145 66.101 57.8285 65.973C58.1115 65.661 58.4385 65.492 58.5365 65.435C59.1045 65.123 59.5585 65.052 60.1115 65.052C60.8195 65.052 61.2744 65.236 61.5724 65.42C61.7144 65.519 61.9554 65.661 62.2104 66.044C62.6484 66.655 62.6635 67.435 62.6915 68.795V72.596H60.7785Z" fill="white"/>
<path d="M65.7578 72.596V61.761" stroke="white" stroke-width="1.928"/>
<path d="M72.5098 69.2071C71.4888 69.2071 70.7218 69.3631 70.3968 69.9291C70.3128 70.0851 70.2838 70.2561 70.2838 70.4121C70.2838 70.8231 70.5528 71.4331 71.4458 71.4331C71.8848 71.4331 72.9918 71.1771 73.2048 69.8011C73.2328 69.5891 73.2478 69.2491 73.2478 69.2351C73.0058 69.2211 72.7648 69.2071 72.5098 69.2071ZM73.2898 72.5961V71.5041C73.1768 71.7171 72.9778 72.0281 72.4818 72.3271C71.9278 72.6521 71.3618 72.7241 70.8218 72.7241C68.7798 72.7241 68.2978 71.3471 68.3128 70.4401C68.3258 69.6451 68.6518 69.1491 69.0218 68.8241C69.6318 68.2711 70.6378 68.0151 72.1128 68.0011H72.1978C72.5658 68.0011 72.8358 68.0151 73.2048 68.0441C73.1768 67.7031 73.1768 67.2921 72.9338 66.9521C72.7078 66.6401 72.3539 66.4271 71.7159 66.4001H71.5318C70.8218 66.4121 70.3128 66.6121 70.0138 66.7391C69.8728 66.8091 69.6168 66.9091 69.2618 67.1921L69.2058 65.5191C69.8018 65.2921 70.4818 65.0371 71.7448 65.0231C72.4818 65.0091 73.4038 65.0951 74.1258 65.7191C74.3118 65.8881 74.6078 66.1851 74.7638 66.6551C74.9488 67.1361 74.9488 67.9311 74.9488 68.4121V70.1711C74.9488 71.0641 74.9778 71.7031 75.0048 72.5961H73.2898Z" fill="white"/>
<path d="M79.9042 66.655C79.1952 66.909 78.7701 67.589 78.7701 68.767C78.7701 69.363 78.8402 70.271 79.4792 70.823C79.6502 70.979 79.9751 71.164 80.4001 71.164C80.5281 71.164 81.1522 71.135 81.6352 70.596C82.0592 70.143 82.1582 69.575 82.1872 69.108C82.2022 69.008 82.2021 68.952 82.2021 68.867C82.2021 68.441 82.1462 68.185 82.1022 68.001C81.8762 67.165 81.2642 66.555 80.4582 66.555C80.2722 66.555 80.0882 66.583 79.9042 66.655ZM82.2441 65.165H84.0882V70.739C84.0742 72.709 84.0162 73.8869 83.2512 74.7509C82.9952 75.0489 82.7402 75.22 82.6122 75.291C81.6062 75.928 80.4861 75.8999 80.2151 75.8999C79.3361 75.8999 78.5562 75.731 78.2462 75.629C77.9762 75.545 77.7912 75.475 77.5362 75.375L77.7072 73.701C78.7142 74.269 79.5222 74.34 79.9042 74.34C80.5862 74.34 81.7342 74.1279 82.0882 73.0919C82.1872 72.8229 82.2152 72.539 82.2592 71.972C82.2872 71.675 82.3002 71.475 82.3152 71.179C82.1582 71.448 82.0591 71.6169 81.9601 71.7309C81.1101 72.7519 80.0602 72.724 79.8322 72.724C79.0962 72.724 78.5712 72.468 78.2722 72.255C77.9912 72.072 77.8062 71.8719 77.7202 71.7729C77.3802 71.4049 77.2112 71.036 77.1392 70.908C77.0112 70.596 76.8982 70.157 76.8422 69.859C76.7842 69.547 76.7422 69.135 76.7422 68.824C76.7562 67.789 77.0982 66.272 78.3442 65.477C78.8552 65.151 79.3942 65.0229 79.9192 65.0229C80.4722 65.0229 81.2522 65.223 81.8042 65.719C81.9462 65.847 82.0311 65.945 82.2441 66.215V65.165Z" fill="white"/>
<path d="M90.8948 68.2001C90.8668 67.7881 90.8237 67.3771 90.5267 66.9801C90.0867 66.3851 89.4908 66.3711 89.3198 66.3711C89.2068 66.3711 88.4127 66.3711 87.9307 67.0931C87.6327 67.5751 87.6047 68.0571 87.5917 68.2001H90.8948ZM87.5917 69.5471C87.6047 69.5891 87.6758 70.0011 87.8608 70.2851C88.3568 71.1071 89.2207 71.2771 89.8447 71.2771C90.4127 71.2771 91.0228 71.1491 91.5908 70.8651C91.8158 70.7671 92.0998 70.5671 92.1558 70.5401L92.1848 72.1991C91.6188 72.4401 90.8668 72.7521 89.6188 72.7521C89.4068 72.7521 88.6678 72.7651 87.9448 72.4971C86.7678 72.0431 85.7188 70.9791 85.7188 68.9651C85.7188 68.0441 85.9308 67.4051 86.1008 67.0231C86.1868 66.8521 86.3148 66.6251 86.3278 66.5831C86.4148 66.4551 86.4988 66.3281 86.6118 66.2151C87.1648 65.5631 88.0008 65.0081 89.3198 65.0081C91.7318 65.0081 92.6667 66.7951 92.6667 68.7951C92.6667 69.0511 92.6668 69.2911 92.6528 69.5471H87.5917Z" fill="white"/>
<path d="M99.3957 72.596V69.008C99.3807 68.128 99.3527 67.661 99.1407 67.249C99.0127 67.009 98.8566 66.852 98.5876 66.725C98.4876 66.681 98.2887 66.612 98.0197 66.612C97.8917 66.597 97.4677 66.612 97.0557 66.937C96.3737 67.461 96.3177 68.256 96.3047 69.123V72.596H94.3617V66.952C94.3617 66.299 94.3327 65.832 94.3047 65.165H96.1617V66.313C96.2607 66.185 96.3317 66.101 96.4457 65.973C96.7287 65.661 97.0557 65.492 97.1537 65.435C97.7217 65.123 98.1756 65.052 98.7286 65.052C99.4366 65.052 99.8917 65.236 100.19 65.42C100.332 65.519 100.573 65.661 100.828 66.044C101.266 66.655 101.281 67.435 101.31 68.795V72.596H99.3957Z" fill="white"/>
<path d="M109.857 72.5961V69.1921H106.438V67.7451H109.857V64.3291H111.318V67.7451H114.706V69.1921H111.318V72.5961H109.857Z" fill="white"/>
<path d="M121.987 70.895H125.857V72.596H119.945V62.585H121.987V70.895Z" fill="white"/>
<path d="M128.998 65.165V68.909C128.998 69.732 129.026 70.596 129.736 70.993C130.033 71.164 130.345 71.164 130.43 71.164C130.969 71.164 131.352 70.937 131.565 70.709C131.777 70.469 131.876 70.185 131.905 70.129C132.089 69.645 132.118 69.192 132.118 68.711V65.165H134.032V70.085C134.061 71.008 134.088 71.675 134.117 72.596H132.316L132.26 71.433C132.145 71.617 132.032 71.816 131.664 72.113C131.281 72.412 130.686 72.724 129.793 72.724C128.8 72.739 128.161 72.383 127.764 71.944C127.082 71.179 127.07 70.043 127.07 69.277V65.165H128.998Z" fill="white"/>
<path d="M140.5 63.393C140.401 63.379 140.189 63.308 139.948 63.308C139.706 63.308 139.421 63.351 139.195 63.577C138.856 63.904 138.842 64.4 138.828 65.165H140.5V66.612H138.828V72.596H136.914V66.612H135.438V65.165H136.914C136.914 64.597 136.928 63.861 137.112 63.293C137.366 62.515 137.849 62.173 138.218 61.989C138.785 61.72 139.409 61.735 139.565 61.735C139.962 61.735 140.217 61.776 140.629 61.848L140.5 63.393Z" fill="white"/>
<path d="M144.571 65.1651H146.314V66.6121H144.571V69.8731C144.613 70.5811 144.854 71.1071 145.705 71.1071C146.017 71.1071 146.271 71.0231 146.386 70.9931L146.427 72.5111C145.818 72.6671 145.491 72.7091 145.194 72.7091C144.371 72.7091 143.791 72.4691 143.45 72.1711C143.067 71.8451 142.826 71.3481 142.742 70.5681C142.698 70.1991 142.713 69.8731 142.713 69.7321V66.6121H141.281V65.1651H142.713V63.6771L144.571 63.0801V65.1651Z" fill="white"/>
<path d="M150.4 65.1651H152.143V66.6121H150.4V69.8731C150.441 70.5811 150.683 71.1071 151.533 71.1071C151.845 71.1071 152.1 71.0231 152.215 70.9931L152.256 72.5111C151.647 72.6671 151.32 72.7091 151.024 72.7091C150.2 72.7091 149.62 72.4691 149.279 72.1711C148.896 71.8451 148.655 71.3481 148.571 70.5681C148.527 70.1991 148.541 69.8731 148.541 69.7321V66.6121H147.109V65.1651H148.541V63.6771L150.4 63.0801V65.1651Z" fill="white"/>
<path d="M158.488 68.2001C158.46 67.7881 158.418 67.3771 158.12 66.9801C157.68 66.3851 157.084 66.3711 156.915 66.3711C156.802 66.3711 156.007 66.3711 155.526 67.0931C155.227 67.5751 155.199 68.0571 155.186 68.2001H158.488ZM155.186 69.5471C155.199 69.5891 155.271 70.0011 155.456 70.2851C155.952 71.1071 156.815 71.2771 157.439 71.2771C158.007 71.2771 158.616 71.1491 159.184 70.8651C159.411 70.7671 159.694 70.5671 159.75 70.5401L159.779 72.1991C159.212 72.4401 158.46 72.7521 157.212 72.7521C157 72.7521 156.262 72.7651 155.539 72.4971C154.362 72.0431 153.312 70.9791 153.312 68.9651C153.312 68.0441 153.526 67.4051 153.695 67.0231C153.78 66.8521 153.908 66.6251 153.922 66.5831C154.008 66.4551 154.092 66.3281 154.206 66.2151C154.759 65.5631 155.595 65.0081 156.915 65.0081C159.326 65.0081 160.26 66.7951 160.26 68.7951C160.26 69.0511 160.26 69.2911 160.248 69.5471H155.186Z" fill="white"/>
<path d="M166.793 66.839C166.537 66.725 166.212 66.584 165.659 66.584C164.468 66.584 163.901 67.293 163.673 67.931C163.532 68.328 163.545 68.767 163.545 68.88C163.545 69.391 163.645 70.043 164.113 70.553C164.609 71.051 165.205 71.179 165.701 71.179C166.34 71.179 166.723 70.98 167.007 70.837L167.135 72.455C166.779 72.553 166.169 72.739 165.319 72.739C163.957 72.739 163.092 72.228 162.539 71.645C162.483 71.576 162.455 71.533 162.397 71.476C162.057 71.065 161.872 70.625 161.831 70.512C161.547 69.788 161.547 69.08 161.547 68.839C161.547 67.633 161.901 66.868 162.327 66.357C162.753 65.832 163.235 65.577 163.405 65.479C163.788 65.293 164.184 65.18 164.568 65.123C164.652 65.108 165.064 65.052 165.404 65.052C166.127 65.052 166.624 65.208 166.921 65.293L166.793 66.839Z" fill="white"/>
<path d="M170.555 61.761V66.285C170.668 66.116 170.767 65.945 171.093 65.676C171.873 65.037 172.753 65.052 172.967 65.052C173.689 65.052 174.213 65.264 174.497 65.449C175.504 66.101 175.575 67.221 175.575 68.952V72.596H173.66V68.824C173.645 68.341 173.645 67.632 173.363 67.165C173.307 67.052 173.207 66.896 172.952 66.753C172.683 66.597 172.384 66.597 172.313 66.597C171.619 66.597 171.179 66.937 170.952 67.292C170.555 67.888 170.569 68.781 170.569 69.377V72.596H168.641V61.761H170.555Z" fill="white"/>
<path d="M182.779 72.596V69.008C182.764 68.128 182.735 67.661 182.523 67.249C182.395 67.009 182.239 66.852 181.97 66.725C181.87 66.681 181.671 66.612 181.402 66.612C181.274 66.597 180.85 66.612 180.438 66.937C179.756 67.461 179.701 68.256 179.688 69.123V72.596H177.744V66.952C177.744 66.299 177.716 65.832 177.688 65.165H179.544V66.313C179.643 66.185 179.714 66.101 179.828 65.973C180.111 65.661 180.438 65.492 180.536 65.435C181.104 65.123 181.558 65.052 182.111 65.052C182.819 65.052 183.274 65.236 183.572 65.42C183.714 65.519 183.955 65.661 184.21 66.044C184.648 66.655 184.664 67.435 184.693 68.795V72.596H182.779Z" fill="white"/>
<path d="M188.742 72.5961H186.812V65.1651H188.742V72.5961ZM188.742 63.8051H186.812V62.0171H188.742V63.8051Z" fill="white"/>
<path d="M192.812 68.172C193.053 67.817 193.238 67.576 193.493 67.251L195.166 65.165H197.392L194.628 68.441L197.748 72.596H195.364L193.734 70.341C193.365 69.831 193.138 69.448 192.812 68.909V72.596H190.898V61.761H192.812V68.172Z" fill="white"/>
<path d="M91.0859 0.69873V15.6733H83.3047V0.69873H91.0859Z" fill="white" stroke="white"/>
<mask id="mask0_1058_795" style="mask-type:luminance" maskUnits="userSpaceOnUse" x="82" y="0" width="10" height="17">
<path d="M91.2881 0.5V15.8789H83.1016V0.5H91.2881Z" fill="white" stroke="white"/>
</mask>
<g mask="url(#mask0_1058_795)">
<path fill-rule="evenodd" clip-rule="evenodd" d="M82.8047 0.19873H91.586V16.1734H82.8047V0.19873Z" stroke="white" stroke-width="0.4"/>
</g>
</svg>
