<svg width="122" height="36" viewBox="0 0 122 36" fill="none" xmlns="http://www.w3.org/2000/svg">
<g clip-path="url(#clip0_1065_338)">
<path d="M0 1.19971H18.9662V6.14902H6.43039V11.5394H17.4897V16.5723H6.42575V21.9627H18.9615V26.912H0V1.19971Z" fill="white"/>
<path d="M22.2359 7.98816H28.2252L28.4249 9.62709C29.2513 9.04209 30.2542 8.55459 31.4381 8.16923C32.622 7.78387 33.8385 7.58887 35.092 7.58887C37.5156 7.58887 39.2892 8.17387 40.4221 9.34388C41.5549 10.5139 42.1167 12.3246 42.1167 14.776V26.9125H35.6863V15.296C35.6863 14.2328 35.4542 13.4714 34.9853 13.021C34.521 12.5707 33.7131 12.3432 32.5709 12.3432C31.8792 12.3432 31.1734 12.501 30.4538 12.8214C29.7342 13.1418 29.1352 13.541 28.657 14.0193V26.9172H22.2266V7.98816H22.2359Z" fill="white"/>
<path d="M46.2 7.98816H51.79L52.1103 9.62709C53.7586 8.27137 55.7457 7.58887 58.0579 7.58887C63.8893 7.58887 66.8004 10.7414 66.8004 17.0511C66.8004 20.4032 66.0018 22.9522 64.4047 24.6979C62.8075 26.4436 60.5836 27.3118 57.7375 27.3118C55.7411 27.3118 54.0371 26.8986 52.6257 26.0722V35.5344H46.1953V7.98816H46.2ZM59.1954 21.1647C59.9011 20.2082 60.254 18.7968 60.254 16.9303C60.254 15.1753 59.9429 13.9635 59.3161 13.295C58.6893 12.631 57.6586 12.2967 56.2193 12.2967C54.8636 12.2967 53.6657 12.775 52.6257 13.736V21.4014C53.1596 21.8007 53.6843 22.0979 54.2043 22.3022C54.7243 22.5018 55.3557 22.5993 56.0986 22.5993C57.4589 22.6039 58.4897 22.1211 59.1954 21.1647Z" fill="white"/>
<path d="M71.3709 25.7738C70.108 24.7477 69.4766 23.2759 69.4766 21.3631C69.4766 19.3945 70.1498 17.8623 71.4916 16.7713C72.8334 15.6802 74.7973 15.1323 77.3834 15.1323H82.6531V14.6959C82.6531 13.7116 82.3281 13.0198 81.6734 12.6205C81.0188 12.2212 79.8302 12.0216 78.0984 12.0216C75.9441 12.0216 73.8269 12.3559 71.7516 13.0198V8.86907C72.708 8.49764 73.8687 8.19122 75.2244 7.94979C76.5802 7.70836 77.9777 7.59229 79.417 7.59229C82.4256 7.59229 84.7424 8.20514 86.3627 9.43087C87.9877 10.6566 88.8002 12.5462 88.8002 15.0998V26.9206H83.1684L82.8481 25.3234C81.3856 26.656 79.1616 27.3199 76.1809 27.3199C74.2355 27.3106 72.6337 26.7999 71.3709 25.7738ZM82.6484 21.5209V18.8466H78.0984C77.142 18.8466 76.427 19.0323 75.9627 19.4038C75.4984 19.7752 75.2662 20.3509 75.2662 21.1216C75.2662 22.612 76.2505 23.3595 78.2191 23.3595C80.132 23.3595 81.6131 22.7466 82.6484 21.5209Z" fill="white"/>
<path d="M94.3635 25.9537C93.4581 25.0483 93.0078 23.5998 93.0078 21.6033V0H99.4381V20.9626C99.4381 21.5755 99.5589 21.9933 99.7956 22.2208C100.037 22.4483 100.423 22.5598 100.952 22.5598C101.671 22.5598 102.308 22.4669 102.869 22.2812V26.6316C102.229 26.873 101.611 27.0448 101.012 27.1516C100.413 27.2584 99.6889 27.3094 98.8346 27.3094C96.7592 27.3094 95.2642 26.8591 94.3635 25.9537Z" fill="white"/>
<path d="M117.146 28.0884C119.828 28.0884 122.002 25.9141 122.002 23.2319C122.002 20.5498 119.828 18.3755 117.146 18.3755C114.463 18.3755 112.289 20.5498 112.289 23.2319C112.289 25.9141 114.463 28.0884 117.146 28.0884Z" fill="white"/>
</g>
<defs>
<clipPath id="clip0_1065_338">
<rect width="122" height="36" fill="white"/>
</clipPath>
</defs>
</svg>
