<svg width="159" height="24" viewBox="0 0 159 24" fill="none" xmlns="http://www.w3.org/2000/svg">
<g clip-path="url(#clip0_1052_406)">
<mask id="mask0_1052_406" style="mask-type:luminance" maskUnits="userSpaceOnUse" x="0" y="0" width="159" height="24">
<path d="M0 0H158.389V24H0V0Z" fill="white"/>
</mask>
<g mask="url(#mask0_1052_406)">
<path d="M28.7373 5.78882H32.0357V10.8518H38.8654V5.78882H42.1632V19.2779H38.8654V13.4198H32.0357V19.2779H28.7373V5.78882Z" fill="white"/>
<path d="M48.3869 12.53C48.3869 10.4352 49.4389 7.98078 52.4302 7.98078C55.4215 7.98078 56.4747 10.4352 56.4747 12.53C56.4747 14.6286 55.4215 17.0879 52.4302 17.0879C49.4389 17.0879 48.3869 14.6286 48.3869 12.53ZM44.8848 12.53C44.8848 15.3478 45.9057 19.6553 52.4302 19.6553C58.9542 19.6553 59.9757 15.3478 59.9757 12.53C59.9757 9.71763 58.9542 5.40796 52.4302 5.40796C45.9057 5.40796 44.8848 9.71763 44.8848 12.53Z" fill="white"/>
<path d="M73.0223 10.8865C72.9236 10.0513 72.5097 9.28545 71.8652 8.74536C71.2206 8.20527 70.3941 7.93177 69.5546 7.98078C66.429 7.98078 65.766 10.6988 65.766 12.53C65.766 14.3689 66.429 17.0879 69.5546 17.0879C70.4062 17.135 71.243 16.8505 71.8894 16.2941C72.5359 15.7378 72.9419 14.9528 73.0223 14.1037H76.6063C76.1992 18.0336 73.2908 19.6553 69.4362 19.6553C65.0185 19.6553 62.2656 17.5409 62.2656 12.53C62.2656 7.52516 65.0185 5.40796 69.4362 5.40796C72.3572 5.40796 76.0791 6.24012 76.5719 10.8865H73.0223Z" fill="white"/>
<path d="M79.2021 5.78882H82.4977V10.8518H89.3292V5.78882H92.6253V19.2779H89.3292V13.4198H82.4977V19.2779H79.2021V5.78882Z" fill="white"/>
<path d="M99.7254 13.4982H104.244C105.397 13.4982 105.995 14.0614 105.995 15.1183C105.995 15.9712 105.604 16.7084 104.586 16.7084H99.7254V13.4982ZM96.4258 19.278H105.073C108.745 19.278 109.498 16.9921 109.498 15.1986C109.498 13.7438 108.745 12.1887 107.337 11.93V11.8886C108.476 11.4918 108.95 10.2242 108.95 9.18913C108.95 6.69325 107.305 5.78906 105.537 5.78906H96.4258V19.278ZM99.7254 8.24734H103.851C105.215 8.24734 105.553 8.8503 105.553 9.7004C105.553 10.699 105.073 11.1535 104.313 11.1535H99.7254V8.24734Z" fill="white"/>
<path d="M120.208 14.0439H116.404L118.304 8.69747L120.208 14.0439ZM121.974 19.278H125.527L120.19 5.78906H116.214L110.881 19.278H114.432L115.413 16.501H120.989L121.974 19.278Z" fill="white"/>
<path d="M127.839 5.78882H131.136V10.8518H137.965V5.78882H141.26V19.2779H137.965V13.4198H131.136V19.2779H127.839V5.78882Z" fill="white"/>
<path d="M155.193 5.78882H158.389V19.2779H154.805L148.192 9.86778H148.159V19.2779H144.964V5.78882H148.789L155.161 15.1984H155.193V5.78882Z" fill="white"/>
<path d="M12.0039 0C15.1871 -0.000147766 18.2399 1.26414 20.4912 3.51465C22.7423 5.76518 24.008 8.81779 24.0088 12.001C24.0085 14.374 23.3038 16.6938 21.9854 18.667C20.6669 20.6401 18.7931 22.1787 16.6006 23.0869C14.4083 23.995 11.9954 24.2323 9.66797 23.7695C7.34052 23.3067 5.20262 22.1641 3.52441 20.4863C1.84621 18.8086 0.702726 16.671 0.239258 14.3438C-0.22415 12.0165 0.0134295 9.60376 0.920898 7.41113C1.82848 5.21842 3.36612 3.34348 5.33887 2.02441C7.31155 0.705492 9.63091 0.000911597 12.0039 0ZM4.91699 20.5898H8.83105V15.9883C8.83587 15.545 8.9546 15.1108 9.17578 14.7266C9.39706 14.3424 9.7136 14.0206 10.0947 13.7939H4.91699V20.5898ZM12.0068 13.9326C11.4744 13.9455 10.9691 14.1703 10.6016 14.5557C10.2342 14.941 10.0347 15.4561 10.0469 15.9883V20.5898H11.2275V18.541H12.7822V20.5898H13.9619V15.9883C13.9751 15.4566 13.7767 14.9411 13.4102 14.5557C13.0436 14.1702 12.5386 13.946 12.0068 13.9326ZM13.9248 13.7939C14.306 14.0205 14.6224 14.3424 14.8438 14.7266C15.0651 15.1106 15.1844 15.5451 15.1895 15.9883V20.5898H19.0938V13.7939H13.9248ZM12.0049 15.1992C12.1104 15.1992 12.2155 15.2201 12.3125 15.2617C12.4094 15.3033 12.4967 15.365 12.5693 15.4414C12.6421 15.5179 12.6988 15.6081 12.7354 15.707C12.7629 15.7814 12.7783 15.8596 12.7822 15.9385V17.4053H11.2275V15.9385C11.2315 15.8596 11.2478 15.7814 11.2754 15.707C11.3119 15.6083 11.3679 15.5178 11.4404 15.4414C11.5131 15.3649 11.6012 15.3033 11.6982 15.2617C11.7951 15.2203 11.8995 15.1992 12.0049 15.1992ZM10.0488 12.8291H13.9619V6.0332H10.0488V12.8291ZM4.91602 12.8086H6.13965V10H7.60742V12.8086H8.83008V6.0332H7.60742V8.93945H6.13965V6.0332H4.91602V12.8086ZM15.1807 12.8086H16.4014V10H17.8711V12.8086H19.0938V6.0332H17.8711V8.93945H16.4014V6.0332H15.1807V12.8086ZM6.72266 2.95801H5.84277L6.28418 3.72168L5.84277 4.48633H6.72266L7.16309 5.24512L7.60156 4.48633H8.48242L8.04395 3.72168L8.48242 2.95801H7.60156L7.16309 2.19922L6.72266 2.95801ZM12.0059 4.51953C11.027 4.51953 10.218 4.8361 10.0869 5.24414H13.9248C13.7935 4.8361 12.984 4.51957 12.0059 4.51953ZM16.4082 2.95703H15.5293L15.9668 3.7207L15.5293 4.4834H16.4082L16.8467 5.24414L17.2871 4.4834H18.1689L17.7266 3.7207L18.1689 2.95703H17.2871L16.8467 2.19922L16.4082 2.95703ZM11.8545 2.04199L11.6445 2.24805L10.5068 1.94531V2.85352L11.6445 2.55176L11.8545 2.75781L11.5518 3.89844H12.4609L12.1553 2.75781L12.3652 2.55176L13.5029 2.85352V1.94531L12.3652 2.24805L12.1553 2.04199L12.4609 0.902344H11.5518L11.8545 2.04199Z" fill="white"/>
</g>
</g>
<defs>
<clipPath id="clip0_1052_406">
<rect width="159" height="24" fill="white"/>
</clipPath>
</defs>
</svg>
