<svg width="200" height="77" viewBox="0 0 200 77" fill="none" xmlns="http://www.w3.org/2000/svg">
<path d="M11.0918 48.1074H19.7764V29.207H33.377V48.1074H42.0625V23.165H19.7764V8.08691H82.6035V16.3789H91.79V8.08691H197.809V23.1738H178.337V48.1152H186.971V29.2148H197.809V57.2188H0.0175781V8.08691H11.0918V48.1074ZM48.4355 48.1152H76.7549V42.7773H57.1484V38.5947H76.7031V23.1738H48.4355V48.1152ZM97.8008 48.1152H106.597V29.2148H113.204V48.1152H121.877V29.2148H128.604V48.1152H137.28V23.1738H97.8008V48.1152ZM143.601 48.1152H171.952V42.748H152.324V38.5947H171.952V23.1738H143.601V48.1152ZM82.8037 48.1123H91.585V23.1738H82.8037V48.1123ZM68.1436 33.1523H57.1484V29.2148H68.1152L68.1436 33.1523ZM163.297 33.1523H152.324V29.2129H163.297V33.1523Z" fill="white"/>
<path d="M0 62.584V72.596H5.91205V70.893H2.04303V62.584H0Z" fill="white"/>
<path d="M10.8517 69.2071C9.83065 69.2071 9.06362 69.3631 8.73862 69.9291C8.65462 70.0851 8.6246 70.2561 8.6246 70.4121C8.6246 70.8231 8.89463 71.4331 9.78763 71.4331C10.2266 71.4331 11.3326 71.1771 11.5466 69.8011C11.5746 69.5891 11.5887 69.2491 11.5887 69.2351C11.3477 69.2211 11.1067 69.2071 10.8517 69.2071ZM11.6316 72.5961V71.5041C11.5186 71.7171 11.3196 72.0281 10.8236 72.3271C10.2686 72.6521 9.70361 72.7241 9.16361 72.7241C7.12061 72.7241 6.63963 71.3471 6.65463 70.4401C6.66763 69.6451 6.99262 69.1491 7.36362 68.8241C7.97262 68.2711 8.97962 68.0151 10.4546 68.0011H10.5396C10.9076 68.0011 11.1766 68.0151 11.5466 68.0441C11.5186 67.7031 11.5186 67.2921 11.2756 66.9521C11.0486 66.6401 10.6956 66.4271 10.0566 66.4001H9.87265C9.16365 66.4121 8.65462 66.6121 8.35562 66.7391C8.21262 66.8091 7.95861 66.9091 7.60361 67.1921L7.5466 65.5191C8.1436 65.2921 8.82364 65.0371 10.0866 65.0231C10.8236 65.0091 11.7446 65.0951 12.4676 65.7191C12.6526 65.8881 12.9486 66.1851 13.1046 66.6551C13.2906 67.1361 13.2906 67.9311 13.2906 68.4121V70.1711C13.2906 71.0641 13.3197 71.7031 13.3467 72.5961H11.6316Z" fill="white"/>
<path d="M19.9755 66.839C19.7205 66.725 19.3935 66.584 18.8405 66.584C17.6495 66.584 17.0835 67.293 16.8555 67.931C16.7155 68.328 16.7275 68.767 16.7275 68.88C16.7275 69.391 16.8285 70.043 17.2955 70.553C17.7915 71.051 18.3885 71.179 18.8845 71.179C19.5215 71.179 19.9045 70.98 20.1885 70.837L20.3165 72.455C19.9605 72.553 19.3515 72.739 18.5015 72.739C17.1395 72.739 16.2755 72.228 15.7215 71.645C15.6655 71.576 15.6365 71.533 15.5795 71.476C15.2395 71.065 15.0555 70.625 15.0125 70.512C14.7285 69.788 14.7285 69.08 14.7285 68.839C14.7285 67.633 15.0835 66.868 15.5085 66.357C15.9355 65.832 16.4165 65.577 16.5875 65.479C16.9695 65.293 17.3655 65.18 17.7495 65.123C17.8355 65.108 18.2455 65.052 18.5855 65.052C19.3085 65.052 19.8055 65.208 20.1035 65.293L19.9755 66.839Z" fill="white"/>
<path d="M23.7793 68.172C24.0203 67.817 24.2033 67.576 24.4603 67.251L26.1332 65.165H28.3593L25.5933 68.441L28.7133 72.596H26.3313L24.7003 70.341C24.3323 69.831 24.1043 69.448 23.7793 68.909V72.596H21.8643V61.761H23.7793V68.172Z" fill="white"/>
<path d="M31.6673 72.5961H29.7393V65.1651H31.6673V72.5961ZM31.6673 63.8051H29.7393V62.0171H31.6673V63.8051Z" fill="white"/>
<path d="M38.5471 68.2001C38.5171 67.7881 38.4761 67.3771 38.1791 66.9801C37.7371 66.3851 37.1431 66.3711 36.9721 66.3711C36.8591 66.3711 36.0651 66.3711 35.5831 67.0931C35.2851 67.5751 35.2561 68.0571 35.2431 68.2001H38.5471ZM35.2431 69.5471C35.2561 69.5891 35.3281 70.0011 35.5131 70.2851C36.0091 71.1071 36.8731 71.2771 37.4971 71.2771C38.0651 71.2771 38.6751 71.1491 39.2431 70.8651C39.4681 70.7671 39.7521 70.5671 39.8081 70.5401L39.8371 72.1991C39.2711 72.4401 38.5171 72.7521 37.2711 72.7521C37.0591 72.7521 36.3201 72.7651 35.5971 72.4971C34.4201 72.0431 33.3711 70.9791 33.3711 68.9651C33.3711 68.0441 33.5831 67.4051 33.7531 67.0231C33.8391 66.8521 33.9651 66.6251 33.9801 66.5831C34.0671 66.4551 34.1511 66.3281 34.2641 66.2151C34.8171 65.5631 35.6531 65.0081 36.9721 65.0081C39.3841 65.0081 40.3191 66.7951 40.3191 68.7951C40.3191 69.0511 40.3191 69.2911 40.3051 69.5471H35.2431Z" fill="white"/>
<path d="M46.3931 66.9231C46.2801 66.8951 46.0951 66.8241 45.8121 66.8241C45.5851 66.8241 44.4931 66.8371 44.0961 68.0441C44.0111 68.2711 43.9691 68.4691 43.9401 68.9231C43.9251 69.2071 43.9251 69.4041 43.9251 69.6881V72.5961H41.9971V67.0931C41.9971 66.3851 41.9831 65.8751 41.9551 65.1651H43.7691V66.9521C43.8681 66.5681 43.9251 66.4121 44.0251 66.2291C44.4651 65.4201 45.1881 65.0651 45.8681 65.0651C46.0391 65.0651 46.2231 65.0951 46.3931 65.1211V66.9231Z" fill="white"/>
<path d="M51.1749 69.2071C50.1529 69.2071 49.3868 69.3631 49.0608 69.9291C48.9768 70.0851 48.9478 70.2561 48.9478 70.4121C48.9478 70.8231 49.2168 71.4331 50.1108 71.4331C50.5488 71.4331 51.6558 71.1771 51.8678 69.8011C51.8968 69.5891 51.9119 69.2491 51.9119 69.2351C51.6709 69.2211 51.4289 69.2071 51.1749 69.2071ZM51.9548 72.5961V71.5041C51.8408 71.7171 51.6408 72.0281 51.1448 72.3271C50.5918 72.6521 50.0268 72.7241 49.4868 72.7241C47.4438 72.7241 46.9629 71.3471 46.9769 70.4401C46.9909 69.6451 47.3158 69.1491 47.6868 68.8241C48.2958 68.2711 49.3028 68.0151 50.7768 68.0011H50.8628C51.2308 68.0011 51.4998 68.0151 51.8678 68.0441C51.8408 67.7031 51.8408 67.2921 51.5988 66.9521C51.3718 66.6401 51.0188 66.4271 50.3798 66.4001H50.1959C49.4869 66.4121 48.9768 66.6121 48.6788 66.7391C48.5358 66.8091 48.2808 66.9091 47.9268 67.1921L47.8688 65.5191C48.4668 65.2921 49.1448 65.0371 50.4088 65.0231C51.1448 65.0091 52.0678 65.0951 52.7908 65.7191C52.9748 65.8881 53.2718 66.1851 53.4278 66.6551C53.6128 67.1361 53.6128 67.9311 53.6128 68.4121V70.1711C53.6128 71.0641 53.6408 71.7031 53.6688 72.5961H51.9548Z" fill="white"/>
<path d="M60.7795 72.596V69.008C60.7645 68.128 60.7365 67.661 60.5245 67.249C60.3965 67.009 60.2405 66.852 59.9695 66.725C59.8715 66.681 59.6724 66.612 59.4034 66.612C59.2754 66.597 58.8515 66.612 58.4395 66.937C57.7575 67.461 57.7015 68.256 57.6885 69.123V72.596H55.7454V66.952C55.7454 66.299 55.7165 65.832 55.6885 65.165H57.5455V66.313C57.6445 66.185 57.7155 66.101 57.8295 65.973C58.1125 65.661 58.4395 65.492 58.5375 65.435C59.1055 65.123 59.5594 65.052 60.1124 65.052C60.8204 65.052 61.2754 65.236 61.5734 65.42C61.7154 65.519 61.9564 65.661 62.2114 66.044C62.6494 66.655 62.6644 67.435 62.6924 68.795V72.596H60.7795Z" fill="white"/>
<path d="M65.7598 72.596V61.761" stroke="white" stroke-width="1.928"/>
<path d="M72.5127 69.2071C71.4917 69.2071 70.7247 69.3631 70.3997 69.9291C70.3157 70.0851 70.2868 70.2561 70.2868 70.4121C70.2868 70.8231 70.5558 71.4331 71.4488 71.4331C71.8878 71.4331 72.9947 71.1771 73.2077 69.8011C73.2357 69.5891 73.2508 69.2491 73.2508 69.2351C73.0088 69.2211 72.7677 69.2071 72.5127 69.2071ZM73.2928 72.5961V71.5041C73.1798 71.7171 72.9808 72.0281 72.4848 72.3271C71.9308 72.6521 71.3647 72.7241 70.8247 72.7241C68.7827 72.7241 68.3008 71.3471 68.3158 70.4401C68.3288 69.6451 68.6548 69.1491 69.0248 68.8241C69.6348 68.2711 70.6408 68.0151 72.1158 68.0011H72.2008C72.5688 68.0011 72.8387 68.0151 73.2077 68.0441C73.1797 67.7031 73.1797 67.2921 72.9367 66.9521C72.7107 66.6401 72.3568 66.4271 71.7188 66.4001H71.5348C70.8248 66.4121 70.3158 66.6121 70.0168 66.7391C69.8758 66.8091 69.6197 66.9091 69.2647 67.1921L69.2088 65.5191C69.8048 65.2921 70.4848 65.0371 71.7478 65.0231C72.4848 65.0091 73.4068 65.0951 74.1288 65.7191C74.3148 65.8881 74.6108 66.1851 74.7668 66.6551C74.9518 67.1361 74.9518 67.9311 74.9518 68.4121V70.1711C74.9518 71.0641 74.9807 71.7031 75.0077 72.5961H73.2928Z" fill="white"/>
<path d="M79.9052 66.6551C79.1962 66.9091 78.7711 67.5891 78.7711 68.7671C78.7711 69.3631 78.8412 70.2711 79.4802 70.8231C79.6512 70.9791 79.9761 71.1641 80.4011 71.1641C80.5291 71.1641 81.1532 71.1351 81.6362 70.5961C82.0602 70.1431 82.1592 69.5751 82.1882 69.1081C82.2032 69.0081 82.2031 68.9521 82.2031 68.8671C82.2031 68.4411 82.1471 68.1851 82.1031 68.0011C81.8771 67.1651 81.2652 66.5551 80.4592 66.5551C80.2732 66.5551 80.0892 66.5831 79.9052 66.6551ZM82.2451 65.1651H84.0892V70.7391C84.0752 72.7091 84.0171 73.8871 83.2521 74.7511C82.9961 75.0491 82.7412 75.2201 82.6132 75.2911C81.6072 75.9281 80.4871 75.9001 80.2161 75.9001C79.3371 75.9001 78.5571 75.7311 78.2471 75.6291C77.9771 75.5451 77.7922 75.4751 77.5372 75.3751L77.7081 73.7011C78.7151 74.2691 79.5232 74.3401 79.9052 74.3401C80.5872 74.3401 81.7352 74.1281 82.0892 73.0921C82.1882 72.8231 82.2161 72.5391 82.2601 71.9721C82.2881 71.6751 82.3012 71.4751 82.3162 71.1791C82.1592 71.4481 82.0601 71.6171 81.9611 71.7311C81.1111 72.7521 80.0611 72.7241 79.8331 72.7241C79.0971 72.7241 78.5721 72.4681 78.2731 72.2551C77.9921 72.0721 77.8071 71.8721 77.7211 71.7731C77.3811 71.4051 77.2121 71.0361 77.1401 70.9081C77.0121 70.5961 76.8991 70.1571 76.8431 69.8591C76.7851 69.5471 76.7432 69.1351 76.7432 68.8241C76.7572 67.7891 77.0992 66.2721 78.3452 65.4771C78.8562 65.1511 79.3952 65.0231 79.9202 65.0231C80.4732 65.0231 81.2532 65.2231 81.8052 65.7191C81.9472 65.8471 82.0321 65.9451 82.2451 66.2151V65.1651Z" fill="white"/>
<path d="M90.8987 68.2001C90.8707 67.7881 90.8276 67.3771 90.5306 66.9801C90.0906 66.3851 89.4947 66.3711 89.3237 66.3711C89.2107 66.3711 88.4166 66.3711 87.9346 67.0931C87.6366 67.5751 87.6086 68.0571 87.5956 68.2001H90.8987ZM87.5956 69.5471C87.6086 69.5891 87.6797 70.0011 87.8647 70.2851C88.3607 71.1071 89.2246 71.2771 89.8486 71.2771C90.4166 71.2771 91.0267 71.1491 91.5947 70.8651C91.8197 70.7671 92.1037 70.5671 92.1597 70.5401L92.1887 72.1991C91.6227 72.4401 90.8707 72.7521 89.6227 72.7521C89.4107 72.7521 88.6717 72.7651 87.9487 72.4971C86.7717 72.0431 85.7227 70.9791 85.7227 68.9651C85.7227 68.0441 85.9347 67.4051 86.1047 67.0231C86.1907 66.8521 86.3187 66.6251 86.3317 66.5831C86.4187 66.4551 86.5027 66.3281 86.6157 66.2151C87.1687 65.5631 88.0047 65.0081 89.3237 65.0081C91.7357 65.0081 92.6707 66.7951 92.6707 68.7951C92.6707 69.0511 92.6707 69.2911 92.6567 69.5471H87.5956Z" fill="white"/>
<path d="M99.3986 72.596V69.008C99.3836 68.128 99.3556 67.661 99.1436 67.249C99.0156 67.009 98.8596 66.852 98.5906 66.725C98.4906 66.681 98.2916 66.612 98.0226 66.612C97.8946 66.597 97.4706 66.612 97.0586 66.937C96.3766 67.461 96.3206 68.256 96.3076 69.123V72.596H94.3646V66.952C94.3646 66.299 94.3356 65.832 94.3076 65.165H96.1646V66.313C96.2636 66.185 96.3346 66.101 96.4486 65.973C96.7316 65.661 97.0586 65.492 97.1566 65.435C97.7246 65.123 98.1786 65.052 98.7316 65.052C99.4396 65.052 99.8946 65.236 100.193 65.42C100.335 65.519 100.576 65.661 100.831 66.044C101.269 66.655 101.284 67.435 101.313 68.795V72.596H99.3986Z" fill="white"/>
<path d="M109.855 72.596V69.192H106.436V67.745H109.855V64.329H111.316V67.745H114.705V69.192H111.316V72.596H109.855Z" fill="white"/>
<path d="M121.987 70.8951H125.857V72.5961H119.945V62.5851H121.987V70.8951Z" fill="white"/>
<path d="M128.997 65.165V68.909C128.997 69.732 129.025 70.596 129.735 70.993C130.032 71.164 130.344 71.164 130.429 71.164C130.968 71.164 131.351 70.937 131.564 70.709C131.776 70.469 131.875 70.185 131.904 70.129C132.088 69.645 132.117 69.192 132.117 68.711V65.165H134.031V70.085C134.06 71.008 134.087 71.675 134.116 72.596H132.315L132.259 71.433C132.144 71.617 132.031 71.816 131.663 72.113C131.28 72.412 130.685 72.724 129.792 72.724C128.799 72.739 128.16 72.383 127.763 71.944C127.081 71.179 127.069 70.043 127.069 69.277V65.165H128.997Z" fill="white"/>
<path d="M140.5 63.393C140.401 63.379 140.189 63.308 139.948 63.308C139.706 63.308 139.421 63.351 139.195 63.577C138.856 63.904 138.842 64.4 138.828 65.165H140.5V66.612H138.828V72.596H136.914V66.612H135.438V65.165H136.914C136.914 64.597 136.928 63.861 137.112 63.293C137.366 62.515 137.849 62.173 138.218 61.989C138.785 61.72 139.409 61.735 139.565 61.735C139.962 61.735 140.217 61.776 140.629 61.848L140.5 63.393Z" fill="white"/>
<path d="M144.573 65.1651H146.316V66.6121H144.573V69.8731C144.615 70.5811 144.856 71.1071 145.707 71.1071C146.019 71.1071 146.273 71.0231 146.388 70.9931L146.429 72.5111C145.82 72.6671 145.493 72.7091 145.196 72.7091C144.373 72.7091 143.793 72.4691 143.452 72.1711C143.069 71.8451 142.828 71.3481 142.744 70.5681C142.7 70.1991 142.715 69.8731 142.715 69.7321V66.6121H141.283V65.1651H142.715V63.6771L144.573 63.0801V65.1651Z" fill="white"/>
<path d="M150.404 65.1651H152.147V66.6121H150.404V69.8731C150.445 70.5811 150.687 71.1071 151.537 71.1071C151.849 71.1071 152.104 71.0231 152.219 70.9931L152.26 72.5111C151.651 72.6671 151.324 72.7091 151.028 72.7091C150.204 72.7091 149.624 72.4691 149.283 72.1711C148.9 71.8451 148.659 71.3481 148.575 70.5681C148.531 70.1991 148.545 69.8731 148.545 69.7321V66.6121H147.113V65.1651H148.545V63.6771L150.404 63.0801V65.1651Z" fill="white"/>
<path d="M158.489 68.2001C158.461 67.7881 158.419 67.3771 158.121 66.9801C157.681 66.3851 157.085 66.3711 156.916 66.3711C156.803 66.3711 156.008 66.3711 155.527 67.0931C155.228 67.5751 155.2 68.0571 155.187 68.2001H158.489ZM155.187 69.5471C155.2 69.5891 155.271 70.0011 155.456 70.2851C155.952 71.1071 156.816 71.2771 157.44 71.2771C158.008 71.2771 158.617 71.1491 159.185 70.8651C159.412 70.7671 159.695 70.5671 159.751 70.5401L159.78 72.1991C159.213 72.4401 158.461 72.7521 157.213 72.7521C157.001 72.7521 156.263 72.7651 155.54 72.4971C154.363 72.0431 153.313 70.9791 153.313 68.9651C153.313 68.0441 153.527 67.4051 153.696 67.0231C153.781 66.8521 153.909 66.6251 153.923 66.5831C154.009 66.4551 154.093 66.3281 154.207 66.2151C154.76 65.5631 155.596 65.0081 156.916 65.0081C159.327 65.0081 160.261 66.7951 160.261 68.7951C160.261 69.0511 160.261 69.2911 160.249 69.5471H155.187Z" fill="white"/>
<path d="M166.789 66.839C166.533 66.725 166.208 66.584 165.655 66.584C164.464 66.584 163.897 67.293 163.669 67.931C163.528 68.328 163.541 68.767 163.541 68.88C163.541 69.391 163.641 70.043 164.109 70.553C164.605 71.051 165.201 71.179 165.697 71.179C166.336 71.179 166.719 70.98 167.003 70.837L167.131 72.455C166.775 72.553 166.165 72.739 165.315 72.739C163.953 72.739 163.088 72.228 162.535 71.645C162.479 71.576 162.451 71.533 162.393 71.476C162.053 71.065 161.868 70.625 161.827 70.512C161.543 69.788 161.543 69.08 161.543 68.839C161.543 67.633 161.897 66.868 162.323 66.357C162.749 65.832 163.231 65.577 163.401 65.479C163.784 65.293 164.18 65.18 164.564 65.123C164.648 65.108 165.06 65.052 165.4 65.052C166.123 65.052 166.62 65.208 166.917 65.293L166.789 66.839Z" fill="white"/>
<path d="M170.551 61.761V66.285C170.664 66.116 170.763 65.945 171.089 65.676C171.869 65.037 172.749 65.052 172.963 65.052C173.685 65.052 174.209 65.264 174.493 65.449C175.5 66.101 175.571 67.221 175.571 68.952V72.596H173.656V68.824C173.641 68.341 173.641 67.632 173.359 67.165C173.303 67.052 173.203 66.896 172.948 66.753C172.679 66.597 172.38 66.597 172.309 66.597C171.615 66.597 171.175 66.937 170.948 67.292C170.551 67.888 170.565 68.781 170.565 69.377V72.596H168.637V61.761H170.551Z" fill="white"/>
<path d="M182.779 72.596V69.008C182.764 68.128 182.736 67.661 182.524 67.249C182.396 67.009 182.24 66.852 181.971 66.725C181.871 66.681 181.672 66.612 181.403 66.612C181.275 66.597 180.851 66.612 180.439 66.937C179.757 67.461 179.701 68.256 179.688 69.123V72.596H177.745V66.952C177.745 66.299 177.716 65.832 177.688 65.165H179.545V66.313C179.644 66.185 179.715 66.101 179.829 65.973C180.112 65.661 180.439 65.492 180.537 65.435C181.105 65.123 181.559 65.052 182.112 65.052C182.82 65.052 183.275 65.236 183.573 65.42C183.715 65.519 183.956 65.661 184.211 66.044C184.649 66.655 184.664 67.435 184.693 68.795V72.596H182.779Z" fill="white"/>
<path d="M188.74 72.5961H186.811V65.1651H188.74V72.5961ZM188.74 63.8051H186.811V62.0171H188.74V63.8051Z" fill="white"/>
<path d="M192.811 68.172C193.052 67.817 193.237 67.576 193.492 67.251L195.165 65.165H197.391L194.627 68.441L197.747 72.596H195.363L193.733 70.341C193.364 69.831 193.137 69.448 192.811 68.909V72.596H190.897V61.761H192.811V68.172Z" fill="white"/>
<path d="M91.085 0.698608V15.6732H83.3037V0.698608H91.085Z" fill="white" stroke="white"/>
<mask id="mask0_1052_358" style="mask-type:luminance" maskUnits="userSpaceOnUse" x="82" y="0" width="10" height="17">
<path d="M91.29 0.5V15.8789H83.1035V0.5H91.29Z" fill="white" stroke="white"/>
</mask>
<g mask="url(#mask0_1052_358)">
<path fill-rule="evenodd" clip-rule="evenodd" d="M82.8037 0.198608H91.585V16.1733H82.8037V0.198608Z" stroke="white" stroke-width="0.4"/>
</g>
</svg>
