<svg width="202" height="26" viewBox="0 0 202 26" fill="none" xmlns="http://www.w3.org/2000/svg">
<g clip-path="url(#clip0_1052_475)">
<path d="M9.59398 18.872C6.04298 18.246 3.41098 15.042 3.41098 11.263C3.41098 7.48305 6.04298 4.28005 9.59398 3.65405C9.65498 3.64405 9.69898 3.59005 9.69898 3.52705V0.215047C9.69898 0.137047 9.63298 0.0750469 9.55798 0.0850469C7.00798 0.399047 4.65198 1.64305 2.88898 3.61905C1.02698 5.70805 0.000976562 8.42205 0.000976562 11.265C0.000976562 14.107 1.02698 16.821 2.88898 18.91C4.64998 20.885 7.00298 22.128 9.55698 22.444C9.63098 22.453 9.69798 22.391 9.69798 22.314V19.002C9.69798 18.939 9.65298 18.885 9.59298 18.875L9.59398 18.872ZM18.695 0.00104688H13.235C13.166 0.00104688 13.11 0.0590469 13.11 0.131047V12.978C13.11 13.047 13.058 13.105 12.991 13.108H12.98C12.921 13.112 12.866 13.069 12.852 13.009C12.123 9.96005 10.938 8.71105 8.79398 8.71105H7.55098C7.47198 8.71105 7.41198 8.78705 7.42798 8.86805L8.43898 12.664C8.45098 12.724 8.50198 12.768 8.56198 12.768H9.05398C11.919 12.768 13.11 13.809 13.11 16.609V22.254L13.105 22.546C13.089 23.196 13.021 24.793 12.727 25.834C12.703 25.916 12.764 25.999 12.848 25.999H16.783C16.866 25.999 16.927 25.917 16.904 25.834C16.634 24.88 16.555 23.462 16.531 22.729L16.521 22.117V16.602C16.522 13.806 17.715 12.766 20.577 12.766H21.069C21.128 12.766 21.18 12.722 21.192 12.662L22.203 8.86605C22.219 8.78505 22.16 8.70905 22.08 8.70905H20.837C18.693 8.70905 17.508 9.95705 16.779 13.007C16.764 13.067 16.711 13.11 16.652 13.106H16.641C16.574 13.102 16.523 13.046 16.522 12.976V3.67205C16.522 3.60005 16.578 3.54205 16.647 3.54205H18.696C22.842 3.54205 26.217 7.00405 26.22 11.258C26.22 13.321 25.447 15.261 24.043 16.721C22.938 17.87 21.558 18.61 20.037 18.874C19.976 18.884 19.932 18.938 19.932 19.001V22.311C19.932 22.389 19.998 22.451 20.073 22.442C22.477 22.146 24.731 21.015 26.455 19.223C28.504 17.094 29.632 14.264 29.629 11.255C29.626 5.04805 24.721 -0.00195312 18.696 -0.00195312L18.695 -0.000953125V0.00104688ZM66.916 5.23005C62.5 5.23005 59.358 8.58205 59.358 13.314C59.358 18.046 62.5 21.457 66.916 21.457C70.364 21.457 72.965 19.358 73.486 16.525C73.501 16.445 73.44 16.371 73.362 16.371H70.298C70.241 16.371 70.192 16.412 70.177 16.469C69.877 17.607 68.678 18.634 66.917 18.634C64.446 18.634 63.037 16.994 62.797 14.544C62.79 14.467 62.849 14.4 62.923 14.4H73.501C73.57 14.4 73.626 14.342 73.626 14.27V13.136C73.626 8.13905 70.625 5.22805 66.917 5.22805L66.916 5.23005ZM62.932 12.021C62.854 12.021 62.795 11.948 62.808 11.868C63.183 9.66105 64.507 8.19905 66.803 8.19905C68.799 8.19905 70.142 9.72005 70.304 11.881C70.31 11.957 70.251 12.021 70.178 12.021H62.932ZM180.374 8.19805C182.145 8.19805 183.484 9.32205 183.781 10.855C183.793 10.917 183.843 10.96 183.903 10.96H186.964C187.04 10.96 187.101 10.888 187.089 10.808C186.576 7.59305 183.943 5.22705 180.487 5.22705C176.043 5.22705 172.929 8.57905 172.929 13.311C172.929 18.043 176.043 21.454 180.487 21.454C183.971 21.454 186.576 19.118 187.089 15.932C187.101 15.852 187.042 15.78 186.964 15.78H183.904C183.844 15.78 183.793 15.826 183.782 15.888C183.511 17.391 182.198 18.485 180.374 18.485C177.995 18.485 176.297 16.369 176.297 13.312C176.297 10.255 177.995 8.19705 180.374 8.19705V8.19805ZM160.419 16.91V11.233C160.419 7.42905 158.603 5.34905 154.345 5.34905C150.644 5.34905 148.553 7.14805 147.952 9.96805C147.937 10.037 147.981 10.108 148.047 10.124L150.998 10.814C151.065 10.829 151.131 10.786 151.148 10.716C151.544 9.01105 152.538 8.14305 154.219 8.14305C156.286 8.14305 157.068 9.28105 157.068 11.264V12.174C157.068 12.246 157.012 12.304 156.943 12.304H152.528C148.801 12.304 147.206 14.288 147.206 17.018C147.206 20.01 149.053 21.309 151.682 21.309C154.312 21.309 155.894 19.881 156.671 17.51C156.703 17.411 156.792 17.343 156.892 17.343C157.021 17.343 157.126 17.45 157.126 17.585C157.13 18.417 157.354 21.118 160.095 21.118C160.559 21.123 161.085 21.052 161.681 20.896C161.737 20.882 161.776 20.829 161.776 20.77L161.802 18.573C161.802 18.497 161.742 18.437 161.67 18.442C160.646 18.51 160.426 18.072 160.418 16.91H160.419ZM156.912 15.232C156.912 17.15 155.347 18.581 152.998 18.581C151.088 18.581 150.431 17.639 150.431 16.533C150.431 15.265 151.401 14.615 153.093 14.615H156.787C156.856 14.615 156.912 14.673 156.912 14.745V15.232ZM139.55 1.47805H132.129C132.059 1.47805 132.004 1.53605 132.004 1.60805V20.856C132.004 20.928 132.059 20.986 132.129 20.986H135.447C135.516 20.986 135.572 20.928 135.572 20.856V14.68C135.572 14.608 135.627 14.55 135.697 14.55H139.672C144.087 14.55 146.498 11.754 146.498 8.04705C146.498 3.69005 144.212 1.47905 139.547 1.47905L139.55 1.47805ZM139.267 11.492H135.698C135.629 11.492 135.573 11.434 135.573 11.362V4.76305C135.573 4.69105 135.629 4.63305 135.698 4.63305H139.235C142.022 4.63305 142.993 5.70605 142.993 8.08005C142.993 10.453 141.897 11.493 139.266 11.493L139.267 11.492ZM109.33 5.23005C104.93 5.23005 101.8 8.56905 101.8 13.284C101.8 18 104.931 21.396 109.33 21.396C112.764 21.396 115.357 19.306 115.875 16.484C115.89 16.404 115.83 16.33 115.752 16.33H112.7C112.643 16.33 112.593 16.371 112.578 16.428C112.28 17.561 111.085 18.585 109.331 18.585C106.868 18.585 105.466 16.951 105.226 14.512C105.218 14.435 105.278 14.368 105.352 14.368H115.889C115.958 14.368 116.014 14.31 116.014 14.238V13.109C116.014 8.13005 113.024 5.23005 109.33 5.23005ZM105.36 11.995C105.282 11.995 105.223 11.922 105.237 11.842C105.611 9.64205 106.929 8.18705 109.217 8.18705C111.205 8.18705 112.544 9.70305 112.706 11.854C112.712 11.93 112.653 11.994 112.58 11.994H105.362L105.36 11.995ZM100.859 17.871C100.859 17.784 100.779 17.722 100.698 17.746C100.068 17.935 99.472 18.065 98.804 18.065C97.339 18.065 96.782 17.288 96.782 15.798V8.79005C96.782 8.71805 96.838 8.66005 96.907 8.66005H100.733C100.802 8.66005 100.858 8.60205 100.858 8.53005V5.83405C100.858 5.76205 100.802 5.70405 100.733 5.70405H96.907C96.838 5.70405 96.782 5.64605 96.782 5.57405V1.71805C96.782 1.64605 96.726 1.58805 96.657 1.58805H93.568C93.499 1.58805 93.443 1.64605 93.443 1.71805V5.57205C93.443 5.64405 93.387 5.70205 93.318 5.70205H90.427C90.358 5.70205 90.302 5.76005 90.302 5.83205V8.52805C90.302 8.60005 90.358 8.65805 90.427 8.65805H93.318C93.387 8.65805 93.443 8.71605 93.443 8.78805V16.281C93.443 19.13 94.815 21.331 98.025 21.331C99.226 21.331 99.946 21.2 100.767 20.957C100.822 20.942 100.859 20.889 100.859 20.831V17.868V17.871ZM84.237 5.31405C81.798 5.31405 79.939 6.86205 79.105 9.61705C79.084 9.68805 79.022 9.73505 78.95 9.73505C78.86 9.73505 78.788 9.65905 78.788 9.56705V5.83205C78.788 5.76005 78.732 5.70205 78.663 5.70205H75.564C75.495 5.70205 75.439 5.76005 75.439 5.83205V20.852C75.439 20.924 75.495 20.982 75.564 20.982H78.663C78.732 20.982 78.788 20.924 78.788 20.852V12.337C78.788 10.028 80.354 8.46705 82.608 8.46705C84.643 8.46705 85.426 9.83205 85.426 11.686V20.854C85.426 20.926 85.482 20.984 85.551 20.984H88.65C88.719 20.984 88.775 20.926 88.775 20.854V10.776C88.775 7.45905 87.303 5.31305 84.235 5.31305L84.237 5.31405ZM57.536 13.846H54.204C54.145 13.846 54.094 13.891 54.081 13.951L54.001 14.296L53.945 14.488L53.934 14.521C53.264 16.641 51.335 17.977 48.849 17.977C45.276 17.977 42.966 15.253 42.966 11.037C42.966 9.02105 43.556 7.34605 44.675 6.19305C45.717 5.11805 47.176 4.55005 48.893 4.55005H48.949C51.33 4.57405 53.189 5.89705 53.786 7.95405L53.858 8.22705C53.872 8.28605 53.921 8.32905 53.981 8.32905H57.331C57.409 8.32905 57.467 8.25705 57.455 8.17705L57.397 7.84805H57.395C57.021 5.89905 56.091 4.24705 54.684 3.05105C53.161 1.75605 51.194 1.07205 48.997 1.07205C46.282 1.07205 43.831 2.07705 42.095 3.90205C40.358 5.72805 39.402 8.30505 39.402 11.162C39.402 17.221 43.367 21.453 49.045 21.453C51.207 21.453 53.172 20.732 54.725 19.368C55.977 18.269 56.882 16.82 57.388 15.131H57.392C57.5 14.817 57.611 14.267 57.662 14C57.677 13.919 57.618 13.844 57.538 13.844L57.537 13.847L57.536 13.846ZM201.997 16.695C201.997 10.14 192.457 13.432 192.457 9.96405C192.457 8.67105 193.533 7.75905 195.401 7.75905C197.392 7.75905 198.627 8.76905 198.762 10.46C198.767 10.528 198.821 10.581 198.887 10.581H201.833C201.907 10.581 201.965 10.514 201.959 10.438C201.673 7.22905 199.284 5.23005 195.657 5.23005C191.609 5.23005 189.146 7.20005 189.146 10.11C189.146 16.489 198.687 13.138 198.687 16.784C198.687 17.283 198.493 17.737 198.127 18.097C197.914 18.298 197.295 18.762 196.057 18.858C195.779 18.873 195.522 18.866 195.287 18.841C192.456 18.634 192.067 16.445 192.014 15.909C192.008 15.842 191.953 15.791 191.889 15.791H188.867C188.79 15.791 188.732 15.862 188.743 15.94C188.766 16.102 188.807 16.367 188.857 16.573C189.015 17.285 189.343 18.348 189.992 19.17C190.642 20.02 191.597 20.655 192.802 21.039C192.802 21.039 193.782 21.386 195.222 21.453L195.265 21.454C196.124 21.49 197.144 21.424 198.216 21.126L198.36 21.084L198.48 21.049C200.712 20.351 202 18.801 202 16.696L201.997 16.695ZM166.846 5.70305C166.916 5.70305 166.971 5.76105 166.971 5.83305V10.122C166.971 10.207 167.032 10.277 167.112 10.286C167.192 10.295 167.266 10.241 167.285 10.16C168.129 6.58205 169.493 5.54105 171.587 5.54105H172.656C172.739 5.54105 172.8 5.62305 172.778 5.70705L171.795 9.36605C171.78 9.42305 171.73 9.46105 171.673 9.46105H171.306C168.218 9.46105 166.97 10.595 166.97 13.705V20.798C166.97 20.87 166.914 20.928 166.845 20.928H163.759C163.689 20.928 163.633 20.87 163.633 20.798V5.83405C163.633 5.76205 163.689 5.70405 163.759 5.70405L166.846 5.70305ZM121.091 5.70305C121.161 5.70305 121.216 5.76105 121.216 5.83305V10.122C121.216 10.207 121.277 10.277 121.358 10.286C121.437 10.295 121.511 10.241 121.53 10.16C122.374 6.58205 123.738 5.54105 125.832 5.54105H126.902C126.985 5.54105 127.045 5.62305 127.023 5.70705L126.04 9.36605C126.025 9.42305 125.976 9.46105 125.919 9.46105H125.551C122.463 9.46105 121.215 10.595 121.215 13.705V20.798C121.215 20.87 121.16 20.928 121.09 20.928H118.004C117.934 20.928 117.879 20.87 117.879 20.798V5.83405C117.879 5.76205 117.934 5.70405 118.004 5.70405L121.091 5.70305Z" fill="white"/>
</g>
<defs>
<clipPath id="clip0_1052_475">
<rect width="202" height="26" fill="white"/>
</clipPath>
</defs>
</svg>
