<svg width="56" height="68" viewBox="0 0 56 68" fill="none" xmlns="http://www.w3.org/2000/svg">
<path d="M11.983 29.0898C15.0353 29.0898 17.9625 30.3023 20.1208 32.4606C22.2791 34.6189 23.4916 37.5461 23.4916 40.5984V55.6449C23.4916 57.1504 23.1951 58.6414 22.6188 60.0323C22.0426 61.4232 21.1982 62.6872 20.1336 63.7519C19.0691 64.8164 17.8051 65.6609 16.4142 66.2371C15.0233 66.8132 13.5325 67.1097 12.0268 67.1097H0.464844V40.5936C0.465422 39.0819 0.764051 37.5851 1.34317 36.1886C1.92249 34.7923 2.7711 33.5237 3.8408 32.4554C4.9105 31.3872 6.18005 30.5402 7.57712 29.9626C8.97419 29.3852 10.4714 29.0885 11.983 29.0898Z" fill="#5A1CB7"/>
<path d="M0.449219 11.5517C0.449219 17.9078 5.6017 23.0602 11.9578 23.0602C18.3136 23.0602 23.4661 17.9078 23.4661 11.5517C23.4661 5.19564 18.3136 0.0429688 11.9578 0.0429688C5.6017 0.0429688 0.449219 5.19564 0.449219 11.5517Z" fill="#E23393"/>
<path d="M55.3804 67.1097H43.828C40.7874 67.1097 37.8713 65.9019 35.7213 63.7519C33.5713 61.6017 32.3633 58.6856 32.3633 55.6449V40.5984C32.3633 37.5461 33.5759 34.6189 35.734 32.4606C37.8923 30.3023 40.8196 29.0898 43.8718 29.0898C46.9241 29.0898 49.8513 30.3023 52.0096 32.4606C54.1677 34.6189 55.3804 37.5461 55.3804 40.5984V67.1097Z" fill="#5A1CB7"/>
<path d="M55.3802 11.5515C55.3802 5.19545 50.2277 0.0429688 43.8716 0.0429688C37.5158 0.0429688 32.3633 5.19545 32.3633 11.5515C32.3633 17.9076 37.5158 23.0602 43.8716 23.0602C50.2277 23.0602 55.3802 17.9076 55.3802 11.5515Z" fill="#5A1CB7"/>
</svg>
