<svg width="90" height="90" viewBox="0 0 90 90" fill="none" xmlns="http://www.w3.org/2000/svg">
<path d="M43.3701 32.3242L43.1219 32.3267C35.4137 32.46 29.2474 38.8449 29.377 46.5592C29.5116 54.1391 35.7877 60.3054 43.3688 60.3054L43.6108 60.3029C51.3215 60.1659 57.4866 53.7823 57.3545 46.0691C57.2199 38.4893 50.9462 32.3242 43.3701 32.3242Z" fill="black"/>
<path d="M57.7878 87.8596C57.6224 87.8596 57.4582 87.8571 57.2915 87.8497C53.5584 87.7201 50.0994 86.1436 47.5489 83.4104C45.0021 80.676 43.6688 77.1157 43.8034 73.3838C44.0713 65.6435 50.445 59.6093 58.2742 59.8907C62.0061 60.0191 65.4664 61.5968 68.0169 64.3275C70.5661 67.0595 71.8994 70.6222 71.7685 74.3566C71.4969 81.929 65.3578 87.8596 57.7878 87.8596ZM57.7644 63.5609C52.1894 63.5609 47.6711 67.9323 47.4785 73.5122C47.381 76.2639 48.3624 78.8872 50.2388 80.9007C52.1177 82.9166 54.667 84.0758 57.4187 84.1721C57.5434 84.1771 57.6644 84.1795 57.7866 84.1795C63.3665 84.1795 67.8922 79.8082 68.0897 74.2257C68.186 71.4753 67.2046 68.8495 65.3257 66.8373C63.4468 64.825 60.8951 63.6646 58.1434 63.5683C58.015 63.5634 57.8903 63.5609 57.7644 63.5609ZM25.8883 87.0522C20.5948 87.0522 15.816 84.1227 13.4162 79.4119C11.7163 76.0849 11.4188 72.295 12.573 68.7384C13.7273 65.1855 16.1963 62.2931 19.527 60.5993C21.4861 59.5994 23.6798 59.0723 25.8673 59.0723C31.1609 59.0723 35.9409 61.998 38.3481 66.7113C40.0443 70.042 40.3418 73.8319 39.1864 77.3848C38.0309 80.9377 35.5594 83.8302 32.2275 85.5251C30.2683 86.5251 28.0759 87.0522 25.8883 87.0522ZM25.8686 62.7511C24.2366 62.7511 22.665 63.1288 21.1972 63.8745C18.7443 65.125 16.9234 67.257 16.0741 69.8754C15.2223 72.495 15.4432 75.2862 16.695 77.7379C18.4653 81.213 21.9885 83.3709 25.8896 83.3709C27.5216 83.3709 29.0931 82.9932 30.5597 82.2475C33.0151 80.997 34.8372 78.8662 35.689 76.2466C36.5396 73.627 36.3211 70.8358 35.0718 68.3816C33.2978 64.9077 29.7721 62.7511 25.8686 62.7511ZM73.9227 60.2845C71.3945 60.2845 68.9106 59.5932 66.7342 58.2883C60.1222 54.3108 57.9767 45.6989 61.9518 39.0882C64.4665 34.902 69.0662 32.3009 73.9536 32.3009C76.4831 32.3009 78.9694 32.9934 81.147 34.3008C87.7578 38.2796 89.9046 46.8914 85.932 53.4985C83.4148 57.6847 78.8126 60.2845 73.9227 60.2845ZM73.9536 35.9809C70.2946 35.9809 66.9861 37.8512 65.1035 40.9831C62.1752 45.8569 63.7566 52.206 68.6292 55.1367C70.2328 56.0983 72.0623 56.6057 73.9227 56.6057C77.5842 56.6057 80.8927 54.7355 82.7778 51.6023C85.706 46.7334 84.1247 40.3869 79.2533 37.4549C77.6472 36.4908 75.8152 35.9809 73.9536 35.9809ZM25.8426 33.8033C18.2628 33.8033 11.9916 27.6369 11.8657 20.0571C11.7978 16.3227 13.1915 12.7834 15.7852 10.0959C18.3813 7.40718 21.8688 5.89121 25.6044 5.82826L25.8513 5.82579C33.4311 5.82579 39.7036 11.9921 39.8345 19.5719C39.8987 23.3075 38.5062 26.8456 35.91 29.5331C33.3138 32.2194 29.8264 33.7354 26.092 33.8008L25.8426 33.8033ZM25.8513 9.50583L25.6674 9.50707C22.9157 9.55398 20.3442 10.67 18.4344 12.6513C16.5209 14.6315 15.4951 17.2387 15.5444 19.9929C15.6383 25.5803 20.259 30.1245 25.8439 30.1245L26.0291 30.1232C28.782 30.0751 31.3522 28.9591 33.2633 26.979C35.178 24.9988 36.2038 22.3915 36.1557 19.6374C36.0581 14.05 31.4362 9.50583 25.8513 9.50583ZM57.7138 32.8391C52.7264 32.8391 48.0785 30.159 45.586 25.8432C41.7307 19.1633 44.0268 10.591 50.708 6.73191C52.8325 5.50358 55.2484 4.85547 57.689 4.85547C62.6777 4.85547 67.3243 7.53804 69.8155 11.8563C71.6846 15.0895 72.1809 18.8584 71.213 22.4693C70.2464 26.0778 67.9317 29.0949 64.6936 30.9639C62.5703 32.191 60.1556 32.8391 57.7138 32.8391ZM57.6903 8.53428C55.8941 8.53428 54.1152 9.01327 52.5498 9.91815C47.6242 12.7624 45.9317 19.0806 48.7735 24.0038C50.6092 27.1851 54.0362 29.1615 57.7138 29.1615C59.5112 29.1615 61.2888 28.6826 62.8554 27.7789C65.2405 26.4012 66.9478 24.1779 67.6613 21.5175C68.3736 18.8584 68.007 16.0808 66.6305 13.6982C64.7936 10.5119 61.3679 8.53428 57.6903 8.53428Z" fill="black"/>
</svg>
