<svg width="120" height="24" viewBox="0 0 120 24" fill="none" xmlns="http://www.w3.org/2000/svg">
<g clip-path="url(#clip0_1126_1971)">
<path d="M46.5156 12.0101V0.414062H50.9582C53.1304 0.414062 54.5187 1.91665 54.5187 3.84388C54.5187 5.39547 53.6693 6.37542 52.1341 6.8654L56.2989 12.0101H53.4406L49.4719 7.12671H48.8839V12.0101H46.5156ZM48.8839 5.10149H50.6804C51.5624 5.10149 52.1667 4.62784 52.1667 3.84388C52.1667 3.0436 51.5624 2.58629 50.6804 2.58629H48.8839V5.10149Z" fill="#37B971"/>
<path d="M55.7422 7.93075C55.7422 5.51353 57.5552 3.66797 60.0378 3.66797C62.1772 3.66797 64.0555 5.0399 64.0555 7.68577C64.0555 7.88175 64.0554 8.1104 64.0228 8.4534H57.9146C58.0452 9.54767 59.0087 10.152 60.0868 10.152C61.0994 10.152 61.8344 9.67834 62.1937 9.12303L63.8596 10.3643C63.1083 11.4586 61.7852 12.1935 60.0704 12.1935C57.6368 12.1935 55.7422 10.5113 55.7422 7.93075ZM59.9724 5.51353C59.1394 5.51353 58.2085 5.93819 57.9961 6.93447H61.8181C61.622 5.97086 60.8055 5.51353 59.9724 5.51353Z" fill="#37B971"/>
<path d="M72.9255 9.84166C72.2231 11.2463 70.7531 12.1935 69.0546 12.1935C66.6374 12.1935 64.7266 10.397 64.7266 7.93075C64.7266 5.46456 66.6374 3.66797 69.0546 3.66797C70.7531 3.66797 72.2231 4.61525 72.9255 6.01986L70.9818 7.06512C70.6553 6.31384 69.9529 5.75853 69.0546 5.75853C67.8787 5.75853 66.9805 6.67314 66.9805 7.93075C66.9805 9.18836 67.8787 10.103 69.0546 10.103C69.9529 10.103 70.6553 9.54766 70.9818 8.79638L72.9255 9.84166Z" fill="#37B971"/>
<path d="M73.9062 12.0221V3.85581H76.1436V5.1624C76.4215 4.36212 77.2543 3.75781 78.1691 3.75781C78.3976 3.75781 78.6426 3.77414 78.9202 3.85581V6.12603C78.5773 6.0117 78.2669 5.94638 77.9076 5.94638C76.846 5.94638 76.1436 6.77933 76.1436 8.1186V12.0221H73.9062Z" fill="#37B971"/>
<path d="M87.3931 3.85156V12.0178H85.1557V11.3645C84.6329 11.9035 83.8327 12.1975 83.1468 12.1975C81.0561 12.1975 79.8477 10.7602 79.8477 8.588V3.85156H82.085V8.21234C82.085 9.37195 82.5587 10.1559 83.6203 10.1559C84.192 10.1559 84.7964 9.79658 85.1557 9.22495V3.85156H87.3931Z" fill="#37B971"/>
<path d="M91.4833 1.42093C91.4833 2.20489 90.8463 2.84185 90.0459 2.84185C89.2783 2.84185 88.625 2.20489 88.625 1.42093C88.625 0.636967 89.2783 0 90.0459 0C90.8463 0 91.4833 0.636967 91.4833 1.42093ZM88.9354 12.0207V3.85448H91.1728V12.0207H88.9354Z" fill="#37B971"/>
<path d="M99.0068 11.6428C98.6149 11.8551 97.7329 12.1165 96.9001 12.1165C95.0707 12.1165 93.7316 11.1528 93.7316 9.16027V5.89379H92.082V3.85222H93.7316V1.40234H95.969V3.85222H98.4353V5.89379H95.969V8.71931C95.969 9.71559 96.3938 10.0912 97.2103 10.0912C97.6514 10.0912 98.0923 9.94425 98.3373 9.81357L99.0068 11.6428Z" fill="#37B971"/>
<path d="M98.7031 7.93075C98.7031 5.51353 100.516 3.66797 102.999 3.66797C105.138 3.66797 107.016 5.0399 107.016 7.68577C107.016 7.88175 107.016 8.1104 106.984 8.4534H100.875C101.006 9.54767 101.97 10.152 103.048 10.152C104.06 10.152 104.795 9.67834 105.154 9.12303L106.82 10.3643C106.069 11.4586 104.746 12.1935 103.031 12.1935C100.598 12.1935 98.7031 10.5113 98.7031 7.93075ZM102.933 5.51353C102.1 5.51353 101.169 5.93819 100.957 6.93447H104.779C104.583 5.97086 103.766 5.51353 102.933 5.51353Z" fill="#37B971"/>
<path d="M108.125 12.0221V3.85581H110.363V5.1624C110.64 4.36212 111.473 3.75781 112.388 3.75781C112.616 3.75781 112.861 3.77414 113.139 3.85581V6.12603C112.796 6.0117 112.486 5.94638 112.127 5.94638C111.065 5.94638 110.363 6.77933 110.363 8.1186V12.0221H108.125Z" fill="#37B971"/>
<path d="M119.937 9.53132C119.937 11.1156 118.581 12.1935 116.833 12.1935C115.396 12.1935 114.171 11.6872 113.469 10.6256L115.004 9.31899C115.363 9.92329 116.049 10.2663 116.833 10.2663C117.291 10.2663 117.732 10.0866 117.732 9.67832C117.732 9.33534 117.536 9.13934 116.637 8.89436L116.033 8.74736C114.53 8.35538 113.747 7.39177 113.779 6.13416C113.812 4.63158 115.119 3.66797 116.85 3.66797C118.091 3.66797 119.055 4.1416 119.675 5.03988L118.205 6.23216C117.83 5.75851 117.356 5.51353 116.817 5.51353C116.425 5.51353 116 5.69319 116 6.06884C116 6.31382 116.115 6.59147 116.801 6.77114L117.568 6.99979C119.038 7.39177 119.937 8.1104 119.937 9.53132Z" fill="#37B971"/>
<path d="M0 10.1326L1.82924 8.61365C2.40087 9.47928 3.38083 9.98558 4.32811 9.98558C5.25907 9.98558 5.89602 9.52828 5.89602 8.85863C5.89602 8.20535 5.40607 7.74804 4.26278 7.35604L3.28283 7.01306C1.42093 6.35976 0.424646 5.28182 0.424646 3.69756C0.424646 1.50902 2.09056 0.21875 4.34443 0.21875C5.76537 0.21875 7.00663 0.708724 8.01926 1.81933L6.435 3.43626C5.89602 2.76663 5.16107 2.43998 4.37711 2.43998C3.57683 2.43998 2.82552 2.78295 2.82552 3.46891C2.82552 4.17122 3.38083 4.48154 4.60576 4.92252L5.53672 5.2655C7.2353 5.88613 8.31324 6.96406 8.29691 8.71165C8.28057 10.7859 6.631 12.2068 4.24646 12.2068C2.40087 12.2068 0.832957 11.4065 0 10.1326Z" fill="#11314A"/>
<path d="M19.5981 12.0139V7.70208C19.5981 6.57514 19.2224 5.72586 18.1935 5.72586C17.5239 5.72586 16.9359 6.10149 16.6255 6.68947C16.6745 6.91812 16.6909 7.08145 16.6909 7.3101V12.0139H14.4533V7.70208C14.4533 6.57514 14.0777 5.72586 13.0487 5.72586C12.4118 5.72586 11.8238 6.08516 11.5462 6.59147V12.0139H9.30859V3.84762H11.5462V4.48458C11.9708 3.9946 12.7874 3.66797 13.5387 3.66797C14.5023 3.66797 15.2863 4.07627 15.8416 4.7459C16.3479 4.15793 17.2789 3.66797 18.5038 3.66797C20.8067 3.66797 21.8356 5.28488 21.8356 7.3101V12.0139H19.5981Z" fill="#11314A"/>
<path d="M22.668 7.93073C22.668 5.61153 24.3338 3.66797 26.506 3.66797C27.633 3.66797 28.4986 4.2396 28.858 4.76223V3.84762H31.0956V12.0139H28.858V11.0993C28.4986 11.6219 27.633 12.1935 26.506 12.1935C24.3338 12.1935 22.668 10.2499 22.668 7.93073ZM29.0375 7.93073C29.0375 6.65679 28.2047 5.70951 26.9797 5.70951C25.7547 5.70951 24.9219 6.65679 24.9219 7.93073C24.9219 9.20466 25.7547 10.1519 26.9797 10.1519C28.2047 10.1519 29.0375 9.20466 29.0375 7.93073Z" fill="#11314A"/>
<path d="M32.5039 12.0221V3.85581H34.7415V5.1624C35.0191 4.36212 35.8522 3.75781 36.7667 3.75781C36.9954 3.75781 37.2404 3.77414 37.518 3.85581V6.12603C37.175 6.0117 36.8648 5.94636 36.5054 5.94636C35.4437 5.94636 34.7415 6.77933 34.7415 8.1186V12.0221H32.5039Z" fill="#11314A"/>
<path d="M45.1945 11.6428C44.8026 11.8551 43.9206 12.1165 43.0876 12.1165C41.2584 12.1165 39.9191 11.1528 39.9191 9.16028V5.97544H38.2695V3.85222H39.9191V1.40234H42.1567V3.85222H44.623V5.97544H42.1567V8.7193C42.1567 9.71559 42.5813 10.0912 43.398 10.0912C43.8389 10.0912 44.28 9.94424 44.525 9.81359L45.1945 11.6428Z" fill="#11314A"/>
<path d="M0.101562 21.2588L2.55575 15.638H3.36325L5.81745 21.2588H4.8516L4.21034 19.7863H1.69282L1.05949 21.2588H0.101562ZM2.95158 16.8888L2.04908 18.963H3.8541L2.95158 16.8888ZM6.24073 21.2588V17.3005H7.11158V17.7201C7.38075 17.3876 7.76866 17.2213 8.27534 17.2213C8.74506 17.2213 9.11977 17.3744 9.39951 17.6805C9.68451 17.9813 9.82701 18.3851 9.82701 18.8917V21.2588H8.95616V19.0342C8.95616 18.7123 8.87964 18.4616 8.72658 18.2821C8.57882 18.1027 8.36506 18.013 8.08534 18.013C7.62088 18.013 7.29629 18.2214 7.11158 18.6384V21.2588H6.24073ZM14.0791 21.3538C13.6305 21.3538 13.2241 21.2615 12.8599 21.0768C12.501 20.892 12.2371 20.6466 12.0683 20.3405L12.7966 19.7626C13.108 20.2429 13.5434 20.483 14.1028 20.483C14.372 20.483 14.591 20.4197 14.7599 20.293C14.9288 20.1663 15.0133 19.9974 15.0133 19.7863C15.0133 19.4116 14.7467 19.1266 14.2137 18.9313L13.5962 18.7096C13.1476 18.546 12.8151 18.3376 12.5987 18.0842C12.3823 17.8256 12.2741 17.5063 12.2741 17.1263C12.2741 16.646 12.443 16.2634 12.7808 15.9784C13.1238 15.6881 13.5619 15.543 14.0949 15.543C14.8074 15.543 15.3748 15.7989 15.797 16.3109L15.1558 16.9363C14.8708 16.588 14.5171 16.4138 14.0949 16.4138C13.8469 16.4138 13.6358 16.4719 13.4616 16.588C13.2927 16.7041 13.2083 16.8624 13.2083 17.063C13.2083 17.2583 13.2716 17.4139 13.3983 17.5301C13.5302 17.6462 13.7519 17.7596 14.0633 17.8705L14.6333 18.0842C15.5147 18.4167 15.9554 18.9656 15.9554 19.7309C15.9554 20.2165 15.7812 20.6097 15.4329 20.9105C15.0845 21.2061 14.6333 21.3538 14.0791 21.3538ZM15.986 21.2588L18.4402 15.638H19.2477L21.7019 21.2588H20.7361L20.0948 19.7863H17.5773L16.9439 21.2588H15.986ZM18.8361 16.8888L17.9336 18.963H19.7386L18.8361 16.8888ZM25.4186 16.1684C25.7827 16.5167 25.9649 16.9521 25.9649 17.4746C25.9649 17.9971 25.7827 18.4352 25.4186 18.7888C25.0544 19.1372 24.5873 19.3113 24.0173 19.3113H23.1544V21.2588H22.2281V15.638H24.0173C24.5873 15.638 25.0544 15.8148 25.4186 16.1684ZM24.7694 18.1713C24.9594 17.9866 25.0544 17.7544 25.0544 17.4746C25.0544 17.1949 24.9594 16.9653 24.7694 16.7859C24.5847 16.6012 24.3314 16.5088 24.0094 16.5088H23.1544V18.4405H24.0094C24.3314 18.4405 24.5847 18.3508 24.7694 18.1713ZM29.8044 21.338C29.2079 21.338 28.7092 21.1427 28.3081 20.7522C27.9123 20.3563 27.7144 19.8655 27.7144 19.2797C27.7144 18.6938 27.9123 18.2056 28.3081 17.8151C28.7092 17.4192 29.2079 17.2213 29.8044 17.2213C30.2108 17.2213 30.5749 17.3189 30.8968 17.5142C31.224 17.7095 31.4749 17.976 31.649 18.3138L30.889 18.7255C30.7886 18.5144 30.6436 18.3455 30.4536 18.2188C30.2636 18.0921 30.0471 18.0288 29.8044 18.0288C29.456 18.0288 29.1684 18.1502 28.9414 18.393C28.7144 18.6305 28.601 18.926 28.601 19.2797C28.601 19.6333 28.7144 19.9315 28.9414 20.1743C29.1684 20.4118 29.456 20.5305 29.8044 20.5305C30.0471 20.5305 30.2636 20.4672 30.4536 20.3405C30.6436 20.2138 30.7886 20.0449 30.889 19.8338L31.649 20.2455C31.4749 20.5833 31.224 20.8498 30.8968 21.0451C30.5749 21.2404 30.2108 21.338 29.8044 21.338ZM35.5086 20.7443C35.1127 21.1401 34.6218 21.338 34.036 21.338C33.4501 21.338 32.9566 21.1401 32.5555 20.7443C32.1597 20.3431 31.9618 19.8549 31.9618 19.2797C31.9618 18.7044 32.1597 18.2188 32.5555 17.823C32.9566 17.4219 33.4501 17.2213 34.036 17.2213C34.6218 17.2213 35.1127 17.4219 35.5086 17.823C35.9097 18.2188 36.1103 18.7044 36.1103 19.2797C36.1103 19.8549 35.9097 20.3431 35.5086 20.7443ZM34.036 20.5305C34.379 20.5305 34.6614 20.4118 34.8831 20.1743C35.1101 19.9315 35.2236 19.6333 35.2236 19.2797C35.2236 18.926 35.1101 18.6305 34.8831 18.393C34.6614 18.1502 34.379 18.0288 34.036 18.0288C33.6877 18.0288 33.4001 18.1502 33.1731 18.393C32.9514 18.6305 32.8405 18.926 32.8405 19.2797C32.8405 19.6333 32.9514 19.9315 33.1731 20.1743C33.4001 20.4118 33.6877 20.5305 34.036 20.5305ZM41.8312 21.2588V19.0501C41.8312 18.7281 41.7651 18.4774 41.6331 18.298C41.5012 18.1133 41.3034 18.0209 41.0394 18.0209C40.8388 18.0209 40.6621 18.0789 40.509 18.1951C40.356 18.3059 40.2399 18.4563 40.1608 18.6463C40.1764 18.7308 40.1844 18.8152 40.1844 18.8997V21.2588H39.3136V19.0501C39.3136 18.7281 39.2449 18.4774 39.1077 18.298C38.9758 18.1133 38.7779 18.0209 38.514 18.0209C38.324 18.0209 38.1525 18.071 37.9995 18.1713C37.8464 18.2716 37.7329 18.4088 37.659 18.583V21.2588H36.7881V17.3005H37.659V17.6726C37.8964 17.3717 38.2475 17.2213 38.7118 17.2213C39.1975 17.2213 39.5775 17.4166 39.8518 17.8071C40.1368 17.4166 40.5723 17.2213 41.1581 17.2213C41.649 17.2213 42.029 17.377 42.2981 17.6884C42.5673 17.9945 42.7018 18.3983 42.7018 18.8997V21.2588H41.8312ZM43.6179 22.7946V17.3005H44.4888V17.6646C44.7738 17.3691 45.159 17.2213 45.6444 17.2213C46.2199 17.2213 46.6923 17.4219 47.0616 17.823C47.4364 18.2241 47.6238 18.7096 47.6238 19.2797C47.6238 19.8497 47.4364 20.3352 47.0616 20.7363C46.6923 21.1374 46.2199 21.338 45.6444 21.338C45.159 21.338 44.7738 21.1876 44.4888 20.8868V22.7946H43.6179ZM45.5494 20.5463C45.8927 20.5463 46.1749 20.4249 46.3966 20.1822C46.6184 19.9341 46.7292 19.6333 46.7292 19.2797C46.7292 18.926 46.6184 18.6278 46.3966 18.3851C46.1749 18.137 45.8927 18.013 45.5494 18.013C45.0958 18.013 44.7421 18.1951 44.4888 18.5592V19.9922C44.7368 20.3616 45.0903 20.5463 45.5494 20.5463ZM50.0158 21.338C49.4403 21.338 48.9681 21.1374 48.5986 20.7363C48.2292 20.3352 48.0445 19.8497 48.0445 19.2797C48.0445 18.7096 48.2292 18.2241 48.5986 17.823C48.9681 17.4219 49.4403 17.2213 50.0158 17.2213C50.5012 17.2213 50.8866 17.3691 51.1716 17.6646V17.3005H52.0423V21.2588H51.1716V20.8868C50.8866 21.1876 50.5012 21.338 50.0158 21.338ZM50.1186 20.5463C50.5725 20.5463 50.9236 20.3616 51.1716 19.9922V18.5592C50.9181 18.1951 50.5673 18.013 50.1186 18.013C49.7755 18.013 49.4931 18.137 49.2716 18.3851C49.0499 18.6278 48.939 18.926 48.939 19.2797C48.939 19.6333 49.0499 19.9341 49.2716 20.1822C49.4931 20.4249 49.7755 20.5463 50.1186 20.5463ZM53.0251 21.2588V17.3005H53.896V17.7201C54.1651 17.3876 54.5531 17.2213 55.0597 17.2213C55.5295 17.2213 55.9042 17.3744 56.184 17.6805C56.469 17.9813 56.6114 18.3851 56.6114 18.8917V21.2588H55.7405V19.0342C55.7405 18.7123 55.664 18.4616 55.511 18.2821C55.3631 18.1027 55.1494 18.013 54.8697 18.013C54.4053 18.013 54.0808 18.2214 53.896 18.6384V21.2588H53.0251ZM58.7495 22.7946H57.7914L58.5831 21.0451L56.881 17.3005H57.839L59.0503 20.103L60.2695 17.3005H61.2353L58.7495 22.7946Z" fill="#11314A"/>
</g>
<defs>
<clipPath id="clip0_1126_1971">
<rect width="120" height="23.4783" fill="white"/>
</clipPath>
</defs>
</svg>
