<svg width="120" height="41" viewBox="0 0 120 41" fill="none" xmlns="http://www.w3.org/2000/svg">
<g clip-path="url(#clip0_1126_1954)">
<path d="M48.7146 30.7977C48.7146 30.6513 48.7634 30.5049 48.7634 30.3585C48.7634 29.8704 48.7634 29.3824 48.7634 28.8456C48.7634 28.6016 48.7634 28.4064 48.7146 28.1624C48.7146 27.9672 48.7146 27.772 48.7146 27.5768C48.5194 23.868 47.9338 20.3056 46.9578 16.8896C46.909 16.792 46.909 16.6944 46.8602 16.6456C46.8114 16.4016 46.7138 16.1576 46.665 15.9624C46.5674 15.7184 46.5186 15.4744 46.421 15.2304C46.3234 14.9863 46.2746 14.7911 46.177 14.5471C46.0794 14.3031 45.9818 14.0591 45.8842 13.8151C45.7866 13.5711 45.7378 13.3759 45.6402 13.1319C45.5426 12.8879 45.445 12.6439 45.3474 12.3511C45.2498 12.1559 45.1522 11.9119 45.1034 11.7167C45.0058 11.4727 44.8594 11.1799 44.7618 10.9359C44.6642 10.7407 44.5666 10.5455 44.469 10.3503C44.3226 10.0575 44.225 9.81351 44.0786 9.52071C43.981 9.32551 43.8834 9.13031 43.7857 8.98391C43.6393 8.69111 43.4441 8.34951 43.2977 8.0567C43.2001 7.9103 43.1513 7.7639 43.0537 7.6175C42.8097 7.1783 42.5657 6.69029 42.2729 6.25109C41.7849 5.51909 41.2481 5.07988 40.5161 4.88468C40.4673 4.88468 40.4185 4.88468 40.3697 4.83588C40.1745 4.78708 39.9305 4.73828 39.6865 4.73828C39.1985 4.73828 38.7105 4.73828 38.1737 4.73828C37.9297 4.73828 37.6857 4.73828 37.4417 4.78708C37.2465 4.78708 37.0513 4.78708 36.9049 4.78708C33.1961 4.98228 29.6337 5.56789 26.2176 6.54389C26.12 6.54389 26.0712 6.59269 25.9736 6.64149C25.7296 6.73909 25.4368 6.7879 25.1928 6.8855C24.9488 6.9343 24.7536 7.0319 24.5096 7.0807C24.2656 7.1783 24.0216 7.2271 23.7776 7.3247C23.5336 7.4223 23.3384 7.4711 23.0944 7.5687C22.8504 7.6663 22.6064 7.7639 22.3624 7.8615C22.1184 7.9591 21.8744 8.0567 21.6792 8.1543C21.4352 8.2519 21.1912 8.3495 20.996 8.44711C20.752 8.54471 20.508 8.64231 20.264 8.73991C20.02 8.83751 19.8248 8.93511 19.5808 9.03271C19.3368 9.13031 19.0928 9.27671 18.8488 9.37431C18.6536 9.47191 18.4096 9.56951 18.2144 9.66711C17.9216 9.81351 17.6776 9.95992 17.3848 10.1063C17.1896 10.2039 16.9944 10.3015 16.7992 10.3991C16.4088 10.5943 16.0184 10.8383 15.5792 11.0823C15.5304 11.1311 15.4816 11.1311 15.4328 11.1799C14.7984 11.5703 14.408 12.0583 14.164 12.5951C14.164 12.6439 14.164 12.6927 14.164 12.6927C14.1152 12.7903 14.1152 12.8391 14.0664 12.9367C14.0175 13.1807 13.9688 13.4247 13.9688 13.6687C13.9688 13.7175 13.9688 13.7175 13.9688 13.7175C13.9688 17.2312 14.2616 20.5496 14.9448 23.8192C15.7744 27.772 17.092 31.5297 18.9952 35.2873C19.4344 36.1657 19.9224 37.0441 20.4104 37.9225C20.8008 38.5569 21.24 38.9473 21.7768 39.1913C22.1184 39.3377 22.5576 39.4353 22.9968 39.4353C23.2896 39.4353 23.5336 39.4353 23.8264 39.4353C32.3177 39.3377 39.7841 37.2881 47.2018 32.9449C48.129 32.4569 48.5682 31.7737 48.7146 30.7977Z" fill="white"/>
<path d="M119.119 18.2005C119.119 18.0053 119.119 17.8101 119.119 17.6149C119.119 17.4197 119.07 17.2733 119.07 17.1269C118.973 17.0781 118.826 17.0781 118.68 17.0781C118.485 17.0781 118.338 17.0781 118.192 17.0781C117.509 17.0781 116.923 17.2733 116.484 17.6149C116.045 17.9565 115.654 18.3469 115.313 18.7861C115.313 18.6885 115.264 18.5421 115.264 18.3957C115.264 18.2493 115.215 18.1029 115.166 17.9565C115.118 17.8101 115.118 17.6637 115.069 17.5173C115.02 17.3709 114.971 17.2733 114.971 17.2245C114.776 17.1757 114.581 17.1269 114.386 17.1269C114.19 17.0781 113.946 17.0781 113.751 17.0781C113.507 17.0781 113.312 17.0781 113.117 17.1269C112.922 17.1269 112.726 17.1757 112.531 17.2245V28.3022C112.824 28.351 113.068 28.351 113.312 28.3998C113.556 28.3998 113.8 28.3998 114.044 28.3998C114.288 28.3998 114.532 28.3998 114.776 28.3998C115.02 28.3998 115.313 28.351 115.557 28.3022V22.983C115.557 22.2022 115.654 21.6166 115.801 21.1774C115.996 20.7382 116.191 20.4453 116.484 20.2013C116.777 20.0061 117.021 19.8597 117.362 19.8109C117.655 19.7621 117.948 19.7133 118.192 19.7133H118.534C118.729 19.7133 118.924 19.7133 119.07 19.7621C119.119 19.5181 119.168 19.2253 119.168 18.9325C119.119 18.6885 119.119 18.4445 119.119 18.2005Z" fill="#B61F29"/>
<path d="M109.897 22.204C109.897 21.472 109.799 20.7888 109.555 20.1056C109.36 19.4712 109.018 18.8856 108.579 18.4464C108.14 17.9584 107.652 17.6168 107.066 17.324C106.48 17.0312 105.797 16.9336 105.016 16.9336C104.138 16.9336 103.357 17.08 102.674 17.3728C101.991 17.6656 101.454 18.1048 101.015 18.6416C100.576 19.1784 100.234 19.8128 99.99 20.496C99.746 21.228 99.6484 21.96 99.6484 22.7896C99.6484 23.6192 99.746 24.4 99.99 25.0832C100.234 25.7665 100.576 26.4009 101.015 26.8889C101.503 27.3769 102.088 27.7673 102.82 28.0601C103.552 28.3529 104.431 28.4993 105.456 28.4993C106.871 28.4993 108.091 28.3041 109.213 27.8649C109.213 27.4257 109.116 26.9865 109.018 26.5961C108.92 26.2057 108.774 25.8641 108.628 25.5713C108.188 25.7665 107.7 25.8641 107.164 25.9617C106.676 26.0593 106.139 26.1081 105.7 26.1081C104.821 26.1081 104.089 25.9129 103.552 25.5225C103.016 25.132 102.723 24.4976 102.674 23.668H109.799C109.848 23.5216 109.848 23.2776 109.897 23.0336C109.897 22.7408 109.897 22.448 109.897 22.204ZM107.066 21.5208H102.723C102.772 20.7888 103.016 20.252 103.406 19.8128C103.796 19.4224 104.333 19.2272 105.016 19.2272C105.651 19.2272 106.139 19.4224 106.48 19.8616C106.822 20.252 107.017 20.8376 107.066 21.5208Z" fill="#B61F29"/>
<path d="M98.3375 27.8143C98.3375 27.7167 98.3375 27.5703 98.3375 27.4239C98.3375 27.1799 98.3375 26.9359 98.2887 26.6431C98.2399 26.3503 98.1911 26.0575 98.0935 25.8135C97.9471 25.8623 97.7519 25.8623 97.5567 25.9111C97.3615 25.9599 97.1175 25.9599 96.9223 25.9599C96.6295 25.9599 96.4343 25.9111 96.2391 25.8623C96.0439 25.8135 95.8487 25.7159 95.7511 25.5207C95.6047 25.3743 95.5071 25.1303 95.4583 24.8863C95.4095 24.5935 95.3607 24.2519 95.3607 23.8127V19.4695H97.9471C97.9959 19.2255 97.9959 19.0303 98.0447 18.8351C98.0447 18.6399 98.0447 18.4447 98.0447 18.2495C98.0447 18.0543 98.0447 17.9079 98.0447 17.7127C98.0447 17.5663 97.9959 17.3711 97.9471 17.1271H95.3607V13.9062H94.8727L90.7734 19.0303L90.871 19.4695H92.2374V24.4959C92.2374 25.8623 92.5791 26.8383 93.2623 27.4727C93.9455 28.0583 94.9215 28.3999 96.2391 28.3999C96.9223 28.3999 97.6055 28.3023 98.2887 28.1559C98.2887 28.0095 98.3375 27.9119 98.3375 27.8143Z" fill="#B61F29"/>
<path d="M89.2513 26.2037C89.4953 25.7645 89.5929 25.2765 89.5929 24.7397C89.5929 24.2029 89.5441 23.8125 89.3977 23.4221C89.2513 23.0805 89.1049 22.7877 88.8609 22.5437C88.6169 22.2996 88.3729 22.1044 88.0313 21.9092C87.6897 21.7628 87.3481 21.6164 86.9577 21.47L85.7377 21.1284C85.3961 21.0308 85.1033 20.8844 84.9081 20.7868C84.7129 20.6404 84.6153 20.4452 84.6153 20.1036C84.6153 19.762 84.7617 19.518 85.0057 19.3716C85.2985 19.2252 85.6401 19.1276 86.1281 19.1276C86.5673 19.1276 87.0065 19.1764 87.4457 19.274C87.8361 19.3716 88.2265 19.518 88.5681 19.6644C88.7145 19.3716 88.8609 19.03 88.9585 18.6396C89.0561 18.2492 89.1537 17.8588 89.1537 17.4684C88.6169 17.2732 88.0313 17.1268 87.4945 17.0292C86.9577 16.9316 86.4209 16.8828 85.8353 16.8828C84.5177 16.8828 83.4441 17.1756 82.6633 17.81C81.8825 18.4444 81.4921 19.274 81.4921 20.3476C81.4921 21.226 81.7361 21.9092 82.1753 22.3484C82.6145 22.7877 83.2489 23.1293 84.0297 23.3733L85.3473 23.7637C85.7377 23.8613 86.0305 24.0077 86.2257 24.1541C86.4209 24.3005 86.5185 24.5445 86.5185 24.8861C86.5185 25.1301 86.4697 25.3253 86.3233 25.4717C86.1769 25.6181 86.0305 25.7645 85.8353 25.8133C85.6401 25.9109 85.3961 25.9597 85.2009 26.0085C84.9569 26.0573 84.7617 26.0573 84.5665 26.0573C84.1273 26.0573 83.6881 26.0085 83.2489 25.9109C82.8097 25.8133 82.3705 25.6669 81.9313 25.4717C81.7361 25.8621 81.6385 26.2037 81.4921 26.5941C81.3945 26.9845 81.2969 27.3749 81.2969 27.7653C81.5897 27.8629 81.8825 27.9605 82.1265 28.0581C82.3705 28.1069 82.6633 28.2045 82.9073 28.2533C83.1513 28.3021 83.4441 28.3509 83.7369 28.3509C84.0297 28.3509 84.3225 28.3997 84.6641 28.3997C85.3961 28.3997 86.0793 28.3021 86.7137 28.1069C87.2993 27.9117 87.8361 27.6677 88.2265 27.3261C88.6657 27.0821 89.0073 26.6429 89.2513 26.2037Z" fill="#B61F29"/>
<path d="M77.1049 28.2533C77.8369 28.1069 78.4713 27.9605 78.9105 27.8141V17.1757C78.3737 17.0781 77.8857 17.0293 77.3977 17.0293C76.9097 17.0293 76.4217 17.0781 75.8849 17.1757V25.8133C75.5433 25.9109 75.1041 25.9597 74.5673 25.9597C74.1769 25.9597 73.8352 25.9109 73.5424 25.8133C73.2496 25.7157 73.0056 25.5693 72.8104 25.3253C72.6152 25.0813 72.4688 24.7885 72.3712 24.4469C72.2736 24.0565 72.2248 23.5685 72.2248 22.9829V17.1269C71.688 17.0293 71.2 16.9805 70.712 16.9805C70.224 16.9805 69.6872 17.0293 69.1992 17.1269V23.0805C69.1992 24.2517 69.3456 25.2277 69.6384 25.9109C69.9312 26.6429 70.3216 27.1797 70.8584 27.5213C71.3464 27.9117 71.932 28.1557 72.6152 28.2533C73.2984 28.3509 73.9817 28.4485 74.7137 28.4485C75.5921 28.4973 76.3729 28.3997 77.1049 28.2533Z" fill="#B61F29"/>
<path d="M67.7918 28.1551C67.8406 28.0575 67.8406 27.9599 67.8406 27.8623V27.5695C67.8406 27.0327 67.743 26.4471 67.5966 25.8615C67.4502 25.9103 67.3526 25.9103 67.2062 25.9103C67.0598 25.9103 66.9622 25.9103 66.8158 25.9103C66.5718 25.9103 66.3278 25.8615 66.1814 25.8127C65.9862 25.7639 65.8886 25.6663 65.7422 25.5199C65.6446 25.3735 65.547 25.1783 65.4982 24.8855C65.4494 24.5927 65.4006 24.2511 65.4006 23.8119V12.5878C64.8638 12.4902 64.3758 12.4414 63.8878 12.4414C63.3998 12.4414 62.863 12.4902 62.375 12.5878V24.4951C62.375 25.8615 62.7166 26.8375 63.351 27.4719C64.0342 28.0575 64.9126 28.3991 65.9862 28.3991C66.279 28.3991 66.5718 28.3991 66.8646 28.3503C67.255 28.2527 67.5478 28.2039 67.7918 28.1551Z" fill="#B61F29"/>
<path d="M55.3865 25.2335C54.8985 24.6967 54.6545 23.8671 54.6545 22.6959C54.6545 21.6223 54.8985 20.7927 55.3377 20.2071C55.7769 19.6215 56.4601 19.3287 57.3385 19.3287C57.7289 19.3287 58.1193 19.3775 58.4609 19.4263C58.8025 19.4751 59.1441 19.5727 59.5833 19.7191C59.7785 19.3287 59.9249 18.9383 59.9737 18.5479C60.0713 18.1575 60.1201 17.7671 60.1201 17.4254C59.8273 17.3278 59.5345 17.2302 59.2905 17.1326C59.0465 17.0838 58.8025 16.9862 58.5585 16.9374C58.3145 16.8886 58.0705 16.8886 57.7777 16.8398C57.5337 16.8398 57.2409 16.8398 56.8993 16.8398C56.0209 16.8398 55.2401 16.9862 54.5569 17.279C53.8737 17.5718 53.3369 18.0111 52.8977 18.4991C52.4585 19.0359 52.1169 19.6215 51.8729 20.3535C51.6289 21.0367 51.5312 21.8175 51.5312 22.5983C51.5312 23.4279 51.6289 24.2087 51.8729 24.8919C52.1169 25.5751 52.4585 26.2095 52.8977 26.6975C53.3369 27.2343 53.9225 27.6247 54.6057 27.9175C55.2889 28.2103 56.1185 28.3567 57.0457 28.3567C57.5825 28.3567 58.1193 28.3079 58.6073 28.2591C59.0953 28.2103 59.6321 28.0639 60.2177 27.8199C60.2177 27.2831 60.1689 26.8439 60.0225 26.5023C59.9249 26.1119 59.7785 25.7703 59.5833 25.5263C59.3393 25.6239 59.1441 25.6727 58.9489 25.7215C58.7537 25.7703 58.6073 25.8191 58.4121 25.8679C58.2169 25.9167 58.0705 25.9167 57.8753 25.9167C57.6801 25.9167 57.4849 25.9167 57.2897 25.9167C56.5089 26.0143 55.8745 25.7703 55.3865 25.2335Z" fill="#B61F29"/>
<path d="M48.7486 30.3514C48.7486 29.4242 48.7486 28.497 48.6998 27.5698C48.407 27.765 48.0654 27.9114 47.675 28.009C46.8942 28.3018 46.0158 28.4482 45.0398 28.4482C44.747 28.4482 44.4054 28.4482 44.0638 28.3994C43.7222 28.3506 43.3806 28.3506 42.9901 28.3018C42.6485 28.253 42.3069 28.2042 41.9653 28.1066C41.6237 28.009 41.3309 27.9602 41.0869 27.8626V12.5881C41.6237 12.4905 42.1117 12.4417 42.5997 12.4417C43.0878 12.4417 43.6246 12.4905 44.1126 12.5881V18.2489C44.3078 17.8585 44.6982 17.5657 45.1862 17.2729C45.6742 17.0289 46.2598 16.8825 46.8942 16.8825H46.9918C45.9182 13.2225 44.4054 9.70888 42.3069 6.14645C41.6725 5.12165 40.8917 4.68244 39.6717 4.63364C30.8389 4.58484 23.1284 6.68326 15.4668 11.1241C14.442 11.7585 14.0028 12.5393 13.954 13.7593C13.9052 22.5922 16.0036 30.3026 20.4444 37.9643C21.0788 38.9891 21.8596 39.4283 23.0796 39.4771C31.9125 39.5259 39.6229 37.4275 47.2846 32.9866C48.2118 32.3522 48.6998 31.5714 48.7486 30.3514ZM25.4708 13.8569C25.4708 14.0521 25.4708 14.2961 25.4708 14.4913C25.4708 14.6865 25.422 14.9305 25.3732 15.2233C25.1292 15.2721 24.8364 15.3209 24.5436 15.3697C24.2508 15.3697 24.0068 15.4185 23.8116 15.4185C23.6164 15.4185 23.3724 15.4185 23.0796 15.3697C22.7868 15.3697 22.5428 15.3209 22.25 15.2233C22.2012 14.9305 22.1524 14.6865 22.1524 14.4913C22.1524 14.2961 22.1524 14.1009 22.1524 13.8569C22.1524 13.6129 22.1524 13.4177 22.1524 13.2225C22.1524 13.0273 22.2012 12.7833 22.25 12.4905C22.5428 12.4417 22.7868 12.3929 23.0796 12.3441C23.3724 12.2953 23.6164 12.2953 23.8116 12.2953C24.0068 12.2953 24.2508 12.2953 24.5436 12.3441C24.8364 12.3929 25.0804 12.4417 25.3732 12.4905C25.422 12.7833 25.4708 13.0273 25.4708 13.2225C25.4708 13.4177 25.4708 13.6617 25.4708 13.8569ZM25.666 28.4482C25.666 29.8146 25.3244 30.7906 24.6412 31.425C23.958 32.0106 22.982 32.3522 21.6644 32.3522C21.3228 32.3522 20.9324 32.3522 20.5908 32.3034C20.2004 32.2546 19.8588 32.2058 19.566 32.1082C19.566 31.7178 19.6148 31.3274 19.6636 30.937C19.7124 30.5954 19.81 30.205 19.9564 29.9122C20.1028 29.961 20.2492 29.961 20.4932 30.0098C20.6884 30.0586 20.8836 30.0586 21.0788 30.0586C21.3228 30.0586 21.518 30.0098 21.7132 29.961C21.9084 29.9122 22.1036 29.8146 22.25 29.6682C22.3964 29.5218 22.494 29.3266 22.5916 29.0338C22.6892 28.741 22.738 28.3994 22.738 27.9602V19.4689H21.274C21.2252 19.2737 21.1764 19.0785 21.1764 18.8833C21.1764 18.6881 21.1276 18.4929 21.1276 18.2977C21.1276 17.9073 21.1764 17.5169 21.274 17.1753H25.666V28.4482ZM38.6957 22.7386C38.6957 23.5682 38.5981 24.3002 38.3541 24.9834C38.1589 25.6666 37.8173 26.301 37.3781 26.789C36.9389 27.3258 36.4021 27.7162 35.7189 28.009C35.0357 28.3018 34.2549 28.4482 33.3765 28.4482C32.4981 28.4482 31.7173 28.3018 31.0341 28.009C30.3509 27.7162 29.8141 27.3258 29.3749 26.789C28.9357 26.2522 28.5941 25.6666 28.3989 24.9834C28.1549 24.3002 28.0573 23.5194 28.0573 22.7386C28.0573 21.909 28.1549 21.177 28.3989 20.445C28.6429 19.7129 28.9357 19.1273 29.3749 18.5905C29.8141 18.0537 30.3509 17.6633 31.0341 17.3705C31.7173 17.0777 32.4981 16.9313 33.3765 16.9313C34.2549 16.9313 35.0357 17.0777 35.7189 17.3705C36.4021 17.6633 36.9389 18.1025 37.3781 18.5905C37.8173 19.1273 38.1589 19.7129 38.3541 20.445C38.5981 21.1282 38.6957 21.909 38.6957 22.7386ZM35.0845 25.2762C35.4261 24.6906 35.6213 23.8122 35.6213 22.7386C35.6213 21.6162 35.4261 20.7866 35.0845 20.2009C34.7429 19.6153 34.1573 19.3225 33.3765 19.3225C32.5957 19.3225 32.0101 19.6153 31.6685 20.2009C31.3269 20.7866 31.1317 21.665 31.1317 22.7386C31.1317 23.861 31.3269 24.6906 31.6685 25.2762C32.0101 25.8618 32.5957 26.1546 33.3765 26.1546C34.1573 26.1546 34.7429 25.8618 35.0845 25.2762ZM47.3822 25.1298C47.919 24.593 48.163 23.7146 48.163 22.5922V22.5434C48.163 21.7138 48.0166 21.0306 47.8214 20.4938C47.7726 20.3961 47.7238 20.3473 47.7238 20.2497C47.3822 19.7129 46.8454 19.4689 46.0646 19.4689C45.479 19.4689 45.0398 19.6641 44.6494 20.0545C44.3078 20.4449 44.1126 21.0306 44.1126 21.8602V25.8618C44.3078 25.9106 44.4542 25.9594 44.6494 25.9594C44.8446 25.9594 45.0398 25.9594 45.235 25.9594C46.1134 25.9594 46.8454 25.6666 47.3822 25.1298Z" fill="#B61F29"/>
<path d="M13.7687 9.99679C19.2343 6.82477 24.6999 4.77516 30.5072 3.70155C30.0192 2.96954 29.336 2.62794 28.4088 2.57914C21.0887 2.53034 14.6959 4.23835 8.35183 7.94718C7.52222 8.48398 7.13182 9.11839 7.08302 10.0944C7.03422 17.4144 8.79103 23.8073 12.4511 30.1513C12.9879 30.9809 13.6223 31.3713 14.5983 31.4201C14.8423 31.4201 15.0375 31.4201 15.2815 31.4201C13.0855 25.5641 12.0119 19.5129 12.0607 12.876C12.1583 11.5584 12.6463 10.68 13.7687 9.99679Z" fill="#ACAFB2"/>
<path d="M6.97895 6.98098C10.8342 4.73617 14.6894 3.17456 18.691 2.19855L18.5934 1.95455C18.203 1.32015 17.715 1.02734 16.9342 1.02734C11.4198 1.02734 6.58854 2.29615 1.80611 5.07777C1.17171 5.46817 0.878906 5.95618 0.878906 6.73698C0.878906 12.2514 2.14771 17.0827 4.92933 21.8651C5.31974 22.4995 5.80774 22.7923 6.58854 22.7923C6.93015 22.7923 7.27175 22.7923 7.61335 22.7923C6.24694 18.5467 5.56374 14.1546 5.61254 9.3722C5.61254 8.29859 6.05174 7.56659 6.97895 6.98098Z" fill="#DADADA"/>
</g>
<defs>
<clipPath id="clip0_1126_1954">
<rect width="120" height="40.6019" fill="white"/>
</clipPath>
</defs>
</svg>
