<svg width="117" height="42" viewBox="0 0 117 42" fill="none" xmlns="http://www.w3.org/2000/svg">
<path d="M39.3998 8.91586C37.991 8.81728 36.5858 9.15349 35.3741 9.87909C34.1625 10.6047 33.2027 11.6847 32.6245 12.9732V9.53884H27.4485C27.423 9.79993 27.3923 10.0695 27.354 10.3231C26.8722 13.3733 25.5774 15.9205 23.3402 17.3224C22.2566 11.6286 17.8893 7.97448 11.8017 7.97448C4.74191 7.97448 0 12.8873 0 20.1933C0 27.4993 4.74191 32.4121 11.8017 32.4121C18.3998 32.4121 22.974 28.1212 23.5429 21.5921C25.1635 20.7259 26.5396 19.4651 27.544 17.9263V31.823H32.6245V19.9226C32.6245 15.7337 34.3629 13.3266 37.4831 13.3266C40.8262 13.3266 42.3418 15.7337 42.3418 19.9226V31.823H47.4222V19.9226C47.4222 12.9722 44.9728 8.91586 39.3998 8.91586ZM11.8059 12.0552C15.4282 12.0552 18.0082 14.5737 18.5866 18.4803C16.6911 18.4678 14.8347 17.9389 13.2173 16.9504C11.5998 15.962 10.2822 14.5514 9.40634 12.8703C9.35858 12.7557 9.31188 12.6389 9.26943 12.5222C10.0777 12.2073 10.9385 12.0489 11.8059 12.0552ZM11.8059 28.3356C7.67853 28.3356 4.90747 25.0636 4.90747 20.1943C4.89146 18.9132 5.11276 17.6401 5.56017 16.4394C5.72255 16.6984 5.89236 16.9467 6.07278 17.1887C7.52171 19.0536 9.3943 20.5463 11.5353 21.543C13.6763 22.5397 16.0241 23.0116 18.3839 22.9198C18.0991 24.4525 17.2834 25.8359 16.0801 26.8271C14.8768 27.8183 13.3627 28.3539 11.8038 28.3398M76.8214 9.53884V21.4392C76.8214 25.6282 75.0851 28.0353 71.9649 28.0353C68.6218 28.0353 67.1063 25.6282 67.1063 21.4392V9.53884H62.0258V21.4392C62.0258 28.3929 64.4753 32.4471 70.0482 32.4471C71.4566 32.547 72.8617 32.2117 74.0732 31.4866C75.2847 30.7614 76.2441 29.6814 76.8214 28.3929V30.7108C76.8214 34.8998 74.9504 36.9056 71.2517 36.9056C68.4571 36.8916 65.7341 36.0207 63.4501 34.4105L61.6246 38.3373C64.503 40.2634 67.8769 41.3161 71.3398 41.3684C77.9358 41.3684 81.9029 37.8905 81.9029 30.7161V9.53884H76.8214ZM116.324 9.53884V30.7119C116.324 37.8863 112.356 41.3642 105.761 41.3642C102.297 41.312 98.9221 40.2594 96.0427 38.3331L97.8703 34.4063C100.154 36.0165 102.877 36.8874 105.672 36.9014C109.371 36.9014 111.242 34.8955 111.242 30.7066V28.394C110.664 29.6825 109.705 30.7625 108.493 31.4876C107.282 32.2128 105.877 32.5481 104.468 32.4482C98.8955 32.4482 96.4439 28.394 96.4439 21.4403V13.9507H91.0068V31.8262H85.9253V8.24618C85.9253 5.08243 87.6234 0.000903365 94.3096 0.000903365C97.1067 -0.0337638 99.8244 0.930351 101.974 2.71996L100.098 6.73063C98.6816 5.34891 96.8136 4.5257 94.8381 4.41274C92.2995 4.41274 91.0068 5.70541 91.0068 8.29181V9.53884H101.524V21.4392C101.524 25.6282 103.04 28.0353 106.383 28.0353C109.503 28.0353 111.24 25.6282 111.24 21.4392V9.53884H116.324ZM58.2783 32.4471C51.5921 32.4471 51.2355 27.2318 51.2355 24.8259V0.623889H56.317V24.7813C56.317 26.6089 56.7628 27.9907 59.2144 27.9907C59.6932 27.9946 60.1711 27.9498 60.6408 27.857V32.1807C59.8645 32.3503 59.0729 32.4389 58.2783 32.4471Z" fill="#192642"/>
</svg>
