<svg width="514" height="88" viewBox="0 0 514 88" fill="none" xmlns="http://www.w3.org/2000/svg">
<g clip-path="url(#clip0_1126_2005)">
<path d="M114.116 14.3984C119.875 14.5005 124.254 15.2602 129.099 18.5539C135.409 22.847 139.238 30.109 137.406 37.7364C133.636 53.4365 112.749 58.1203 100.337 49.734C100.202 51.2641 100.162 52.556 100.138 54.0934C100.028 58.708 100.125 63.6826 100.097 68.3441C96.9713 68.4419 92.352 68.5211 89.2969 68.287L89.3656 15.5531C92.6762 15.3827 96.4143 15.4513 99.7577 15.443L100.048 18.8229C104.57 15.3263 108.614 14.748 114.116 14.3984ZM116.327 45.3263C122.993 44.1529 127.954 39.0359 126.66 31.9996C126.138 29.1907 124.526 26.7013 122.174 25.0752C118.649 22.6541 114.274 22.4453 110.153 22.8709C103.231 24.6634 99.6992 27.3023 99.9953 34.849C100.154 38.895 101.664 41.5523 105.226 43.6412C108.326 45.4436 112.799 46.2143 116.327 45.3263Z" fill="black"/>
<path d="M217.943 14.3832C221.077 13.8255 227.39 15.5702 229.994 17.285C231.094 18.0095 232.307 18.8041 233.394 19.5644C238.319 16.0633 241.744 14.3928 248.073 14.3898C256.108 14.3247 265.839 18.0899 267.663 26.8133C268.313 29.9124 268.05 34.377 268.035 37.616L267.989 52.7046C264.77 52.5462 260.961 52.7207 257.709 52.846C257.43 48.2851 257.744 43.6785 257.626 39.2058C257.398 34.9406 258.479 28.7819 255.184 25.5124C251.373 21.6566 243.034 21.7629 239.257 25.5209C236.182 28.5803 237.082 37.09 237.113 41.2431C237.155 45.1161 237.135 48.9893 237.056 52.8616C233.645 52.745 230.233 52.6921 226.821 52.7026C226.639 50.5477 226.847 48.3803 226.699 46.3521C226.346 41.5223 227.423 33.9975 226.437 29.4355C226.161 28.1005 225.552 26.8567 224.666 25.8197C222.901 23.7813 220.26 22.8864 217.729 22.7592C206.765 22.2077 205.874 28.9155 206.034 37.885C206.112 42.29 206.317 48.5182 206.04 52.6881C202.832 52.5665 198.987 52.6753 195.732 52.6825C195.356 49.4393 195.491 39.9058 195.545 36.1152C195.632 30.0202 195.241 21.2754 195.739 15.4803C196.957 15.4841 204.394 15.2605 204.953 15.5543C205.548 16.4214 205.553 17.5848 205.655 18.6434C210.34 15.4674 212.514 15.033 217.943 14.3832Z" fill="black"/>
<path d="M490.951 14.3935C496.376 13.2674 506.787 16.3666 510.476 20.4814C513.693 24.0699 512.932 30.8982 512.93 35.5529L512.87 52.6861C509.61 52.6994 506.35 52.6883 503.088 52.6527L503.123 48.9286C498.549 52.5472 493.375 53.9687 487.573 53.7852C479.355 53.525 470.967 51.2485 471.228 41.5168C472.086 35.7108 475.227 34.2499 480.497 32.3543C486.238 30.3982 492.163 30.6392 498.037 29.1357C501.553 28.2356 502.413 24.7752 499.096 23.2265C495.608 21.5993 490.73 22.1574 487.159 23.3191C483.237 24.5941 482.64 26.2244 480.959 29.6955C477.862 28.8341 474.821 28.8443 471.78 28.0077C471.228 27.856 471.25 27.6512 471.047 27.1558C471.092 25.4758 472.422 22.9707 473.526 21.7654C478.477 16.3577 484.166 15.0151 490.951 14.3935ZM483.972 45.2304C491.553 46.9811 504.225 45.6892 502.443 35.0046C502.197 34.8913 502.002 34.7629 501.746 34.7985C496.486 37.6574 488.276 36.6091 483.122 39.9366C480.376 41.7076 481.581 43.9375 483.972 45.2304Z" fill="#D4AF6A"/>
<path d="M295.271 14.3906C301.444 14.5803 307.938 15.4308 312.53 19.9803C316.603 24.0135 315.777 30.8558 315.77 36.1038C315.785 41.6099 315.735 47.1158 315.622 52.6207C312.372 52.6796 309.125 52.7114 305.876 52.7157C305.703 51.675 305.637 50.2041 305.557 49.1162C300.26 53.2302 293.457 54.3513 286.956 53.513C278.426 52.4131 273.107 48.7334 274.206 39.78C277.887 30.5101 292.012 31.1096 300.197 29.3441C305.371 28.2281 305.923 24.8037 300.922 22.8855C296.81 21.3081 289.869 22.2916 286.589 25.287C285.171 26.5795 284.461 27.8568 283.485 29.5715C280.539 28.8324 276.903 28.6438 274.228 27.8385C272.946 26.5717 275.792 22.3647 276.805 21.304C281.819 16.0563 288.338 14.794 295.271 14.3906ZM286.09 44.901C291.909 47.614 300.769 45.5373 305.085 40.7078C305.158 39.5039 305.527 35.6668 304.872 34.8512L304.41 34.8535C299.294 37.5611 290.765 36.5819 285.693 39.9983C283.508 41.4698 284.055 43.6088 286.09 44.901Z" fill="black"/>
<path d="M407.829 14.3901C415.822 13.4294 428.739 17.1819 432.423 24.688C432.807 25.47 432.86 25.2055 432.656 26.0479C431.582 27.1516 425.395 28.1943 423.432 28.6611C419.964 23.9458 416.793 22.6487 410.886 22.2974C408.09 22.1311 400.981 22.3469 400.756 26.3561C400.986 26.9688 401.298 27.6334 401.985 27.8736C411.265 31.0494 420.981 29.5481 429.771 34.6792C434.564 37.4779 436.328 43.6036 432.187 47.8271C427.181 52.9348 419.059 53.6062 412.221 53.7875C403.84 53.8213 391.996 51.1981 388.718 42.342C388.455 41.6305 388.217 40.8625 387.988 40.1387C390.282 39.4051 394.247 38.5941 396.693 38.2499C399.248 38.1498 399.594 41.2692 401.581 42.9286C406.532 47.0624 417.852 47.3334 422.996 43.5747C423.289 43.3594 423.593 42.3304 423.452 41.9882C421.56 37.878 414.627 38.3384 410.429 37.4689C404.106 36.1587 391.577 35.7169 389.978 27.5241C389.637 25.7739 390.149 22.296 391.501 20.8712C396.266 15.8548 401.313 15.0557 407.829 14.3901Z" fill="#D4AF6A"/>
<path d="M318.136 15.3983L327.336 15.3062C330.244 21.0234 334.061 27.1141 337.197 32.7494C338.725 35.4901 340.647 39.2737 342.321 41.6985C347.315 33.5356 352.391 23.966 357.126 15.5454C359.916 15.3076 363.028 15.5112 365.848 15.2785C366.963 15.1867 367.926 15.266 368.493 16.2855C368.559 17.9534 365.399 22.3419 364.34 23.9535C358.96 32.5455 352.737 44.7271 347.099 52.6552C344.002 52.7582 340.116 52.9964 337.094 52.5245C334.628 47.0721 316.089 18.2713 315.926 15.9926C316.686 15.4011 317.075 15.5289 318.136 15.3983Z" fill="#D4AF6A"/>
<path d="M448.69 6.64347C450.667 6.59418 453.502 6.2246 455.063 7.30517C456.213 8.73681 455.41 13.39 455.244 15.4447C458.431 15.1654 466.739 15.1758 469.733 15.6194C469.823 18.2116 469.77 20.8069 469.577 23.3933C466.538 23.6291 457.826 23.0067 455.736 23.8283C454.797 25.8963 454.895 41.4889 456.11 43.3015C457.791 44.3505 464.973 44.0983 467.487 44.1386C467.891 46.7465 467.76 50.2726 467.67 52.903C461.364 52.5031 451.61 54.0541 446.785 49.2379C443.53 45.9886 444.416 39.8876 444.421 35.6919C444.426 31.7141 444.301 27.5758 444.424 23.5523C441.475 23.5175 436.941 23.7073 434.176 23.3703C434.198 13.0849 434.251 15.1271 444.399 15.4452L444.414 6.79194C445.751 6.66207 447.327 6.66886 448.69 6.64347Z" fill="#D4AF6A"/>
<path d="M163.299 14.8861C165.353 14.6599 169.307 14.6969 171.302 15.0773C174.657 15.717 171.965 21.9402 171.288 23.9883C169.098 23.8858 166.946 23.5264 164.712 23.4899C153.076 23.2998 154.451 33.8752 154.488 42.2713C154.504 45.7201 154.502 49.1689 154.48 52.6177L151.624 52.6471C148.941 52.6771 146.257 52.6543 143.575 52.5781C143.178 42.5569 143.82 32.0874 143.528 22.0226C143.485 20.5441 143.487 16.9243 144.159 15.7798C145.702 15.1369 151.748 15.4426 153.777 15.4835C153.852 16.5658 153.882 17.0982 154.156 18.1679C154.778 18.2754 154.737 18.0554 155.288 17.7215C157.863 16.163 160.328 15.2564 163.299 14.8861Z" fill="black"/>
<path d="M177.918 15.3438C180.706 15.5813 185.078 15.4696 187.976 15.4595C188.388 18.7577 188.341 51.7764 187.69 52.6526C185.595 52.6285 179.017 53.0663 177.591 52.2936C176.919 50.8294 177.127 45.4918 177.131 43.5317C177.133 38.9512 177.162 34.3709 177.218 29.7912C177.263 25.328 176.895 20.3526 177.447 15.9284C177.447 15.9284 177.872 15.401 177.918 15.3438Z" fill="black"/>
<path d="M372.41 15.299C374.508 15.2861 381.232 15.0719 382.823 15.6542C383.303 16.6853 383.052 48.2005 383.049 52.2485L383.039 52.5872C381.428 52.9232 374.194 52.6742 372.239 52.6136C371.951 49.1778 371.878 17.068 372.41 15.299Z" fill="#D4AF6A"/>
<path d="M256.125 64.7377C257.299 64.6018 258.702 64.6795 259.887 64.767C262.245 64.941 264.604 66.1978 266.132 68.0102C267.437 69.5601 267.811 71.5372 267.66 73.485C266.303 74.5611 255.008 73.4136 252.261 73.9022C251.438 74.0484 251.066 74.2723 250.609 74.9289C250.598 75.1267 250.605 75.3225 250.647 75.5168C250.857 76.5046 252.379 77.8118 253.207 78.3524C255.698 79.979 258.818 79.6332 261.57 79.0473C262.915 78.4424 263.671 77.6471 264.78 76.73C265.259 76.3356 265.733 76.1822 266.348 76.2476C266.466 76.3597 266.699 76.5196 266.737 76.6748C266.847 77.1188 266.619 77.604 266.388 77.9725C265.319 79.6678 262.855 80.5722 260.998 80.9791C257.841 81.6705 254.534 81.4374 251.771 79.6603C250.021 78.5356 248.743 76.8945 248.3 74.8459C247.86 72.8073 248.195 70.5407 249.341 68.7832C250.897 66.3994 253.435 65.3025 256.125 64.7377ZM259.839 71.9958C261.124 72.0098 263.932 72.3914 265.016 71.8293C265.292 71.3332 265.558 71.014 265.382 70.4191C265.031 69.2284 263.141 68.0716 262.095 67.5369C260.233 66.5857 258.429 66.1755 256.343 66.516C254.313 67.0222 252.206 67.9621 251.116 69.8705C250.785 70.4524 250.771 70.753 250.925 71.3775C251.613 72.0738 252.707 72.0883 253.628 72.0928C255.701 72.1031 257.769 71.9594 259.839 71.9958Z" fill="black"/>
<path d="M454.453 64.767C454.511 64.756 454.568 64.747 454.628 64.74C457.459 64.3855 460.623 64.8062 462.897 66.6296C465.308 68.5641 465.973 70.7465 466.302 73.7152C460.483 73.8466 454.493 73.5219 448.707 73.9634C449.339 75.8122 450.077 77.3172 451.763 78.4158C454.142 79.9665 457.231 79.631 459.858 79.0795C461.326 78.5387 461.938 77.5353 463.215 76.8113C463.762 76.5021 464.472 76.4497 465.07 76.6044L465.26 77.0494C465.142 77.3719 464.997 77.7015 464.789 77.9771C463.69 79.4405 461.484 80.7196 459.685 80.9931C456.232 81.5181 452.4 81.3584 449.489 79.2093C447.818 77.9969 446.714 76.1574 446.431 74.1141C446.134 72.1172 446.596 70.1744 447.811 68.5566C449.382 66.4676 451.898 65.1328 454.453 64.767ZM448.932 71.9497C451.748 71.9996 454.566 72.0164 457.384 72.0006C459.507 71.9981 461.68 72.0813 463.795 71.9364C463.163 69.8096 462.244 68.3399 460.244 67.2609C458.967 66.5717 456.616 66.1071 455.208 66.5065C455.193 66.5107 455.178 66.5158 455.163 66.5203C453.14 66.8582 451.241 67.4467 449.981 69.1926C449.387 70.0165 449.148 70.9762 448.932 71.9497Z" fill="black"/>
<path d="M279.601 64.7838C279.679 64.7667 279.751 64.7532 279.832 64.7484C283.049 64.5504 285.744 64.771 288.253 66.9993C290.429 68.9315 291.013 70.939 291.176 73.7633C288.936 73.7914 275.117 73.404 274.141 74.2193C274.08 74.4184 274.045 74.6463 274.085 74.8539C274.311 76.0337 275.338 77.5733 276.329 78.2139C278.938 79.901 282.155 79.6961 285.051 79.0616C286.504 78.4884 287.54 76.764 288.634 76.4547C289.229 76.2867 289.525 76.2827 290.052 76.5833C290.075 77.2968 289.939 77.7223 289.47 78.2916C288.015 80.0551 285.528 80.9351 283.317 81.1658C280.178 81.4927 276.76 81.0653 274.241 79.0154C272.655 77.7255 271.621 75.9229 271.426 73.8783C271.205 71.7771 271.845 69.6767 273.2 68.0548C274.841 66.0737 277.077 65.0272 279.601 64.7838ZM273.9 71.9634L283.365 71.996C285.167 71.9872 286.996 72.0484 288.795 71.9459C287.954 69.7652 287.039 67.9856 284.798 67.0003C283.398 66.3843 281.511 66.2484 280.01 66.5092C277.935 66.8845 276.09 67.5915 274.843 69.3924C274.324 70.143 274.103 71.0854 273.9 71.9634Z" fill="black"/>
<path d="M389.606 64.7734C391.942 64.5982 394.055 64.5979 396.183 65.6923C398.278 66.7691 400.185 68.7344 400.903 71.0086C401.144 71.7678 401.184 72.3898 400.81 73.1038C399.375 74.563 386.412 73.7587 383.543 73.9848C384.143 75.8027 384.816 77.2443 386.462 78.3372C388.981 80.0112 392.037 79.6396 394.83 79.0735C396.075 78.5129 397.179 77.0568 398.353 76.7229C398.905 76.5657 399.156 76.5692 399.648 76.8439C399.696 77.49 399.563 77.8889 399.146 78.4094C397.751 80.1539 395.197 80.9433 393.059 81.1685C390.01 81.4896 386.66 81.1 384.208 79.1119C382.57 77.7946 381.536 75.8709 381.34 73.779C381.122 71.7302 381.734 69.6788 383.044 68.0873C384.698 66.0741 387.059 65.0301 389.606 64.7734ZM383.501 71.9598L392.798 71.9826C394.236 72.0055 396.715 72.3722 398.005 71.7941C398.373 71.32 398.484 71.2207 398.521 70.5984C397.882 68.9555 395.862 67.7406 394.311 67.0566C393.219 66.5758 391.403 66.1568 390.238 66.5071C388.025 66.9689 385.982 67.4069 384.665 69.4276C384.171 70.188 383.84 71.1199 383.501 71.9598Z" fill="black"/>
<path d="M198.387 64.7837C201.011 63.9077 209.469 65.2282 208.834 69.4941C207.181 69.9288 205.122 67.2547 203.212 66.5858C200.933 65.7881 196.161 66.2727 195.259 68.7485C195.955 73.8241 209.634 70.3342 210.482 76.0392C211.066 79.9696 206.26 80.9674 203.216 81.1793C200.873 81.1981 198.969 81.2545 196.71 80.4307C195.047 79.8242 192.099 78.0273 192.896 75.8998C193.474 75.4305 193.223 75.5202 194.007 75.5964C194.881 76.0354 195.318 77.0857 195.795 77.9601C198.749 79.7442 208.09 80.9732 208.218 76.3661C207.11 72.2923 193.712 74.9075 192.857 69.725C192.333 66.5452 195.908 65.0813 198.387 64.7837Z" fill="black"/>
<path d="M332.756 64.764C334.144 64.6765 335.612 64.5133 336.997 64.6136C340.01 64.8317 342.038 66.4022 343.948 68.624C344.121 69.6348 344.219 70.6567 344.244 71.6819C344.296 73.5146 344.914 79.6064 343.719 80.8402C343.338 81.2343 343.13 81.1761 342.618 81.1799C341.263 80.593 341.943 72.5807 341.747 70.926C341.639 70.0275 341.255 69.1705 340.889 68.3494C339.2 67.036 338.031 66.6559 335.923 66.3224C334.849 66.421 333.654 66.5947 332.626 66.9073C330.661 67.504 329.559 68.6478 328.613 70.4153C328.99 73.1054 329.18 76.4718 328.889 79.1637C328.824 79.7992 328.505 80.3819 328.006 80.7823C327.374 80.8968 326.972 80.9216 326.367 80.6825C325.748 79.5778 325.838 67.576 326.194 65.9754C326.322 65.3976 326.528 65.2338 327.007 64.9184C327.833 65.1534 328.272 65.8589 328.859 66.4708C330.086 66.347 331.519 65.2038 332.756 64.764Z" fill="black"/>
<path d="M302.929 64.7382C305.707 64.3548 308.69 64.5138 310.999 66.2485C312.733 67.5504 313.651 69.3811 313.942 71.5034C314.231 73.6299 314.695 78.856 313.34 80.6032C313.102 80.9086 312.873 80.8615 312.514 80.9059C310.008 79.6643 312.75 71.6295 310.163 68.4723C308.813 66.8271 306.991 66.5589 305.009 66.3731C293.255 67.322 300.231 77.513 297.421 80.7424C297.072 80.8332 296.681 80.9487 296.324 80.8484C296.018 80.763 295.762 80.6882 295.612 80.3886C295.055 79.2797 295.308 66.6077 295.76 65.1664L296.457 64.9367C297.305 65.1097 297.817 65.9998 298.312 66.6494C299.797 65.732 301.21 65.0844 302.929 64.7382Z" fill="black"/>
<path d="M221.589 64.7439C222.844 64.4962 224.799 64.5341 226.05 64.7645C228.442 65.2055 230.749 66.2768 232.139 68.3461C232.525 68.921 232.644 69.3768 232.513 70.0567C231.02 70.7833 227.633 66.1667 224.588 66.3113C220.463 66.5074 216.094 68.0297 216.141 72.8717C216.148 74.5951 216.851 76.2428 218.09 77.442C220.099 79.3878 222.468 79.5151 225.086 79.4795C229.072 78.8011 229.222 76.7284 231.912 75.7168C232.374 75.9929 232.315 76.0896 232.579 76.6259C232.438 81.4203 215.888 84.7264 213.989 74.3171C213.619 72.3034 214.073 70.2252 215.25 68.5492C216.765 66.3863 219.03 65.1872 221.589 64.7439Z" fill="black"/>
<path d="M411.53 71.3161C413.362 69.2485 415.816 66.4576 418.159 65.0558C418.757 65.0147 418.87 64.9488 419.366 65.3231C419.068 67.6705 414.24 70.1265 413.377 72.7194C413.592 74.7571 418.882 78.3694 420.149 80.413C419.735 80.8557 419.248 80.7702 418.661 80.8289C415.961 79.4628 413.582 76.6184 411.653 74.3121C408.812 75.5394 407.62 78.316 405.154 79.9619C404.333 80.51 403.41 80.8063 402.429 80.6123L402.363 80.2676C403.099 78.8648 405.154 77.5024 406.273 76.3088C407.402 75.1041 408.441 73.7952 409.492 72.521C408.1 71.1276 403.545 67.3754 403.247 65.7526C403.221 65.6252 403.736 64.9668 403.839 64.8164C406.044 65.2276 409.324 69.9144 411.53 71.3161Z" fill="black"/>
<path d="M487.005 61.2578L487.622 61.5196C488.167 62.4071 488.177 63.7948 488.272 64.8633C490.257 64.8533 491.954 64.6342 493.703 65.5861L493.768 65.9439C492.576 67.0179 489.836 66.9076 488.23 66.9593C487.843 69.7961 487.969 73.633 488.059 76.5204C488.185 80.503 491.62 77.7935 493.16 80.1086C492.997 80.336 492.666 80.6131 492.448 80.8091C489.79 81.3908 488.139 80.7943 485.748 79.5743C485.392 76.7957 485.585 70.0874 485.497 66.881C484.014 66.8703 482.79 67.29 481.906 65.9253C482.569 64.5798 483.934 64.8901 485.326 64.8761C485.751 62.7027 485.043 62.6402 487.005 61.2578Z" fill="black"/>
<path d="M477.595 64.8008C477.653 64.8013 477.711 64.8023 477.769 64.8038C478.516 64.8246 479.169 64.7674 479.693 65.3183C479.726 65.8916 479.789 66.1556 479.518 66.6764C478.308 67.0467 477.317 66.9496 476.087 67.0346C474.619 67.1359 473.831 68.0876 472.928 69.1178C472.504 73.0254 473.35 77.1932 472.572 81.0311C471.924 81.0026 471.194 81.0424 470.66 80.6298C469.97 78.426 470.216 67.5082 470.865 65.1598C471.924 64.7587 472.411 65.659 473.34 65.6946C474.032 65.7211 476.245 64.8251 477.595 64.8008Z" fill="black"/>
<path d="M244.221 64.7947C244.331 64.7889 244.442 64.7844 244.552 64.7812C245.502 64.7544 246.159 64.8546 246.866 65.5188L246.871 66.0335C245.725 67.2748 244.635 66.8774 243.118 66.9722C241.57 67.0687 240.684 68.1914 239.74 69.2694C239.404 72.9572 240.359 77.3875 239.325 80.9045C238.915 80.9486 238.538 80.9787 238.13 80.8957C237.699 80.808 237.693 80.7232 237.451 80.3587C237.182 78.1339 237.083 67.1381 237.508 65.2808C238.645 64.0483 239.287 65.9874 240.407 65.7045C241.788 65.3556 242.729 64.8622 244.221 64.7947Z" fill="black"/>
<path d="M318.857 65.125C319.432 65.1764 320.009 65.2316 320.584 65.2905C320.912 65.7162 320.89 66.1722 320.933 66.6982C321.083 68.5838 321.306 80.1888 320.571 81.0553C320.052 80.9535 319.56 80.8081 319.056 80.6516C318.21 79.5926 318.832 67.3621 318.857 65.125Z" fill="black"/>
<path d="M318.678 59.9482C319.958 59.8833 320.345 59.762 321.24 60.5006C321.479 61.287 321.363 61.5776 321.143 62.3786C320.292 62.4423 319.313 62.5742 318.666 62.0462C318.315 61.0223 318.468 61.0935 318.678 59.9482Z" fill="black"/>
<path d="M368.618 64.582C369.479 66.1171 369.452 73.3346 369.002 75.0921L368.779 75.0372C368.026 74.0745 368.568 66.3112 368.618 64.582Z" fill="black" fill-opacity="0.0117647"/>
<path d="M8.86066 81.4473C8.79426 79.4502 8.42933 76.8159 8.52878 74.923C9.19146 62.3067 8.31526 49.5495 9.05044 36.9687C9.44294 30.2519 14.3147 23.4832 19.3453 19.352C25.3748 14.4007 31.8244 12.7494 39.5584 13.3473C45.73 13.7072 54.1598 18.3668 58.07 23.2351C56.8435 24.5026 55.5883 25.7421 54.3056 26.9525C42.6998 12.5793 19.1725 17.5582 14.6604 35.5121C13.4646 40.2704 13.8804 45.9327 13.8668 50.8795C13.9081 60.4146 14.0447 69.9457 14.0384 79.481C14.0364 82.4256 11.1493 81.5752 8.86066 81.4473Z" fill="#D4AF6A"/>
<path d="M81.1576 0H81.6314C82.6672 1.48575 83.8757 2.12882 84.7266 3.42297C79.7439 9.2315 72.5833 15.2914 67.2899 20.9904C65.4938 22.9243 62.4585 25.6396 61.0024 27.6764C59.495 29.1897 58.685 29.9325 56.9895 31.2523C49.9556 38.4327 42.836 45.8924 35.5622 52.8155C33.0557 50.6777 22.9522 40.74 21.4062 38.3136C22.607 37.1513 23.3421 36.4348 24.3617 35.1225C25.9518 36.2217 34.0268 44.1898 35.3951 45.7678C38.9265 42.782 42.5416 38.7564 45.8115 35.4843C48.6556 32.6385 51.5302 29.8661 54.3048 26.9531C55.5875 25.7426 56.8427 24.5031 58.0692 23.2357C65.153 15.4438 74.2234 7.7167 81.1576 0Z" fill="black"/>
<path d="M56.9881 31.2517C58.6836 29.9319 59.4936 29.1891 61.001 27.6758C64.4212 33.0302 64.9772 41.8405 63.6219 47.9431C62.2095 54.5386 58.2184 60.297 52.5358 63.938C45.4199 68.4459 38.8749 70.2605 30.4153 68.3744C26.9366 67.633 23.6713 66.114 20.8646 63.9308C20.8532 61.6513 20.9164 59.9011 21.086 57.6276C37.5061 71.5695 60.8946 59.8986 59.0214 38.3704C58.7888 35.6981 57.9672 33.7047 56.9881 31.2517Z" fill="#D4AF6A"/>
<path d="M355.919 87.9997C353.294 85.9466 352.813 87.3862 350.185 83.5867C350.466 82.9295 350.419 83.0995 351.106 82.6751C353.016 82.9416 353.608 84.8821 354.752 85.3399C358.725 86.9299 366.784 85.9739 365.869 79.9403L365.482 79.6043C363.911 79.8275 362.549 80.4538 361.036 80.8727C355.897 82.2952 349.47 79.8062 348.65 74.0082C348.351 72.0308 348.863 70.0166 350.07 68.4211C352.532 65.155 356.669 64.0466 360.586 64.7266C362.137 64.9956 363.778 66.1576 365.334 66.2562C365.532 66.2687 366.167 64.8908 367.51 64.8487C367.863 65.135 368.202 65.3458 368.165 66.1561C367.926 71.3231 368.993 79.9879 367.208 84.5544C366.815 85.5663 362.95 87.131 361.974 87.9997H355.919ZM360.014 79.4953C362.095 79.0606 363.746 78.5 364.96 76.6291C365.966 75.0805 366.22 72.9908 365.828 71.2067C365.485 69.6358 364.564 68.3296 363.204 67.4679C361.879 66.6302 359.347 66.1288 357.809 66.4738C357.751 66.4868 357.696 66.5014 357.638 66.5177C355.417 66.8707 353.447 67.4052 352.067 69.3164C351.111 70.6404 350.798 72.3375 351.061 73.9342C351.327 75.613 352.256 77.1148 353.638 78.1028C355.518 79.4436 357.776 79.6096 360.014 79.4953Z" fill="black"/>
<path d="M426.307 66.5546C429.615 64.8324 433.093 63.8722 436.821 65.0423C439.004 65.7513 440.821 67.2922 441.875 69.3302C442.854 71.2123 443.047 73.219 442.392 75.243C441.712 77.342 440.214 79.0781 438.237 80.0584C433.928 82.2384 429.906 81.1912 425.886 79.1295C425.853 81.325 426.082 84.9365 425.615 87.1355C425.567 87.3511 424.92 87.842 424.696 88.0005H424.057C423.856 87.6204 423.409 86.6218 423.424 86.257C423.535 83.5892 422.777 66.2489 423.866 65.1192C425.153 64.7156 425.524 65.5918 426.307 66.5546ZM425.901 75.7279C427.163 77.519 428.47 78.9505 430.739 79.3499C431.998 79.5721 433.318 79.5054 434.588 79.4261C437.133 78.7347 438.897 77.5616 440.327 75.3074C440.41 72.8552 440.568 70.4471 438.738 68.5169C437.268 66.9647 435.092 66.4703 433.025 66.4327C432.5 66.4232 431.971 66.4693 431.449 66.5272C429.6 67.0237 427.489 67.599 426.473 69.3929C425.434 71.2248 425.808 73.7049 425.901 75.7279Z" fill="black"/>
<path d="M372.232 0H382.585C382.911 0.871571 383.541 0.772299 383.714 1.89909C384.106 4.48702 383.867 7.15295 383.784 9.76665C380.921 9.97752 374.819 9.855 371.878 9.74621C371.649 7.11303 371.434 2.44141 372.232 0Z" fill="#D4AF6A"/>
<path d="M177.197 0H187.673L187.735 0.188301C188.847 3.61026 188.467 6.19432 188.315 9.81135C184.537 9.7518 180.758 9.76128 176.981 9.83978C176.832 7.69135 176.729 1.96297 177.197 0Z" fill="black"/>
<path d="M513.907 78.5107C511.576 80.1466 510.241 80.8857 506.977 81.2166C503.564 81.5626 497.321 80.758 496.299 76.5538C496.184 76.0782 496.377 75.914 496.678 75.568C498.751 75.3234 499.143 77.9428 501.09 78.8877C503.396 80.0052 513.383 80.2418 511.375 75.6558C508.567 72.3913 499.203 74.8498 496.799 70.545C495.554 66.6758 498.882 65.6035 501.524 64.7649C504.081 63.9528 513.561 65.3107 512.126 69.1706C511.689 69.2581 510.806 69.2549 510.605 68.9104C508.783 65.772 498.498 65.0602 499.092 69.6883C500.372 71.76 504.643 71.7617 506.901 72.2042C510 72.8107 511.29 72.9413 513.907 74.7435V78.5107Z" fill="black"/>
</g>
<defs>
<clipPath id="clip0_1126_2005">
<rect width="513.906" height="88" fill="white"/>
</clipPath>
</defs>
</svg>
