<svg width="123" height="45" viewBox="0 0 123 45" fill="none" xmlns="http://www.w3.org/2000/svg">
<g clip-path="url(#clip0_1126_1991)">
<path d="M122.5 0H0V44.157H122.5V0Z" fill="#E42612"/>
<path d="M113.566 32.0405C112.13 33.4009 110.186 34.0889 107.703 34.0889C105.22 34.0889 103.365 33.4009 101.93 32.0405C100.494 30.6802 99.7916 28.5707 99.7916 25.699V10.4435H105.415V25.8785C105.415 27.0152 105.609 27.8528 105.984 28.4211C106.358 28.9894 106.971 29.2729 107.808 29.2729C108.646 29.2729 109.214 28.9894 109.573 28.4211C109.932 27.8528 110.111 27.001 110.111 25.8785V10.4435H115.735V25.5794C115.735 28.5251 115.003 30.6788 113.567 32.0405M91.0713 18.6097C90.9673 17.6682 90.7878 16.9346 90.5784 16.3662C90.3548 15.8136 90.0856 15.409 89.7409 15.1854C89.4118 14.9461 89.0386 14.8421 88.6042 14.8421C88.1697 14.8421 87.7823 14.9461 87.4532 15.1712C87.1242 15.3962 86.855 15.7837 86.6456 16.3221C86.422 16.8605 86.2567 17.6083 86.167 18.5499C86.0773 19.4914 86.0174 20.658 86.0174 22.0639C86.0174 23.4698 86.0773 24.6364 86.1812 25.578C86.2852 26.5195 86.4647 27.2531 86.6741 27.8214C86.8977 28.3741 87.1669 28.7786 87.4817 29.0023C87.7951 29.2416 88.184 29.3455 88.6327 29.3455C89.0814 29.3455 89.4246 29.2416 89.7693 29.0165C90.0984 28.7929 90.3676 28.404 90.577 27.8656C90.7864 27.3271 90.9502 26.5793 91.0556 25.6378C91.161 24.6962 91.2194 23.5296 91.2194 22.1237C91.2194 20.7178 91.1752 19.537 91.0698 18.6097M96.3957 27.4041C96.0225 28.9139 95.4685 30.156 94.7505 31.1432C94.0326 32.1303 93.1509 32.8624 92.104 33.3567C91.057 33.8496 89.8904 34.0889 88.5743 34.0889C85.9576 34.0889 83.9235 33.1174 82.4721 31.1731C81.022 29.2287 80.2884 26.2076 80.2884 22.1095C80.2884 18.0114 81.0206 14.976 82.502 13.016C83.9819 11.0574 86.016 10.0703 88.6341 10.0703C91.2522 10.0703 93.2848 11.0418 94.7505 13.0018C96.2163 14.9461 96.9484 17.9673 96.9484 22.0497C96.9484 24.1137 96.7689 25.8928 96.3957 27.4041ZM73.6478 24.7119V33.7299H68.0541V24.8159L61.8023 10.4435H67.9487L69.0099 13.5388C69.4586 14.7951 69.8474 16.0215 70.1765 17.1725C70.5055 18.3391 70.7448 19.3561 70.8787 20.2535C70.9827 19.3718 71.222 18.3391 71.5667 17.1725C71.91 16.0059 72.2989 14.7951 72.7475 13.5388L73.8087 10.4435H79.8654L73.6435 24.7119H73.6478ZM52.904 18.8946C52.5607 19.5968 52.1718 20.3005 51.753 20.9885L51.32 21.6907C50.9012 22.3488 50.528 22.9314 50.2132 23.4257C49.8842 23.9185 49.5708 24.3829 49.2717 24.8159C49.7204 24.7717 50.1833 24.7561 50.6619 24.7561H53.6532V20.5839C53.6532 20.1652 53.6532 19.7321 53.6689 19.2977C53.6846 18.8632 53.6988 18.4459 53.713 18.0271C53.7287 17.624 53.7572 17.2651 53.7729 16.9503C53.5492 17.5328 53.2501 18.1767 52.9054 18.8946M58.4079 29.2287V33.7157H53.6219V29.1248H43.8404V25.2959L53.1874 10.4293H58.4065V24.7276H60.4705V29.2145H58.4065V29.2302L58.4079 29.2287ZM35.5403 15.5444C35.2269 15.0957 34.6885 14.8564 33.9108 14.8564H31.7129V20.5398H33.8068C34.5988 20.5398 35.1671 20.3005 35.4961 19.8376C35.8252 19.3746 35.989 18.6567 35.989 17.6696C35.989 16.6825 35.8394 15.9945 35.5403 15.5458M35.9292 33.7157L33.2071 24.8017H31.7115V33.7157H26.2531V10.4435H34.2996C35.3466 10.4435 36.3038 10.5774 37.1855 10.8324C38.0672 11.0859 38.8307 11.4905 39.4731 12.0431C40.1155 12.5958 40.6098 13.3294 40.9688 14.241C41.3277 15.1526 41.5072 16.2452 41.5072 17.5314C41.5072 18.8177 41.238 20.3133 40.6996 21.3004C40.1611 22.2876 39.4133 23.0653 38.4561 23.6479L41.8505 33.7285H35.9277V33.7128L35.9292 33.7157ZM17.0699 33.7157V23.9641H12.3892V33.7157H6.76562V10.4435H12.3892V19.1182H17.0855V10.4435H22.7091V33.7299H17.0713V33.7157H17.0699Z" fill="white"/>
</g>
<defs>
<clipPath id="clip0_1126_1991">
<rect width="122.5" height="44.157" fill="white"/>
</clipPath>
</defs>
</svg>
