<svg width="128" height="67" viewBox="0 0 128 67" fill="none" xmlns="http://www.w3.org/2000/svg">
<path d="M12.0009 1.5L8.58844 8.415L0.960938 9.5175L6.48094 14.9025L5.17594 22.5L12.0009 18.915L18.8259 22.5L17.5209 14.9025L23.0409 9.525L15.4134 8.415L12.0009 1.5Z" fill="white"/>
<path d="M38.0009 1.5L34.5884 8.415L26.9609 9.5175L32.4809 14.9025L31.1759 22.5L38.0009 18.915L44.8259 22.5L43.5209 14.9025L49.0409 9.525L41.4134 8.415L38.0009 1.5Z" fill="white"/>
<path d="M64.0009 1.5L60.5884 8.415L52.9609 9.5175L58.4809 14.9025L57.1759 22.5L64.0009 18.915L70.8259 22.5L69.5209 14.9025L75.0409 9.525L67.4134 8.415L64.0009 1.5Z" fill="white"/>
<path d="M90.0009 1.5L86.5884 8.415L78.9609 9.5175L84.4809 14.9025L83.1759 22.5L90.0009 18.915L96.8259 22.5L95.5209 14.9025L101.041 9.525L93.4134 8.415L90.0009 1.5Z" fill="white"/>
<path d="M116.001 1.5L112.588 8.415L104.961 9.5175L110.481 14.9025L109.176 22.5L116.001 18.915L122.826 22.5L121.521 14.9025L127.041 9.525L119.413 8.415L116.001 1.5Z" fill="white"/>
<g clip-path="url(#clip0_1125_1880)">
<path d="M36.0359 49.6895C36.0359 53.6646 32.9261 56.5938 29.1097 56.5938C25.2933 56.5938 22.1836 53.6646 22.1836 49.6895C22.1836 45.6863 25.2933 42.7852 29.1097 42.7852C32.9261 42.7852 36.0359 45.6863 36.0359 49.6895ZM33.0039 49.6895C33.0039 47.2054 31.2016 45.5058 29.1097 45.5058C27.0179 45.5058 25.2155 47.2054 25.2155 49.6895C25.2155 52.1487 27.0179 53.8732 29.1097 53.8732C31.2016 53.8732 33.0039 52.1455 33.0039 49.6895Z" fill="white"/>
<path d="M50.9734 49.6895C50.9734 53.6646 47.8636 56.5938 44.0472 56.5938C40.2308 56.5938 37.1211 53.6646 37.1211 49.6895C37.1211 45.6895 40.2308 42.7852 44.0472 42.7852C47.8636 42.7852 50.9734 45.6863 50.9734 49.6895ZM47.9414 49.6895C47.9414 47.2054 46.1391 45.5058 44.0472 45.5058C41.9554 45.5058 40.153 47.2054 40.153 49.6895C40.153 52.1487 41.9554 53.8732 44.0472 53.8732C46.1391 53.8732 47.9414 52.1455 47.9414 49.6895Z" fill="white"/>
<path d="M65.2945 43.2023V55.5977C65.2945 60.6966 62.2875 62.7791 58.7326 62.7791C55.3863 62.7791 53.3722 60.541 52.6127 58.7106L55.2524 57.6117C55.7224 58.7355 56.8742 60.0616 58.7295 60.0616C61.005 60.0616 62.4151 58.6577 62.4151 56.0148V55.0218H62.3093C61.6307 55.8592 60.3233 56.5907 58.6734 56.5907C55.2213 56.5907 52.0586 53.5837 52.0586 49.7144C52.0586 45.8171 55.2213 42.7852 58.6734 42.7852C60.3201 42.7852 61.6276 43.5167 62.3093 44.3291H62.4151V43.2054H65.2945V43.2023ZM62.6299 49.7144C62.6299 47.2832 61.0081 45.5058 58.9443 45.5058C56.8524 45.5058 55.0999 47.2832 55.0999 49.7144C55.0999 52.1206 56.8524 53.8732 58.9443 53.8732C61.0081 53.8732 62.6299 52.1206 62.6299 49.7144Z" fill="white"/>
<path d="M70.0353 35.9375V56.1711H67.0781V35.9375H70.0353Z" fill="white"/>
<path d="M81.5632 51.9611L83.9165 53.53C83.157 54.6537 81.3266 56.5899 78.1639 56.5899C74.2417 56.5899 71.3125 53.558 71.3125 49.6856C71.3125 45.5797 74.2666 42.7812 77.8246 42.7812C81.4075 42.7812 83.1601 45.6326 83.7328 47.1735L84.0472 47.9579L74.8176 51.7806C75.5242 53.1658 76.6231 53.8724 78.1639 53.8724C79.7079 53.8724 80.7787 53.1129 81.5632 51.9611ZM74.3195 49.477L80.4892 46.9151C80.1499 46.0529 79.1289 45.4521 77.9273 45.4521C76.3865 45.4521 74.2417 46.8124 74.3195 49.477Z" fill="white"/>
<path d="M10.9865 47.8886V44.9594H20.8574C20.9539 45.4699 21.0037 46.0738 21.0037 46.7275C21.0037 48.9252 20.403 51.6427 18.4667 53.5789C16.5835 55.54 14.1772 56.586 10.9896 56.586C5.08142 56.586 0.113281 51.7735 0.113281 45.8652C0.113281 39.957 5.08142 35.1445 10.9896 35.1445C14.2582 35.1445 16.5866 36.427 18.336 38.0986L16.2691 40.1656C15.0146 38.9889 13.315 38.0737 10.9865 38.0737C6.67209 38.0737 3.29774 41.5508 3.29774 45.8652C3.29774 50.1797 6.67209 53.6568 10.9865 53.6568C13.785 53.6568 15.3788 52.533 16.3998 51.512C17.2278 50.684 17.7726 49.5011 17.9874 47.8855L10.9865 47.8886Z" fill="white"/>
</g>
<path d="M101.326 56V52.4243H92.6765V50.2016L101.012 38.8464H103.935V50.0566H106.037V52.4243H103.935V56H101.326ZM95.6482 50.0566H101.326V42.4704L95.6482 50.0566ZM108.33 59.7931L109.538 56H108.209V52.9558H111.326V55.6376L109.804 59.7931H108.33ZM119.513 56.3866C118.032 56.3866 116.832 56.0322 115.913 55.3235C114.995 54.6148 114.359 53.6726 114.005 52.4968L116.638 52.3277C116.832 52.8592 117.162 53.278 117.629 53.584C118.112 53.8739 118.74 54.0189 119.513 54.0189C120.866 54.0189 121.889 53.4874 122.582 52.4243C123.29 51.3613 123.653 49.6379 123.669 47.2541L124.152 47.3749C123.749 48.3896 123.137 49.1627 122.316 49.6942C121.511 50.2258 120.56 50.4915 119.465 50.4915C118.338 50.4915 117.347 50.2499 116.493 49.7667C115.64 49.2674 114.971 48.5748 114.488 47.689C114.005 46.8031 113.763 45.7723 113.763 44.5965C113.763 43.3241 114.021 42.2369 114.536 41.3349C115.052 40.4168 115.769 39.7081 116.687 39.2088C117.605 38.7095 118.668 38.4598 119.876 38.4598C121.358 38.4598 122.566 38.79 123.5 39.4504C124.45 40.1108 125.151 41.045 125.602 42.253C126.069 43.4449 126.302 44.8783 126.302 46.5534C126.302 48.003 126.181 49.3318 125.94 50.5398C125.698 51.7478 125.304 52.7867 124.756 53.6565C124.225 54.5262 123.524 55.2027 122.654 55.6859C121.8 56.153 120.754 56.3866 119.513 56.3866ZM119.827 48.2446C120.552 48.2446 121.188 48.0997 121.736 47.8098C122.284 47.5198 122.711 47.1091 123.017 46.5776C123.323 46.03 123.476 45.3696 123.476 44.5965C123.476 43.8556 123.331 43.2033 123.041 42.6395C122.767 42.0597 122.364 41.6087 121.833 41.2866C121.301 40.9483 120.665 40.7792 119.924 40.7792C119.199 40.7792 118.571 40.9403 118.04 41.2624C117.524 41.5845 117.121 42.0355 116.832 42.6154C116.558 43.1791 116.421 43.8314 116.421 44.5723C116.421 45.3293 116.566 45.9817 116.856 46.5293C117.146 47.0769 117.54 47.5037 118.04 47.8098C118.555 48.0997 119.151 48.2446 119.827 48.2446Z" fill="white"/>
<defs>
<clipPath id="clip0_1125_1880">
<rect width="84.67" height="28.6384" fill="white" transform="translate(0 35)"/>
</clipPath>
</defs>
</svg>
