<svg width="75" height="66" viewBox="0 0 75 66" fill="none" xmlns="http://www.w3.org/2000/svg">
<path fill-rule="evenodd" clip-rule="evenodd" d="M60.2391 65.9258C68.1605 65.9258 74.5822 59.509 74.5822 51.5939C74.5822 43.6789 68.1605 37.2621 60.2391 37.2621C50.16 37.2621 42.7198 44.6645 39.3291 57.3271H35.2528C31.8605 44.6645 24.4221 37.2621 14.3428 37.2621C6.42167 37.2621 0 43.6789 0 51.5939C0 59.509 6.42167 65.9258 14.3428 65.9258H60.2391ZM39.3291 20.0648C42.7198 7.40228 50.16 0 60.2391 0C68.1602 0 74.5822 6.4167 74.5822 14.3318C74.5822 22.2468 68.1602 28.6635 60.2391 28.6635C50.665 28.6635 42.7823 33.1552 37.291 41.1232C31.7997 33.1552 23.917 28.6635 14.3428 28.6635C6.42167 28.6635 0 22.2468 0 14.3318C0 6.4167 6.42167 0 14.3428 0C24.4221 0 31.8605 7.40228 35.2528 20.0648H39.3291Z" fill="#2C0976"/>
</svg>
