<svg width="75" height="75" viewBox="0 0 75 75" fill="none" xmlns="http://www.w3.org/2000/svg">
<path d="M10.1445 11.6484C10.1857 11.6621 10.2313 11.6713 10.2725 11.685C10.2725 11.6804 10.2816 11.6759 10.2862 11.6713C10.2405 11.6621 10.1902 11.6576 10.1445 11.6484Z" fill="white"/>
<path d="M55.9377 23.5069C64.5044 34.6138 53.2375 42.3398 41.9021 45.3461C38.1968 46.3285 30.1464 47.0047 26.0984 50.1206C26.0253 50.1755 25.2485 50.8562 24.9835 51.1669C24.9744 51.176 24.9698 51.1852 24.9607 51.1943C24.9607 51.2035 24.947 51.208 24.9424 51.2126C18.4181 58.8289 30.521 71.9462 33.1984 74.6784C34.601 74.8383 36.0311 74.9251 37.4794 74.9251C58.1719 74.9251 74.9443 58.1527 74.9443 37.4603C74.9443 16.7678 58.1628 0 37.4749 0C30.1784 0 23.3707 2.08798 17.6094 5.6974C18.9252 5.98523 20.2136 6.27764 21.4655 6.56548C36.8307 10.0698 48.4173 13.7569 55.9377 23.5069ZM24.9561 51.2354C24.9561 51.2354 24.9698 51.2172 24.979 51.208C25.244 50.8973 25.5547 50.6049 25.8836 50.3308C25.5455 50.6141 25.2348 50.911 24.9561 51.2354Z" fill="#DC2320"/>
<path d="M24.9721 51.2093C24.9721 51.2093 24.9584 51.2275 24.9492 51.2367C25.2279 50.9168 25.5386 50.6153 25.8767 50.332C25.5432 50.6062 25.2371 50.894 24.9721 51.2093Z" fill="#DC2320"/>
<path d="M13.4234 53.4405C13.2269 51.1195 13.2041 48.8899 13.6198 46.8979C13.1721 48.9036 13.131 51.1515 13.4234 53.4771C13.0533 50.8363 13.1447 48.3234 13.7889 46.1851C13.8254 46.0435 13.8666 45.9019 13.9122 45.7648C14.9905 42.3381 17.4166 39.8024 21.6199 39.1491C27.5732 38.2216 35.5048 39.245 40.4711 34.8269C50.3171 26.0684 27.957 16.7158 10.2754 11.6992C3.90639 18.4155 0 27.4893 0 37.4723C0 52.7689 9.16518 65.9181 22.3053 71.7389C18.874 68.6777 14.0173 60.4263 13.4234 53.4405Z" fill="#DC2320"/>
<path d="M13.4241 53.4638C13.1317 51.1382 13.1773 48.8858 13.6205 46.8846C13.6708 46.6425 13.7256 46.4049 13.7896 46.1719C13.1454 48.3101 13.054 50.823 13.4241 53.4638Z" fill="#DC2320"/>
<path d="M55.9342 23.5081C48.4138 13.7581 36.8225 10.071 21.462 6.56664C20.201 6.2788 18.9125 5.99096 17.5967 5.70312C14.9148 7.38447 12.4613 9.39478 10.2911 11.6792C10.2911 11.6838 10.2819 11.6884 10.2773 11.6929C27.9589 16.7096 50.319 26.0621 40.4731 34.8206C35.5067 39.2387 27.5751 38.2153 21.6219 39.1428C17.4185 39.7961 14.9924 42.3318 13.9142 45.7585C13.8685 45.8956 13.8319 46.0372 13.7908 46.1788C13.8274 46.0509 13.8685 45.923 13.9142 45.7951C13.8045 46.1514 13.7086 46.5169 13.6218 46.8916C13.206 48.8836 13.2288 51.1132 13.4253 53.4342C14.0193 60.4246 18.876 68.6714 22.3072 71.7326C22.4169 71.7829 22.5311 71.8331 22.6407 71.8788C25.9212 73.2906 29.4392 74.2501 33.1217 74.675C33.14 74.675 33.1629 74.675 33.1811 74.6841C30.5038 71.9519 18.4008 58.8346 24.9252 51.2183C24.9252 51.2092 24.9389 51.2046 24.9435 51.2C24.9526 51.1909 24.9572 51.1818 24.9663 51.1726C25.2313 50.8619 26.0126 50.1812 26.0811 50.1264C30.1291 47.0104 38.1795 46.3342 41.8849 45.3519C53.2203 42.3456 64.4871 34.6196 55.9205 23.5126H55.9342V23.5081Z" fill="white"/>
<path d="M13.9174 45.7773L13.794 46.1611C13.7301 46.3941 13.6753 46.6317 13.625 46.8739C13.7072 46.4992 13.8032 46.1337 13.9174 45.7773Z" fill="white"/>
</svg>
