<svg width="125" height="25" viewBox="0 0 125 25" fill="none" xmlns="http://www.w3.org/2000/svg">
<g clip-path="url(#clip0_1126_1911)">
<path d="M0 1.28248H0.498041C3.32817 1.28248 6.15778 1.27886 8.98791 1.28404C10.2106 1.28662 11.3921 1.49133 12.5138 2.00984C14.1681 2.77442 15.2941 4.01149 15.8297 5.75207C16.389 7.56968 16.3911 9.39298 15.6067 11.148C14.6059 13.3865 12.759 14.5739 10.4234 14.9828C9.32835 15.1746 8.19166 15.141 7.07249 15.1783C6.2371 15.2061 5.40016 15.1839 4.5076 15.1839V23.6795H0V1.28248ZM4.53593 11.1202C6.11864 11.1202 7.67353 11.1604 9.22534 11.1036C10.0458 11.0736 10.8039 10.7361 11.3627 10.0966C12.1801 9.16191 12.3202 8.08508 11.85 6.95761C11.3674 5.80118 10.4074 5.2651 9.20423 5.20203C8.16025 5.14723 7.1106 5.18859 6.06405 5.18756C5.56034 5.18756 5.05663 5.18756 4.53593 5.18756V11.1202Z" fill="black"/>
<path d="M33.4899 16.5288C31.353 16.5288 29.2733 16.5288 27.193 16.5288C25.1128 16.5288 23.0655 16.5288 21.0028 16.5288C20.957 18.0651 22.1199 19.5116 23.7608 19.9427C25.7802 20.4737 27.5128 19.9945 28.905 18.4011C28.9442 18.3562 28.9828 18.3096 29.0255 18.2683C29.0461 18.2481 29.0759 18.2373 29.1465 18.1959C30.1694 18.9249 31.2097 19.6657 32.2831 20.4302C31.3149 21.7313 30.1513 22.7301 28.7 23.3748C23.3431 25.7538 17.3223 22.3461 16.5905 16.5195C16.2299 13.6509 16.885 11.0604 18.8545 8.90418C20.8328 6.73866 23.3488 5.93274 26.235 6.23205C28.6171 6.47915 30.5757 7.51358 31.9802 9.48162C33.4858 11.5913 33.87 13.958 33.4899 16.5277V16.5288ZM29.4484 13.3113C28.956 11.0822 27.2327 9.83677 24.8738 9.95257C23.0258 10.0436 21.3375 11.549 21.1341 13.3113H29.4484Z" fill="black"/>
<path d="M115.922 24.106C110.684 24.1024 106.929 20.3385 106.934 15.0919C106.937 9.98857 110.829 6.16465 116.012 6.17189C121.157 6.17912 125.007 10.0873 125 15.2966C124.993 20.3411 121.111 24.1092 115.922 24.106ZM115.908 20.1384C118.666 20.1462 120.741 18.0473 120.766 15.2243C120.791 12.3423 118.728 10.1478 115.98 10.1354C113.189 10.1224 111.134 12.2306 111.109 15.1312C111.084 17.9889 113.136 20.1307 115.909 20.1389L115.908 20.1384Z" fill="black"/>
<path d="M71.2146 24.106C65.9853 24.1004 62.1807 20.3188 62.1993 15.1467C62.2183 9.96168 66.0544 6.16567 71.2697 6.17188C76.4102 6.17808 80.2246 10.0392 80.2138 15.2263C80.203 20.3473 76.3876 24.1118 71.2146 24.106ZM71.179 20.1384C74.0055 20.1411 76.0152 18.0908 76.0204 15.2015C76.0255 12.3148 73.9576 10.1349 71.214 10.1354C68.4792 10.1354 66.4005 12.2947 66.3927 15.1441C66.3845 18.05 68.3839 20.1358 71.179 20.1384Z" fill="black"/>
<path d="M96.8681 23.7479H92.6932V23.1555C92.6932 19.5115 92.6932 15.868 92.6932 12.224C92.6932 10.6551 92.3338 10.2963 90.7644 10.2963C89.7611 10.2963 88.7579 10.2932 87.7546 10.2973C86.6317 10.3015 86.1692 10.759 86.1682 11.8776C86.1657 15.6415 86.1672 19.4055 86.1672 23.1689V23.737H81.9737C81.9737 23.5567 81.9737 23.3964 81.9737 23.2356C81.9737 19.2917 81.9707 15.3479 81.9749 11.4041C81.9779 8.52827 84.1281 6.38033 87.0006 6.37619C88.5879 6.37413 90.1753 6.37516 91.7626 6.37619C94.756 6.37723 96.8681 8.49675 96.8681 11.5003C96.8681 15.3991 96.8681 19.298 96.8681 23.1964V23.7479Z" fill="black"/>
<path d="M46.0136 18.4564H50.2472C50.702 20.1298 51.4468 20.7449 53.187 20.7585C53.8927 20.7641 54.6193 20.6731 55.3002 20.4906C56.0852 20.2803 56.4699 19.6475 56.4667 18.8711C56.4637 18.1152 56.1274 17.5668 55.3265 17.3383C54.3685 17.0648 53.3791 16.8963 52.3965 16.7184C51.1124 16.4858 49.8588 16.1859 48.6922 15.5651C45.9183 14.0892 45.9116 10.6401 47.328 8.77231C48.4219 7.32897 49.947 6.62334 51.678 6.32661C53.8195 5.95904 55.8926 6.18703 57.794 7.29692C59.4134 8.24192 60.3188 9.66612 60.4259 11.6104H56.2896C55.9862 9.9794 54.9922 9.56067 53.6047 9.52552C53.0145 9.51052 52.4072 9.57721 51.832 9.7111C51.1109 9.87912 50.7175 10.3893 50.6685 11.0278C50.6057 11.8445 50.8514 12.4287 51.5904 12.696C52.382 12.9819 53.2272 13.1395 54.061 13.2838C55.5485 13.5412 57.0431 13.7495 58.3956 14.4913C60.2337 15.4994 60.8543 17.1821 60.5963 19.1119C60.259 21.6357 58.6475 23.0584 56.3292 23.717C53.6912 24.4666 51.1099 24.2866 48.7206 22.8205C47.2285 21.905 46.3195 20.5578 46.0161 18.8193C45.9987 18.7185 46.0136 18.612 46.0136 18.4564Z" fill="black"/>
<path d="M45.1642 6.39732V10.2978C44.9138 10.2978 44.6652 10.2978 44.4164 10.2978C43.4131 10.2978 42.4098 10.2947 41.4065 10.2988C40.2754 10.3034 39.7991 10.7775 39.7981 11.9178C39.7939 15.6819 39.7965 19.4453 39.7965 23.2092C39.7965 23.372 39.7965 23.5354 39.7965 23.7365H35.6386V23.2681C35.6386 19.2943 35.6334 15.321 35.6402 11.3471C35.6448 8.51684 37.7812 6.38802 40.6139 6.37768C41.9916 6.37251 43.3693 6.37614 44.747 6.37768C44.8784 6.37768 45.0091 6.39009 45.1642 6.39732Z" fill="black"/>
<path d="M104.411 23.754H100.148V8.63672H104.411V23.754Z" fill="black"/>
<path d="M102.263 6.01119C100.674 6.01791 99.4654 4.81961 99.4727 3.24393C99.4799 1.691 100.73 0.420325 102.25 0.421876C103.798 0.423428 105.07 1.69875 105.075 3.25324C105.079 4.80099 103.852 6.00447 102.263 6.01119Z" fill="black"/>
</g>
<defs>
<clipPath id="clip0_1126_1911">
<rect width="125" height="24.5902" fill="white"/>
</clipPath>
</defs>
</svg>
