<svg width="632" height="135" viewBox="0 0 632 135" fill="none" xmlns="http://www.w3.org/2000/svg">
<path d="M426.89 3.48909H415.21C414.494 3.53941 413.807 3.79155 413.228 4.21629C412.649 4.64104 412.203 5.22103 411.94 5.88909L386.41 75.9991C386.272 76.253 386.205 76.5392 386.215 76.8279C386.225 77.1167 386.312 77.3975 386.467 77.6413C386.622 77.8851 386.839 78.083 387.097 78.2145C387.354 78.346 387.642 78.4063 387.93 78.3891H399.62C400.335 78.3385 401.021 78.0874 401.599 77.6646C402.177 77.2419 402.625 76.6646 402.89 75.9991L428.42 5.88909C428.558 5.63369 428.624 5.34622 428.614 5.05635C428.603 4.76648 428.515 4.4847 428.359 4.24011C428.203 3.99552 427.985 3.79696 427.727 3.66494C427.468 3.53292 427.18 3.47222 426.89 3.48909Z" fill="white"/>
<path d="M30.49 28.9995C32.59 23.2295 39.02 18.5095 44.79 18.5095H101.79C102.498 18.4435 103.174 18.1811 103.741 17.7517C104.308 17.3224 104.744 16.7433 105 16.0795L108.7 5.88954C108.84 5.63532 108.91 5.34804 108.901 5.05777C108.892 4.76749 108.806 4.48489 108.651 4.23954C108.495 3.9942 108.277 3.79514 108.018 3.66319C107.759 3.53125 107.47 3.47127 107.18 3.48954H44.3C32.77 3.48954 19.89 12.9295 15.69 24.4895L3.69002 57.4895C-0.509981 69.0295 5.49002 78.4895 17.03 78.4895H64.35C74.24 78.4895 85.29 70.3995 88.89 60.4895L97.28 37.4195C97.4256 37.1648 97.4993 36.8753 97.4933 36.5819C97.4872 36.2886 97.4015 36.0024 97.2455 35.7539C97.0894 35.5054 96.8688 35.304 96.6071 35.1711C96.3455 35.0383 96.0527 34.979 95.76 34.9995H50.5C49.7857 35.0513 49.1004 35.3029 48.5222 35.7255C47.944 36.1481 47.4962 36.7247 47.23 37.3895L44.62 44.5895C44.4822 44.8435 44.4148 45.1296 44.4247 45.4184C44.4347 45.7071 44.5218 45.988 44.6768 46.2318C44.8319 46.4756 45.0493 46.6735 45.3066 46.8049C45.5638 46.9364 45.8516 46.9967 46.14 46.9795H76.28C76.5684 46.9624 76.8562 47.0227 77.1135 47.1541C77.3707 47.2856 77.5882 47.4835 77.7432 47.7273C77.8983 47.9711 77.9853 48.2519 77.9953 48.5407C78.0053 48.8294 77.9379 49.1156 77.8 49.3695L74.31 58.9595C73.8186 60.2118 72.9815 61.2987 71.8962 62.0936C70.811 62.8885 69.5222 63.3587 68.18 63.4495H28.43C22.66 63.4495 19.66 58.7295 21.76 52.9695L30.49 28.9995Z" fill="white"/>
<path d="M627.83 3.48934H564.92C553.38 3.48934 540.51 12.9293 536.31 24.4893L524.31 57.4893C520.11 69.0293 526.11 78.4893 537.65 78.4893H585C594.9 78.4893 605.94 70.3993 609.54 60.4893L617.94 37.4193C618.089 37.1608 618.164 36.8662 618.156 36.5679C618.148 36.2697 618.058 35.9794 617.895 35.7291C617.733 35.4788 617.505 35.2782 617.235 35.1494C616.966 35.0207 616.667 34.9687 616.37 34.9993H571.12C570.405 35.05 569.72 35.3011 569.141 35.7238C568.563 36.1466 568.115 36.7238 567.85 37.3893L565.23 44.5893C565.092 44.844 565.024 45.1312 565.034 45.4209C565.045 45.7106 565.133 45.9921 565.289 46.2363C565.445 46.4804 565.664 46.6781 565.923 46.8088C566.182 46.9395 566.471 46.9984 566.76 46.9793H596.89C597.179 46.9603 597.468 47.0192 597.727 47.1498C597.986 47.2805 598.205 47.4783 598.361 47.7224C598.517 47.9665 598.605 48.2481 598.616 48.5378C598.626 48.8275 598.558 49.1146 598.42 49.3693L594.93 58.9593C594.438 60.2109 593.6 61.2971 592.515 62.0919C591.43 62.8867 590.142 63.3574 588.8 63.4493H549.05C543.28 63.4493 540.28 58.7293 542.38 52.9693L551.1 28.9693C553.2 23.1993 559.64 18.4793 565.41 18.4793H622.41C623.125 18.4287 623.811 18.1776 624.389 17.7549C624.967 17.3321 625.415 16.7549 625.68 16.0893L629.39 5.89934C629.536 5.64181 629.608 5.34935 629.599 5.05369C629.59 4.75802 629.5 4.47044 629.34 4.22212C629.179 3.97381 628.953 3.77424 628.687 3.64506C628.421 3.51589 628.125 3.46203 627.83 3.48934Z" fill="white"/>
<path d="M175.25 63.4299H128.31C122.54 63.4299 119.54 58.7099 121.64 52.9399L138.77 5.93987C138.908 5.68447 138.974 5.397 138.964 5.10713C138.953 4.81726 138.865 4.53548 138.709 4.29089C138.553 4.0463 138.335 3.84774 138.077 3.71572C137.819 3.5837 137.53 3.523 137.24 3.53987H125.56C124.844 3.59019 124.157 3.84233 123.578 4.26708C122.999 4.69182 122.553 5.27181 122.29 5.93987L103.53 57.4299C99.3301 68.9699 105.33 78.4299 116.87 78.4299H169.8C170.519 78.3758 171.208 78.1188 171.787 77.6886C172.366 77.2585 172.811 76.6729 173.07 75.9999L176.78 65.8099C176.913 65.5551 176.975 65.2699 176.962 64.983C176.949 64.6961 176.86 64.4178 176.705 64.1763C176.55 63.9347 176.334 63.7385 176.078 63.6074C175.822 63.4763 175.537 63.4151 175.25 63.4299Z" fill="white"/>
<path d="M274.12 3.49023H229.79C218.26 3.49023 205.38 12.9302 201.18 24.4902L189.18 57.4902C184.98 69.0302 190.99 78.4902 202.52 78.4902H246.85C258.39 78.4902 271.27 69.0502 275.47 57.4902L287.47 24.4902C291.66 12.9302 285.66 3.49023 274.12 3.49023ZM269.34 29.0002L260.62 53.0002C258.52 58.7702 252.08 63.4902 246.32 63.4902H214C208.23 63.4902 205.23 58.7702 207.33 53.0002L216 29.0002C218.1 23.2302 224.54 18.5102 230.31 18.5102H262.65C268.44 18.4802 271.44 23.2002 269.34 29.0002Z" fill="white"/>
<path d="M397 3.4898H385.33C384.584 3.59343 383.881 3.89743 383.294 4.36939C382.708 4.84136 382.261 5.4636 382 6.1698L361.72 61.6998C361.46 62.4098 361.04 62.7698 360.47 62.7698H359.47C358.82 62.7698 358.47 62.5198 358.35 62.0198L337.59 9.7798C337.187 8.65266 336.689 7.56202 336.1 6.5198C335.662 5.75503 335.061 5.09608 334.34 4.5898C333.533 4.09092 332.624 3.77991 331.68 3.6798C330.278 3.53173 328.869 3.46828 327.46 3.4898H319.12C313.36 3.4898 306.92 8.2098 304.82 13.9798L282.24 75.9998C282.102 76.2537 282.035 76.5399 282.045 76.8287C282.055 77.1174 282.142 77.3982 282.297 77.642C282.452 77.8858 282.669 78.0837 282.926 78.2152C283.184 78.3467 283.472 78.407 283.76 78.3898H295.45C296.165 78.3392 296.85 78.0881 297.429 77.6653C298.007 77.2426 298.455 76.6653 298.72 75.9998L319 20.1998C319.066 19.9054 319.227 19.641 319.458 19.4475C319.69 19.254 319.979 19.1424 320.28 19.1298H321.28C321.92 19.1298 322.28 19.3798 322.4 19.8798L343.2 72.1198C343.6 73.2465 344.095 74.3371 344.68 75.3798C345.121 76.1425 345.721 76.8009 346.44 77.3098C347.25 77.8104 348.163 78.1215 349.11 78.2198C350.508 78.3679 351.914 78.4314 353.32 78.4098H361.66C367.43 78.4098 373.87 73.6898 375.97 67.9198L398.55 5.9198C398.696 5.66205 398.77 5.36922 398.762 5.07284C398.755 4.77647 398.667 4.48776 398.507 4.23781C398.348 3.98785 398.123 3.78611 397.857 3.65431C397.592 3.52251 397.295 3.46563 397 3.4898Z" fill="white"/>
<path d="M531.18 3.4907H519.49C518.752 3.60106 518.056 3.90812 517.478 4.37966C516.899 4.85121 516.457 5.46985 516.2 6.1707L495.89 61.7007C495.63 62.4107 495.21 62.7707 494.64 62.7707H493.64C492.99 62.7707 492.64 62.5207 492.52 62.0207L471.76 9.7807C471.357 8.65355 470.859 7.56291 470.27 6.5207C469.832 5.75592 469.231 5.09698 468.51 4.5907C467.703 4.09181 466.794 3.78081 465.85 3.6807C464.448 3.53262 463.039 3.46918 461.63 3.4907H453.29C447.53 3.4907 441.09 8.2107 438.99 13.9807L424.77 53.0007L416.41 76.0007C416.272 76.2546 416.205 76.5408 416.215 76.8295C416.225 77.1183 416.312 77.3991 416.467 77.6429C416.622 77.8867 416.839 78.0846 417.097 78.2161C417.354 78.3476 417.642 78.4079 417.93 78.3907H429.62C430.335 78.3401 431.021 78.089 431.599 77.6662C432.177 77.2435 432.625 76.6662 432.89 76.0007L453.2 20.2007C453.265 19.9079 453.425 19.6446 453.654 19.4513C453.884 19.258 454.17 19.1454 454.47 19.1307H455.47C456.11 19.1307 456.47 19.3807 456.59 19.8807L477.39 72.1207C477.79 73.2474 478.285 74.338 478.87 75.3807C479.311 76.1434 479.911 76.8017 480.63 77.3107C481.44 77.8113 482.353 78.1224 483.3 78.2207C484.698 78.3688 486.104 78.4323 487.51 78.4107H495.85C501.62 78.4107 508.06 73.6907 510.16 67.9207L532.74 5.9207C532.887 5.66218 532.961 5.36833 532.953 5.07098C532.945 4.77363 532.856 4.48411 532.695 4.2338C532.534 3.98348 532.308 3.78191 532.041 3.65092C531.774 3.51994 531.476 3.46453 531.18 3.4907Z" fill="white"/>
<path d="M395.84 93.4004H392.73C392.598 93.4108 392.471 93.4586 392.365 93.5383C392.258 93.6179 392.177 93.7262 392.13 93.8504L381.2 123.85L371.72 93.6004C371.7 93.5398 371.661 93.4875 371.609 93.4513C371.556 93.4152 371.494 93.3973 371.43 93.4004H368.27C368.138 93.4108 368.011 93.4586 367.905 93.5383C367.798 93.6179 367.717 93.7262 367.67 93.8504L354.29 130.61C354.265 130.657 354.253 130.71 354.255 130.763C354.257 130.816 354.274 130.867 354.302 130.912C354.33 130.957 354.37 130.993 354.417 131.017C354.464 131.042 354.517 131.053 354.57 131.05H357.72C357.853 131.042 357.98 130.996 358.088 130.918C358.196 130.84 358.28 130.733 358.33 130.61L369.25 100.61L378.71 130.87C378.732 130.932 378.772 130.984 378.827 131.02C378.881 131.057 378.945 131.074 379.01 131.07H382.14C382.271 131.06 382.396 131.013 382.502 130.935C382.608 130.858 382.69 130.752 382.74 130.63L396.12 93.8704C396.153 93.823 396.172 93.7671 396.174 93.7094C396.176 93.6517 396.161 93.5945 396.132 93.5449C396.102 93.4953 396.059 93.4552 396.007 93.4296C395.955 93.4039 395.897 93.3938 395.84 93.4004Z" fill="#EEEEEE"/>
<path d="M431 93.4004H402.48C402.348 93.4108 402.221 93.4586 402.115 93.5383C402.008 93.6179 401.927 93.7262 401.88 93.8504L400.88 96.4704C400.855 96.518 400.843 96.5715 400.845 96.6254C400.848 96.6793 400.865 96.7315 400.894 96.7765C400.924 96.8216 400.965 96.8578 401.014 96.8813C401.062 96.9049 401.116 96.9149 401.17 96.9104H413.39L401.12 130.61C401.095 130.658 401.083 130.712 401.085 130.765C401.088 130.819 401.105 130.872 401.134 130.917C401.164 130.962 401.205 130.998 401.254 131.021C401.302 131.045 401.356 131.055 401.41 131.05H404.53C404.663 131.042 404.79 130.996 404.898 130.918C405.006 130.84 405.09 130.733 405.14 130.61L417.4 96.9104H429.65C429.781 96.8997 429.906 96.853 430.012 96.7753C430.118 96.6976 430.2 96.5921 430.25 96.4704L431.25 93.8504C431.33 93.6004 431.21 93.4004 431 93.4004Z" fill="#EEEEEE"/>
<path d="M448.19 127.54H428.72L433.86 113.42H450.73C450.863 113.414 450.992 113.369 451.1 113.291C451.209 113.213 451.292 113.105 451.34 112.98L452.34 110.36C452.365 110.314 452.377 110.261 452.375 110.208C452.373 110.155 452.356 110.104 452.328 110.059C452.3 110.014 452.26 109.978 452.213 109.954C452.166 109.929 452.113 109.918 452.06 109.92H435.14L439.87 96.9204H459.21C459.341 96.9098 459.466 96.863 459.572 96.7853C459.678 96.7077 459.761 96.6021 459.81 96.4805L460.81 93.8605C460.835 93.8122 460.846 93.7583 460.843 93.7042C460.84 93.6501 460.824 93.5977 460.794 93.5522C460.765 93.5067 460.724 93.4697 460.676 93.4448C460.628 93.4199 460.574 93.4081 460.52 93.4105H437.57C437.438 93.4208 437.311 93.4686 437.205 93.5483C437.098 93.628 437.017 93.7363 436.97 93.8605L423.59 130.62C423.565 130.667 423.553 130.72 423.555 130.773C423.558 130.826 423.574 130.877 423.602 130.922C423.631 130.967 423.67 131.003 423.717 131.027C423.764 131.052 423.817 131.063 423.87 131.06H446.87C447.003 131.052 447.13 131.006 447.238 130.928C447.346 130.85 447.43 130.744 447.48 130.62L448.48 127.99C448.508 127.943 448.522 127.888 448.521 127.832C448.52 127.777 448.503 127.723 448.473 127.676C448.443 127.63 448.401 127.592 448.351 127.568C448.301 127.544 448.245 127.535 448.19 127.54Z" fill="#EEEEEE"/>
<path d="M524.05 93.3991H520.89C520.758 93.4095 520.631 93.4573 520.525 93.537C520.418 93.6167 520.337 93.7249 520.29 93.8491L514.44 109.919H494.17L500 93.8491C500.027 93.802 500.041 93.7484 500.041 93.6939C500.04 93.6394 500.024 93.5862 499.995 93.5399C499.967 93.4937 499.926 93.4561 499.877 93.4313C499.829 93.4065 499.774 93.3954 499.72 93.3991H496.59C496.458 93.4095 496.331 93.4573 496.225 93.537C496.118 93.6167 496.037 93.7249 495.99 93.8491L482.61 130.609C482.585 130.656 482.573 130.709 482.575 130.761C482.578 130.814 482.594 130.866 482.622 130.911C482.651 130.955 482.69 130.992 482.737 131.016C482.784 131.04 482.837 131.052 482.89 131.049H486C486.131 131.038 486.256 130.992 486.362 130.914C486.468 130.836 486.551 130.731 486.6 130.609L492.86 113.419H513.12L506.87 130.609C506.845 130.656 506.833 130.709 506.835 130.761C506.838 130.814 506.854 130.866 506.882 130.911C506.911 130.955 506.95 130.992 506.997 131.016C507.044 131.04 507.097 131.052 507.15 131.049H510.31C510.441 131.038 510.566 130.992 510.672 130.914C510.778 130.836 510.861 130.731 510.91 130.609L524.29 93.8491C524.316 93.805 524.33 93.755 524.331 93.7039C524.331 93.6529 524.319 93.6024 524.295 93.5573C524.271 93.5123 524.236 93.4741 524.193 93.4464C524.15 93.4187 524.101 93.4025 524.05 93.3991Z" fill="#EEEEEE"/>
<path d="M558.17 93.4007H555.06C554.928 93.4111 554.801 93.4589 554.695 93.5386C554.588 93.6183 554.507 93.7265 554.46 93.8507L543.53 123.851L534.05 93.6007C534.03 93.5402 533.991 93.4878 533.939 93.4517C533.886 93.4155 533.824 93.3976 533.76 93.4007H530.6C530.468 93.4111 530.341 93.4589 530.235 93.5386C530.128 93.6183 530.047 93.7265 530 93.8507L516.62 130.611C516.595 130.658 516.583 130.71 516.585 130.763C516.588 130.816 516.604 130.867 516.632 130.912C516.661 130.957 516.7 130.993 516.747 131.018C516.794 131.042 516.847 131.053 516.9 131.051H520.05C520.183 131.042 520.31 130.996 520.418 130.918C520.526 130.84 520.61 130.734 520.66 130.611L531.58 100.611L541 130.851C541.022 130.912 541.063 130.965 541.117 131.001C541.171 131.037 541.235 131.054 541.3 131.051H544.43C544.561 131.04 544.686 130.993 544.792 130.916C544.898 130.838 544.981 130.732 545.03 130.611L558.41 93.8507C558.436 93.8066 558.45 93.7566 558.451 93.7055C558.451 93.6545 558.439 93.604 558.415 93.5589C558.391 93.5139 558.356 93.4757 558.313 93.448C558.27 93.4203 558.221 93.404 558.17 93.4007Z" fill="#EEEEEE"/>
<path d="M567.92 93.3991H564.79C564.658 93.4095 564.531 93.4573 564.425 93.537C564.318 93.6167 564.237 93.7249 564.19 93.8491L550.81 130.609C550.785 130.656 550.773 130.709 550.775 130.761C550.777 130.814 550.794 130.866 550.822 130.911C550.85 130.955 550.89 130.992 550.937 131.016C550.984 131.04 551.037 131.052 551.09 131.049H554.22C554.351 131.038 554.476 130.992 554.582 130.914C554.688 130.836 554.77 130.731 554.82 130.609L568.2 93.8491C568.227 93.802 568.241 93.7484 568.241 93.6939C568.24 93.6394 568.224 93.5862 568.195 93.5399C568.167 93.4937 568.126 93.4561 568.077 93.4313C568.029 93.4065 567.974 93.3954 567.92 93.3991Z" fill="#EEEEEE"/>
<path d="M585.19 130.191L574 111.811L597.76 94.0005C597.839 93.9496 597.904 93.8801 597.949 93.7981C597.994 93.7161 598.019 93.6242 598.02 93.5305C598.012 93.4527 597.975 93.3809 597.915 93.3305C597.855 93.28 597.778 93.2549 597.7 93.2605H592.78C592.645 93.2663 592.515 93.3153 592.41 93.4005L572.86 108.221L578.1 93.8205C578.125 93.7722 578.136 93.7184 578.133 93.6643C578.13 93.6102 578.114 93.5578 578.084 93.5123C578.055 93.4668 578.014 93.4298 577.966 93.4049C577.918 93.38 577.864 93.3682 577.81 93.3705H574.69C574.556 93.3791 574.427 93.426 574.319 93.5058C574.211 93.5856 574.128 93.6949 574.08 93.8205L560.7 130.611C560.675 130.658 560.663 130.712 560.665 130.766C560.668 130.819 560.685 130.872 560.714 130.917C560.744 130.962 560.785 130.998 560.834 131.021C560.882 131.045 560.936 131.055 560.99 131.051H564.11C564.243 131.042 564.37 130.996 564.478 130.918C564.586 130.84 564.67 130.734 564.72 130.611L570.63 114.371L580.38 130.811C580.41 130.853 580.451 130.888 580.498 130.91C580.545 130.933 580.598 130.943 580.65 130.941H584.65C584.747 130.935 584.842 130.909 584.928 130.864C585.014 130.819 585.09 130.757 585.15 130.681C585.204 130.612 585.236 130.528 585.243 130.441C585.25 130.354 585.232 130.267 585.19 130.191Z" fill="#EEEEEE"/>
<path d="M318.16 130.059L314.64 114.399C317.168 114.284 319.612 113.454 321.688 112.006C323.765 110.558 325.388 108.552 326.37 106.219L328.1 101.469C329.74 96.9591 327.1 93.2891 322.34 93.2891H306.19C306.058 93.2974 305.932 93.3433 305.826 93.4213C305.719 93.4992 305.638 93.6061 305.59 93.7291L292.05 130.579C292.025 130.626 292.013 130.678 292.015 130.731C292.017 130.784 292.034 130.836 292.062 130.88C292.09 130.925 292.13 130.962 292.177 130.986C292.224 131.01 292.277 131.022 292.33 131.019H295.48C295.612 131.009 295.739 130.963 295.847 130.885C295.955 130.807 296.039 130.702 296.09 130.579L302 114.399H310.19L313.75 130.829C313.768 130.896 313.809 130.954 313.866 130.994C313.922 131.035 313.991 131.054 314.06 131.049H317.39C317.521 131.038 317.646 130.992 317.752 130.914C317.858 130.836 317.94 130.731 317.99 130.609L318.11 130.279C318.15 130.213 318.168 130.136 318.16 130.059ZM303.42 110.629L308.42 97.0591H321C321.548 96.998 322.102 97.0851 322.605 97.3113C323.108 97.5375 323.54 97.8945 323.858 98.345C324.176 98.7956 324.367 99.3231 324.411 99.8726C324.455 100.422 324.351 100.973 324.11 101.469L322.38 106.219C321.851 107.475 320.978 108.555 319.862 109.335C318.745 110.116 317.431 110.564 316.07 110.629H303.42Z" fill="#EEEEEE"/>
<path d="M488.63 97.0597C488.763 97.0518 488.891 97.0049 488.998 96.9249C489.104 96.8449 489.185 96.7352 489.23 96.6097L490.29 93.7197C490.315 93.6728 490.327 93.6203 490.325 93.5673C490.323 93.5144 490.306 93.4629 490.278 93.4182C490.25 93.3735 490.21 93.3372 490.163 93.3128C490.116 93.2885 490.063 93.277 490.01 93.2797H475.43C472.906 93.3968 470.466 94.2262 468.394 95.6721C466.322 97.118 464.701 99.1211 463.72 101.45L455.93 122.85C454.29 127.36 456.87 131.03 461.69 131.03H476.26C476.392 131.019 476.519 130.971 476.625 130.892C476.732 130.812 476.813 130.704 476.86 130.58L477.92 127.69C478 127.45 477.92 127.25 477.64 127.25H463.07C462.522 127.311 461.968 127.224 461.465 126.997C460.962 126.771 460.53 126.414 460.212 125.964C459.894 125.513 459.703 124.986 459.659 124.436C459.615 123.887 459.719 123.335 459.96 122.84L467.75 101.44C468.28 100.186 469.154 99.1078 470.27 98.3293C471.387 97.5508 472.7 97.1037 474.06 97.0397L488.63 97.0597Z" fill="#EEEEEE"/>
<path d="M286.86 130.191L275.72 111.81L299.43 94.0005C299.509 93.9496 299.573 93.88 299.619 93.798C299.664 93.7161 299.689 93.6242 299.69 93.5305C299.687 93.4924 299.677 93.4551 299.66 93.4209C299.643 93.3867 299.62 93.3562 299.591 93.3311C299.562 93.306 299.529 93.2868 299.493 93.2747C299.456 93.2626 299.418 93.2578 299.38 93.2605H294.46C294.324 93.2648 294.194 93.314 294.09 93.4005L274.54 108.22L279.77 93.8205C279.797 93.7734 279.811 93.7197 279.811 93.6652C279.81 93.6108 279.794 93.5576 279.765 93.5113C279.737 93.465 279.696 93.4275 279.647 93.4027C279.599 93.3779 279.544 93.3668 279.49 93.3705H276.36C276.227 93.3797 276.1 93.427 275.993 93.5069C275.887 93.5867 275.806 93.6956 275.76 93.8205L262.38 130.581C262.355 130.627 262.343 130.68 262.345 130.733C262.347 130.786 262.364 130.837 262.392 130.882C262.42 130.927 262.46 130.963 262.507 130.987C262.554 131.012 262.607 131.023 262.66 131.021H265.79C265.921 131.01 266.046 130.963 266.152 130.885C266.258 130.808 266.34 130.702 266.39 130.581L272.3 114.34L282.05 130.78C282.08 130.823 282.121 130.858 282.168 130.88C282.215 130.903 282.268 130.913 282.32 130.911H286.26C286.357 130.906 286.452 130.881 286.539 130.836C286.625 130.791 286.701 130.728 286.76 130.65C286.82 130.592 286.861 130.517 286.879 130.435C286.896 130.354 286.89 130.269 286.86 130.191Z" fill="#EEEEEE"/>
<path d="M353.48 93.2793H345.48C342.956 93.3952 340.516 94.2242 338.443 95.6702C336.37 97.1162 334.75 99.12 333.77 101.449L323.16 130.589C323.133 130.636 323.119 130.69 323.119 130.745C323.12 130.799 323.136 130.852 323.165 130.898C323.193 130.945 323.234 130.982 323.283 131.007C323.331 131.032 323.386 131.043 323.44 131.039H326.59C326.723 131.03 326.85 130.984 326.958 130.907C327.066 130.829 327.15 130.722 327.2 130.599L332.2 116.929H349.57L344.57 130.599C344.545 130.647 344.533 130.7 344.535 130.754C344.538 130.808 344.555 130.86 344.584 130.905C344.614 130.95 344.655 130.987 344.704 131.01C344.752 131.034 344.806 131.044 344.86 131.039H348C348.134 131.031 348.263 130.984 348.371 130.904C348.479 130.824 348.562 130.715 348.61 130.589L359.22 101.449C360.89 96.9993 358.3 93.2793 353.48 93.2793ZM333.48 113.429L337.84 101.429C338.368 100.174 339.241 99.0948 340.358 98.316C341.475 97.5372 342.79 97.091 344.15 97.0293H352.15C354.75 97.0293 356.15 99.0293 355.25 101.429L350.89 113.429H333.48Z" fill="#EEEEEE"/>
</svg>
