<svg width="124" height="62" viewBox="0 0 124 62" fill="none" xmlns="http://www.w3.org/2000/svg">
<g clip-path="url(#clip0_4331_573)">
<path d="M39.1294 44.831H26.2032C26.0537 44.831 25.9103 44.8912 25.8046 44.9985C25.6989 45.1057 25.6395 45.2511 25.6395 45.4028V50.4774C25.6395 50.629 25.6989 50.7745 25.8046 50.8817C25.9103 50.9889 26.0537 51.0492 26.2032 51.0492H32.4076C31.3716 53.527 29.2347 54.7654 25.9969 54.7644C23.4752 54.7644 21.5111 54.0109 20.1046 52.5038C18.7247 51.0233 18.0347 49.1787 18.0344 46.9699C18.0344 44.7362 18.738 42.8788 20.1452 41.3978C21.5514 39.9432 23.3565 39.216 25.5603 39.2162C26.8128 39.1998 28.0522 39.4762 29.1825 40.0239C30.0259 40.4213 30.769 41.0083 31.3554 41.7404C31.4381 41.8542 31.5586 41.9337 31.6946 41.9641C31.8307 41.9946 31.973 41.9739 32.0952 41.906L37.1729 38.9579C37.241 38.9188 37.3004 38.8657 37.3473 38.8022C37.3942 38.7386 37.4276 38.6659 37.4455 38.5886C37.4633 38.5113 37.4652 38.4311 37.4511 38.3531C37.4369 38.275 37.407 38.2007 37.3631 38.135C36.1324 36.3666 34.5014 34.9233 32.6071 33.9263C30.4157 32.7377 27.9649 32.1264 25.4799 32.1486C21.3656 32.1486 17.9152 33.5755 15.1286 36.4292C12.3417 39.311 10.9483 42.8108 10.9483 46.9288C10.9483 51.0753 12.3417 54.5618 15.1286 57.388C17.9689 60.2149 21.5519 61.6283 25.8776 61.6283C29.939 61.6283 33.2567 60.3495 35.8309 57.7919C38.4052 55.2074 39.6927 51.8421 39.6935 47.6961V45.4028C39.6933 45.2511 39.6338 45.1057 39.5281 44.9985C39.4223 44.8913 39.2789 44.8311 39.1294 44.831V44.831Z" fill="#F9444B"/>
<path d="M57.6177 33.1488C57.5804 33.0345 57.5086 32.9349 57.4124 32.8644C57.3163 32.7938 57.2006 32.7557 57.0819 32.7555H49.218C49.0993 32.7557 48.9836 32.7937 48.8874 32.8643C48.7912 32.9349 48.7193 33.0345 48.6821 33.1488L39.858 60.2727C39.8301 60.3586 39.8226 60.4501 39.8363 60.5395C39.85 60.6289 39.8844 60.7138 39.9367 60.7871C39.989 60.8604 40.0577 60.9201 40.1372 60.9612C40.2167 61.0024 40.3046 61.0238 40.3938 61.0238H46.9161C47.0378 61.0238 47.1562 60.984 47.2538 60.9102C47.3514 60.8364 47.4228 60.7326 47.4576 60.6143L48.5317 56.9459H57.8081L58.8821 60.6143C58.9169 60.7326 58.9883 60.8364 59.0859 60.9102C59.1835 60.984 59.3019 61.0238 59.4236 61.0238H65.906C65.9952 61.0238 66.0831 61.0024 66.1626 60.9612C66.2421 60.9201 66.3108 60.8604 66.3631 60.7871C66.4154 60.7138 66.4498 60.6289 66.4634 60.5395C66.4771 60.4501 66.4697 60.3586 66.4418 60.2727L57.6177 33.1488ZM50.3631 50.7255L53.1502 41.1149L55.9771 50.726L50.3631 50.7255Z" fill="#F9444B"/>
<path d="M90.3755 33.5141C88.525 34.3837 86.5667 34.9947 84.5543 35.3305C84.4233 35.3524 84.3042 35.4207 84.2181 35.5231C84.132 35.6255 84.0843 35.7556 84.0837 35.8902V46.9705L76.282 35.6939C76.2378 35.6308 76.1814 35.5775 76.1163 35.5374C76.0511 35.4972 75.9785 35.4711 75.9029 35.4604C73.6987 35.1618 71.5484 34.5424 69.5185 33.6213C69.4335 33.5797 69.3395 33.5606 69.2453 33.5658C69.151 33.5709 69.0596 33.6001 68.9795 33.6508C68.8994 33.7014 68.8332 33.7718 68.7871 33.8553C68.741 33.9388 68.7165 34.0328 68.7159 34.1286V60.4561C68.716 60.531 68.7308 60.6052 68.7592 60.6743C68.7877 60.7435 68.8294 60.8062 68.8818 60.859C68.9343 60.9117 68.9965 60.9534 69.0649 60.9818C69.1333 61.0101 69.2065 61.0244 69.2804 61.0239H75.2776C75.3517 61.024 75.4251 61.0093 75.4936 60.9806C75.562 60.9519 75.6243 60.9098 75.6767 60.8567C75.7291 60.8036 75.7707 60.7405 75.7991 60.6711C75.8275 60.6017 75.8421 60.5273 75.8422 60.4521V46.8091L85.5073 60.7807C85.5594 60.8559 85.6286 60.9172 85.7089 60.9595C85.7893 61.0018 85.8785 61.0238 85.9691 61.0238H90.6057C90.6797 61.0239 90.7531 61.0091 90.8216 60.9804C90.8901 60.9517 90.9523 60.9096 91.0047 60.8565C91.0571 60.8034 91.0987 60.7404 91.1271 60.671C91.1555 60.6016 91.1701 60.5271 91.1702 60.452V34.0358C91.1708 33.9401 91.1476 33.8458 91.1028 33.7616C91.058 33.6774 90.993 33.606 90.9138 33.554C90.8346 33.502 90.7438 33.4711 90.6497 33.4641C90.5556 33.4571 90.4613 33.4743 90.3755 33.5141Z" fill="#F9444B"/>
<path d="M121.936 44.831H109.769C109.62 44.831 109.476 44.8912 109.37 44.9984C109.264 45.1056 109.205 45.2511 109.205 45.4028V50.4774C109.205 50.6291 109.264 50.7746 109.37 50.8818C109.476 50.989 109.62 51.0492 109.769 51.0492H115.973C114.938 53.527 112.802 54.7654 109.564 54.7644C107.042 54.7644 105.078 54.0109 103.671 52.5038C102.291 51.0233 101.601 49.1787 101.601 46.9699C101.601 44.7362 102.305 42.8788 103.711 41.3978C105.118 39.9432 106.923 39.216 109.126 39.2162C110.379 39.1999 111.619 39.4763 112.749 40.0239C113.592 40.4213 114.335 41.0083 114.921 41.7404C115.004 41.8542 115.125 41.9337 115.261 41.9642C115.397 41.9946 115.54 41.974 115.662 41.906L120.739 38.9579C120.807 38.9188 120.866 38.8659 120.913 38.8023C120.96 38.7388 120.994 38.6661 121.012 38.5887C121.03 38.5114 121.031 38.4312 121.017 38.3531C121.003 38.275 120.973 38.2007 120.929 38.135C119.698 36.3663 118.067 34.9231 116.172 33.9263C113.981 32.7376 111.531 32.1263 109.047 32.1486C104.931 32.1486 101.481 33.5755 98.6953 36.4292C95.9085 39.311 94.515 42.8108 94.515 46.9288C94.515 51.0753 95.9085 54.5618 98.6953 57.388C101.536 60.2149 105.119 61.6283 109.444 61.6283C113.505 61.6283 116.823 60.3495 119.397 57.7919C121.972 55.2074 123.259 51.8421 123.259 47.6961V46.1719C123.259 45.9957 123.225 45.8213 123.159 45.6585C123.092 45.4957 122.994 45.3479 122.872 45.2234C122.749 45.0988 122.603 45.0001 122.442 44.9328C122.282 44.8655 122.11 44.8309 121.936 44.831V44.831Z" fill="#F9444B"/>
<path d="M77.3227 23.6895H83.3209C83.4706 23.6895 83.6142 23.6292 83.72 23.5218C83.8259 23.4144 83.8854 23.2688 83.8854 23.1169V19.7878H87.5872C90.4003 19.7878 92.7625 18.859 94.6738 17.0013C96.5851 15.1437 97.5406 12.7745 97.5403 9.89389C97.5403 7.01379 96.5848 4.64464 94.6738 2.78646C92.7628 0.92827 90.4006 -0.000549028 87.5872 2.43471e-07H77.3227C77.173 3.66467e-05 77.0294 0.0603782 76.9235 0.167757C76.8177 0.275135 76.7582 0.420762 76.7581 0.572618V23.1169C76.7582 23.2688 76.8177 23.4144 76.9235 23.5218C77.0294 23.6292 77.173 23.6895 77.3227 23.6895V23.6895ZM83.8854 7.47819C83.8853 7.40305 83.8998 7.32862 83.9281 7.25917C83.9564 7.18972 83.9979 7.1266 84.0503 7.07342C84.1026 7.02025 84.1648 6.97806 84.2332 6.94926C84.3017 6.92046 84.375 6.90561 84.4491 6.90558H87.5872C87.9602 6.89703 88.3311 6.96608 88.6769 7.10847C89.0227 7.25085 89.336 7.46355 89.5977 7.73347C90.1414 8.28585 90.4137 9.00599 90.4145 9.89389C90.4153 10.7818 90.1431 11.5087 89.5977 12.0746C89.339 12.3499 89.0266 12.5674 88.6805 12.7135C88.3343 12.8595 87.962 12.9307 87.5872 12.9227H83.8854V7.47819Z" fill="#F9444B"/>
<path d="M106.737 17.4859V27.6965C106.737 27.8481 106.796 27.9936 106.902 28.1008C107.008 28.208 107.151 28.2683 107.301 28.2683H113.299C113.373 28.2683 113.446 28.2536 113.515 28.2249C113.583 28.1962 113.646 28.1541 113.698 28.101C113.75 28.0479 113.792 27.9848 113.82 27.9154C113.849 27.846 113.863 27.7716 113.863 27.6965V17.4052L122.801 0.847253C122.848 0.760139 122.872 0.662091 122.871 0.562761C122.869 0.46343 122.842 0.366239 122.792 0.280748C122.742 0.195257 122.671 0.124414 122.586 0.0751877C122.501 0.0259618 122.405 4.80366e-05 122.307 -1.73333e-07H115.611C115.505 2.18518e-05 115.401 0.0304194 115.311 0.0876967C115.221 0.144974 115.149 0.226807 115.103 0.323796L110.28 10.4592L105.497 0.32517C105.451 0.227754 105.379 0.145524 105.289 0.0879481C105.198 0.0303724 105.094 -0.000208968 104.988 -0.000274658H98.2912C98.1934 -0.000210994 98.0972 0.0256643 98.0122 0.0748085C97.9271 0.123953 97.8562 0.194678 97.8062 0.280044C97.7563 0.365409 97.7291 0.462479 97.7273 0.561728C97.7255 0.660977 97.7492 0.758991 97.796 0.846153L106.737 17.4859Z" fill="#F9444B"/>
<path d="M14.9698 27.6965C14.9698 27.8481 15.0292 27.9936 15.1349 28.1008C15.2406 28.208 15.384 28.2683 15.5335 28.2683H21.4919C21.566 28.2683 21.6394 28.2536 21.7079 28.2249C21.7763 28.1962 21.8385 28.1541 21.891 28.101C21.9434 28.0479 21.985 27.9848 22.0134 27.9154C22.0418 27.846 22.0564 27.7716 22.0564 27.6965V0.572617C22.0565 0.497405 22.0419 0.422919 22.0136 0.353421C21.9852 0.283924 21.9437 0.220778 21.8912 0.167595C21.8388 0.114412 21.7765 0.0722351 21.708 0.0434777C21.6395 0.0147203 21.5661 -5.40195e-05 21.4919 1.48411e-07H15.5335C15.4594 1.81382e-05 15.3861 0.014848 15.3176 0.0436411C15.2492 0.0724343 15.187 0.114627 15.1347 0.167807C15.0823 0.220986 15.0408 0.28411 15.0125 0.35357C14.9842 0.42303 14.9697 0.497464 14.9698 0.572617V10.4595H7.12669V0.572617C7.12674 0.497405 7.11218 0.422919 7.08383 0.353421C7.05548 0.283924 7.01389 0.220778 6.96146 0.167595C6.90903 0.114412 6.84677 0.0722351 6.77826 0.0434777C6.70974 0.0147203 6.63631 -5.40195e-05 6.56216 1.48411e-07H0.564917C0.490768 -5.40195e-05 0.417336 0.0147203 0.34882 0.0434777C0.280304 0.0722351 0.218048 0.114412 0.165617 0.167595C0.113185 0.220778 0.0716038 0.283924 0.0432526 0.353421C0.0149014 0.422919 0.000335843 0.497405 0.000389245 0.572617V27.6965C0.000424778 27.7716 0.0150583 27.846 0.0434509 27.9154C0.0718436 27.9848 0.11344 28.0479 0.165865 28.101C0.218289 28.1541 0.280515 28.1962 0.348985 28.2249C0.417456 28.2536 0.490831 28.2683 0.564917 28.2683H6.56216C6.63625 28.2683 6.70964 28.2536 6.77811 28.2249C6.84659 28.1962 6.90883 28.1541 6.96126 28.101C7.01368 28.0479 7.05528 27.9849 7.08367 27.9154C7.11205 27.846 7.12667 27.7716 7.12669 27.6965V17.4052H14.9698V27.6965Z" fill="#F9444B"/>
<path d="M53.7535 23.6895H59.7507C59.8249 23.6896 59.8983 23.6748 59.9668 23.6461C60.0353 23.6173 60.0976 23.5751 60.15 23.5219C60.2025 23.4688 60.244 23.4056 60.2724 23.3361C60.3007 23.2666 60.3153 23.1921 60.3153 23.1169V19.7878H64.0178C66.8318 19.7878 69.1943 18.859 71.1053 17.0013C73.0163 15.1437 73.9715 12.7745 73.971 9.89389C73.971 7.01379 73.0157 4.64464 71.1053 2.78646C69.1948 0.92827 66.8323 -0.000549028 64.0178 2.43471e-07H53.7535C53.6038 3.66467e-05 53.4602 0.0603782 53.3543 0.167757C53.2485 0.275135 53.189 0.420762 53.1889 0.572618V23.1169C53.189 23.2688 53.2485 23.4144 53.3543 23.5218C53.4602 23.6292 53.6038 23.6895 53.7535 23.6895V23.6895ZM60.3154 7.47819C60.3153 7.40298 60.3299 7.3285 60.3582 7.259C60.3866 7.1895 60.4282 7.12636 60.4806 7.07317C60.533 7.01999 60.5953 6.97781 60.6638 6.94906C60.7323 6.9203 60.8058 6.90552 60.8799 6.90558H64.018C64.3912 6.8971 64.7621 6.96617 65.108 7.10855C65.4539 7.25093 65.7674 7.4636 66.0293 7.73347C66.5715 8.2859 66.8455 9.00558 66.8455 9.89389C66.8455 10.7822 66.5716 11.5092 66.0293 12.0746C65.7704 12.3498 65.4579 12.5674 65.1116 12.7134C64.7653 12.8594 64.3929 12.9307 64.018 12.9227H60.3154V7.47819Z" fill="#F9444B"/>
<path d="M24.867 28.2683H31.3891C31.5107 28.2683 31.6291 28.2284 31.7265 28.1546C31.824 28.0808 31.8953 27.977 31.9298 27.8588L33.0047 24.1895H42.2811L43.3552 27.8588C43.3898 27.977 43.4611 28.0808 43.5585 28.1546C43.656 28.2284 43.7743 28.2683 43.8959 28.2683H50.3782C50.4675 28.2683 50.5556 28.2469 50.6351 28.2057C50.7147 28.1645 50.7834 28.1047 50.8358 28.0313C50.8881 27.9579 50.9225 27.8729 50.9361 27.7834C50.9497 27.6938 50.9421 27.6023 50.914 27.5163L42.0905 0.393281C42.0534 0.278852 41.9816 0.179227 41.8854 0.108608C41.7892 0.0379901 41.6734 -1.9306e-05 41.5547 4.64278e-07H33.6911C33.5723 -0.00015312 33.4565 0.0378014 33.3602 0.108437C33.264 0.179072 33.1922 0.278773 33.1552 0.393281L24.3311 27.5156C24.3029 27.6017 24.2952 27.6933 24.3088 27.7829C24.3223 27.8726 24.3567 27.9576 24.409 28.0312C24.4614 28.1047 24.5302 28.1645 24.6098 28.2057C24.6895 28.247 24.7776 28.2684 24.867 28.2683ZM37.6222 8.35978L40.4489 17.9709H34.8353L37.6222 8.35978Z" fill="#F9444B"/>
<path d="M94.3387 22.7937C94.2054 22.7097 94.0572 22.6532 93.9024 22.6274C93.7476 22.6015 93.5893 22.6069 93.4365 22.6431C93.2837 22.6793 93.1395 22.7457 93.012 22.8385C92.8846 22.9313 92.7764 23.0486 92.6936 23.1838V23.1838C91.6712 24.8581 89.9545 26.3498 87.7523 27.4119C85.5531 28.4756 82.8809 29.108 79.9976 29.1071C77.104 29.108 74.4238 28.4707 72.2197 27.4005C70.0156 26.3304 68.2974 24.8313 67.2814 23.1474C67.2009 23.0087 67.094 22.8876 66.9669 22.7913C66.8398 22.6949 66.695 22.6252 66.541 22.5863C66.3871 22.5474 66.227 22.5399 66.0702 22.5645C65.9133 22.589 65.7629 22.645 65.6277 22.7291C65.4924 22.8133 65.375 22.924 65.2824 23.0547C65.1898 23.1854 65.1238 23.3335 65.0883 23.4903C65.0527 23.6472 65.0484 23.8097 65.0755 23.9683C65.1025 24.1269 65.1605 24.2784 65.246 24.414C66.5582 26.5802 68.6428 28.349 71.1891 29.5862C73.7378 30.8221 76.7604 31.5294 79.998 31.5303C83.2251 31.5294 86.2374 30.8276 88.7806 29.5991C91.3214 28.3699 93.4037 26.6132 94.7231 24.4615C94.89 24.1886 94.9433 23.8597 94.8712 23.5469C94.7991 23.2342 94.6076 22.9632 94.3387 22.7937V22.7937Z" fill="#F9444B"/>
</g>
<defs>
<clipPath id="clip0_4331_573">
<rect width="123.259" height="61.6296" fill="white"/>
</clipPath>
</defs>
</svg>
