<svg width="190" height="43" viewBox="0 0 190 43" fill="none" xmlns="http://www.w3.org/2000/svg">
<path d="M62.0536 13.0388V29.6625V29.6712H59.4268V29.6625V13.0388H62.0536Z" fill="white"/>
<path d="M82.2396 29.6753H79.583V21.6961C79.583 18.3674 76.8427 15.6594 73.4729 15.6594C70.1032 15.6594 67.3618 18.3674 67.3618 21.6961V29.6753H64.7041V21.6961C64.7041 16.9203 68.6371 13.0342 73.4729 13.0342C78.3077 13.0342 82.2396 16.9192 82.2396 21.6961V29.6753Z" fill="white"/>
<path d="M82.8301 13.0388V15.6336H90.285V29.6647V29.6712H92.9118V29.6647V15.6336H100.366V13.0388H82.8301Z" fill="white"/>
<path d="M136.257 17.278C134.707 14.827 131.952 13.1926 128.818 13.1926C123.983 13.1926 120.05 17.0777 120.05 21.8545V29.8337H122.706V21.8545C122.706 18.5259 125.448 15.8179 128.818 15.8179C131.345 15.8179 133.519 17.3412 134.448 19.507L136.257 17.278Z" fill="white"/>
<path d="M109.841 15.1351H117.919V12.511H109.841C105.006 12.511 101.072 16.395 101.072 21.1707C101.072 25.9465 105.005 29.8326 109.841 29.8326H117.919V27.2074H109.841C106.923 27.2074 104.479 25.1756 103.877 22.4687H112.05H112.056V19.8739H112.05H103.875C104.478 17.1681 106.922 15.1351 109.841 15.1351Z" fill="white"/>
<path d="M164.335 15.1351H172.413V12.511H164.335C159.501 12.511 155.566 16.395 155.566 21.1707C155.566 25.9465 159.499 29.8326 164.335 29.8326H172.413V27.2074H164.335C161.417 27.2074 158.974 25.1756 158.37 22.4687H166.543H166.549V19.8739H166.543H158.368C158.973 17.1681 161.416 15.1351 164.335 15.1351Z" fill="white"/>
<path d="M190 12.511V15.1351H181.922C178.552 15.1351 175.811 17.8421 175.811 21.1707C175.811 24.4994 178.552 27.2074 181.922 27.2074H190V29.8326H181.922C177.087 29.8326 173.153 25.9476 173.153 21.1707C173.153 16.395 177.086 12.511 181.922 12.511H190Z" fill="white"/>
<path d="M137.191 13.0388V15.6336H144.645V29.6647V29.6712H147.273V29.6647V15.6336H154.727V13.0388H137.191Z" fill="white"/>
<path d="M21.8245 0C9.77127 0 0 9.65761 0 21.5707C0 32.0396 7.54768 40.7651 17.558 42.7255V39.0395C9.57809 37.0737 3.65085 29.9914 3.65085 21.579C3.65085 11.6509 11.9017 3.57475 22.0441 3.57475V5.29761C12.8718 5.29761 5.41026 12.6023 5.41026 21.5803C5.41026 29.036 10.5593 35.333 17.5566 37.2563V34.254H26.0882V42.7269C36.0985 40.7651 43.6462 32.041 43.6462 21.5721C43.649 9.65624 33.8777 0 21.8245 0ZM21.8245 30.4362C16.8701 30.4362 12.8537 26.4661 12.8537 21.5693C12.8537 16.6726 16.8701 12.7025 21.8245 12.7025C26.7789 12.7025 30.7953 16.6726 30.7953 21.5693C30.7953 26.4661 26.7789 30.4362 21.8245 30.4362Z" fill="url(#paint0_linear_2031_759)"/>
<defs>
<linearGradient id="paint0_linear_2031_759" x1="0.525371" y1="42.7269" x2="50.1457" y2="41.2465" gradientUnits="userSpaceOnUse">
<stop stop-color="#D61849"/>
<stop offset="1" stop-color="#6800FF"/>
</linearGradient>
</defs>
</svg>
