<svg width="133" height="41" viewBox="0 0 133 41" fill="none" xmlns="http://www.w3.org/2000/svg">
<g clip-path="url(#clip0_970_13491)">
<path fill-rule="evenodd" clip-rule="evenodd" d="M10.366 11.545L18.609 3.339L15.257 -1.52588e-05H0V15.2L10.371 25.526V11.545H10.366ZM21.566 36.671L21.793 36.897L24.917 40.01H40.176V24.81L29.806 14.485V28.46L21.566 36.671ZM3.34998 21.471L3.12201 21.697L0 24.81V40.01H15.261L27.723 27.602V9.46498L36.83 18.533L40.183 15.195V-1.52588e-05H24.917L12.456 12.41V30.546L3.34998 21.471Z" fill="white"/>
<path fill-rule="evenodd" clip-rule="evenodd" d="M125.127 28.174V31.792H128.589C128.589 31.792 128.597 32.221 128.583 32.665C128.621 33.5842 128.31 34.4836 127.712 35.183C127.34 35.5583 126.887 35.8442 126.388 36.0195C125.89 36.1948 125.358 36.2548 124.832 36.195C124.375 36.2156 123.918 36.1408 123.491 35.9751C123.063 35.8095 122.675 35.5568 122.351 35.233C121.934 34.7716 121.665 34.1959 121.577 33.58C121.41 32.3314 121.343 31.0713 121.377 29.812C121.333 28.5339 121.4 27.2544 121.577 25.988C121.685 25.4058 121.949 24.864 122.342 24.421C122.674 24.0908 123.07 23.8323 123.505 23.6617C123.941 23.491 124.407 23.4118 124.874 23.429C126.574 23.429 127.446 23.929 128.021 24.897C128.118 25.0666 128.197 25.2455 128.257 25.431H132.88C132.781 24.8972 132.615 24.3778 132.387 23.885C131.306 21.485 128.733 19.637 124.977 19.637H124.83C123.746 19.5724 122.66 19.737 121.643 20.1202C120.627 20.5034 119.702 21.0966 118.93 21.861C116.883 23.861 116.776 26.168 116.776 29.276V30.242C116.776 33.348 116.976 36.059 118.926 37.823C120.548 39.2716 122.659 40.0511 124.833 40.004H124.855C125.982 40.0507 127.107 39.8681 128.161 39.4672C129.216 39.0664 130.178 38.4556 130.989 37.672C132.746 35.91 133.001 33.446 133.001 30.9V28.174H125.127ZM90.4603 27.974L88.0953 27.645C87.4485 27.582 86.8345 27.3306 86.3293 26.922C86.1559 26.7595 86.0189 26.5621 85.9272 26.3429C85.8356 26.1237 85.7913 25.8876 85.7973 25.65C85.7973 24.418 86.7093 23.372 88.7183 23.365C90.1653 23.2516 91.5982 23.7162 92.7033 24.657L92.8283 24.773L95.5563 22.154L95.4283 22.035C94.5444 21.227 93.507 20.6051 92.3777 20.2063C91.2485 19.8076 90.0506 19.6402 88.8553 19.714H88.8283C84.4283 19.736 81.6893 22.226 81.6703 25.8V25.81C81.6307 26.5327 81.7423 27.2557 81.9978 27.9329C82.2533 28.6101 82.6472 29.2266 83.1543 29.743C84.2771 30.7014 85.6716 31.2846 87.1423 31.411L89.5733 31.737C90.1842 31.7665 90.7695 31.9912 91.2433 32.378C91.4382 32.5778 91.5893 32.8161 91.6866 33.0777C91.7839 33.3393 91.8253 33.6184 91.8083 33.897C91.8192 34.2205 91.7484 34.5414 91.6022 34.8302C91.4561 35.119 91.2394 35.3662 90.9723 35.549C90.2015 35.9832 89.3211 36.1841 88.4383 36.127C87.5885 36.1775 86.7371 36.0586 85.9335 35.7775C85.13 35.4963 84.3903 35.0583 83.7573 34.489L83.6313 34.37L80.8813 37.176L80.9543 37.261C82.9443 39.212 85.3163 39.909 88.3413 39.91H88.3953C92.6393 39.896 95.9743 37.673 95.9863 33.785C96.0364 33.0029 95.9196 32.2191 95.6437 31.4855C95.3679 30.7519 94.9393 30.0854 94.3863 29.53C93.2727 28.6151 91.9004 28.0723 90.4623 27.978M109.445 32.457C109.502 32.9789 109.443 33.5067 109.273 34.0033C109.103 34.4999 108.826 34.9532 108.461 35.331C108.032 35.7527 107.517 36.0767 106.951 36.2808C106.384 36.485 105.781 36.5645 105.181 36.514H105.16C104.277 36.5672 103.408 36.2708 102.741 35.689C102.491 35.4468 102.295 35.1539 102.167 34.8298C102.039 34.5057 101.983 34.1579 102 33.81C101.984 33.4553 102.054 33.102 102.204 32.7802C102.354 32.4584 102.579 32.1777 102.861 31.962C103.544 31.5029 104.356 31.2756 105.178 31.314H109.439V32.458L109.445 32.457ZM111.745 21.457C110.353 20.314 108.424 19.72 105.615 19.72C104.362 19.6513 103.107 19.8327 101.924 20.2535C100.741 20.6742 99.6531 21.3261 98.7243 22.171L101.624 24.962C102.556 24.1457 103.722 23.6438 104.955 23.5277C106.189 23.4116 107.427 23.687 108.495 24.315C108.838 24.6533 109.101 25.0631 109.266 25.5149C109.432 25.9668 109.496 26.4496 109.453 26.929L109.4 28.12H104.429C99.8143 28.143 97.9533 30.66 97.9293 33.771C97.8494 35.3509 98.396 36.8986 99.4503 38.078C100.091 38.7185 100.858 39.2183 101.703 39.5455C102.548 39.8727 103.451 40.02 104.356 39.978C105.263 40.049 106.175 39.9151 107.023 39.5862C107.871 39.2573 108.634 38.7419 109.256 38.078L109.521 37.74V39.661H113.807V26.615C113.881 25.6535 113.733 24.6879 113.374 23.7929C113.015 22.8979 112.455 22.0976 111.736 21.454M64.6103 30.875L64.4103 31.665L60.9103 19.894H57.7303L54.2303 31.658L51.2633 19.895H46.8213L52.2503 39.669H55.7793L59.3243 28.299L62.8713 39.669H66.3903L71.8463 19.895H67.4103L64.6103 30.875ZM74.2893 39.669H78.6053V19.894H74.2893V39.669Z" fill="white"/>
</g>
<defs>
<clipPath id="clip0_970_13491">
<rect width="133.001" height="40.011" fill="white"/>
</clipPath>
</defs>
</svg>
