<svg width="632" height="136" viewBox="0 0 632 136" fill="none" xmlns="http://www.w3.org/2000/svg">
<path d="M426.891 3.49007H415.211C414.495 3.54039 413.808 3.79252 413.229 4.21727C412.65 4.64202 412.204 5.222 411.941 5.89007L386.411 76.0001C386.273 76.254 386.206 76.5402 386.216 76.8289C386.226 77.1177 386.313 77.3985 386.468 77.6423C386.623 77.8861 386.84 78.084 387.098 78.2155C387.355 78.3469 387.643 78.4072 387.931 78.3901H399.621C400.336 78.3394 401.022 78.0883 401.6 77.6656C402.178 77.2428 402.626 76.6656 402.891 76.0001L428.421 5.89007C428.559 5.63467 428.625 5.3472 428.615 5.05732C428.604 4.76745 428.516 4.48568 428.36 4.24109C428.204 3.99649 427.986 3.79794 427.728 3.66592C427.469 3.5339 427.181 3.47319 426.891 3.49007Z" fill="white"/>
<path d="M30.4886 29C32.5886 23.23 39.0186 18.51 44.7886 18.51H101.789C102.497 18.444 103.173 18.1816 103.74 17.7522C104.307 17.3229 104.743 16.7438 104.999 16.08L108.699 5.89003C108.839 5.63581 108.908 5.34853 108.9 5.05825C108.891 4.76798 108.804 4.48537 108.649 4.24003C108.494 3.99469 108.275 3.79563 108.017 3.66368C107.758 3.53173 107.468 3.47176 107.179 3.49003H44.2986C32.7686 3.49003 19.8886 12.93 15.6886 24.49L3.68855 57.49C-0.511446 69.03 5.48855 78.49 17.0286 78.49H64.3486C74.2386 78.49 85.2886 70.4 88.8886 60.49L97.2786 37.42C97.4242 37.1653 97.4979 36.8758 97.4918 36.5824C97.4857 36.2891 97.4001 36.0029 97.244 35.7544C97.0879 35.5059 96.8673 35.3045 96.6057 35.1716C96.3441 35.0388 96.0513 34.9795 95.7586 35H50.4986C49.7843 35.0518 49.0989 35.3034 48.5207 35.726C47.9425 36.1486 47.4948 36.7252 47.2286 37.39L44.6186 44.59C44.4807 44.844 44.4133 45.1301 44.4233 45.4189C44.4333 45.7076 44.5203 45.9885 44.6753 46.2323C44.8304 46.4761 45.0478 46.6739 45.3051 46.8054C45.5624 46.9369 45.8501 46.9972 46.1386 46.98H76.2786C76.567 46.9629 76.8547 47.0231 77.112 47.1546C77.3693 47.2861 77.5867 47.484 77.7418 47.7278C77.8968 47.9716 77.9838 48.2524 77.9938 48.5412C78.0038 48.8299 77.9364 49.1161 77.7986 49.37L74.3086 58.96C73.8171 60.2123 72.98 61.2992 71.8948 62.0941C70.8095 62.889 69.5207 63.3592 68.1786 63.45H28.4286C22.6586 63.45 19.6586 58.73 21.7586 52.97L30.4886 29Z" fill="white"/>
<path d="M627.83 3.49007H564.92C553.38 3.49007 540.51 12.9301 536.31 24.4901L524.31 57.4901C520.11 69.0301 526.11 78.4901 537.65 78.4901H585C594.9 78.4901 605.94 70.4001 609.54 60.4901L617.94 37.4201C618.089 37.1615 618.163 36.8669 618.155 36.5686C618.147 36.2704 618.057 35.9801 617.895 35.7298C617.733 35.4795 617.504 35.2789 617.235 35.1502C616.966 35.0214 616.666 34.9695 616.37 35.0001H571.12C570.405 35.0507 569.719 35.3018 569.141 35.7246C568.562 36.1473 568.115 36.7246 567.85 37.3901L565.23 44.5901C565.091 44.8448 565.024 45.1319 565.034 45.4216C565.044 45.7113 565.132 45.9929 565.289 46.237C565.445 46.4811 565.664 46.6789 565.923 46.8096C566.181 46.9403 566.47 46.9991 566.76 46.9801H596.89C597.179 46.961 597.468 47.0199 597.727 47.1506C597.985 47.2813 598.204 47.479 598.361 47.7231C598.517 47.9673 598.605 48.2489 598.615 48.5385C598.626 48.8282 598.558 49.1154 598.42 49.3701L594.93 58.9601C594.437 60.2117 593.6 61.2979 592.515 62.0926C591.43 62.8874 590.141 63.3581 588.8 63.4501H549.05C543.28 63.4501 540.28 58.7301 542.38 52.9701L551.1 28.9701C553.2 23.2001 559.64 18.4801 565.41 18.4801H622.41C623.124 18.4294 623.81 18.1783 624.389 17.7556C624.967 17.3328 625.414 16.7556 625.68 16.0901L629.39 5.90007C629.535 5.64254 629.607 5.35008 629.598 5.05442C629.59 4.75875 629.5 4.47117 629.339 4.22285C629.178 3.97454 628.953 3.77497 628.687 3.64579C628.421 3.51662 628.124 3.46276 627.83 3.49007Z" fill="white"/>
<path d="M175.248 63.4301H128.308C122.538 63.4301 119.538 58.7101 121.638 52.9401L138.768 5.94011C138.906 5.68472 138.973 5.39725 138.962 5.10737C138.951 4.8175 138.864 4.53573 138.708 4.29114C138.552 4.04654 138.333 3.84799 138.075 3.71597C137.817 3.58395 137.528 3.52324 137.238 3.54011H125.558C124.842 3.59044 124.155 3.84257 123.576 4.26732C122.998 4.69207 122.551 5.27205 122.288 5.94011L103.528 57.4301C99.3284 68.9701 105.328 78.4301 116.868 78.4301H169.798C170.518 78.3761 171.207 78.119 171.785 77.6889C172.364 77.2587 172.809 76.6731 173.068 76.0001L176.778 65.8101C176.911 65.5553 176.974 65.2701 176.961 64.9832C176.947 64.6964 176.859 64.4181 176.703 64.1765C176.548 63.935 176.332 63.7387 176.076 63.6076C175.821 63.4766 175.535 63.4153 175.248 63.4301Z" fill="white"/>
<path d="M274.12 3.48999H229.79C218.26 3.48999 205.38 12.93 201.18 24.49L189.18 57.49C184.98 69.03 190.99 78.49 202.52 78.49H246.85C258.39 78.49 271.27 69.05 275.47 57.49L287.47 24.49C291.66 12.93 285.66 3.48999 274.12 3.48999ZM269.34 29L260.62 53C258.52 58.77 252.08 63.49 246.32 63.49H214C208.23 63.49 205.23 58.77 207.33 53L216 29C218.1 23.23 224.54 18.51 230.31 18.51H262.65C268.44 18.48 271.44 23.2 269.34 29Z" fill="white"/>
<path d="M396.999 3.49005H385.329C384.584 3.59367 383.88 3.89767 383.294 4.36964C382.707 4.8416 382.26 5.46384 381.999 6.17005L361.719 61.7C361.459 62.41 361.039 62.77 360.469 62.77H359.469C358.819 62.77 358.469 62.52 358.349 62.02L337.589 9.78005C337.186 8.6529 336.688 7.56226 336.099 6.52005C335.661 5.75527 335.06 5.09633 334.339 4.59005C333.532 4.09116 332.623 3.78016 331.679 3.68005C330.278 3.53198 328.868 3.46853 327.459 3.49005H319.119C313.359 3.49005 306.919 8.21005 304.819 13.98L282.239 76C282.101 76.254 282.034 76.5401 282.044 76.8289C282.054 77.1176 282.141 77.3985 282.296 77.6423C282.451 77.8861 282.668 78.084 282.926 78.2154C283.183 78.3469 283.471 78.4072 283.759 78.39H295.449C296.164 78.3394 296.85 78.0883 297.428 77.6656C298.006 77.2428 298.454 76.6656 298.719 76L318.999 20.2C319.065 19.9057 319.226 19.6412 319.458 19.4477C319.689 19.2543 319.978 19.1426 320.279 19.13H321.279C321.919 19.13 322.279 19.38 322.399 19.88L343.199 72.12C343.599 73.2467 344.094 74.3373 344.679 75.38C345.12 76.1427 345.72 76.8011 346.439 77.31C347.249 77.8107 348.162 78.1217 349.109 78.22C350.507 78.3682 351.913 78.4316 353.319 78.41H361.659C367.429 78.41 373.869 73.69 375.969 67.92L398.549 5.92005C398.696 5.66229 398.769 5.36947 398.762 5.07309C398.754 4.77671 398.666 4.488 398.506 4.23805C398.347 3.98809 398.122 3.78636 397.857 3.65455C397.591 3.52275 397.295 3.46587 396.999 3.49005Z" fill="white"/>
<path d="M531.181 3.48996H519.491C518.753 3.60033 518.058 3.90739 517.479 4.37893C516.9 4.85048 516.459 5.46912 516.201 6.16996L495.891 61.7C495.631 62.41 495.211 62.77 494.641 62.77H493.641C492.991 62.77 492.641 62.52 492.521 62.02L471.761 9.77996C471.358 8.65282 470.86 7.56218 470.271 6.51996C469.833 5.75519 469.232 5.09624 468.511 4.58996C467.704 4.09108 466.795 3.78007 465.851 3.67996C464.45 3.53189 463.04 3.46844 461.631 3.48996H453.291C447.531 3.48996 441.091 8.20996 438.991 13.98L424.771 53L416.411 76C416.273 76.2539 416.206 76.5401 416.216 76.8288C416.226 77.1176 416.313 77.3984 416.468 77.6422C416.623 77.886 416.84 78.0839 417.098 78.2154C417.355 78.3468 417.643 78.4071 417.931 78.39H429.621C430.336 78.3393 431.022 78.0882 431.6 77.6655C432.178 77.2427 432.626 76.6655 432.891 76L453.201 20.2C453.266 19.9072 453.426 19.6439 453.655 19.4506C453.885 19.2573 454.171 19.1447 454.471 19.13H455.471C456.111 19.13 456.471 19.38 456.591 19.88L477.391 72.12C477.791 73.2466 478.286 74.3372 478.871 75.38C479.312 76.1426 479.912 76.801 480.631 77.31C481.441 77.8106 482.354 78.1217 483.301 78.22C484.699 78.3681 486.105 78.4315 487.511 78.41H495.851C501.621 78.41 508.061 73.69 510.161 67.92L532.741 5.91996C532.888 5.66145 532.962 5.3676 532.954 5.07025C532.946 4.7729 532.857 4.48338 532.696 4.23306C532.535 3.98275 532.309 3.78118 532.042 3.65019C531.775 3.5192 531.477 3.46379 531.181 3.48996Z" fill="white"/>
<path d="M395.839 93.3999H392.729C392.596 93.4103 392.47 93.4581 392.363 93.5378C392.257 93.6174 392.176 93.7257 392.129 93.8499L381.199 123.85L371.719 93.5999C371.699 93.5394 371.66 93.487 371.608 93.4508C371.555 93.4147 371.492 93.3968 371.429 93.3999H368.269C368.136 93.4103 368.01 93.4581 367.903 93.5378C367.797 93.6174 367.716 93.7257 367.669 93.8499L354.289 130.61C354.264 130.657 354.252 130.709 354.254 130.762C354.256 130.815 354.272 130.867 354.301 130.911C354.329 130.956 354.369 130.992 354.416 131.017C354.463 131.041 354.516 131.053 354.569 131.05H357.719C357.851 131.041 357.979 130.995 358.087 130.917C358.195 130.84 358.278 130.733 358.329 130.61L369.249 100.61L378.709 130.87C378.73 130.931 378.771 130.984 378.825 131.02C378.879 131.056 378.944 131.074 379.009 131.07H382.139C382.27 131.059 382.395 131.012 382.501 130.935C382.607 130.857 382.689 130.752 382.739 130.63L396.119 93.8699C396.152 93.8226 396.171 93.7666 396.173 93.7089C396.175 93.6512 396.16 93.594 396.131 93.5444C396.101 93.4948 396.058 93.4547 396.006 93.4291C395.954 93.4035 395.896 93.3933 395.839 93.3999Z" fill="white"/>
<path d="M430.999 93.3999H402.479C402.347 93.4103 402.22 93.4581 402.114 93.5378C402.007 93.6174 401.926 93.7257 401.879 93.8499L400.879 96.4699C400.854 96.5175 400.842 96.5711 400.844 96.6249C400.847 96.6788 400.864 96.731 400.893 96.7761C400.923 96.8211 400.964 96.8573 401.013 96.8808C401.061 96.9044 401.115 96.9144 401.169 96.9099H413.389L401.119 130.61C401.094 130.658 401.082 130.711 401.084 130.765C401.087 130.819 401.104 130.871 401.133 130.916C401.163 130.961 401.204 130.997 401.253 131.021C401.301 131.044 401.355 131.054 401.409 131.05H404.529C404.662 131.041 404.789 130.995 404.897 130.917C405.005 130.84 405.089 130.733 405.139 130.61L417.399 96.9099H429.649C429.78 96.8992 429.905 96.8525 430.011 96.7748C430.117 96.6971 430.199 96.5916 430.249 96.4699L431.249 93.8499C431.329 93.5999 431.209 93.3999 430.999 93.3999Z" fill="white"/>
<path d="M448.19 127.54H428.72L433.86 113.42H450.73C450.863 113.413 450.992 113.368 451.1 113.29C451.208 113.212 451.291 113.104 451.34 112.98L452.34 110.36C452.364 110.313 452.376 110.261 452.374 110.208C452.372 110.155 452.356 110.103 452.328 110.059C452.299 110.014 452.259 109.977 452.212 109.953C452.165 109.929 452.112 109.917 452.06 109.92H435.14L439.87 96.92H459.21C459.34 96.9093 459.466 96.8625 459.572 96.7849C459.678 96.7072 459.76 96.6016 459.81 96.48L460.81 93.86C460.834 93.8117 460.845 93.7578 460.843 93.7037C460.84 93.6497 460.823 93.5973 460.794 93.5517C460.764 93.5062 460.724 93.4692 460.676 93.4443C460.627 93.4194 460.574 93.4076 460.52 93.41H437.57C437.437 93.4203 437.31 93.4681 437.204 93.5478C437.098 93.6275 437.017 93.7358 436.97 93.86L423.59 130.62C423.565 130.667 423.553 130.719 423.555 130.772C423.557 130.825 423.573 130.877 423.602 130.921C423.63 130.966 423.67 131.002 423.717 131.027C423.764 131.051 423.817 131.063 423.87 131.06H446.87C447.002 131.051 447.13 131.005 447.238 130.927C447.345 130.85 447.429 130.743 447.48 130.62L448.48 127.99C448.508 127.942 448.522 127.887 448.521 127.832C448.519 127.776 448.503 127.722 448.473 127.676C448.443 127.629 448.4 127.592 448.35 127.568C448.3 127.544 448.245 127.534 448.19 127.54Z" fill="white"/>
<path d="M524.049 93.4001H520.889C520.757 93.4105 520.63 93.4583 520.524 93.538C520.417 93.6177 520.336 93.7259 520.289 93.8501L514.439 109.92H494.169L499.999 93.8501C500.026 93.803 500.04 93.7493 500.04 93.6949C500.039 93.6404 500.023 93.5872 499.994 93.5409C499.966 93.4947 499.925 93.4571 499.876 93.4323C499.828 93.4075 499.773 93.3964 499.719 93.4001H496.589C496.457 93.4105 496.33 93.4583 496.224 93.538C496.117 93.6177 496.036 93.7259 495.989 93.8501L482.609 130.61C482.584 130.657 482.572 130.71 482.574 130.762C482.577 130.815 482.593 130.867 482.621 130.912C482.65 130.956 482.689 130.993 482.736 131.017C482.783 131.041 482.836 131.053 482.889 131.05H485.999C486.13 131.039 486.255 130.993 486.361 130.915C486.467 130.837 486.55 130.732 486.599 130.61L492.859 113.42H513.119L506.869 130.61C506.844 130.657 506.832 130.71 506.834 130.762C506.837 130.815 506.853 130.867 506.881 130.912C506.91 130.956 506.949 130.993 506.996 131.017C507.043 131.041 507.096 131.053 507.149 131.05H510.309C510.44 131.039 510.565 130.993 510.671 130.915C510.777 130.837 510.86 130.732 510.909 130.61L524.289 93.8501C524.315 93.806 524.329 93.756 524.33 93.7049C524.331 93.6538 524.318 93.6034 524.294 93.5583C524.27 93.5132 524.235 93.4751 524.192 93.4474C524.149 93.4197 524.1 93.4034 524.049 93.4001Z" fill="white"/>
<path d="M558.171 93.3998H555.061C554.928 93.4101 554.802 93.4579 554.695 93.5376C554.589 93.6173 554.508 93.7256 554.461 93.8498L543.531 123.85L534.051 93.5998C534.031 93.5392 533.992 93.4868 533.94 93.4507C533.887 93.4145 533.824 93.3966 533.761 93.3998H530.601C530.468 93.4101 530.342 93.4579 530.235 93.5376C530.129 93.6173 530.048 93.7256 530.001 93.8498L516.621 130.61C516.596 130.657 516.584 130.709 516.586 130.762C516.588 130.815 516.604 130.866 516.633 130.911C516.661 130.956 516.701 130.992 516.748 131.017C516.795 131.041 516.848 131.052 516.901 131.05H520.051C520.183 131.041 520.311 130.995 520.419 130.917C520.527 130.839 520.61 130.733 520.661 130.61L531.581 100.61L541.001 130.85C541.022 130.911 541.063 130.964 541.117 131C541.171 131.036 541.236 131.053 541.301 131.05H544.431C544.562 131.039 544.687 130.992 544.793 130.915C544.899 130.837 544.981 130.731 545.031 130.61L558.411 93.8498C558.436 93.8056 558.45 93.7556 558.451 93.7045C558.452 93.6535 558.44 93.603 558.416 93.558C558.392 93.5129 558.357 93.4747 558.314 93.447C558.271 93.4193 558.222 93.4031 558.171 93.3998Z" fill="white"/>
<path d="M567.918 93.4001H564.788C564.656 93.4105 564.529 93.4583 564.423 93.538C564.317 93.6177 564.235 93.7259 564.188 93.8501L550.808 130.61C550.783 130.657 550.772 130.71 550.774 130.762C550.776 130.815 550.792 130.867 550.82 130.912C550.849 130.956 550.889 130.993 550.936 131.017C550.983 131.041 551.035 131.053 551.088 131.05H554.218C554.349 131.039 554.475 130.993 554.581 130.915C554.686 130.837 554.769 130.732 554.818 130.61L568.198 93.8501C568.226 93.803 568.24 93.7493 568.239 93.6949C568.238 93.6404 568.222 93.5872 568.194 93.5409C568.165 93.4947 568.124 93.4571 568.075 93.4323C568.027 93.4075 567.973 93.3964 567.918 93.4001Z" fill="white"/>
<path d="M585.189 130.19L573.999 111.81L597.759 94C597.838 93.9491 597.903 93.8796 597.948 93.7976C597.993 93.7156 598.018 93.6237 598.019 93.53C598.012 93.4522 597.974 93.3804 597.914 93.33C597.854 93.2796 597.777 93.2545 597.699 93.26H592.779C592.644 93.2658 592.514 93.3149 592.409 93.4L572.859 108.22L578.099 93.82C578.124 93.7718 578.135 93.7179 578.132 93.6638C578.13 93.6097 578.113 93.5573 578.083 93.5118C578.054 93.4663 578.013 93.4293 577.965 93.4044C577.917 93.3795 577.863 93.3677 577.809 93.37H574.689C574.555 93.3786 574.426 93.4255 574.318 93.5053C574.21 93.5851 574.127 93.6944 574.079 93.82L560.699 130.61C560.674 130.658 560.662 130.711 560.664 130.765C560.667 130.819 560.684 130.871 560.714 130.916C560.743 130.961 560.785 130.997 560.833 131.021C560.882 131.045 560.936 131.055 560.989 131.05H564.109C564.242 131.041 564.369 130.995 564.477 130.917C564.585 130.84 564.669 130.733 564.719 130.61L570.629 114.37L580.379 130.81C580.41 130.853 580.45 130.887 580.498 130.91C580.545 130.933 580.597 130.943 580.649 130.94H584.649C584.746 130.934 584.841 130.908 584.927 130.863C585.013 130.819 585.089 130.756 585.149 130.68C585.203 130.611 585.235 130.528 585.242 130.441C585.249 130.354 585.231 130.267 585.189 130.19Z" fill="white"/>
<path d="M318.16 130.06L314.64 114.4C317.169 114.285 319.613 113.455 321.689 112.007C323.765 110.559 325.388 108.553 326.37 106.22L328.1 101.47C329.74 96.96 327.1 93.29 322.34 93.29H306.19C306.059 93.2984 305.932 93.3443 305.826 93.4222C305.72 93.5002 305.638 93.607 305.59 93.73L292.05 130.58C292.026 130.627 292.014 130.679 292.016 130.732C292.018 130.785 292.034 130.837 292.063 130.881C292.091 130.926 292.131 130.963 292.178 130.987C292.225 131.011 292.278 131.023 292.33 131.02H295.48C295.613 131.01 295.74 130.964 295.847 130.886C295.955 130.808 296.039 130.702 296.09 130.58L302 114.4H310.19L313.75 130.83C313.769 130.897 313.81 130.955 313.866 130.995C313.923 131.036 313.991 131.055 314.06 131.05H317.39C317.521 131.039 317.647 130.993 317.753 130.915C317.859 130.837 317.941 130.732 317.99 130.61L318.11 130.28C318.151 130.214 318.169 130.137 318.16 130.06ZM303.42 110.63L308.42 97.06H321C321.548 96.999 322.103 97.0861 322.605 97.3123C323.108 97.5385 323.541 97.8955 323.859 98.346C324.176 98.7966 324.367 99.3241 324.412 99.8736C324.456 100.423 324.352 100.974 324.11 101.47L322.38 106.22C321.852 107.476 320.979 108.556 319.862 109.336C318.746 110.117 317.431 110.565 316.07 110.63H303.42Z" fill="white"/>
<path d="M488.631 97.0602C488.764 97.0522 488.892 97.0054 488.999 96.9254C489.105 96.8453 489.186 96.7357 489.231 96.6102L490.291 93.7202C490.316 93.6733 490.328 93.6208 490.326 93.5678C490.324 93.5149 490.308 93.4634 490.279 93.4187C490.251 93.374 490.211 93.3377 490.164 93.3133C490.117 93.289 490.064 93.2775 490.011 93.2802H475.431C472.907 93.3973 470.468 94.2267 468.395 95.6726C466.323 97.1184 464.702 99.1216 463.721 101.45L455.931 122.85C454.291 127.36 456.871 131.03 461.691 131.03H476.261C476.394 131.02 476.52 130.972 476.627 130.892C476.733 130.813 476.814 130.704 476.861 130.58L477.921 127.69C478.001 127.45 477.921 127.25 477.641 127.25H463.071C462.523 127.311 461.969 127.224 461.466 126.998C460.964 126.772 460.531 126.415 460.213 125.964C459.895 125.514 459.704 124.986 459.66 124.437C459.616 123.887 459.72 123.336 459.961 122.84L467.751 101.44C468.281 100.187 469.155 99.1083 470.271 98.3298C471.388 97.5513 472.702 97.1042 474.061 97.0402L488.631 97.0602Z" fill="white"/>
<path d="M286.859 130.19L275.719 111.81L299.429 94C299.507 93.9491 299.572 93.8795 299.617 93.7976C299.663 93.7156 299.687 93.6237 299.689 93.53C299.686 93.4919 299.676 93.4547 299.659 93.4204C299.642 93.3862 299.619 93.3557 299.59 93.3306C299.561 93.3055 299.527 93.2864 299.491 93.2742C299.455 93.2621 299.417 93.2573 299.379 93.26H294.459C294.323 93.2643 294.193 93.3135 294.089 93.4L274.539 108.22L279.769 93.82C279.796 93.7729 279.81 93.7192 279.809 93.6648C279.808 93.6103 279.793 93.5571 279.764 93.5108C279.735 93.4646 279.694 93.427 279.646 93.4022C279.597 93.3774 279.543 93.3663 279.489 93.37H276.359C276.226 93.3792 276.099 93.4265 275.992 93.5064C275.886 93.5862 275.805 93.6951 275.759 93.82L262.379 130.58C262.354 130.627 262.342 130.679 262.344 130.732C262.346 130.785 262.362 130.837 262.391 130.881C262.419 130.926 262.459 130.963 262.506 130.987C262.553 131.011 262.606 131.023 262.659 131.02H265.789C265.92 131.009 266.045 130.963 266.151 130.885C266.257 130.807 266.339 130.702 266.389 130.58L272.299 114.34L282.049 130.78C282.079 130.823 282.12 130.857 282.167 130.88C282.214 130.903 282.266 130.913 282.319 130.91H286.259C286.356 130.906 286.451 130.88 286.537 130.835C286.624 130.79 286.699 130.727 286.759 130.65C286.818 130.591 286.859 130.517 286.877 130.435C286.895 130.353 286.888 130.268 286.859 130.19Z" fill="white"/>
<path d="M353.482 93.2798H345.482C342.957 93.3957 340.517 94.2247 338.445 95.6707C336.372 97.1167 334.752 99.1205 333.772 101.45L323.162 130.59C323.134 130.637 323.12 130.691 323.121 130.745C323.122 130.8 323.138 130.853 323.166 130.899C323.195 130.945 323.236 130.983 323.284 131.008C323.333 131.032 323.387 131.044 323.442 131.04H326.592C326.724 131.031 326.852 130.985 326.96 130.907C327.068 130.829 327.151 130.723 327.202 130.6L332.202 116.93H349.572L344.572 130.6C344.546 130.647 344.534 130.701 344.537 130.755C344.539 130.809 344.556 130.861 344.586 130.906C344.616 130.951 344.657 130.987 344.705 131.011C344.754 131.034 344.808 131.044 344.862 131.04H348.002C348.136 131.031 348.265 130.984 348.373 130.904C348.481 130.825 348.564 130.715 348.612 130.59L359.222 101.45C360.892 96.9998 358.302 93.2798 353.482 93.2798ZM333.482 113.43L337.842 101.43C338.37 100.175 339.243 99.0953 340.36 98.3165C341.477 97.5377 342.791 97.0915 344.152 97.0298H352.152C354.752 97.0298 356.152 99.0298 355.252 101.43L350.892 113.43H333.482Z" fill="white"/>
</svg>
