<svg width="100" height="70" viewBox="0 0 100 70" fill="none" xmlns="http://www.w3.org/2000/svg">
<g clip-path="url(#clip0_970_13501)">
<path d="M90 0C95.5 0 100 4.5 100 10V59.9004C99.9998 65.5002 95.4999 70 90 70H10C4.5 70 0 65.5 0 60V10C0 4.5 4.5 0 10 0H90ZM9.89941 7.09961C8.39957 7.19978 7.19981 8.50011 7.2998 10V60C7.2998 61.5 8.5 62.7998 10 62.7998H90C91.5997 62.6997 92.7999 61.4001 92.7002 59.9004V9.90039C92.7002 8.40047 91.4999 7.09974 90 7.09961H9.89941Z" fill="white"/>
<path d="M30.5998 57.9H13.7998V12.1H30.5998C42.4998 12.1 48.9998 19.5 48.9998 34.8C48.9998 48 44.4998 57.8 30.5998 57.9ZM37.8998 35.7C37.8998 26.5 36.8998 19.3 26.9998 19.3H24.7998V50.5H28.6998C34.4998 50.5 37.8998 45.8 37.8998 35.7ZM77.9998 33.9C82.6998 32.5 85.8998 28.2 85.9998 23.2C85.9998 22.2 85.7998 12 72.8998 12H53.7998V57.8H69.9998C74.2998 57.8 87.6998 57.8 87.6998 44.9C87.6998 41.8 86.2998 35.7 77.9998 33.9ZM64.6998 19.2H68.1998C73.0998 19.2 75.0998 20.9 75.0998 24.7C75.0998 27.7 72.8998 30.2 69.0998 30.2H64.7998V19.2H64.6998ZM69.1998 50.5H64.6998V38.7H69.4998C75.1998 38.7 76.5998 42 76.5998 44.6C76.5998 50.5 70.9998 50.5 69.1998 50.5Z" fill="white"/>
</g>
<defs>
<clipPath id="clip0_970_13501">
<rect width="100" height="70" fill="white"/>
</clipPath>
</defs>
</svg>
