<svg width="268" height="83" viewBox="0 0 268 83" fill="none" xmlns="http://www.w3.org/2000/svg">
<g clip-path="url(#clip0_1052_431)">
<path d="M24.1392 14.8582L18.4343 37.9755H18.264L12.3463 14.8582H0L10.7285 48.6189H24.7352L35.6766 14.8582H24.1392Z" fill="white"/>
<path d="M98.5576 38.3586C98.5576 32.4409 95.9606 30.44 91.7032 28.8648L87.8291 27.4173C84.9341 26.4381 83.8697 25.6718 83.8697 24.4371C83.8697 22.6065 85.7855 22.0104 88.0419 22.0104C91.1072 22.0104 94.3002 23.0748 96.4289 24.054L96.8972 15.667C94.3854 14.7729 90.8943 14.0492 87.4033 14.0492C76.9728 14.0492 73.0986 19.158 73.0986 25.1609C73.0986 29.4182 74.7164 32.6964 80.1658 34.6548L83.742 35.932C86.637 36.9111 87.531 37.5923 87.531 38.7418C87.531 40.3596 85.9132 41.1685 82.6777 41.1685C78.548 41.1685 75.6105 39.6358 73.7798 38.7418L73.4818 47.81C75.3976 48.4911 80.1658 49.3426 83.9974 49.3426C94.0448 49.3852 98.5576 45.2981 98.5576 38.3586Z" fill="white"/>
<path d="M126.188 38.3586C126.188 32.4409 123.591 30.44 119.334 28.8648L115.375 27.4173C112.565 26.4381 111.415 25.6718 111.415 24.4371C111.415 22.6065 113.331 22.0104 115.673 22.0104C118.653 22.0104 121.931 23.0748 124.06 24.054L124.443 15.667C121.931 14.7729 118.525 14.0492 114.949 14.0492C104.604 14.0492 100.729 19.158 100.729 25.1609C100.729 29.4182 102.347 32.6964 107.712 34.6548L111.373 35.932C114.268 36.9111 115.162 37.5923 115.162 38.7418C115.162 40.3596 113.502 41.1685 110.309 41.1685C106.136 41.1685 103.241 39.6358 101.326 38.7418L101.113 47.81C103.028 48.4911 107.797 49.3426 111.543 49.3426C121.633 49.3852 126.188 45.2981 126.188 38.3586Z" fill="white"/>
<path d="M140.62 0H128.827V48.6189H140.62V0Z" fill="white"/>
<path d="M214.74 48.6189V24.9481C214.74 17.4977 210.185 14.0492 204.31 14.0492C200.351 14.0492 197.328 15.667 195.327 19.1581H195.114C195.284 17.8809 195.412 16.3482 195.412 14.9859V0H183.619V48.6189H195.412V30.0569C195.412 26.5658 196.689 23.5006 199.669 23.5006C201.883 23.5006 202.862 25.1183 202.862 28.3114V48.6189H214.74Z" fill="white"/>
<path d="M33.9307 31.7173C33.9307 23.8838 38.784 17.1146 45.7235 14.3473L51.9818 25.9699L44.6592 39.5934H54.1105L61.4331 26.055L54.4937 13.1553C63.945 14.0493 71.3102 22.0531 71.3102 31.7173C71.3102 42.0627 62.9232 50.4496 52.663 50.4496C42.3176 50.4496 33.9307 42.1052 33.9307 31.7173Z" fill="white"/>
<path d="M143.473 31.5895C143.473 21.2442 151.86 12.8572 162.12 12.8572C172.465 12.8572 180.852 21.2442 180.852 31.5895C180.852 41.2537 173.402 49.2575 163.95 50.1515L170.89 37.2944L163.567 23.756H154.201L161.524 37.2944L155.223 48.9169C148.326 46.1922 143.473 39.423 143.473 31.5895Z" fill="white"/>
<path d="M44.1912 68.9265C43.3397 71.6512 39.3378 72.2472 37.124 72.2472H36.3577C36.2725 72.6304 36.23 73.0135 36.23 73.3116C36.23 74.8868 37.1666 75.3551 38.8269 75.3551C39.8913 75.3551 41.5516 74.8442 42.5308 74.4185L42.1051 76.76C41.0408 77.1432 39.2527 77.4412 37.8052 77.4412C34.5696 77.4412 33.335 75.6531 33.335 73.1838C33.335 71.0552 34.8676 64.9672 40.5299 64.9672C43.1694 64.9672 44.3189 66.2444 44.3189 67.8196C44.3615 68.2453 44.2763 68.5859 44.1912 68.9265ZM41.4665 68.2027C41.4665 67.6067 40.7002 67.0107 39.6784 67.0107C38.5715 67.0107 37.2091 68.1176 36.7408 70.3314H37.0389C39.8487 70.3314 41.4665 69.3522 41.4665 68.2027Z" fill="white"/>
<path d="M54.3239 77.2283H51.2586L52.8339 69.7354C52.919 69.2671 52.9616 68.8839 52.9616 68.5859C52.9616 67.8196 52.6636 67.5216 52.025 67.5216C50.9181 67.5216 49.4706 68.9265 48.7468 72.2898L47.725 77.2283H44.6172L46.4904 68.3305C46.7459 67.181 46.9587 65.9889 47.0439 65.18H49.9814C49.9389 65.4355 49.6834 66.7552 49.6409 67.0958H49.6834C50.7478 65.6483 51.9398 64.9672 53.5576 64.9672C55.0477 64.9672 56.112 65.8186 56.112 67.8196C56.112 68.2879 56.0269 68.8413 55.9417 69.3948L54.3239 77.2283Z" fill="white"/>
<path d="M67.7768 72.8006C67.3511 74.9293 67.2234 75.6956 67.0956 77.2283H64.2432C64.2858 77.0154 64.4135 75.7382 64.5412 75.4402H64.4561C63.264 76.5897 62.2423 77.4411 60.667 77.4411C58.4532 77.4411 57.5166 76.0362 57.5166 73.4818C57.5166 68.969 59.9007 65.0522 65.0521 65.0522C66.5422 65.0522 68.2877 65.2225 69.2669 65.478L67.7768 72.8006ZM64.6264 67.1383C62.1145 67.1383 60.5819 70.2036 60.5819 73.1412C60.5819 74.5461 60.8799 75.1847 61.6462 75.1847C62.8383 75.1847 64.6264 73.6095 65.4778 69.4799L65.9461 67.2661C65.6907 67.2235 64.9244 67.1383 64.6264 67.1383Z" fill="white"/>
<path d="M73.8222 77.4412C72.3321 77.4412 70.5866 77.2709 69.6074 77.0154L73.2262 59.7732H76.334L75.3123 64.5414C75.2271 64.9672 74.844 66.4147 74.6737 66.8404H74.7162C75.6103 65.8612 76.5469 65.0523 78.1647 65.0523C80.3785 65.0523 81.3151 66.4572 81.3151 69.0116C81.3151 73.5244 78.931 77.4412 73.8222 77.4412ZM77.2706 67.2661C76.0786 67.2661 74.2905 68.8413 73.439 72.971L72.9707 75.1848C73.1836 75.2699 73.9925 75.3125 74.2905 75.3125C76.8023 75.3125 78.335 72.2472 78.335 69.3097C78.2924 67.8622 77.9944 67.2661 77.2706 67.2661Z" fill="white"/>
<path d="M85.1899 77.2283H82.082L85.7859 59.7306H88.8938L85.1899 77.2283Z" fill="white"/>
<path d="M91.0649 77.2283H87.957L90.5114 65.1801H93.6193L91.0649 77.2283ZM92.5975 63.2217C91.7461 63.2217 91.1075 62.5831 91.1075 61.8593C91.1075 60.8376 91.8738 59.9861 93.0658 59.9861C94.0025 59.9861 94.6411 60.5821 94.6411 61.4336C94.6411 62.4553 93.747 63.2217 92.5975 63.2217Z" fill="white"/>
<path d="M103.539 77.2283H100.473L102.049 69.7354C102.134 69.2671 102.176 68.8839 102.176 68.5859C102.176 67.8196 101.878 67.5216 101.24 67.5216C100.133 67.5216 98.6854 68.9265 97.9617 72.2898L96.9399 77.2283H93.832L95.7053 68.3305C95.9607 67.181 96.1736 65.9889 96.2587 65.18H99.1963C99.1537 65.4355 98.8983 66.7552 98.8557 67.0958H98.8983C99.9626 65.6483 101.155 64.9672 102.772 64.9672C104.263 64.9672 105.327 65.8186 105.327 67.8196C105.327 68.2879 105.242 68.8413 105.157 69.3948L103.539 77.2283Z" fill="white"/>
<path d="M116.098 76.9303C115.289 80.7193 112.99 82.4223 109.116 82.4223C107.881 82.4223 106.391 82.0817 105.582 81.7837L106.221 79.2718C106.944 79.6976 107.966 80.0807 109.201 80.0807C111.627 80.0807 112.862 78.6758 113.245 76.8877C113.373 76.2917 113.543 75.7808 113.671 75.4402H113.586C112.522 76.6748 111.5 77.4837 109.882 77.4837C107.668 77.4837 106.732 76.0788 106.732 73.5244C106.732 69.0116 109.116 65.0948 114.267 65.0948C115.757 65.0948 117.503 65.2651 118.482 65.5206L116.098 76.9303ZM113.799 67.1384C111.287 67.1384 109.754 70.2037 109.754 73.1412C109.754 74.5462 110.052 75.1848 110.819 75.1848C112.011 75.1848 113.799 73.6095 114.65 69.4799L115.118 67.2661C114.906 67.2235 114.097 67.1384 113.799 67.1384Z" fill="white"/>
<path d="M133.467 76.9303C132.658 80.7193 130.359 82.4223 126.485 82.4223C125.25 82.4223 123.377 82.0817 122.568 81.7837L123.59 79.2718C124.314 79.6976 125.336 80.0807 126.57 80.0807C128.997 80.0807 130.232 78.6758 130.615 76.8877C130.742 76.2917 130.913 75.7808 131.04 75.4402H130.955C129.891 76.6748 128.869 77.4837 127.251 77.4837C125.038 77.4837 124.101 76.0788 124.101 73.5244C124.101 69.0116 126.485 65.0948 131.637 65.0948C133.127 65.0948 134.872 65.2651 135.851 65.5206L133.467 76.9303ZM131.168 67.1384C128.656 67.1384 127.124 70.2037 127.124 73.1412C127.124 74.5462 127.422 75.1848 128.188 75.1848C129.38 75.1848 131.168 73.6095 132.02 69.4799L132.488 67.2661C132.275 67.2235 131.466 67.1384 131.168 67.1384Z" fill="white"/>
<path d="M144.665 67.8196C144.452 67.7344 144.069 67.6918 143.685 67.6918C142.323 67.6918 140.961 69.0542 140.237 72.4175L139.215 77.2283H136.107L138.023 68.2453C138.321 66.9255 138.449 65.9038 138.577 65.18H141.514C141.472 65.4354 141.216 66.7978 141.131 67.3087H141.174C142.025 65.7335 143.345 64.9246 144.58 64.9246C144.792 64.9246 145.048 64.9671 145.261 65.0097L144.665 67.8196Z" fill="white"/>
<path d="M155.138 68.9265C154.286 71.6512 150.625 72.2472 148.411 72.2472H147.645C147.56 72.6304 147.517 73.0135 147.517 73.3116C147.517 74.8868 148.454 75.3551 150.114 75.3551C151.178 75.3551 152.498 74.8442 153.477 74.4185L153.052 76.76C151.987 77.1432 150.54 77.4412 149.092 77.4412C145.857 77.4412 144.622 75.6531 144.622 73.1838C144.622 71.0552 145.772 64.9672 151.434 64.9672C154.073 64.9672 155.223 66.2444 155.223 67.8196C155.308 68.2453 155.223 68.5859 155.138 68.9265ZM152.413 68.2027C152.413 67.6067 152.03 67.0107 150.966 67.0107C149.859 67.0107 148.496 68.1176 148.028 70.3314H148.326C151.136 70.3314 152.413 69.3522 152.413 68.2027Z" fill="white"/>
<path d="M166.633 68.9265C165.781 71.6512 162.12 72.2472 159.906 72.2472H159.14C159.055 72.6304 159.012 73.0135 159.012 73.3116C159.012 74.8868 159.949 75.3551 161.609 75.3551C162.673 75.3551 163.993 74.8442 164.972 74.4185L164.547 76.76C163.482 77.1432 162.035 77.4412 160.587 77.4412C157.352 77.4412 156.117 75.6531 156.117 73.1838C156.117 71.0552 157.267 64.9672 162.929 64.9672C165.568 64.9672 166.718 66.2444 166.718 67.8196C166.803 68.2453 166.718 68.5859 166.633 68.9265ZM163.908 68.2027C163.908 67.6067 163.525 67.0107 162.461 67.0107C161.354 67.0107 159.991 68.1176 159.523 70.3314H159.821C162.631 70.3314 163.908 69.3522 163.908 68.2027Z" fill="white"/>
<path d="M177.148 77.2283H174.083L175.658 69.7354C175.743 69.2671 175.786 68.8839 175.786 68.5859C175.786 67.8196 175.488 67.5216 174.849 67.5216C173.742 67.5216 172.295 68.9265 171.571 72.2898L170.549 77.2283H167.441L169.315 68.3305C169.57 67.181 169.783 65.9889 169.868 65.18H172.806C172.763 65.4355 172.508 66.7552 172.465 67.0958H172.508C173.572 65.6483 174.764 64.9672 176.382 64.9672C177.872 64.9672 178.936 65.8186 178.936 67.8196C178.936 68.2879 178.851 68.8413 178.766 69.3948L177.148 77.2283Z" fill="white"/>
<path d="M201.287 77.2283H198.222L199.797 69.7354C199.925 69.2245 199.968 68.7988 199.968 68.4582C199.968 67.777 199.712 67.5216 199.116 67.5216C198.009 67.5216 196.562 68.9265 195.88 72.2472L194.859 77.2283H191.793L193.369 69.7354C193.496 69.2245 193.539 68.7988 193.539 68.4582C193.539 67.777 193.284 67.5216 192.687 67.5216C191.581 67.5216 190.133 68.9265 189.452 72.2472L188.43 77.2283H185.322L187.068 69.1394C187.408 67.479 187.621 66.3295 187.749 65.18H190.644C190.559 65.6909 190.389 66.7127 190.218 67.3087H190.261C191.495 65.6483 192.645 64.9672 194.263 64.9672C195.54 64.9672 196.519 65.7335 196.732 67.2661C197.967 65.6483 199.116 64.9672 200.734 64.9672C202.181 64.9672 203.203 65.8612 203.203 67.777C203.203 68.2453 203.118 68.7988 203.033 69.3948L201.287 77.2283Z" fill="white"/>
<path d="M208.95 77.4838C205.928 77.4838 204.65 75.6105 204.65 73.0987C204.65 71.0977 205.672 64.9672 211.59 64.9672C214.57 64.9672 215.89 66.8404 215.89 69.3522C215.89 71.1829 214.953 77.4838 208.95 77.4838ZM212.697 69.1394C212.697 67.8622 212.271 67.181 211.079 67.181C208.269 67.181 207.801 72.2898 207.801 73.269C207.801 74.5036 208.227 75.2274 209.376 75.2274C212.356 75.2274 212.697 69.6502 212.697 69.1394Z" fill="white"/>
<path d="M220.999 77.4412C219.509 77.4412 217.763 77.2709 216.784 77.0154L220.403 59.7732H223.511L222.489 64.5414C222.404 64.9672 222.021 66.4147 221.85 66.8404H221.893C222.787 65.8612 223.724 65.0523 225.341 65.0523C227.555 65.0523 228.492 66.4572 228.492 69.0116C228.534 73.5244 226.108 77.4412 220.999 77.4412ZM224.447 67.2661C223.255 67.2661 221.467 68.8413 220.616 72.971L220.147 75.1848C220.36 75.2699 221.169 75.3125 221.467 75.3125C223.979 75.3125 225.512 72.2472 225.512 69.3097C225.512 67.8622 225.214 67.2661 224.447 67.2661Z" fill="white"/>
<path d="M232.366 77.2283H229.258L231.812 65.1801H234.92L232.366 77.2283ZM233.898 63.2217C233.047 63.2217 232.408 62.5831 232.408 61.8593C232.408 60.8376 233.175 59.9861 234.367 59.9861C235.303 59.9861 235.942 60.5821 235.942 61.4336C235.899 62.4553 235.048 63.2217 233.898 63.2217Z" fill="white"/>
<path d="M238.624 77.2283H235.517L239.22 59.7306H242.328L238.624 77.2283Z" fill="white"/>
<path d="M244.84 77.2283H241.732L244.287 65.1801H247.395L244.84 77.2283ZM246.373 63.2217C245.521 63.2217 244.883 62.5831 244.883 61.8593C244.883 60.8376 245.649 59.9861 246.841 59.9861C247.778 59.9861 248.416 60.5821 248.416 61.4336C248.416 62.4553 247.522 63.2217 246.373 63.2217Z" fill="white"/>
<path d="M256.122 67.4364H253.738L252.461 73.5244C252.418 73.7373 252.375 73.9502 252.375 74.163C252.375 74.8868 252.759 75.1848 253.397 75.1848C253.823 75.1848 254.249 75.0997 254.547 74.9719L254.121 77.1858C253.567 77.3135 252.716 77.4838 251.822 77.4838C250.076 77.4838 249.055 76.76 249.055 75.2274C249.055 74.9294 249.097 74.6314 249.182 74.2908L250.63 67.479H248.629L249.14 65.2226H251.141L251.652 62.7108L254.93 61.7742L254.206 65.2226H256.59L256.122 67.4364Z" fill="white"/>
<path d="M261.06 79.1441C259.996 81.1877 258.804 82.4223 256.633 82.4223C255.824 82.4223 255.228 82.252 254.845 82.1243L255.483 79.7402C255.824 79.8679 256.122 79.953 256.548 79.953C257.953 79.953 258.847 77.8669 258.974 77.3135L257.442 65.1801H260.592L261.146 73.9076H261.188L264.935 65.1801H268L261.06 79.1441Z" fill="white"/>
</g>
<defs>
<clipPath id="clip0_1052_431">
<rect width="268" height="82.4222" fill="white"/>
</clipPath>
</defs>
</svg>
