<svg width="216" height="34" viewBox="0 0 216 34" fill="none" xmlns="http://www.w3.org/2000/svg">
<g clip-path="url(#clip0_1052_345)">
<path d="M68.8341 10.7596H71.5051L71.5098 23.161L68.8341 23.1847V26.0184H76.75C80.9246 26.009 81.0926 21.7671 81.0926 21.7671L81.1184 12.3233C81.1184 12.3233 80.9246 8.19066 76.75 8.13305H68.8341V10.7596ZM74.5383 23.161C74.5383 23.161 74.5117 17.0999 74.5117 10.7254H76.0744C78.0102 10.6421 78.4521 12.15 78.4228 12.7108L78.4458 21.2498C78.4458 21.2498 78.094 23.2105 76.0744 23.1688L74.5383 23.161ZM210.131 7.74082C208.335 7.77775 206.091 8.41619 206.091 14.0878V21.7607C206.091 25.5097 208.357 26.2235 209.86 26.2235C211.729 26.2235 212.917 24.6372 212.917 24.6372L213.613 26.0321L216 26.0406V16.0322L211.597 16.0645L211.605 18.7129L212.806 18.6902C212.806 19.9303 213.036 23.2796 210.797 23.2796C209.479 23.2796 209.296 22.2025 209.178 20.2835L209.163 15.1925C209.163 12.9207 209.398 10.5082 211.016 10.5466C212.212 10.5741 212.842 11.3202 212.936 12.3139L212.953 13.6956L215.941 13.6736L215.944 8.11038L213.231 8.08356L212.99 8.73721C212.99 8.73721 211.816 7.70663 210.131 7.74082ZM193.463 8.10358L193.453 10.7365H195.297L192.102 23.1394L190.854 23.1262V26.0517L196.391 26.0389L196.385 23.1435L195.028 23.1616L195.945 20.2546H199.667L200.598 23.1616L199.238 23.1519V26.048L204.761 26.0389V23.1319H203.568L200.245 10.7365H202.261L202.258 8.10358H193.463ZM197.941 12.0112L199.199 17.6761L196.616 17.6829L197.941 12.0112ZM139.036 10.7992L140.835 10.7891L140.828 23.162L139.192 23.1858L139.185 26.01H145.277L145.262 23.1266H143.796V17.8739L145.885 17.8501C147.057 18.2628 147.401 18.4076 147.432 19.703C147.498 22.4677 147.461 26.04 149.879 26.04H152.592L152.598 23.1684C152.598 23.1684 151.726 23.1462 151.323 23.1684C150.026 23.2421 150.766 20.8445 150.584 18.8163C150.455 17.3967 149.96 16.4919 148.494 15.8277C150.143 14.758 150.65 13.4668 150.568 11.7344C150.466 9.52289 148.927 8.11671 145.965 8.13258L139.054 8.12464L139.036 10.7992ZM146.085 10.766C147.257 10.766 147.735 11.2157 147.735 12.9876C147.735 14.168 147.221 15.1639 146.049 15.1407L143.959 15.1286V10.766H146.085ZM178.979 8.13258V13.9767H181.618V11.0839H183.67V23.1858H181.647V26.0485H188.655L188.652 23.1389L186.57 23.1326L186.563 11.0944L188.684 11.0839V13.9767H191.264V8.13258H178.979ZM164.73 10.756L166.466 10.7664L169.911 17.8711L169.92 23.1262H168.306V26.0179H174.523L174.52 23.1604H172.886L172.894 17.8483L176.595 10.7365H178.092L178.087 8.13258H171.972V10.756L173.458 10.7664L171.391 15.0162L169.422 10.7891H170.945V8.13258H164.73V10.756ZM127.495 10.7898H129.254V23.1563H127.524V26.0485H134.237L134.232 23.1319L132.362 23.1262V17.8437H135.293V15.1575L132.377 15.1571L132.362 10.7898H135.293V13.1216H137.932V8.10358H127.495L127.495 10.7898ZM153.53 8.13258V10.7891H155.055L155.046 23.1684L153.53 23.1858V26.0485H163.791V20.2929H161.153V23.1858H158.191V17.8131H160.919V15.1566H158.191V10.7891H161.212V13.121H163.733V8.13258H153.53ZM41.1953 10.7891H43.453V23.1858H41.4V26.0485H52.8343V19.2886H49.7565L49.7543 23.1326H46.6843L46.6774 10.7891H49.0232V8.13258H41.1953V10.7891ZM115.572 7.74828C113.776 7.78521 111.532 8.4246 111.532 14.0953V21.7691C111.532 25.5165 113.974 26.2889 115.476 26.2889C117.346 26.2889 118.358 24.6445 118.358 24.6445L119.054 26.0396L121.441 26.0474V16.0733L117.038 16.0717L117.046 18.7203L118.247 18.6977C118.247 19.9376 118.477 23.287 116.239 23.287C114.92 23.287 114.737 22.21 114.619 20.2909L114.604 15.1997C114.604 12.928 114.84 10.5155 116.457 10.554C117.653 10.582 118.284 11.3274 118.377 12.3212L118.395 13.6703L121.382 13.6809L121.385 8.11784L118.672 8.12417L118.431 8.74467C118.431 8.74467 117.257 7.714 115.572 7.74828ZM102.823 8.10358V10.7898H104.729V23.1858H102.853V26.0189H109.538V23.1858L107.613 23.1616L107.634 10.7655L109.538 10.757V8.10358H102.823ZM94.9962 8.10358L95.0072 10.7655H97.0666L95.466 20.98L92.8553 8.13673L90.3635 8.13362L87.9779 20.98L86.2907 10.7898H88.311V8.10047L81.5646 8.11784L81.5718 10.7655H82.9499L85.7055 26.0396L89.6889 26.0485L91.6129 18.4472L93.5885 26.0485L97.5346 26.0396C97.5346 26.0396 100.068 14.8624 100.332 10.8482H101.768V8.10358H94.9962ZM67.2013 8.13258V10.7924L65.3912 10.7664L65.3807 21.1396C65.4174 22.9844 63.9217 26.1571 60.2239 26.1961C56.4468 26.2361 55.1784 22.9844 55.2098 21.1787L55.216 10.7664H53.5109L53.5094 8.13258H59.773L59.7709 10.7664H58.1395L58.1473 21.1396C58.1478 22.4144 58.7287 23.2437 60.2239 23.2437C62.0113 23.2437 62.4644 21.8404 62.4932 21.1396L62.5094 10.7592H60.7896L60.7732 8.14995L67.2013 8.13258Z" fill="white"/>
<path d="M33.7754 0V34H0V0H33.7754Z" fill="white"/>
<path d="M14.8848 10.2445V24.0189H20.3165V23.4637C19.0914 21.2145 21.2405 15.2828 21.2405 15.2828L25.3737 11.0423L26.9256 9.61818V4.47522L14.8848 10.2445Z" fill="white"/>
<path d="M26.9255 10.3046C24.1104 12.9002 20.5589 16.5407 20.3164 23.4637L18.1963 22.4631C18.684 15.4472 23.1246 11.443 26.9255 9.06042V10.3046Z" fill="black"/>
<path d="M17.7464 22.8111L20.3165 24.0188V28.2953L14.9789 31.6922H7.86035V28.3158H9.12615V23.2007L7.86035 23.1997V16.6299L9.11781 16.6308V11.2827H7.86138L7.86035 8.16579L23.3404 2.34038L27.6346 2.33887L27.6393 4.13359L14.8847 10.2446V10.6933L26.9256 4.93127V8.60335C25.4914 9.49283 24.6817 10.1418 24.6817 10.1418L24.62 8.42353C24.62 7.0538 22.9482 6.99364 22.9152 9.41056V11.6149L22.0363 12.4384L21.897 10.0992C21.8462 8.28177 19.8764 8.44412 19.6324 11.327V15.7542C19.6324 15.7542 17.8863 18.4461 17.7464 22.8111Z" fill="black"/>
<path d="M8.42285 28.9094V31.099H14.3914V28.9094H12.7955V27.1533H14.3914V24.9663H12.7955V22.6276H14.4673V24.3869H16.9403V20.2118H8.42285V22.6276H9.69082L9.69232 28.9094H8.42285Z" fill="white"/>
<path d="M8.42285 17.178V19.6319H16.9403V15.4656H14.4656V17.1765H12.7955V10.7001H14.3914V8.4034L8.42285 8.40076V10.7001H9.69232V17.178H8.42285Z" fill="white"/>
<path d="M26.8589 2.73743L14.7311 7.89729H9.78809C11.4505 7.48089 23.444 2.73743 23.444 2.73743" fill="white"/>
</g>
<defs>
<clipPath id="clip0_1052_345">
<rect width="216" height="34" fill="white"/>
</clipPath>
</defs>
</svg>
