<svg width="427" height="43" viewBox="0 0 427 43" fill="none" xmlns="http://www.w3.org/2000/svg">
<g clip-path="url(#clip0_1052_403)">
<path d="M20.4094 27.9031L6.06693 0.540554H0V42.3829H6.75877V15.0204L17.8549 35.6221H22.9639L33.9801 14.7276V42.3829H40.7389V0.540554H34.6986L20.4094 27.9031ZM78.7104 18.0547H57.4229V0.540554H49.7595V42.3829H57.2899V24.1235H78.7104V42.2765H86.1876V0.540554H78.7104V18.0547ZM114.181 42.9153C116.895 42.9153 119.582 42.4894 122.163 41.611C124.478 40.8391 126.634 39.5881 128.443 37.9379L125.915 32.3482C124.212 33.7323 122.323 34.8502 120.274 35.6488C118.385 36.3408 116.363 36.6868 114.34 36.6868C110.801 36.8998 107.342 35.4624 105 32.7741C102.579 29.5268 101.408 25.5076 101.648 21.4617C101.382 17.4425 102.552 13.4499 104.947 10.2026C107.289 7.51429 110.721 6.05033 114.287 6.26327C116.309 6.26327 118.332 6.6093 120.221 7.30135C122.243 8.09987 124.159 9.19118 125.862 10.5753L128.39 5.01226C126.581 3.33537 124.452 2.08436 122.11 1.31246C119.529 0.434085 116.842 -0.0184093 114.127 0.00820797C110.349 -0.0982612 106.65 0.833344 103.351 2.66994C100.317 4.40006 97.8425 6.98194 96.2992 10.1228C94.5962 13.6629 93.7713 17.549 93.8777 21.4617C93.7979 25.3745 94.6494 29.2606 96.3524 32.8007C97.9224 35.9416 100.37 38.5501 103.404 40.3068C106.703 42.1434 110.429 43.0484 114.181 42.9685M172.003 27.9564L157.634 0.540554H151.593V42.3829H158.352V15.0204L169.448 35.6221H174.531L185.573 14.7276V42.3829H192.332V0.540554H186.292L172.003 27.9564ZM219.288 42.9685C223.013 43.0484 226.685 42.1434 229.931 40.3068C232.912 38.5501 235.333 35.9416 236.85 32.8273C238.499 29.2606 239.298 25.3745 239.165 21.4617C239.271 17.549 238.446 13.6363 236.77 10.0962C235.253 6.98194 232.858 4.40006 229.878 2.64332C223.226 -0.870163 215.243 -0.870163 208.591 2.64332C205.61 4.40006 203.215 6.98194 201.699 10.0962C200.022 13.6363 199.197 17.549 199.304 21.4617C199.224 25.4011 200.049 29.2872 201.725 32.854C203.242 35.9682 205.637 38.5767 208.644 40.3334C211.89 42.17 215.562 43.075 219.288 42.9951M219.288 36.8732C215.828 37.0329 212.476 35.5689 210.267 32.9072C207.899 29.58 206.755 25.5342 207.021 21.4617C206.755 17.4159 207.899 13.3967 210.267 10.0962C214.87 5.11873 222.64 4.82594 227.59 9.40411C227.829 9.61705 228.042 9.85661 228.281 10.0962C230.65 13.3967 231.794 17.4159 231.528 21.4617C231.794 25.5076 230.65 29.5534 228.281 32.854C226.073 35.5157 222.747 36.9796 219.288 36.8199M271.947 20.8496C273.89 20.1841 275.566 18.9597 276.79 17.3095C277.961 15.6059 278.573 13.583 278.52 11.5335C278.653 8.41927 277.269 5.46475 274.821 3.54831C271.841 1.47216 268.222 0.460702 264.603 0.67364H246.216V42.3829H265.189C268.967 42.6225 272.746 41.5578 275.832 39.3486C278.36 37.3257 279.797 34.2381 279.664 30.9907C279.744 28.6484 279.052 26.3593 277.695 24.4695C276.285 22.6329 274.316 21.3287 272.08 20.7697M253.693 6.47621H263.353C265.428 6.31651 267.504 6.82224 269.286 7.91354C270.644 8.95162 271.362 10.6019 271.229 12.3054C271.229 16.2181 268.568 18.1612 263.246 18.1612H253.693V6.47621ZM264.337 36.4473H253.693V24.1235H264.337C266.466 23.9638 268.568 24.4961 270.351 25.6673C271.681 26.8384 272.4 28.5686 272.267 30.3519C272.426 32.1087 271.708 33.8388 270.377 34.9833C268.568 36.1279 266.466 36.6336 264.337 36.4739M294.352 0.540554H286.716V42.3829H294.352V0.540554ZM329.876 42.3829V36.0746H310.371V0.540554H302.708V42.3829H329.876ZM343.181 0.540554H335.544V42.3829H343.207V0.540554H343.181ZM369.79 42.3829V6.84885H383.441V0.540554H348.502V6.84885H362.153V42.3829H369.79ZM418.246 0.540554L406.085 16.99L394.084 0.540554H385.489L402.386 23.0854V42.3829H410.05V23.0854L427 0.540554H418.246Z" fill="white"/>
</g>
<defs>
<clipPath id="clip0_1052_403">
<rect width="427" height="43" fill="white"/>
</clipPath>
</defs>
</svg>
