<svg viewBox="0 0 355 56" fill="none" xmlns="http://www.w3.org/2000/svg">
<g clip-path="url(#clip0_890_12665)">
<path fill-rule="evenodd" clip-rule="evenodd" d="M28.4742 42.205L46.5466 29.8634C46.7191 29.7449 46.9055 29.6508 47.1007 29.5777C47.2976 29.5045 47.4997 29.4557 47.7071 29.4313C47.9144 29.4052 48.1217 29.4052 48.3308 29.4313C48.5382 29.4557 48.7403 29.5062 48.9355 29.5794C49.1324 29.6526 49.3171 29.7484 49.4896 29.8652C49.6638 29.9836 49.8189 30.1196 49.96 30.2746C50.1011 30.4297 50.2214 30.6005 50.3207 30.7834C50.42 30.9681 50.4967 31.1615 50.5507 31.3636L56.3721 53.0812C56.4261 53.2833 56.5028 53.475 56.6039 53.6597C56.7032 53.8427 56.8252 54.0117 56.9646 54.165C57.1057 54.3201 57.2625 54.456 57.4367 54.5727C57.6092 54.6895 57.7939 54.7853 57.9891 54.8568C58.186 54.9299 58.3881 54.9787 58.5955 55.0031C58.8028 55.0275 59.0102 55.0275 59.2175 55.0031C59.4248 54.977 59.627 54.9282 59.8221 54.855C60.0173 54.7818 60.202 54.686 60.3745 54.5693L78.4469 42.2224L96.5193 29.8808C96.6918 29.7641 96.8765 29.6683 97.0734 29.5951C97.2686 29.5219 97.4707 29.4714 97.678 29.447C97.8854 29.4208 98.0927 29.4208 98.3001 29.4452C98.5074 29.4696 98.7095 29.5184 98.9047 29.5899C99.1016 29.663 99.2863 29.7571 99.4588 29.8739C99.633 29.9906 99.7898 30.1265 99.931 30.2799C100.072 30.4349 100.194 30.6039 100.293 30.7869C100.394 30.9699 100.473 31.1615 100.527 31.3636L106.345 53.0812C106.399 53.2833 106.476 53.475 106.577 53.6597C106.678 53.8427 106.798 54.0117 106.939 54.165C107.078 54.3201 107.235 54.456 107.409 54.5727C107.582 54.6895 107.767 54.7853 107.964 54.8568C108.159 54.9299 108.361 54.9787 108.568 55.0031C108.776 55.0275 108.983 55.0275 109.19 55.0031C109.398 54.977 109.6 54.9282 109.795 54.855C109.992 54.7818 110.175 54.686 110.349 54.5693L128.42 42.2224L131.999 39.783C132.223 39.6314 132.42 39.4502 132.589 39.2359C132.757 39.0233 132.889 38.7899 132.983 38.5337C133.077 38.2793 133.129 38.0162 133.142 37.7444C133.154 37.4743 133.122 37.206 133.049 36.9446L126.752 13.4324C126.698 13.2302 126.621 13.0368 126.52 12.8539C126.419 12.6709 126.299 12.5019 126.158 12.3468C126.019 12.1917 125.862 12.0576 125.688 11.9391C125.515 11.8224 125.33 11.7283 125.133 11.6551C124.938 11.5836 124.736 11.5349 124.529 11.5105C124.32 11.4861 124.112 11.4878 123.905 11.5122C123.698 11.5383 123.496 11.5871 123.3 11.6621C123.105 11.7352 122.921 11.8311 122.748 11.9496L120.69 13.3505L102.618 25.6955C102.445 25.814 102.261 25.9099 102.065 25.983C101.869 26.0562 101.668 26.105 101.461 26.1311C101.253 26.1555 101.046 26.1555 100.837 26.1311C100.63 26.1068 100.429 26.058 100.232 25.9848C100.037 25.9133 99.8526 25.8175 99.6783 25.7008C99.5058 25.584 99.349 25.4481 99.2079 25.293C99.0667 25.1397 98.9465 24.9707 98.8455 24.7877C98.7461 24.603 98.6695 24.4114 98.6137 24.2093L92.7923 2.4969C92.7383 2.29478 92.6616 2.10137 92.5605 1.91842C92.4612 1.73546 92.3392 1.56645 92.1998 1.41137C92.0587 1.25804 91.9019 1.12213 91.7276 1.00539C91.5551 0.8869 91.3705 0.79281 91.1753 0.719628C90.9784 0.646446 90.7763 0.599401 90.5689 0.573264C90.3616 0.54887 90.1542 0.550613 89.9469 0.575006C89.7395 0.599401 89.5374 0.64993 89.3423 0.723113C89.1471 0.796294 88.9624 0.892128 88.7899 1.00887L70.7123 13.3505L52.6451 25.6955C52.4726 25.814 52.2879 25.9099 52.091 25.983C51.8958 26.058 51.6937 26.1068 51.4864 26.1329C51.279 26.1573 51.0699 26.159 50.8626 26.1346C50.6552 26.1102 50.4531 26.0614 50.2562 25.9883C50.0611 25.9151 49.8764 25.821 49.7021 25.7025C49.5279 25.5858 49.3711 25.4499 49.2299 25.2948C49.0888 25.1414 48.9686 24.9724 48.8692 24.7877C48.7682 24.6048 48.6915 24.4114 48.6375 24.2093L42.8195 2.4969C42.7655 2.29478 42.6889 2.10137 42.5878 1.91842C42.4867 1.73546 42.3665 1.56645 42.2254 1.41137C42.086 1.25804 41.9292 1.12213 41.7549 1.00539C41.5824 0.8869 41.3977 0.79281 41.2008 0.719628C41.0057 0.646446 40.8036 0.599401 40.5962 0.573264C40.3889 0.54887 40.1815 0.550613 39.9742 0.575006C39.7668 0.599401 39.5647 0.64993 39.3695 0.723113C39.1727 0.796294 38.9897 0.892128 38.8155 1.00887L20.7448 13.3505L1.15296 26.734C0.926445 26.8856 0.729551 27.0686 0.560535 27.2811C0.393262 27.4937 0.260839 27.7289 0.166748 27.9833C0.0726565 28.2377 0.0203841 28.5008 0.00818702 28.7727C-0.0022673 29.0445 0.0273535 29.3111 0.100535 29.5724L6.3994 53.0638C6.45341 53.2642 6.53008 53.4576 6.63114 53.6405C6.73046 53.8235 6.85069 53.9925 6.99182 54.1476C7.13296 54.3027 7.28978 54.4386 7.46228 54.5553C7.63652 54.6721 7.82122 54.7661 8.01637 54.8393C8.21326 54.9125 8.41364 54.9613 8.62273 54.9857C8.83008 55.0101 9.03743 55.0101 9.24478 54.9839C9.45213 54.9596 9.65425 54.909 9.8494 54.8358C10.0446 54.7627 10.2292 54.6686 10.4017 54.5501L28.4742 42.205Z" fill="currentColor"/>
<path d="M355.046 43.3027L355.02 25.5021H352.298L345.348 37.2896L338.267 25.5021H335.547V43.3062H338.72V31.6546L344.573 41.2745H346.055L351.91 31.5048L351.936 43.2923L355.046 43.3027ZM320.395 40.6595C319.982 40.6595 319.576 40.6194 319.172 40.5392C318.769 40.4591 318.377 40.3406 317.997 40.1838C317.617 40.027 317.255 39.8336 316.913 39.6053C316.572 39.377 316.255 39.1174 315.964 38.8264C315.673 38.5354 315.413 38.2201 315.185 37.8786C314.957 37.537 314.763 37.1746 314.605 36.7948C314.448 36.4149 314.329 36.0246 314.249 35.6204C314.169 35.2179 314.127 34.8101 314.127 34.3989C314.127 33.9877 314.167 33.58 314.247 33.1775C314.328 32.7733 314.446 32.3812 314.605 32.0014C314.761 31.6215 314.955 31.2608 315.183 30.9193C315.411 30.5778 315.671 30.2607 315.962 29.9697C316.253 29.6787 316.568 29.4191 316.912 29.1908C317.253 28.9626 317.614 28.7692 317.994 28.6123C318.373 28.4555 318.766 28.3353 319.168 28.2551C319.572 28.175 319.98 28.1349 320.391 28.1367C320.802 28.1367 321.21 28.1767 321.613 28.2569C322.015 28.337 322.407 28.4555 322.787 28.6141C323.167 28.7709 323.528 28.9643 323.871 29.1926C324.212 29.4208 324.528 29.6804 324.819 29.9714C325.11 30.2624 325.369 30.5795 325.598 30.9211C325.826 31.2643 326.018 31.625 326.176 32.0048C326.333 32.3847 326.451 32.7767 326.532 33.1792C326.612 33.5835 326.652 33.9912 326.65 34.4024C326.657 34.608 326.653 34.8154 326.638 35.021C326.624 35.2266 326.598 35.4322 326.563 35.6361C326.528 35.8399 326.481 36.0403 326.425 36.2389C326.369 36.4393 326.303 36.6345 326.227 36.8261C326.152 37.0178 326.065 37.206 325.97 37.3889C325.875 37.5736 325.77 37.7514 325.657 37.9239C325.544 38.0964 325.422 38.2636 325.291 38.4239C325.16 38.5842 325.021 38.7376 324.876 38.8839C324.73 39.0303 324.577 39.1679 324.416 39.2986C324.256 39.4293 324.089 39.5513 323.916 39.6645C323.744 39.7778 323.566 39.8823 323.381 39.9782C323.198 40.0723 323.01 40.1594 322.818 40.2343C322.627 40.311 322.43 40.3772 322.231 40.4329C322.033 40.4887 321.832 40.5358 321.628 40.5706C321.424 40.6072 321.219 40.6316 321.013 40.6455C320.808 40.6612 320.6 40.6647 320.395 40.6595ZM320.395 43.5606C325.911 43.5606 329.983 39.6924 329.983 34.4024C329.983 29.1107 325.903 25.239 320.395 25.239C314.885 25.239 310.799 29.1333 310.799 34.4024C310.799 39.6698 314.871 43.5606 320.395 43.5606ZM300.149 43.5606C303.075 43.5606 305.568 42.5169 307.222 40.5811L305.088 38.5459C304.791 38.8839 304.462 39.1854 304.1 39.452C303.737 39.7186 303.35 39.9433 302.939 40.1263C302.528 40.3075 302.103 40.4434 301.662 40.534C301.221 40.6246 300.777 40.6647 300.327 40.6595C296.637 40.6595 293.98 38.0615 293.98 34.4024C293.98 30.7433 296.645 28.1401 300.327 28.1401C300.775 28.1332 301.219 28.175 301.658 28.2621C302.098 28.351 302.523 28.4851 302.934 28.6664C303.345 28.8458 303.732 29.0671 304.094 29.3302C304.457 29.5933 304.788 29.8913 305.088 30.2258L307.222 28.2168C305.568 26.281 303.075 25.239 300.172 25.239C294.704 25.239 290.652 29.0793 290.652 34.4024C290.652 39.7238 294.704 43.5606 300.149 43.5606ZM279.375 43.5606C284.259 43.5606 286.576 41.116 286.576 38.2601C286.576 31.7313 276.015 34.1794 276.015 30.407C276.015 29.0479 277.136 27.9868 279.883 27.9868C281.645 28.0164 283.281 28.4834 284.793 29.3877L285.835 26.8159C284.94 26.2845 283.988 25.8854 282.983 25.6171C281.976 25.3488 280.951 25.2233 279.909 25.239C275.022 25.239 272.732 27.6819 272.732 30.5621C272.732 37.1676 283.316 34.6429 283.316 38.4954C283.316 39.8196 282.145 40.8128 279.375 40.8128C278.313 40.8128 277.277 40.6438 276.27 40.3075C275.261 39.9729 274.332 39.4868 273.482 38.8491L272.333 41.4209C273.825 42.6946 276.601 43.5606 279.375 43.5606ZM256.706 43.3027H269.328V40.5044H259.997V25.5021H256.688L256.706 43.3027ZM240.919 40.5323V35.6221H249.532V32.9004H240.919V28.2673H250.612V25.5021H237.591V43.3062H250.947V40.5358L240.919 40.5323ZM227.452 25.5021V32.8464H218.24V25.5021H214.934V43.3062H218.24V35.6709H227.452V43.3027H230.757V25.5021H227.452ZM202.629 43.5641C205.553 43.5641 208.047 42.5221 209.702 40.5863L207.548 38.5459C207.252 38.8839 206.923 39.1854 206.56 39.452C206.198 39.7186 205.811 39.9433 205.4 40.1263C204.99 40.3075 204.564 40.4434 204.123 40.534C203.682 40.6246 203.238 40.6647 202.788 40.6595C199.101 40.6595 196.44 38.0615 196.44 34.4024C196.44 30.7433 199.115 28.1401 202.788 28.1401C203.236 28.1332 203.68 28.175 204.119 28.2621C204.56 28.351 204.985 28.4851 205.395 28.6664C205.806 28.8458 206.193 29.0671 206.555 29.3302C206.919 29.5933 207.25 29.8913 207.548 30.2258L209.685 28.2168C208.029 26.281 205.536 25.239 202.638 25.239C197.165 25.239 193.118 29.0793 193.118 34.4024C193.118 39.7238 197.184 43.5606 202.629 43.5606V43.5641ZM184.217 43.3062H187.526V25.5021H184.217V43.3062ZM177.371 43.3062V25.5021H174.65L167.673 37.2896L160.595 25.5021H157.875V43.3062H161.048V31.6546L166.906 41.2745H168.384L174.242 31.5048V43.2923L177.371 43.3062Z" fill="currentColor"/>
</g>
</svg>