<svg width="256" height="256" viewBox="0 0 256 256" fill="none" xmlns="http://www.w3.org/2000/svg">
<rect width="256" height="256" fill="white"/>
<g clip-path="url(#clip0_890_12689)">
<g clip-path="url(#clip1_890_12689)">
<path fill-rule="evenodd" clip-rule="evenodd" d="M68.1986 150.861L96.2513 130.858C96.5191 130.666 96.8085 130.513 97.1114 130.395C97.4171 130.276 97.7308 130.197 98.0526 130.158C98.3745 130.115 98.6964 130.115 99.0209 130.158C99.3428 130.197 99.6565 130.279 99.9594 130.398C100.265 130.516 100.552 130.672 100.82 130.861C101.09 131.053 101.331 131.273 101.55 131.524C101.769 131.776 101.955 132.053 102.11 132.349C102.264 132.648 102.383 132.962 102.467 133.29L111.503 168.489C111.587 168.817 111.706 169.127 111.863 169.427C112.017 169.723 112.206 169.997 112.422 170.246C112.642 170.497 112.885 170.717 113.155 170.906C113.423 171.096 113.71 171.251 114.013 171.367C114.318 171.485 114.632 171.564 114.954 171.604C115.276 171.643 115.598 171.643 115.92 171.604C116.241 171.562 116.555 171.482 116.858 171.364C117.161 171.245 117.448 171.09 117.716 170.901L145.768 150.889L173.821 130.886C174.089 130.697 174.375 130.542 174.681 130.423C174.984 130.304 175.298 130.223 175.62 130.183C175.941 130.141 176.263 130.141 176.585 130.18C176.907 130.22 177.221 130.299 177.524 130.415C177.829 130.533 178.116 130.686 178.384 130.875C178.654 131.064 178.898 131.284 179.117 131.533C179.336 131.784 179.525 132.058 179.679 132.355C179.836 132.651 179.958 132.962 180.042 133.29L189.073 168.489C189.156 168.817 189.275 169.127 189.432 169.427C189.589 169.723 189.776 169.997 189.995 170.246C190.211 170.497 190.455 170.717 190.725 170.906C190.993 171.096 191.28 171.251 191.585 171.367C191.888 171.485 192.202 171.564 192.524 171.604C192.846 171.643 193.167 171.643 193.489 171.604C193.811 171.562 194.125 171.482 194.428 171.364C194.733 171.245 195.017 171.09 195.288 170.901L223.338 150.889L228.893 146.936C229.242 146.69 229.548 146.396 229.81 146.049C230.07 145.704 230.275 145.326 230.421 144.911C230.567 144.498 230.649 144.072 230.667 143.631C230.686 143.194 230.638 142.759 230.524 142.335L220.749 104.227C220.666 103.899 220.547 103.586 220.39 103.289C220.233 102.993 220.046 102.719 219.827 102.467C219.611 102.216 219.367 101.999 219.097 101.807C218.829 101.617 218.542 101.465 218.237 101.346C217.934 101.231 217.62 101.151 217.298 101.112C216.974 101.072 216.652 101.075 216.33 101.115C216.008 101.157 215.694 101.236 215.392 101.358C215.089 101.476 214.802 101.632 214.534 101.824L211.34 104.094L183.287 124.103C183.019 124.295 182.733 124.45 182.43 124.569C182.124 124.687 181.813 124.766 181.491 124.809C181.169 124.848 180.848 124.848 180.523 124.809C180.201 124.769 179.89 124.69 179.585 124.572C179.282 124.456 178.995 124.3 178.724 124.111C178.457 123.922 178.213 123.702 177.994 123.45C177.775 123.202 177.589 122.928 177.432 122.631C177.277 122.332 177.158 122.021 177.072 121.694L168.036 86.5029C167.952 86.1753 167.833 85.8618 167.676 85.5653C167.522 85.2688 167.332 84.9948 167.116 84.7435C166.897 84.495 166.654 84.2747 166.383 84.0855C166.115 83.8935 165.829 83.741 165.526 83.6223C165.22 83.5037 164.906 83.4275 164.585 83.3851C164.263 83.3456 163.941 83.3484 163.619 83.3879C163.297 83.4275 162.983 83.5094 162.68 83.628C162.378 83.7466 162.091 83.9019 161.823 84.0911L133.762 104.094L105.718 124.103C105.45 124.295 105.163 124.45 104.858 124.569C104.555 124.69 104.241 124.769 103.919 124.812C103.597 124.851 103.273 124.854 102.951 124.814C102.629 124.775 102.315 124.696 102.01 124.577C101.707 124.459 101.42 124.306 101.149 124.114C100.879 123.925 100.636 123.705 100.417 123.453C100.197 123.205 100.011 122.931 99.8567 122.631C99.6998 122.335 99.5808 122.021 99.4969 121.694L90.4661 86.5029C90.3822 86.1753 90.2632 85.8618 90.1064 85.5653C89.9495 85.2688 89.7629 84.9948 89.5438 84.7435C89.3274 84.495 89.084 84.2747 88.8135 84.0855C88.5458 83.8935 88.2591 83.741 87.9535 83.6223C87.6505 83.5037 87.3368 83.4275 87.0149 83.3851C86.6931 83.3456 86.3712 83.3484 86.0494 83.3879C85.7275 83.4275 85.4138 83.5094 85.1109 83.628C84.8052 83.7466 84.5212 83.9019 84.2508 84.0911L56.2008 104.094L25.7896 125.786C25.438 126.032 25.1324 126.328 24.87 126.673C24.6104 127.017 24.4048 127.398 24.2587 127.811C24.1127 128.223 24.0316 128.65 24.0126 129.09C23.9964 129.531 24.0424 129.963 24.156 130.386L33.9333 168.461C34.0172 168.785 34.1362 169.099 34.293 169.395C34.4472 169.692 34.6338 169.966 34.8529 170.217C35.072 170.469 35.3154 170.689 35.5832 170.878C35.8536 171.067 36.1403 171.22 36.4432 171.338C36.7489 171.457 37.0599 171.536 37.3845 171.576C37.7063 171.615 38.0282 171.615 38.35 171.573C38.6719 171.533 38.9856 171.451 39.2885 171.333C39.5915 171.214 39.8781 171.062 40.1459 170.87L68.1986 150.861Z" fill="#14253A"/>
</g>
</g>
<defs>
<clipPath id="clip0_890_12689">
<rect width="208" height="89.1429" fill="white" transform="translate(24 83.4285)"/>
</clipPath>
<clipPath id="clip1_890_12689">
<rect width="214.209" height="89.1429" fill="white" transform="translate(17.791 83.4285)"/>
</clipPath>
</defs>
</svg>
