<svg width="32" height="32" viewBox="0 0 32 32" fill="none" xmlns="http://www.w3.org/2000/svg">
<rect width="32" height="32" fill="white"/>
<g clip-path="url(#clip0_890_12664)">
<g clip-path="url(#clip1_890_12664)">
<path fill-rule="evenodd" clip-rule="evenodd" d="M8.52481 18.8576L12.0314 16.3573C12.0649 16.3333 12.101 16.3142 12.1389 16.2994C12.1771 16.2845 12.2163 16.2747 12.2566 16.2697C12.2968 16.2644 12.337 16.2644 12.3776 16.2697C12.4178 16.2747 12.457 16.2849 12.4949 16.2997C12.5331 16.3145 12.5689 16.334 12.6024 16.3576C12.6362 16.3816 12.6663 16.4092 12.6937 16.4406C12.7211 16.472 12.7444 16.5066 12.7637 16.5437C12.783 16.5811 12.7978 16.6203 12.8083 16.6612L13.9378 21.0611C13.9483 21.1021 13.9632 21.1409 13.9828 21.1783C14.0021 21.2154 14.0257 21.2496 14.0528 21.2807C14.0802 21.3121 14.1106 21.3397 14.1444 21.3633C14.1779 21.387 14.2137 21.4064 14.2516 21.4208C14.2898 21.4357 14.329 21.4456 14.3692 21.4505C14.4095 21.4554 14.4497 21.4554 14.4899 21.4505C14.5302 21.4452 14.5694 21.4353 14.6072 21.4205C14.6451 21.4057 14.6809 21.3863 14.7144 21.3626L18.221 18.8612L21.7276 16.3608C21.7611 16.3371 21.7969 16.3177 21.8351 16.3029C21.873 16.2881 21.9122 16.2778 21.9524 16.2729C21.9927 16.2676 22.0329 16.2676 22.0731 16.2725C22.1133 16.2775 22.1526 16.2874 22.1904 16.3018C22.2286 16.3167 22.2645 16.3357 22.2979 16.3594C22.3317 16.383 22.3622 16.4106 22.3896 16.4416C22.4169 16.473 22.4406 16.5073 22.4599 16.5444C22.4795 16.5814 22.4947 16.6203 22.5052 16.6612L23.634 21.0611C23.6445 21.1021 23.6594 21.1409 23.679 21.1783C23.6986 21.2154 23.7219 21.2496 23.7493 21.2807C23.7764 21.3121 23.8068 21.3397 23.8406 21.3633C23.8741 21.387 23.9099 21.4064 23.9481 21.4208C23.986 21.4357 24.0252 21.4456 24.0654 21.4505C24.1057 21.4554 24.1459 21.4554 24.1861 21.4505C24.2264 21.4452 24.2656 21.4353 24.3034 21.4205C24.3416 21.4057 24.3771 21.3863 24.411 21.3626L27.9172 18.8612L28.6116 18.367C28.6552 18.3362 28.6934 18.2995 28.7262 18.2561C28.7587 18.213 28.7844 18.1657 28.8026 18.1138C28.8209 18.0623 28.831 18.009 28.8334 17.9539C28.8358 17.8992 28.8297 17.8448 28.8155 17.7919L27.5937 13.0284C27.5832 12.9874 27.5683 12.9482 27.5487 12.9112C27.5291 12.8741 27.5058 12.8399 27.4784 12.8084C27.4513 12.777 27.4209 12.7498 27.3871 12.7258C27.3536 12.7022 27.3178 12.6831 27.2796 12.6683C27.2417 12.6538 27.2025 12.6439 27.1623 12.639C27.1217 12.6341 27.0815 12.6344 27.0412 12.6394C27.001 12.6446 26.9618 12.6545 26.9239 12.6697C26.8861 12.6845 26.8502 12.704 26.8167 12.728L26.4175 13.0118L22.9109 15.5129C22.8774 15.5369 22.8416 15.5563 22.8037 15.5711C22.7655 15.5859 22.7266 15.5958 22.6864 15.6011C22.6462 15.6061 22.6059 15.6061 22.5654 15.6011C22.5251 15.5962 22.4863 15.5863 22.448 15.5715C22.4102 15.557 22.3743 15.5376 22.3405 15.5139C22.3071 15.4903 22.2766 15.4627 22.2493 15.4313C22.2219 15.4002 22.1985 15.366 22.1789 15.3289C22.1597 15.2915 22.1448 15.2527 22.134 15.2117L21.0044 10.8129C20.994 10.7719 20.9791 10.7327 20.9595 10.6957C20.9402 10.6586 20.9165 10.6244 20.8895 10.5929C20.8621 10.5619 20.8317 10.5343 20.7979 10.5107C20.7644 10.4867 20.7286 10.4676 20.6907 10.4528C20.6525 10.438 20.6133 10.4284 20.573 10.4232C20.5328 10.4182 20.4926 10.4186 20.4523 10.4235C20.4121 10.4284 20.3729 10.4387 20.335 10.4535C20.2972 10.4683 20.2613 10.4878 20.2279 10.5114L16.7203 13.0118L13.2147 15.5129C13.1812 15.5369 13.1454 15.5563 13.1072 15.5711C13.0693 15.5863 13.0301 15.5962 12.9899 15.6015C12.9496 15.6064 12.9091 15.6068 12.8688 15.6018C12.8286 15.5969 12.7894 15.587 12.7512 15.5722C12.7133 15.5573 12.6775 15.5383 12.6437 15.5143C12.6099 15.4906 12.5794 15.4631 12.552 15.4317C12.5247 15.4006 12.5013 15.3664 12.4821 15.3289C12.4624 15.2919 12.4476 15.2527 12.4371 15.2117L11.3082 10.8129C11.2978 10.7719 11.2829 10.7327 11.2633 10.6957C11.2437 10.6586 11.2203 10.6244 11.193 10.5929C11.1659 10.5619 11.1355 10.5343 11.1017 10.5107C11.0682 10.4867 11.0324 10.4676 10.9942 10.4528C10.9563 10.438 10.9171 10.4284 10.8768 10.4232C10.8366 10.4182 10.7964 10.4186 10.7561 10.4235C10.7159 10.4284 10.6767 10.4387 10.6388 10.4535C10.6006 10.4683 10.5651 10.4878 10.5313 10.5114L7.02507 13.0118L3.22368 15.7233C3.17972 15.754 3.14152 15.791 3.10873 15.8341C3.07627 15.8772 3.05058 15.9248 3.03232 15.9764C3.01406 16.0279 3.00392 16.0812 3.00156 16.1363C2.99953 16.1913 3.00527 16.2454 3.01947 16.2983L4.24164 21.0576C4.25212 21.0982 4.267 21.1374 4.28661 21.1744C4.30588 21.2115 4.3292 21.2458 4.35659 21.2772C4.38397 21.3086 4.4144 21.3361 4.44787 21.3598C4.48168 21.3834 4.51752 21.4025 4.55538 21.4173C4.59358 21.4321 4.63246 21.442 4.67303 21.447C4.71327 21.4519 4.7535 21.4519 4.79373 21.4466C4.83396 21.4417 4.87318 21.4314 4.91104 21.4166C4.94891 21.4018 4.98475 21.3827 5.01822 21.3587L8.52481 18.8576Z" fill="#14253A"/>
</g>
</g>
<defs>
<clipPath id="clip0_890_12664">
<rect width="26" height="11.1429" fill="white" transform="translate(3 10.4286)"/>
</clipPath>
<clipPath id="clip1_890_12664">
<rect width="26.7761" height="11.1429" fill="white" transform="translate(2.22388 10.4286)"/>
</clipPath>
</defs>
</svg>
