<svg version="1.1" id="Layer_1" xmlns="http://www.w3.org/2000/svg" xmlns:xlink="http://www.w3.org/1999/xlink" x="0px" y="0px"
	 width="100%" viewBox="0 0 1000 1000" enable-background="new 0 0 1000 1000" xml:space="preserve">
<path fill="#000000" opacity="1.000000" stroke="none" 
	d="
M1.000000,382.000000 
	C1.000000,256.166687 1.019480,130.833344 0.905696,5.500131 
	C0.902292,1.750662 1.750740,0.905744 5.499982,0.906886 
	C335.833252,1.007431 666.166504,1.007427 996.499817,0.906926 
	C1000.248474,0.905785 1001.094238,1.750295 1001.093140,5.499863 
	C1000.992554,335.833130 1000.992554,666.166382 1001.093018,996.499695 
	C1001.094177,1000.248047 1000.250122,1001.094299 996.500305,1001.093140 
	C666.166992,1000.992554 335.833710,1000.992615 5.500431,1001.093079 
	C1.752327,1001.094177 0.904418,1000.250732 0.906354,996.500366 
	C1.011989,791.833618 1.000000,587.166809 1.000000,382.000000 
z"/>
<path fill="#FEFFFE" opacity="1.000000" stroke="none" 
	d="
M361.728638,142.370956 
	C362.720520,142.082840 363.414215,141.965637 364.455475,141.793793 
	C365.651581,141.271362 366.518951,140.856461 367.853821,140.726028 
	C370.350739,140.772552 371.390472,139.187561 372.841339,137.578644 
	C374.734833,136.823608 376.299133,136.106094 378.402405,136.087997 
	C381.323822,137.019516 383.517578,135.983978 385.777771,134.936325 
	C390.628845,132.687759 395.729126,131.008713 400.791382,128.364243 
	C401.081940,128.158066 401.470917,127.966766 401.681946,127.917366 
	C402.524597,127.444145 403.203186,127.152420 404.343994,127.145859 
	C409.058929,128.774521 411.831360,125.771339 415.249939,123.524384 
	C417.540009,122.815636 419.537079,122.605003 421.935486,122.635483 
	C426.181915,123.190826 429.163696,120.796509 432.774414,119.326920 
	C433.056061,119.102798 433.478394,118.948845 433.702332,118.929535 
	C435.013031,118.021996 436.326752,118.002640 438.003601,117.979103 
	C443.071533,119.372040 447.180359,118.463669 450.906433,114.695091 
	C452.880951,114.453560 454.541016,114.374969 456.617462,114.315575 
	C459.914185,113.362961 462.769379,112.230705 466.275452,113.004173 
	C471.148193,114.807281 474.772858,112.415123 478.770996,110.294815 
	C481.965088,109.911827 484.892578,109.755508 488.252991,109.625214 
	C494.165588,107.375900 499.910828,108.844528 505.981506,108.494705 
	C515.275208,108.431198 524.223328,109.296135 533.066406,105.349739 
	C544.187195,104.810875 554.879028,105.030121 566.027283,105.135330 
	C572.128784,108.621017 578.583130,107.671539 584.697388,108.459862 
	C587.605713,108.834839 590.611389,108.665497 594.033691,108.559143 
	C600.487915,108.486374 606.506714,107.867432 612.883545,109.469986 
	C616.881897,109.801086 620.434204,109.967278 624.431519,110.192368 
	C627.693298,113.275787 631.230530,114.145546 635.570984,113.696228 
	C639.371399,113.998444 642.862793,113.071846 646.613403,114.280151 
	C648.285156,114.488945 649.606628,114.572929 651.317139,114.732094 
	C655.081177,117.249947 658.570129,119.309982 663.368774,118.088806 
	C665.016663,117.773323 666.261902,117.884224 667.765015,118.706726 
	C668.519409,118.932396 668.950867,118.942474 669.696289,119.034058 
	C670.961426,119.045494 671.910034,119.000206 673.112793,119.595871 
	C675.146545,121.863480 677.310852,122.953529 680.430786,122.663971 
	C683.054382,122.505211 685.272217,122.887550 687.841431,123.320114 
	C690.993347,124.770531 692.828247,128.260086 697.039917,127.204605 
	C698.132446,127.068092 698.846741,127.143509 699.833008,127.672195 
	C700.567810,127.898521 700.988220,127.935913 701.712585,128.064301 
	C702.933533,128.039398 703.838013,128.021072 704.979004,128.649216 
	C707.204773,130.967606 709.270081,132.850159 712.836975,132.317429 
	C713.628845,132.242493 714.082031,132.275681 714.854492,132.490707 
	C717.747620,134.451797 720.124878,136.726089 724.014160,136.302795 
	C726.540283,136.223221 728.474365,137.053543 730.669312,138.157288 
	C732.352905,139.603760 733.348022,141.509277 736.001709,141.265152 
	C736.780823,141.241959 737.222229,141.299591 737.968140,141.541046 
	C740.520264,143.555862 742.957581,145.059647 746.222778,145.659149 
	C747.937439,145.950012 749.371582,145.992905 750.853027,147.039673 
	C752.374817,148.793381 753.555420,150.427979 756.097168,150.708939 
	C757.108459,150.846115 757.770935,151.001816 758.724487,151.382202 
	C760.488220,152.917160 761.785217,154.555191 764.397522,154.665771 
	C767.453796,155.032455 770.045227,155.671280 772.411621,157.777557 
	C775.688782,161.983566 780.177490,163.660675 784.821411,165.689087 
	C785.596619,165.874191 786.026062,166.020950 786.740967,166.361420 
	C788.360779,167.590057 789.036072,169.462875 791.342407,169.779709 
	C792.585266,170.019135 793.460999,170.283310 794.423889,171.159058 
	C797.152283,175.114639 801.257263,176.716415 804.725525,179.140747 
	C808.360474,181.681503 811.812805,184.492691 816.062927,186.717712 
	C817.315430,187.085831 818.164490,187.489868 819.169556,188.333420 
	C822.697021,192.700333 825.891663,196.922974 831.866577,198.110138 
	C834.958862,200.020187 837.314758,202.272095 839.615967,205.074951 
	C841.429565,208.970459 844.287476,211.441498 847.734009,213.776794 
	C848.230408,214.002548 848.424255,214.099716 848.891479,214.366608 
	C849.962708,215.216217 850.815308,215.802307 852.131836,216.223297 
	C852.799194,216.569733 853.123230,216.848831 853.577881,217.452087 
	C854.170959,218.704620 854.597900,219.676727 856.055664,220.142792 
	C856.736206,220.509979 857.071472,220.793533 857.541870,221.406677 
	C858.296570,223.593567 859.051086,225.360992 861.467163,226.221924 
	C865.455933,228.531296 867.439575,232.357040 870.376770,235.252472 
	C872.857971,237.698441 872.217285,241.339249 869.767883,243.267548 
	C862.449585,249.028870 856.411499,256.113617 849.058594,262.292603 
	C846.982117,264.148010 845.244141,265.873627 843.229492,267.781616 
	C830.490112,276.655457 820.613892,288.249268 809.162903,298.071533 
	C796.790833,308.683960 785.763245,320.780121 772.829956,330.774841 
	C768.742798,333.933319 765.473206,338.006683 761.691284,341.518066 
	C759.666748,343.397797 757.628479,344.631409 755.490540,341.597107 
	C749.363953,332.901825 740.948669,326.552887 732.949402,319.797913 
	C720.123108,308.966583 706.845398,298.653687 691.669556,291.348511 
	C679.879761,285.673248 668.543457,279.082275 656.073975,274.683136 
	C648.344482,271.956299 640.585693,269.308167 632.783142,266.815338 
	C628.602112,265.479492 624.141907,265.750305 619.991638,263.351349 
	C615.812683,260.935791 610.493042,262.622131 605.413208,261.585327 
	C604.667847,261.458710 604.259705,261.481812 603.547913,261.457764 
	C591.696838,256.484192 579.494995,257.430145 567.401001,257.422363 
	C555.596497,257.414764 543.791870,257.436096 531.987427,257.413422 
	C527.280823,257.404388 522.800171,258.305145 518.326904,259.826294 
	C512.655884,261.754791 506.674072,262.263641 500.703247,262.389771 
	C497.488739,262.457672 494.394653,262.669861 491.699524,264.678894 
	C491.036346,265.173248 490.276642,265.747986 489.466736,265.727814 
	C481.231201,265.522858 474.052246,269.537811 466.420624,271.636444 
	C457.667175,274.043488 449.397980,278.018524 441.102081,281.699310 
	C433.390167,285.120972 425.667389,288.657623 418.283447,293.668823 
	C416.021149,295.150543 414.096130,296.381165 411.859924,297.763458 
	C410.519653,297.250031 410.090088,298.218079 409.356628,298.973389 
	C409.239655,299.269867 408.984497,299.575653 408.812378,299.675781 
	C407.662048,301.838226 405.565430,302.369049 403.454193,303.394348 
	C401.475342,303.584808 400.332336,304.490631 399.506958,306.160583 
	C399.536041,306.481506 399.243073,306.754120 399.056915,306.827454 
	C398.591797,307.259308 398.255524,307.549561 397.528015,307.838501 
	C395.227539,307.783813 393.949463,308.794861 392.924500,310.741486 
	C392.091766,312.127380 391.578857,313.372955 389.974609,313.976776 
	C389.516205,314.143860 389.383514,314.304565 388.990967,314.639069 
	C388.352753,315.892120 387.306000,316.112030 386.177063,316.692261 
	C385.105652,317.428589 384.312042,318.055939 383.260010,318.842590 
	C376.434021,325.835175 369.062927,331.819489 362.982635,339.202209 
	C348.960907,356.227570 337.340973,374.594940 327.672333,394.486206 
	C322.463928,405.201416 318.344330,416.243286 315.349457,427.477081 
	C312.359131,438.693878 310.269501,450.323669 308.083496,461.808105 
	C303.432861,486.240631 306.539215,510.611816 305.372192,534.959961 
	C305.292023,536.632202 305.569397,538.321838 306.308777,539.832336 
	C308.952972,545.234314 309.389862,551.015930 309.309692,556.876770 
	C309.246948,561.460327 309.741760,565.852356 312.576569,569.695862 
	C313.369690,570.771240 313.888824,572.028687 313.936737,573.403259 
	C314.310028,584.104553 318.639099,593.697571 322.572449,603.343872 
	C328.467255,617.800598 335.254211,631.807678 343.490692,645.145020 
	C356.483215,666.183777 372.590363,684.571777 391.771332,699.891052 
	C404.276978,709.878845 418.056915,718.302490 432.326691,725.926086 
	C441.496185,730.824890 451.131531,734.336426 460.709442,737.815857 
	C467.395355,740.244751 474.088562,743.547485 481.502136,743.917419 
	C483.834290,744.033875 486.208862,744.671936 488.237122,745.654053 
	C493.661041,748.280518 499.386292,748.789856 505.621185,748.924316 
	C507.040253,748.980408 508.069031,749.049866 509.479156,749.184570 
	C518.121765,752.634399 526.876831,752.532776 535.986145,752.810547 
	C548.103699,752.098755 559.810181,752.569031 571.960510,752.503357 
	C574.737549,752.554932 577.066284,752.527649 579.808960,752.550537 
	C587.718201,752.217346 595.299011,752.531738 602.816589,749.493042 
	C603.867310,749.233032 604.568542,749.149780 605.617676,749.005005 
	C607.958435,747.634949 610.224365,747.876526 612.832397,747.857666 
	C618.304321,749.668762 622.607849,748.016724 626.917542,744.710083 
	C627.968628,744.160339 628.727356,744.061707 629.903809,744.182129 
	C630.601807,744.319153 630.913025,744.323669 631.440308,744.146484 
	C632.612122,743.963623 633.537659,743.634399 634.861572,743.674316 
	C637.880066,743.741577 640.620239,744.073975 642.783447,741.345642 
	C643.134827,740.903564 643.293152,740.740601 643.752747,740.418213 
	C645.067871,740.130310 646.081848,740.001953 647.467773,739.779541 
	C648.480408,739.357239 649.141785,739.097290 650.224609,739.075928 
	C655.265381,739.728638 658.788330,737.134399 662.711670,734.637329 
	C663.673950,734.169250 664.370789,734.076843 665.438965,734.110901 
	C670.873230,733.629211 675.233337,730.832275 679.825378,729.067078 
	C684.227661,727.374878 688.900818,725.294861 692.968506,721.873108 
	C696.332703,720.575806 695.975281,717.984131 695.972717,715.472717 
	C695.945923,688.862549 695.940857,662.252441 695.938416,635.642273 
	C695.934265,589.407349 695.936035,543.172424 695.969421,496.470032 
	C697.812561,494.417877 699.981995,494.665131 702.162903,494.671173 
	C714.119080,494.704315 726.138916,495.677338 738.001709,495.150543 
	C756.494812,494.329193 774.957886,494.743378 793.430115,494.522034 
	C811.397949,494.306702 829.369080,494.754059 847.341125,494.521149 
	C856.221375,494.406067 857.509216,495.811249 857.511047,504.627441 
	C857.531189,602.908020 857.484131,701.188721 857.616882,799.469116 
	C857.625244,805.666992 855.356506,809.845154 850.435120,813.260742 
	C832.667664,825.591858 814.105957,836.545837 794.996216,846.675659 
	C785.410889,851.756714 775.095886,855.071777 765.536926,860.100281 
	C755.400208,865.432861 744.131836,867.814941 733.386108,872.738159 
	C732.594482,873.110779 732.138855,873.170410 731.342712,873.282715 
	C727.576416,873.721497 724.196289,874.227966 721.323730,877.048706 
	C719.579895,877.470337 718.144653,877.730347 716.358887,878.092285 
	C710.654602,878.860840 706.055359,881.934937 700.528503,883.171143 
	C699.810608,883.576477 699.358582,883.697815 698.540283,883.743164 
	C694.112671,882.725647 690.911255,885.051025 687.279297,886.812500 
	C686.608093,887.116455 686.151611,887.164917 685.352844,887.249634 
	C679.535706,887.132446 674.367615,888.182495 669.365723,891.347351 
	C667.302246,891.686035 665.570862,891.865356 663.478149,892.133179 
	C662.470032,892.604919 661.786621,892.872986 660.660400,892.864502 
	C656.149841,891.468811 652.592102,892.617065 649.121765,895.577576 
	C647.217468,895.947388 645.606934,896.131592 643.598389,896.389771 
	C640.089172,897.427002 636.891418,897.579407 633.247314,897.470093 
	C627.108826,896.702576 621.744263,897.946777 616.231689,900.526123 
	C613.574036,900.842712 611.267334,900.969360 608.529297,901.140137 
	C604.939087,902.685242 601.607971,902.614990 597.804688,902.199219 
	C593.814636,900.916443 590.129150,901.338257 586.536804,901.528870 
	C576.156006,902.079712 565.848083,903.408813 555.189331,905.229858 
	C548.902039,905.443481 543.009827,905.487549 536.669800,905.462036 
	C524.770020,902.126343 513.044434,901.638428 500.808533,902.057861 
	C495.138977,902.752930 489.921143,902.852478 484.377991,901.266357 
	C482.628265,900.984070 481.262238,900.963745 479.491943,900.874817 
	C478.384735,900.257690 477.626129,900.080566 476.470184,900.554688 
	C475.702179,900.644958 475.266144,900.551147 474.548157,900.200439 
	C471.567474,896.918579 467.961487,897.203064 464.020386,897.341614 
	C456.618866,897.486450 449.734375,896.834961 443.278900,893.754456 
	C443.128052,893.682434 442.965698,893.595703 442.807983,893.593201 
	C432.711029,893.430603 423.563049,888.979553 413.842834,887.022766 
	C406.614655,885.567566 399.423584,883.252319 392.376801,880.852112 
	C377.769440,875.876770 363.649628,869.632202 349.531403,863.440369 
	C344.515167,861.240417 339.660431,858.634644 334.229614,856.431885 
	C332.936005,855.757629 332.171021,854.860657 330.671753,854.714844 
	C329.674500,854.595093 329.089661,854.318237 328.388794,853.585571 
	C325.955109,849.692566 322.034149,848.423584 318.293640,846.396912 
	C317.338470,846.224792 316.709534,846.084839 315.783875,845.830322 
	C314.710815,845.390320 314.171753,844.754944 313.341797,844.009094 
	C312.972412,843.682373 312.826172,843.551270 312.462158,843.226013 
	C311.797333,842.650024 311.308960,842.338684 310.452881,842.065430 
	C309.756165,841.846313 309.367218,841.681519 308.712708,841.307495 
	C302.169769,835.902405 295.324310,831.515686 288.091309,827.110535 
	C287.585815,826.875977 287.391052,826.770508 286.933655,826.468262 
	C285.917389,825.562805 285.388550,824.601746 284.075500,824.081360 
	C283.615295,823.862854 283.434082,823.770691 282.998596,823.513062 
	C282.041687,822.659363 281.386292,821.889282 279.977692,821.851318 
	C279.502350,821.703552 279.318451,821.624146 278.886139,821.375366 
	C278.056641,820.662842 277.523376,820.069885 276.697968,819.349976 
	C276.057190,818.727173 275.654999,818.287964 275.004333,817.676392 
	C274.365387,817.059143 273.970428,816.618713 273.322632,816.015991 
	C272.958344,815.689270 272.813446,815.557983 272.451019,815.232422 
	C271.786072,814.653809 271.297333,814.338562 270.443207,814.051270 
	C269.336487,813.689331 268.594788,813.295288 267.754791,812.459106 
	C266.682220,810.528503 266.039551,808.653381 263.637085,807.903015 
	C263.159302,807.635315 262.975647,807.513977 262.551147,807.166199 
	C261.182098,805.197693 259.647034,804.118530 257.186737,803.963196 
	C256.399506,803.844238 255.987549,803.666687 255.390488,803.143555 
	C254.870804,802.606018 254.570129,802.332520 254.095154,801.807495 
	C254.543701,799.871582 253.121185,800.191895 252.000488,799.817627 
	C251.091721,799.414185 250.647766,798.949280 250.186829,798.070679 
	C249.676697,796.309937 249.053772,795.007080 247.437408,793.996765 
	C247.017380,793.665833 246.855881,793.525208 246.479401,793.146912 
	C245.403870,791.718689 244.550491,790.519470 242.672638,790.092896 
	C241.752991,789.778748 241.200348,789.460571 240.556686,788.733643 
	C239.959991,787.337646 239.759720,786.018616 237.869980,785.778076 
	C237.005035,785.334900 236.586548,784.863953 236.152161,783.995728 
	C235.667404,782.250183 235.019119,780.989807 233.433365,779.993042 
	C233.017410,779.664917 232.857376,779.525208 232.483963,779.149048 
	C231.410751,777.723755 230.560333,776.523499 228.679840,776.095398 
	C227.741089,775.775208 227.178268,775.445923 226.531891,774.683472 
	C226.058395,772.363708 225.270187,770.679443 222.832550,769.829956 
	C222.145401,769.440613 221.819473,769.128784 221.367783,768.468506 
	C218.216400,761.253845 212.446762,756.466919 207.677338,750.500793 
	C207.292770,750.103943 207.137527,749.948425 206.763702,749.550415 
	C206.010727,748.633423 205.433105,747.998047 204.609589,747.142090 
	C204.285034,746.698364 204.168610,746.509338 203.898712,746.022095 
	C199.257355,740.294983 197.093582,733.123047 190.805145,728.618652 
	C189.629730,727.555298 189.180191,726.478943 188.857147,724.958130 
	C188.467728,722.209900 187.040573,720.470947 185.109497,718.640076 
	C184.764496,718.184753 184.653351,717.983704 184.448883,717.453491 
	C183.336929,713.841675 181.115784,711.392761 178.453751,708.862671 
	C176.883255,707.852722 176.158539,706.672668 175.862091,704.838562 
	C175.764297,701.905396 174.809769,699.695801 172.818665,697.559326 
	C172.476639,697.097229 172.354446,696.901062 172.082840,696.391357 
	C169.610687,689.770813 165.494003,684.428894 162.230774,678.252319 
	C161.985794,678.008606 161.805740,677.640442 161.784286,677.436646 
	C161.313705,676.374084 160.850937,675.520386 160.720093,674.176636 
	C159.357834,669.967285 157.277298,666.449097 155.514435,662.438965 
	C155.150940,662.018005 155.002472,661.852783 154.647095,661.427368 
	C154.073914,660.621460 153.880280,659.974548 153.204468,659.248718 
	C152.963959,659.028076 152.965637,659.049866 152.954269,659.051147 
	C152.209808,658.172485 152.031906,657.120178 152.008514,655.622803 
	C152.126114,654.245483 152.641251,653.156616 152.015579,652.304993 
	C148.487320,647.502625 148.083344,641.456604 145.529938,636.276001 
	C145.236298,635.680237 144.695343,635.129822 144.630966,634.507690 
	C143.710876,625.613831 137.799789,617.882751 138.628448,608.580627 
	C139.009094,604.307739 134.588196,601.727783 134.428894,597.214600 
	C134.155548,596.161438 134.077515,595.444031 133.976135,594.366089 
	C133.588089,592.552429 133.732925,591.069946 133.691727,589.230103 
	C134.081665,584.378845 133.527939,580.136169 130.310287,576.233643 
	C129.960922,573.661499 129.854568,571.362732 129.730545,568.635010 
	C127.580956,563.957886 128.737137,559.405151 128.558395,554.989990 
	C128.351578,549.881226 128.949905,544.728210 126.334839,539.933411 
	C125.110588,537.688721 126.497772,534.997253 125.521385,532.182190 
	C125.314980,515.216187 125.282089,498.657074 125.257751,481.641052 
	C127.903419,466.848602 130.728867,452.534576 130.018768,437.830261 
	C129.962814,436.671326 129.678619,435.287781 130.328201,434.389648 
	C134.250229,428.966736 132.720123,422.524261 133.994980,416.649414 
	C135.958344,407.601685 138.449066,398.627594 140.966400,389.691406 
	C141.549255,387.622375 142.421707,385.628876 142.817596,383.488281 
	C144.360001,375.148132 147.278198,367.297211 150.867508,359.620209 
	C152.828949,355.425018 154.117279,350.916290 155.841873,346.586090 
	C162.260620,330.469360 170.838181,315.504608 179.666672,300.665894 
	C183.153732,294.804901 186.799835,289.032013 189.674042,282.846527 
	C190.937439,280.127625 193.256378,278.479950 195.169632,276.461243 
	C200.587830,270.744415 203.836487,263.421448 209.557236,257.501221 
	C210.434769,256.554169 211.190674,255.988785 211.734253,254.826019 
	C212.112610,253.908005 212.431458,253.336746 213.115265,252.633484 
	C214.389481,251.800156 215.591431,251.339203 215.894028,249.602417 
	C217.887161,244.603455 222.545822,242.272552 225.562164,238.108063 
	C226.405685,237.334366 227.156067,236.982513 227.999969,236.266113 
	C228.345734,235.931030 228.482559,235.795380 228.822037,235.454742 
	C229.574951,234.686234 229.995850,234.034225 230.492737,233.053864 
	C234.031952,229.971359 235.639481,225.424744 240.115326,223.236725 
	C242.526550,222.199615 243.880112,220.406799 245.661484,218.622101 
	C246.024765,218.216141 246.173569,218.057693 246.555237,217.673492 
	C247.423340,216.868240 248.062454,216.292572 248.794174,215.346848 
	C251.243149,211.839401 254.450119,209.640976 257.805359,207.145599 
	C258.912506,206.732895 259.667694,206.381668 260.239197,205.272354 
	C262.119385,202.184296 265.091949,200.755692 267.530640,198.830872 
	C275.079681,192.872498 282.794281,187.108704 291.134399,181.652985 
	C292.404816,181.041672 293.452850,180.727676 294.507233,179.765793 
	C295.439850,179.054810 296.210327,178.703430 297.271118,178.240204 
	C298.783905,177.738647 299.663635,176.973679 300.313660,175.499924 
	C301.298096,174.127167 302.498199,173.601685 304.010132,172.971558 
	C305.473969,172.581726 306.007507,171.605270 306.916931,170.528992 
	C315.528107,165.640976 324.227905,161.626450 332.403870,156.639053 
	C333.954254,155.693329 335.620453,154.920700 337.839111,154.745087 
	C340.927582,154.625839 342.426239,152.488495 344.592438,150.800964 
	C345.286774,150.413376 345.723053,150.286148 346.518066,150.201324 
	C351.587799,148.312912 356.351624,146.519287 360.774841,143.332214 
	C361.119263,142.878479 361.274811,142.710190 361.728638,142.370956 
z"/>
<path fill="#81817F" opacity="1.000000" stroke="none" 
	d="
M733.447693,873.227295 
	C733.327271,871.301575 734.727905,870.377747 736.110840,870.141113 
	C743.533691,868.871155 749.859680,864.345276 757.310059,863.182068 
	C761.290466,862.560730 764.360657,859.660767 767.646973,857.798767 
	C773.033447,854.746643 778.972778,853.403442 784.449707,850.717224 
	C795.908875,845.096863 806.928406,838.800903 818.039185,832.574036 
	C827.007629,827.547852 835.455933,821.746826 844.269470,816.510132 
	C848.215088,814.165771 851.646545,810.910156 855.144775,807.875916 
	C857.308350,805.999268 856.578064,803.214722 856.578552,800.777466 
	C856.590698,738.448730 856.562317,676.119995 856.552551,613.791260 
	C856.546753,576.793945 856.560547,539.796692 856.565552,502.799377 
	C856.566406,496.098358 856.208801,495.703583 849.533203,495.702271 
	C815.565308,495.695496 781.586548,495.211700 747.635010,495.958862 
	C734.168945,496.255188 720.708679,494.537598 707.252808,496.204224 
	C703.837952,496.627167 700.369690,495.005585 696.424072,495.819885 
	C694.683899,490.782593 698.258545,491.228882 701.497925,491.229248 
	C744.466675,491.233795 787.435425,491.230103 830.404175,491.227966 
	C837.898743,491.227600 845.393433,491.189331 852.887756,491.233124 
	C860.557861,491.277954 861.616272,492.253174 861.633545,499.844147 
	C861.696777,527.657227 861.697021,555.470520 861.701111,583.283691 
	C861.711670,655.065125 861.654480,726.846680 861.820862,798.627747 
	C861.834656,804.564636 859.925964,807.996460 854.954407,811.577393 
	C840.499512,821.989197 825.192932,831.003296 810.102051,840.364319 
	C803.925964,844.195374 796.876160,846.600647 790.610840,850.308533 
	C777.616516,857.998535 763.222107,862.454956 749.381836,868.054077 
	C744.473633,870.039795 739.811157,874.075867 733.447693,873.227295 
z"/>
<path fill="#999999" opacity="1.000000" stroke="none" 
	d="
M506.027069,748.642395 
	C500.918945,750.924377 495.887909,749.876465 491.191376,747.911316 
	C488.890869,746.948669 486.740021,745.810547 484.226227,745.495605 
	C471.693176,743.925171 460.287811,738.669006 448.573761,734.458862 
	C434.386139,729.359680 421.440094,721.672302 409.015564,713.403564 
	C392.466339,702.389648 377.176361,689.821106 364.043701,674.551025 
	C354.286713,663.206055 346.303131,650.748840 337.871643,638.545166 
	C335.632019,635.303589 333.962738,631.594116 332.477905,627.919128 
	C328.526154,618.138245 322.338501,609.293030 319.528687,599.123169 
	C317.390472,591.384155 312.861725,584.275085 313.151489,575.863098 
	C313.245209,573.142578 312.520294,570.690918 310.636047,568.499451 
	C308.451111,565.958313 308.461121,562.661560 308.443848,559.502625 
	C308.406555,552.686951 308.453217,545.918213 305.147858,539.586426 
	C304.284363,537.932312 304.313293,535.697937 304.306244,533.728760 
	C304.240173,515.238037 304.313599,496.746765 304.207458,478.256409 
	C304.179871,473.447510 306.153168,469.206268 307.341431,464.738525 
	C308.901672,458.871857 306.929077,452.400116 309.129272,446.982269 
	C312.494934,438.694641 312.528931,429.622284 316.449341,421.482788 
	C318.689056,416.832642 319.230408,411.402985 320.966614,406.380554 
	C322.735748,401.262878 325.659515,396.913544 327.903778,392.195953 
	C333.930786,379.526703 339.751495,366.631989 348.591278,355.554657 
	C358.972717,342.545410 368.505676,328.724030 382.653687,318.921875 
	C379.069611,324.960907 373.207764,329.159637 368.822144,334.758270 
	C357.070557,349.760345 345.053894,364.511566 336.364014,381.666931 
	C331.292175,391.679596 326.707672,401.831024 322.333374,412.167328 
	C319.289276,419.360382 320.367828,427.778046 314.976532,433.972107 
	C315.266907,445.024200 309.522980,455.045135 309.687164,466.146393 
	C309.866730,478.286163 308.976959,490.389801 307.605652,502.486237 
	C306.961823,508.165863 307.829224,514.089111 308.551361,519.834167 
	C309.614777,528.294556 309.494080,536.781250 309.779938,545.260193 
	C310.129272,555.622009 313.543671,565.474304 315.609711,575.465637 
	C317.538391,584.792725 320.938629,594.107788 324.290863,603.191223 
	C327.019775,610.585876 331.112732,617.481750 334.664276,624.567078 
	C339.570648,634.355408 344.958282,643.876831 351.565491,652.625122 
	C362.849487,667.565735 373.607208,682.880005 388.917542,694.374023 
	C397.669952,700.944824 405.950287,708.221252 415.445953,713.669067 
	C426.170959,719.822205 436.406281,727.025208 448.569336,730.437866 
	C452.636871,731.579102 456.301300,733.962952 460.156738,735.647461 
	C467.617462,738.907410 476.043396,738.620911 483.093994,742.993225 
	C486.573639,745.151245 490.912659,744.155151 495.256409,744.661926 
	C498.707825,745.308777 501.537842,746.618103 504.807312,747.672852 
	C505.418671,748.038818 505.730652,748.206360 506.027069,748.642395 
z"/>
<path fill="#818182" opacity="1.000000" stroke="none" 
	d="
M214.166992,252.733917 
	C213.604340,253.377930 213.275742,253.830765 212.829010,254.540833 
	C212.481812,255.552704 211.881561,256.029877 211.152283,256.747192 
	C204.150909,264.775482 198.863617,273.733276 191.774673,281.474518 
	C187.465195,286.180573 185.331970,293.222992 181.758377,298.960632 
	C174.507080,310.603027 168.196945,322.731293 162.096176,335.020325 
	C158.190186,342.888306 155.879929,351.302979 152.290482,359.158813 
	C145.598404,373.804962 142.481705,389.342133 138.269150,404.672699 
	C136.226257,412.107300 136.671997,420.173218 134.002518,426.768707 
	C129.445465,438.027893 131.540421,449.303436 130.092041,460.474091 
	C129.208130,467.291077 126.912888,473.956635 125.583130,481.006897 
	C124.126343,468.059357 123.976028,455.004333 128.030792,442.249207 
	C128.282166,441.458435 128.880875,440.664246 128.826248,439.907104 
	C127.963486,427.950104 133.129395,416.949982 134.276871,405.292114 
	C134.989166,398.055603 137.903122,391.181519 140.037582,384.279541 
	C144.569870,369.624084 149.420975,354.978027 156.042206,341.094177 
	C161.654465,329.326080 167.119003,317.503021 173.948944,306.278839 
	C180.917984,294.826050 187.844849,283.359772 195.634308,272.470978 
	C204.020340,260.748230 213.258713,249.678696 222.876801,238.917191 
	C228.422424,232.712265 234.445770,227.034210 240.751129,221.220459 
	C241.625732,221.807953 241.710617,222.533646 241.157166,223.600250 
	C236.956848,226.295715 234.773804,230.478302 231.092072,233.626312 
	C230.473755,234.460663 229.983261,234.944412 229.090576,235.489532 
	C228.780197,235.644180 228.720963,235.717621 228.683426,235.746216 
	C228.371384,236.424286 227.951874,236.967026 227.141342,237.628662 
	C224.355316,242.267258 220.286575,245.377579 216.966370,249.554993 
	C216.206024,250.926636 215.243118,251.681183 214.166992,252.733917 
z"/>
<path fill="#9B9D9E" opacity="1.000000" stroke="none" 
	d="
M605.312622,261.721252 
	C611.590820,261.035858 618.193787,259.751831 623.993652,264.418610 
	C624.992371,265.222198 626.868225,264.945038 628.341553,265.147766 
	C632.879395,265.772278 637.692200,265.376617 641.430786,268.895660 
	C641.994751,269.426514 642.917725,269.705353 643.717957,269.836700 
	C658.439819,272.252655 670.722839,280.484131 683.950562,286.502716 
	C693.630249,290.906982 703.139343,295.761780 711.608154,301.985077 
	C726.506714,312.933197 741.382263,324.039825 753.980408,337.800659 
	C755.498718,339.459076 755.957031,343.137177 758.220886,342.645477 
	C760.488647,342.152954 762.308777,339.490875 764.271179,337.719940 
	C773.885376,329.043579 783.531006,320.401062 793.071838,311.644470 
	C804.935608,300.755859 816.846802,289.911896 828.446472,278.746338 
	C832.732971,274.620331 836.594849,270.133453 842.587646,267.861145 
	C842.360596,270.930450 839.495544,271.823120 837.638062,273.557617 
	C813.935059,295.691833 790.127441,317.714081 766.364685,339.784363 
	C765.395874,340.684082 764.665039,341.836334 763.721008,342.767151 
	C760.391357,346.050110 758.034485,345.767426 754.788025,342.474854 
	C741.720032,329.220856 727.621155,317.245178 712.346008,306.501160 
	C701.459961,298.844269 690.023621,292.234100 678.213928,286.383514 
	C669.267700,281.951477 659.933960,278.160156 650.397766,274.806854 
	C643.641724,272.431183 635.947327,272.244843 629.985779,267.574829 
	C629.495422,267.190735 628.757507,266.993256 628.117981,266.948944 
	C620.349487,266.410339 612.716553,265.280548 605.312622,261.721252 
z"/>
<path fill="#9B9D9E" opacity="1.000000" stroke="none" 
	d="
M418.313110,294.022034 
	C421.294037,288.712433 427.117462,286.862488 432.199188,284.669830 
	C440.696625,281.003418 448.982147,276.857452 457.830200,273.811218 
	C468.074860,270.284119 478.563232,267.690765 488.694641,264.321625 
	C496.537720,261.713440 504.367859,262.654114 511.713318,260.371033 
	C535.844177,252.870804 560.502075,257.338959 584.903748,256.332306 
	C591.263733,256.069916 597.329163,257.696533 603.087097,261.121521 
	C593.080444,262.447845 582.977478,261.419861 572.936646,260.119293 
	C561.103699,258.586609 549.376953,259.309418 537.623535,260.684326 
	C534.650818,261.032074 531.613647,261.694305 528.684937,261.407318 
	C513.483154,259.917755 498.909180,264.289185 484.611023,267.681946 
	C473.652832,270.282227 462.690735,274.453766 451.903595,278.489471 
	C440.338379,282.816193 429.812347,289.051880 418.313110,294.022034 
z"/>
<path fill="#979899" opacity="1.000000" stroke="none" 
	d="
M315.091064,844.732910 
	C316.040619,844.989075 316.708130,845.131348 317.674988,845.440430 
	C321.266327,848.332886 325.499603,849.620850 328.908356,852.782898 
	C329.631775,853.218140 330.081055,853.457458 330.754303,853.822632 
	C331.635803,854.009338 332.238983,854.223877 333.088531,854.712524 
	C341.784973,858.447876 349.878113,862.813477 358.302643,866.221558 
	C364.025146,868.536560 369.384827,871.947693 375.678406,873.033020 
	C379.852509,873.752808 383.430786,876.447510 387.298920,878.119751 
	C394.935822,881.421021 403.593842,881.105347 410.804596,885.539185 
	C412.097137,886.333923 414.007019,886.236938 415.644836,886.334900 
	C419.331024,886.555176 422.833832,887.082947 425.982147,889.341492 
	C429.924561,892.169739 434.829681,890.354004 439.064392,891.630310 
	C446.917358,893.997009 454.644196,896.794312 463.488831,896.268311 
	C467.152405,898.563538 471.113525,898.238037 474.945740,899.663574 
	C475.665924,899.836792 476.051575,899.840576 476.716644,899.921570 
	C477.130005,900.171204 477.263977,900.343567 477.207001,900.781982 
	C469.161224,901.582947 461.392334,901.519714 454.149750,897.773743 
	C453.855560,897.621582 453.530670,897.371521 453.238617,897.395325 
	C442.747070,898.249146 433.539612,892.173828 423.274231,891.854004 
	C420.388000,891.763977 417.676544,891.101929 415.177979,889.648804 
	C412.968658,888.363831 410.578400,887.681030 408.045135,887.652893 
	C404.281342,887.610962 400.788788,886.912964 397.851837,884.322754 
	C397.260010,883.800842 396.404846,883.464294 395.616760,883.294922 
	C381.165924,880.188599 367.987030,873.553833 354.507782,867.926758 
	C345.149048,864.019897 335.606354,859.796021 327.124542,854.438965 
	C311.511536,844.577759 294.473969,836.737122 280.663635,823.566040 
	C280.920197,822.750671 281.480560,822.509766 282.591614,822.773315 
	C283.190765,823.040222 283.361969,823.088318 283.756317,823.282593 
	C284.935455,823.999573 285.747101,824.744385 286.751251,825.772583 
	C286.982880,826.008911 287.000000,826.000000 286.997467,826.009155 
	C294.411835,830.583008 301.386017,835.808777 309.003357,840.706970 
	C309.708893,840.929504 310.098083,840.991516 310.736694,841.216187 
	C311.529388,841.734253 312.061066,842.104919 312.773315,842.771118 
	C313.006897,842.996094 313.000000,843.000000 313.001862,842.996582 
	C313.561218,843.584229 314.160004,844.129456 315.091064,844.732910 
z"/>
<path fill="#9B9D9E" opacity="1.000000" stroke="none" 
	d="
M794.149536,172.228760 
	C793.102600,171.559219 792.325623,171.110031 791.280762,170.453705 
	C789.458923,169.758942 788.568665,168.408401 787.108887,167.256500 
	C786.412476,166.947067 785.984192,166.830933 785.276978,166.529190 
	C780.516663,164.544952 776.761414,161.421768 772.112549,159.220367 
	C769.933044,156.892029 767.218201,156.564789 764.360596,155.612579 
	C762.434814,154.402374 760.676270,153.649796 758.946472,152.268311 
	C757.982605,152.026596 757.305542,151.916275 756.322144,151.648438 
	C754.535034,150.420105 752.771790,149.777313 751.182190,148.252304 
	C749.496826,147.589813 748.073914,147.148972 746.332642,146.511627 
	C743.625183,144.497482 740.600525,143.958069 737.759583,142.302887 
	C737.425659,142.228378 737.000854,142.400299 737.000854,142.400299 
	C737.000854,142.400299 736.542603,142.391357 736.323853,142.324341 
	C734.267822,141.804184 732.775818,140.772369 731.179810,139.253632 
	C728.859863,138.490768 726.802124,137.949646 724.409607,137.294922 
	C720.875854,136.487610 718.071411,134.864288 714.837708,133.302368 
	C714.481079,133.192535 713.995361,133.284561 713.995361,133.284561 
	C713.995361,133.284561 713.503723,133.232834 713.268738,133.156769 
	C710.357117,132.753632 707.841309,132.158951 706.860474,128.953491 
	C710.392639,127.409073 711.899292,131.114899 714.593506,131.523117 
	C720.048828,132.349701 725.051819,134.354324 730.006958,136.684677 
	C738.915100,140.874054 748.217102,144.135590 756.921204,148.869781 
	C763.713135,152.563934 770.778931,155.784515 777.591919,159.492294 
	C791.436096,167.026566 804.507996,175.650192 817.172729,185.068573 
	C827.722839,192.914337 837.296936,201.809601 847.372925,210.156525 
	C856.280457,217.535614 863.428711,226.518845 871.307373,234.828705 
	C874.962219,238.683563 874.178101,240.949875 869.630859,244.233475 
	C863.672363,248.536148 858.683777,253.924896 853.465393,259.052643 
	C852.169861,260.325653 850.732544,261.454346 849.040283,262.535889 
	C853.864624,254.596970 861.332336,249.053711 868.154724,242.911530 
	C870.810425,240.520615 871.592468,237.885925 869.143921,235.821167 
	C866.193542,233.333298 864.367920,229.942856 861.196777,227.316147 
	C859.613953,225.581161 858.104187,224.214081 856.969116,222.142685 
	C856.477112,221.896439 856.308411,221.775589 856.114136,221.453949 
	C855.236328,220.212265 853.729919,219.765869 852.975830,218.152939 
	C852.477783,217.899612 852.309692,217.778717 852.116943,217.456741 
	C851.495422,216.260498 850.224121,216.207031 849.216187,215.230988 
	C848.805786,214.950089 848.632935,214.892288 848.238892,214.673935 
	C844.766052,212.250107 842.376160,209.069519 839.187500,206.233490 
	C836.762634,203.861923 834.597656,201.719543 832.224609,199.325226 
	C826.809631,197.208282 823.196655,193.254120 819.178467,189.257904 
	C818.123413,188.681473 817.335083,188.328598 816.280762,187.789246 
	C809.199280,182.005768 801.542786,177.607407 794.149536,172.228760 
z"/>
<path fill="#818182" opacity="1.000000" stroke="none" 
	d="
M259.100311,207.521103 
	C255.745636,210.386536 252.698029,213.088120 249.337463,215.907745 
	C248.481750,216.544907 247.918854,217.041534 247.095963,217.656464 
	C246.845749,217.785675 246.863724,217.855423 246.828278,217.849014 
	C246.365356,218.544434 245.719025,218.662857 244.673615,218.343048 
	C247.115463,212.643051 252.441895,209.541824 256.864807,205.859833 
	C269.486206,195.352814 282.086121,184.671295 296.161835,176.139175 
	C306.040131,170.151398 315.804138,163.968048 326.182495,158.704269 
	C336.286743,153.579514 346.558838,148.681229 356.421021,143.039246 
	C357.933014,142.174255 359.901367,142.106979 361.842743,141.935394 
	C362.026855,142.200027 362.303772,142.607483 362.163086,142.809662 
	C357.846252,146.719696 351.853943,147.109207 347.347748,150.931885 
	C346.665771,151.127945 346.333221,151.244598 345.735596,151.375656 
	C343.063873,151.945709 341.373535,153.699661 339.111969,155.121002 
	C330.328888,159.392487 321.561035,162.984741 313.767731,168.469894 
	C312.058197,169.673111 309.891693,170.226990 307.601318,171.220551 
	C306.058167,171.562515 306.183075,172.971527 305.052368,173.612885 
	C303.623657,174.295975 302.475281,174.863663 301.090027,175.645142 
	C300.189819,176.904984 299.285126,177.710144 297.995667,178.500153 
	C296.961517,178.946548 296.222778,179.318863 295.187958,179.790588 
	C294.360931,180.857834 293.329315,181.120239 292.201904,181.770172 
	C281.770020,189.788513 271.031616,196.913254 261.146240,205.683289 
	C260.485107,206.479034 259.983765,206.958786 259.100311,207.521103 
z"/>
<path fill="#9B9D9E" opacity="1.000000" stroke="none" 
	d="
M507.398376,109.396324 
	C501.217224,110.380798 495.404694,110.029411 489.143677,109.837921 
	C492.252228,106.957260 496.374084,105.811356 500.740417,105.633827 
	C533.849304,104.287712 566.959778,104.206993 600.072754,105.562210 
	C604.667114,105.750237 608.684448,107.785309 613.134033,109.356445 
	C607.189087,110.705956 601.036682,109.890892 594.442017,109.603806 
	C586.939392,108.338043 579.877502,107.307365 572.699890,107.424232 
	C570.868774,107.454048 569.065796,107.101730 566.920959,106.337479 
	C555.776184,106.214424 545.034851,106.253128 533.854858,106.225281 
	C525.006958,108.267723 516.254639,107.517433 507.398376,109.396324 
z"/>
<path fill="#9E9EA0" opacity="1.000000" stroke="none" 
	d="
M134.086639,597.326050 
	C137.365936,601.773560 140.777786,606.471252 139.953842,612.898926 
	C139.555099,616.009521 140.234055,619.178406 142.713440,621.601135 
	C143.880600,622.741577 143.815765,624.305725 143.929504,625.798401 
	C144.246597,629.959839 145.962830,633.686279 147.207733,637.591858 
	C149.037216,643.331299 152.049637,648.602966 153.236237,654.756958 
	C150.067932,655.068298 150.209702,652.149719 148.775177,650.281372 
	C145.315750,642.385864 142.119186,634.476868 140.330978,626.646912 
	C138.145218,617.076294 133.098312,608.009460 134.086639,597.326050 
z"/>
<path fill="#4F4F4E" opacity="1.000000" stroke="none" 
	d="
M573.229187,753.320557 
	C560.614868,754.195129 548.298645,753.851685 535.529358,753.464355 
	C533.289185,752.242798 530.678833,752.532959 529.658813,749.866211 
	C536.129761,748.265320 542.650635,748.809570 548.986328,749.404541 
	C558.767395,750.323181 568.433716,748.623596 578.602905,749.315125 
	C579.116943,753.527344 575.083191,751.482056 573.229187,753.320557 
z"/>
<path fill="#ABACAC" opacity="1.000000" stroke="none" 
	d="
M555.239014,905.598022 
	C554.900940,904.286499 555.477112,903.464294 556.588867,903.367188 
	C569.835510,902.210388 582.958557,899.352356 596.687866,900.701904 
	C596.435852,904.188965 593.449585,903.777527 591.354370,904.619995 
	C589.500183,905.365479 587.419739,904.753235 585.119385,905.365967 
	C575.061523,905.595215 565.372620,905.695923 555.239014,905.598022 
z"/>
<path fill="#818182" opacity="1.000000" stroke="none" 
	d="
M125.162056,532.167236 
	C129.675140,543.248840 130.375381,555.201904 129.877991,567.748779 
	C126.947144,566.034729 125.728279,563.031311 125.551834,559.673218 
	C125.077400,550.643494 124.491882,541.611084 125.162056,532.167236 
z"/>
<path fill="#ABACAC" opacity="1.000000" stroke="none" 
	d="
M500.892517,901.291504 
	C509.511353,899.735962 517.988708,901.091980 526.426880,902.062561 
	C529.656860,902.434082 533.308838,902.329407 536.172913,905.041504 
	C529.818054,906.490234 523.378784,905.485657 516.505127,905.619629 
	C510.924316,904.452026 505.438660,904.810791 500.892517,901.291504 
z"/>
<path fill="#979899" opacity="1.000000" stroke="none" 
	d="
M500.493164,900.851196 
	C505.898987,902.214905 510.842896,903.534912 515.918457,905.188599 
	C505.200073,906.313660 494.560791,905.386108 484.131531,901.315308 
	C489.327484,899.922241 494.685486,900.865173 500.493164,900.851196 
z"/>
<path fill="#636364" opacity="1.000000" stroke="none" 
	d="
M666.356140,735.082764 
	C665.349976,735.284241 664.706421,735.385254 663.737671,735.507263 
	C659.303040,736.401062 655.851746,739.026794 651.377686,739.909058 
	C650.190979,739.972290 649.372253,740.035095 648.196655,739.891724 
	C648.713562,737.786438 650.259827,736.293457 652.146790,735.942444 
	C661.935120,734.121521 670.734436,729.689941 679.799622,725.929688 
	C681.432373,725.252502 683.333801,725.223083 685.528381,724.909790 
	C684.366333,728.052185 681.089417,728.795837 678.294189,729.861206 
	C674.331848,731.371338 670.310425,732.661743 666.356140,735.082764 
z"/>
<path fill="#979899" opacity="1.000000" stroke="none" 
	d="
M189.164566,723.712769 
	C189.813400,725.085571 190.331970,726.145691 190.947144,727.548218 
	C195.459015,732.461731 199.130295,737.535950 201.381165,744.118530 
	C196.559616,741.365112 194.341599,736.037170 191.082321,731.565674 
	C186.728012,725.591919 182.665115,719.352356 179.394485,712.336853 
	C182.780441,711.492004 182.972260,714.794189 184.747620,716.656494 
	C184.903275,717.148621 184.943161,717.318848 184.989075,717.751160 
	C186.688736,719.548523 187.527664,721.724670 189.164566,723.712769 
z"/>
<path fill="#999999" opacity="1.000000" stroke="none" 
	d="
M529.383423,749.470215 
	C530.515686,752.320374 534.406921,749.800293 535.102661,753.036743 
	C529.468567,754.804321 523.904602,753.732544 518.409668,752.791626 
	C515.546814,752.301392 512.839233,750.904419 509.960999,749.583496 
	C513.861267,748.361084 517.880127,749.219727 522.276855,749.096313 
	C523.869324,749.063049 525.077881,748.930359 526.623779,749.270630 
	C527.662964,749.380249 528.354004,749.389587 529.383423,749.470215 
z"/>
<path fill="#979899" opacity="1.000000" stroke="none" 
	d="
M172.214645,695.673584 
	C172.446396,696.210999 172.566360,696.414246 172.796661,696.953735 
	C174.529022,699.058777 175.637665,701.106567 176.377625,703.720703 
	C177.144882,705.342773 177.133575,706.988708 178.704315,708.261719 
	C179.573349,709.087585 179.658005,709.762817 179.204651,710.793335 
	C174.736511,708.874084 173.912186,704.116699 171.916763,700.540466 
	C168.643555,694.674316 165.530640,688.656616 162.447357,682.338501 
	C163.832275,681.152039 164.846008,681.907715 165.293304,682.964417 
	C167.141541,687.330566 170.514389,690.844177 172.214645,695.673584 
z"/>
<path fill="#999999" opacity="1.000000" stroke="none" 
	d="
M602.747742,749.119507 
	C596.639038,753.990234 589.086609,753.737000 581.211548,753.639648 
	C580.146484,752.073608 580.828308,750.996643 581.971375,749.861206 
	C583.290100,749.622070 584.300842,749.478149 585.696533,749.390015 
	C588.803162,748.942566 591.589905,749.715515 594.649597,749.027832 
	C597.441040,748.993103 599.885193,748.957947 602.747742,749.119507 
z"/>
<path fill="#5F6061" opacity="1.000000" stroke="none" 
	d="
M585.206787,905.669861 
	C588.301697,903.037231 592.902283,903.700989 596.777588,901.244141 
	C600.420227,900.896790 603.834351,900.833313 607.673279,900.977051 
	C603.413208,905.581177 597.579651,905.942139 591.622986,905.879028 
	C589.636475,905.857971 587.649780,905.855957 585.206787,905.669861 
z"/>
<path fill="#5F6061" opacity="1.000000" stroke="none" 
	d="
M631.966248,896.757324 
	C635.665771,896.460754 639.000916,896.271301 642.768250,896.272827 
	C636.744263,901.302551 629.267334,901.739380 621.312988,901.233887 
	C621.020874,898.494873 623.141663,899.011047 624.533813,898.663025 
	C626.892273,898.073608 629.291443,897.646790 631.966248,896.757324 
z"/>
<path fill="#979899" opacity="1.000000" stroke="none" 
	d="
M274.777649,816.755798 
	C275.886841,817.073486 276.575592,817.411682 276.994293,818.553589 
	C277.359833,819.164001 277.523346,819.538879 277.272644,820.496887 
	C270.155640,816.597717 263.475861,811.999268 258.261597,805.182983 
	C260.313934,804.037292 261.330963,805.469177 262.776459,806.749512 
	C263.029663,806.983032 262.999268,807.000000 263.007690,806.984802 
	C264.720642,808.369263 266.626923,809.561951 268.021454,811.741943 
	C269.037628,812.352234 269.768707,812.792419 270.741180,813.443237 
	C271.529846,813.870239 272.034454,814.151855 272.583618,814.847778 
	C272.736633,815.096069 272.888733,815.107910 272.898285,815.183594 
	C273.477081,815.642395 274.021362,816.057556 274.777649,816.755798 
z"/>
<path fill="#9B9D9E" opacity="1.000000" stroke="none" 
	d="
M646.726257,114.139275 
	C643.597290,115.366623 640.191223,114.775047 636.399902,114.514626 
	C633.089661,112.800362 629.560791,112.773979 626.924744,110.346115 
	C634.049683,108.497383 640.265930,111.201996 646.726257,114.139275 
z"/>
<path fill="#9E9E9E" opacity="1.000000" stroke="none" 
	d="
M666.228760,735.399048 
	C666.799194,733.094238 668.745605,732.256897 670.556885,731.721130 
	C675.792969,730.172241 680.517517,727.453003 685.761597,725.224548 
	C685.945557,724.924988 685.939148,724.955688 685.934387,724.942749 
	C687.391113,723.781067 688.541382,722.164734 690.894653,721.748169 
	C691.716309,721.549194 692.200562,721.450439 692.994202,721.561279 
	C693.429749,723.282410 692.134888,723.645874 691.218140,724.234070 
	C683.501343,729.184082 674.757507,731.911072 666.228760,735.399048 
z"/>
<path fill="#9B9D9E" opacity="1.000000" stroke="none" 
	d="
M467.312775,114.106583 
	C463.796143,114.389305 460.657043,114.624016 457.275879,114.596756 
	C462.223114,110.740021 467.864868,108.852631 474.620819,109.895073 
	C473.731812,113.486732 470.737213,113.819901 467.312775,114.106583 
z"/>
<path fill="#A1A1A2" opacity="1.000000" stroke="none" 
	d="
M400.777527,127.940506 
	C394.797607,133.358078 387.240967,135.662354 379.224152,137.462524 
	C378.954132,133.715912 381.728668,133.503296 384.635345,132.932327 
	C385.317322,132.721191 385.632599,132.624100 386.218231,132.621704 
	C390.424347,131.166687 394.121948,129.027328 398.633667,127.983093 
	C399.496826,127.882408 399.984955,127.802681 400.777527,127.940506 
z"/>
<path fill="#9B9D9E" opacity="1.000000" stroke="none" 
	d="
M688.992554,124.354095 
	C686.113953,124.329857 683.480225,124.075821 680.425720,123.674332 
	C677.715332,122.577972 675.348633,121.796906 672.943970,120.287109 
	C671.819397,120.007172 671.002991,119.867401 670.098389,119.421600 
	C674.731750,117.807503 679.164307,118.815704 683.297607,121.098221 
	C684.931396,122.000473 686.576172,122.666893 688.664978,123.312065 
	C689.066833,123.710289 689.152161,123.917290 688.992554,124.354095 
z"/>
<path fill="#ABACAC" opacity="1.000000" stroke="none" 
	d="
M631.892944,896.444702 
	C629.698120,900.652527 625.102356,899.090271 621.270020,900.728882 
	C619.556641,901.026550 618.113220,901.052612 616.275330,900.897400 
	C620.253845,896.376465 625.647034,895.585938 631.892944,896.444702 
z"/>
<path fill="#818182" opacity="1.000000" stroke="none" 
	d="
M384.739990,132.722504 
	C383.100128,134.149536 381.175934,135.408401 379.082764,136.983368 
	C377.305634,137.608261 375.697449,137.917068 373.740936,138.260880 
	C371.789429,138.786926 370.819702,140.194931 369.131073,141.161331 
	C367.728912,141.583664 366.643646,141.865738 365.180725,141.943481 
	C366.392731,138.771622 368.964355,136.931763 372.216339,136.906372 
	C376.892975,136.869827 379.630432,131.838898 384.739990,132.722504 
z"/>
<path fill="#636364" opacity="1.000000" stroke="none" 
	d="
M614.373596,749.028076 
	C611.589539,749.154541 609.182739,749.258545 606.370789,749.153076 
	C610.795105,745.245361 616.310791,743.892517 622.733154,744.304077 
	C621.933655,748.868103 617.803284,747.942566 614.373596,749.028076 
z"/>
<path fill="#81817F" opacity="1.000000" stroke="none" 
	d="
M669.352722,891.711670 
	C673.120544,886.469177 678.807434,886.623230 684.747437,887.015503 
	C684.606750,887.576355 684.203064,887.866882 683.521606,888.162354 
	C680.999817,889.209656 678.825989,890.405090 676.192261,891.408020 
	C673.816284,891.676392 671.744080,891.796509 669.352722,891.711670 
z"/>
<path fill="#979899" opacity="1.000000" stroke="none" 
	d="
M219.257812,766.384521 
	C213.557541,761.913696 208.775055,756.289368 205.157196,749.228882 
	C205.670135,748.496277 206.076294,748.468933 206.701691,748.812012 
	C206.913681,749.042480 206.987976,749.018555 206.972565,749.054443 
	C210.913910,754.821533 216.659439,759.202942 219.257812,766.384521 
z"/>
<path fill="#818182" opacity="1.000000" stroke="none" 
	d="
M423.202698,123.250061 
	C420.570862,123.697769 418.276245,124.037079 415.548676,124.437523 
	C414.987061,124.307823 414.858368,124.116982 414.885742,123.618172 
	C419.688293,121.278168 423.850586,117.790329 429.727661,118.711716 
	C429.171143,122.298782 425.860077,121.962318 423.202698,123.250061 
z"/>
<path fill="#9E9EA0" opacity="1.000000" stroke="none" 
	d="
M129.921112,576.360413 
	C135.162369,578.719116 134.942947,583.472534 134.527710,588.664307 
	C129.960999,588.399963 130.410995,584.818176 130.005859,581.372009 
	C129.926865,579.587219 129.850906,578.173828 129.921112,576.360413 
z"/>
<path fill="#81817F" opacity="1.000000" stroke="none" 
	d="
M699.901489,882.966553 
	C705.124023,881.632263 709.855713,877.881165 715.834106,877.897888 
	C715.891235,879.263367 714.903198,879.283997 713.921387,879.752319 
	C712.924133,881.064209 711.553833,881.333069 710.164124,882.112732 
	C707.639771,882.570374 705.428711,882.937927 702.795044,883.294434 
	C701.679626,883.509216 700.980530,883.530823 699.901489,882.966553 
z"/>
<path fill="#818182" opacity="1.000000" stroke="none" 
	d="
M129.854996,581.339783 
	C131.571014,583.474548 131.529144,586.726501 134.089523,588.972900 
	C134.879608,590.572754 134.913895,592.081726 134.269409,593.806458 
	C129.444534,590.962036 129.453339,586.362732 129.854996,581.339783 
z"/>
<path fill="#979899" opacity="1.000000" stroke="none" 
	d="
M161.176544,672.757385 
	C161.618301,674.183411 161.897781,675.312805 161.970047,676.837524 
	C156.909058,673.067383 155.458908,666.955566 152.904633,661.273254 
	C153.338226,660.655334 153.729904,660.525574 154.412521,660.869324 
	C154.630508,661.122986 154.826065,661.217529 154.840225,661.325195 
	C158.243576,664.362610 157.674347,669.503418 161.176544,672.757385 
z"/>
<path fill="#979899" opacity="1.000000" stroke="none" 
	d="
M236.461441,782.752197 
	C236.986923,783.468994 237.315872,783.918396 237.811310,784.591064 
	C238.235123,785.149231 238.542480,785.430298 239.067780,785.927307 
	C239.245926,786.399902 239.249313,786.610107 239.007553,787.018799 
	C233.307846,783.545593 228.797943,778.904907 224.767120,773.328735 
	C225.519165,772.373230 226.086868,772.841614 226.896301,773.756897 
	C227.643051,774.398499 228.100098,774.776428 228.766098,775.366455 
	C230.376831,776.255859 231.400467,777.359497 232.511627,778.834106 
	C232.686050,779.107056 232.861755,779.150696 232.875305,779.240234 
	C234.232315,780.148071 235.300797,781.260620 236.461441,782.752197 
z"/>
<path fill="#9E9E9E" opacity="1.000000" stroke="none" 
	d="
M614.286255,749.295593 
	C616.563599,746.828125 620.051575,746.664429 623.031860,744.756714 
	C624.183960,744.362793 625.203369,744.280823 626.606812,744.207092 
	C627.188110,744.399963 627.385376,744.584656 627.311768,745.070801 
	C623.848328,749.639465 619.347168,749.993408 614.286255,749.295593 
z"/>
<path fill="#9E9EA0" opacity="1.000000" stroke="none" 
	d="
M172.424561,695.670288 
	C168.267929,692.037720 167.130005,686.132690 162.813278,682.061523 
	C162.203323,680.922668 161.908630,679.847107 161.799866,678.390076 
	C167.348297,682.658020 169.285950,689.390503 172.424561,695.670288 
z"/>
<path fill="#636364" opacity="1.000000" stroke="none" 
	d="
M643.834839,739.941406 
	C644.053955,740.258667 644.359802,740.652222 644.204712,740.847290 
	C641.817139,742.829529 639.231567,743.766541 636.106445,744.304688 
	C634.624084,744.476685 633.473145,744.546387 631.988770,744.333008 
	C634.290344,738.921509 639.026306,739.470764 643.834839,739.941406 
z"/>
<path fill="#A2A2A2" opacity="1.000000" stroke="none" 
	d="
M663.196533,118.810402 
	C658.827820,119.401840 654.514526,119.909508 651.765503,115.129883 
	C653.108032,113.790672 654.646790,114.318619 656.568604,114.592575 
	C659.433533,115.448669 661.734985,116.367577 663.196533,118.810402 
z"/>
<path fill="#A1A1A2" opacity="1.000000" stroke="none" 
	d="
M450.836884,114.350433 
	C449.136810,120.392876 444.120239,119.381477 439.279602,119.284653 
	C440.195404,115.441902 444.031616,116.304260 446.763550,114.556442 
	C448.205719,114.316483 449.329315,114.242599 450.836884,114.350433 
z"/>
<path fill="#A2A2A2" opacity="1.000000" stroke="none" 
	d="
M626.631897,109.890350 
	C629.711914,111.745293 633.697266,110.567329 635.886963,114.080948 
	C631.829163,114.843506 627.501709,115.819138 624.932251,110.599655 
	C625.339905,110.096817 625.803284,109.942352 626.631897,109.890350 
z"/>
<path fill="#818182" opacity="1.000000" stroke="none" 
	d="
M446.673828,114.293716 
	C445.449402,117.474663 442.156128,117.471542 439.198669,118.790726 
	C437.540558,119.166893 436.106659,119.262085 434.299530,119.133759 
	C437.597321,116.181900 441.481323,114.011124 446.673828,114.293716 
z"/>
<path fill="#81817F" opacity="1.000000" stroke="none" 
	d="
M649.197693,895.985352 
	C651.264648,891.637695 655.143982,891.154175 659.697510,891.775696 
	C659.204102,895.312561 656.310669,895.402344 653.367065,896.009155 
	C651.852783,896.085876 650.710022,896.146667 649.197693,895.985352 
z"/>
<path fill="#818182" opacity="1.000000" stroke="none" 
	d="
M405.354736,128.044037 
	C404.183258,128.150986 403.380249,128.229202 402.235107,128.087692 
	C404.099976,123.504173 408.097656,123.199196 412.671753,123.428635 
	C412.281158,127.789444 408.529663,127.121460 405.354736,128.044037 
z"/>
<path fill="#9B9D9E" opacity="1.000000" stroke="none" 
	d="
M663.485107,119.194160 
	C661.122742,117.855225 659.180786,116.582260 657.114502,115.040359 
	C661.396973,113.587021 664.391602,116.863960 668.036072,118.586952 
	C666.753052,119.768425 665.307190,119.240402 663.485107,119.194160 
z"/>
<path fill="#A2A2A2" opacity="1.000000" stroke="none" 
	d="
M467.251770,114.347687 
	C469.473083,112.954979 472.010925,111.755356 474.769958,110.286911 
	C476.085480,109.926491 477.179840,109.834900 478.655884,109.905731 
	C476.221375,114.141022 472.149811,114.994766 467.251770,114.347687 
z"/>
<path fill="#636364" opacity="1.000000" stroke="none" 
	d="
M581.920471,749.533813 
	C581.827942,750.810303 581.376587,751.854675 580.873657,753.187012 
	C578.475464,753.567383 576.128723,753.659729 573.355713,753.624329 
	C572.986572,749.082336 577.510498,752.353821 578.932983,749.763550 
	C579.890686,749.399658 580.726196,749.350586 581.920471,749.533813 
z"/>
<path fill="#81817F" opacity="1.000000" stroke="none" 
	d="
M721.194458,877.473755 
	C722.754639,872.563049 727.001465,873.377808 730.806763,873.070190 
	C729.644226,874.246399 728.286316,875.157532 726.619751,876.144531 
	C725.651550,876.441223 725.114929,876.891052 724.190308,877.344666 
	C723.045471,877.576111 722.209656,877.656738 721.194458,877.473755 
z"/>
<path fill="#818182" opacity="1.000000" stroke="none" 
	d="
M398.724548,127.797653 
	C395.453247,130.429733 391.653961,132.308594 386.876740,132.730743 
	C389.858246,129.541382 393.847443,127.865852 398.724548,127.797653 
z"/>
<path fill="#81817F" opacity="1.000000" stroke="none" 
	d="
M687.439697,887.253418 
	C689.724243,883.706604 693.448853,882.729858 697.774048,882.589233 
	C698.049255,886.384583 694.672241,885.825073 692.343140,887.121033 
	C690.583069,887.277771 689.198975,887.358337 687.439697,887.253418 
z"/>
<path fill="#979899" opacity="1.000000" stroke="none" 
	d="
M250.362640,796.747986 
	C250.880020,797.497375 251.224518,797.970459 251.774384,798.651489 
	C252.483276,799.421570 253.198456,799.816040 253.206375,800.972900 
	C248.836624,799.414551 246.147125,795.859131 243.566132,791.994385 
	C244.836426,791.388306 245.621857,791.778809 246.435760,792.830872 
	C246.623611,793.118774 246.825027,793.180481 246.853104,793.281982 
	C248.236221,794.142761 249.289963,795.224731 250.362640,796.747986 
z"/>
<path fill="#5F6061" opacity="1.000000" stroke="none" 
	d="
M653.281250,896.233521 
	C655.198792,894.859009 657.402100,893.692993 659.808105,892.248352 
	C660.822205,891.895996 661.633606,891.822144 662.780884,891.984985 
	C661.164734,896.414368 657.499329,896.730164 653.281250,896.233521 
z"/>
<path fill="#9B9D9E" opacity="1.000000" stroke="none" 
	d="
M700.069397,127.527214 
	C699.374573,127.990730 698.601685,128.120331 697.431641,128.167511 
	C694.534973,127.545799 692.219238,126.693359 690.894897,124.082962 
	C694.893860,122.632210 697.606628,124.483910 700.069397,127.527214 
z"/>
<path fill="#A1A1A2" opacity="1.000000" stroke="none" 
	d="
M405.268616,128.280457 
	C407.605835,126.770195 410.225433,125.467621 412.959320,123.866226 
	C413.506012,123.454071 413.938416,123.340729 414.706329,123.268799 
	C415.041687,123.508842 415.041565,123.707481 415.078552,124.202393 
	C412.419220,127.007423 409.686096,129.428452 405.268616,128.280457 
z"/>
<path fill="#A1A1A2" opacity="1.000000" stroke="none" 
	d="
M423.236298,123.508331 
	C424.446960,120.886429 427.354126,120.717598 429.836182,119.178085 
	C430.820587,118.820099 431.604340,118.745644 432.722076,118.886993 
	C430.676178,122.217903 427.408936,123.492470 423.236298,123.508331 
z"/>
<path fill="#5F6061" opacity="1.000000" stroke="none" 
	d="
M692.237732,887.390320 
	C693.358948,885.125854 696.032837,884.983398 697.902222,883.063049 
	C698.377869,882.601624 698.698181,882.521912 699.282715,882.551697 
	C700.159546,882.737122 700.791321,882.889709 701.897705,883.162964 
	C699.572205,885.835815 696.304199,887.315125 692.237732,887.390320 
z"/>
<path fill="#9E9EA0" opacity="1.000000" stroke="none" 
	d="
M179.007751,711.339905 
	C178.974808,710.437500 178.977875,709.802185 178.965118,708.856445 
	C182.007538,710.459290 183.497498,713.601135 185.044373,716.767456 
	C182.145508,716.474243 182.009979,713.384888 179.723038,712.069458 
	C179.294754,711.864014 179.169266,711.735474 179.007751,711.339905 
z"/>
<path fill="#4F4F4E" opacity="1.000000" stroke="none" 
	d="
M505.030396,747.519287 
	C501.541290,748.874817 498.736450,747.195007 495.823059,745.011841 
	C499.238434,743.683594 502.336182,744.507874 505.030396,747.519287 
z"/>
<path fill="#979899" opacity="1.000000" stroke="none" 
	d="
M148.571121,650.318848 
	C151.147827,650.542786 151.136017,653.187439 152.800568,654.853943 
	C153.157410,656.129333 153.242462,657.222839 153.135193,658.684448 
	C151.016754,656.491821 149.354401,653.791260 148.571121,650.318848 
z"/>
<path fill="#A2A2A2" opacity="1.000000" stroke="none" 
	d="
M690.723022,123.586464 
	C692.914001,125.020493 694.789917,126.271507 696.850098,127.803818 
	C693.524353,129.378708 691.336426,127.215706 688.945435,124.825272 
	C688.792114,124.404938 688.836548,124.225983 688.931274,123.775162 
	C689.457031,123.470016 689.932434,123.436729 690.723022,123.586464 
z"/>
<path fill="#636364" opacity="1.000000" stroke="none" 
	d="
M594.679321,748.810303 
	C592.373596,751.124878 589.497681,750.805237 586.321533,749.678040 
	C588.671082,747.507935 591.578186,748.648987 594.679321,748.810303 
z"/>
<path fill="#B7C0BF" opacity="1.000000" stroke="none" 
	d="
M244.089417,218.317276 
	C244.974991,218.073105 245.578949,217.984161 246.487885,217.868927 
	C246.225311,220.862045 243.593719,222.084900 241.232132,223.860779 
	C240.961777,223.201981 241.032333,222.521927 241.091339,221.498627 
	C241.989151,220.261108 242.898499,219.366806 244.089417,218.317276 
z"/>
<path fill="#A2A2A2" opacity="1.000000" stroke="none" 
	d="
M706.710815,128.435318 
	C708.237549,130.873413 710.545288,131.547058 712.834106,132.807877 
	C709.648743,133.927277 707.120117,132.646301 705.028015,129.623489 
	C704.717773,129.139191 704.553955,128.948547 704.674194,128.509979 
	C705.439453,128.254272 705.920715,128.246521 706.710815,128.435318 
z"/>
<path fill="#5F6061" opacity="1.000000" stroke="none" 
	d="
M676.246948,891.647583 
	C677.388428,889.081909 679.828003,888.364502 682.859131,888.100586 
	C681.655090,890.518066 679.140869,891.148254 676.246948,891.647583 
z"/>
<path fill="#999999" opacity="1.000000" stroke="none" 
	d="
M402.720459,303.059021 
	C404.639954,301.674896 406.313324,300.616028 408.313477,299.666504 
	C408.463043,302.896881 405.604370,302.830017 403.358826,303.962341 
	C402.825500,303.799591 402.649902,303.591949 402.720459,303.059021 
z"/>
<path fill="#9E9EA0" opacity="1.000000" stroke="none" 
	d="
M227.133621,773.667786 
	C226.567657,773.733398 225.949326,773.446167 224.999756,773.072388 
	C224.119843,772.597595 223.571167,772.209351 222.946808,771.573792 
	C222.563507,770.880920 222.451035,770.390503 222.753098,769.534180 
	C225.206345,769.714905 226.525360,771.132751 227.133621,773.667786 
z"/>
<path fill="#9B9D9E" opacity="1.000000" stroke="none" 
	d="
M392.131409,311.165649 
	C392.780090,309.040619 394.047882,307.471436 396.651917,307.029419 
	C397.422821,307.813232 396.948883,308.292236 396.165680,309.017639 
	C395.498077,309.846130 395.031403,310.388428 394.295013,310.970154 
	C393.571838,311.389191 393.055389,311.519775 392.131409,311.165649 
z"/>
<path fill="#979899" opacity="1.000000" stroke="none" 
	d="
M240.970398,787.814697 
	C241.675491,788.360291 242.118423,788.702209 242.760544,789.241699 
	C243.575592,789.883179 243.684433,790.505554 243.409439,791.488770 
	C243.238083,791.774841 243.220093,791.791138 243.214691,791.800598 
	C241.028549,791.315979 239.921432,789.666931 238.861481,787.538879 
	C238.762405,787.217163 238.913147,787.078613 238.987732,787.008484 
	C239.824799,786.639221 240.298828,787.046021 240.970398,787.814697 
z"/>
<path fill="#636364" opacity="1.000000" stroke="none" 
	d="
M690.897034,721.489380 
	C690.102661,723.329163 688.439270,724.272644 686.271362,724.960571 
	C686.607971,722.615845 688.015442,721.240295 690.897034,721.489380 
z"/>
<path fill="#999999" opacity="1.000000" stroke="none" 
	d="
M391.540771,311.061218 
	C392.284454,310.949310 392.782074,310.968964 393.652527,310.999084 
	C393.318512,312.798187 392.012177,313.906281 389.909485,314.194702 
	C389.534027,312.661682 390.731537,312.114319 391.540771,311.061218 
z"/>
<path fill="#979899" opacity="1.000000" stroke="none" 
	d="
M204.399872,745.752563 
	C204.696991,746.160034 204.793716,746.297119 204.962341,746.675415 
	C205.362213,747.290283 205.515137,747.725464 205.320068,748.538330 
	C205.147034,748.854553 205.009735,748.991760 204.941315,749.060669 
	C203.017822,748.545227 202.334198,746.835510 201.262436,745.113586 
	C201.198639,744.789795 201.209473,744.793457 201.214767,744.786133 
	C202.432770,744.083191 203.360153,744.596191 204.399872,745.752563 
z"/>
<path fill="#979899" opacity="1.000000" stroke="none" 
	d="
M222.855347,768.985718 
	C222.963776,769.682800 222.954773,770.152527 222.908417,770.974365 
	C221.175842,770.562012 220.301559,768.967957 219.069550,767.332520 
	C218.983932,767.016296 219.074493,766.925171 219.119781,766.879639 
	C220.193039,766.202454 220.949402,766.603271 221.816483,767.739075 
	C222.279160,768.258057 222.508530,768.508240 222.855347,768.985718 
z"/>
<path fill="#5F6061" opacity="1.000000" stroke="none" 
	d="
M710.165100,882.354614 
	C710.444885,880.797607 711.521057,880.053101 713.319946,879.858765 
	C713.794189,882.153259 712.125916,882.317139 710.165100,882.354614 
z"/>
<path fill="#9B9D9E" opacity="1.000000" stroke="none" 
	d="
M402.593079,302.799530 
	C402.972626,302.946014 402.978668,303.158234 402.992920,303.688873 
	C402.060944,304.874298 401.120789,305.741333 399.858337,306.544952 
	C398.702515,303.993774 400.600555,303.533081 402.593079,302.799530 
z"/>
<path fill="#4F4F4E" opacity="1.000000" stroke="none" 
	d="
M526.824097,749.087158 
	C525.801453,750.454224 524.537476,749.987427 522.971191,749.330627 
	C523.935608,747.974487 525.281189,748.011780 526.824097,749.087158 
z"/>
<path fill="#9E9EA0" opacity="1.000000" stroke="none" 
	d="
M282.897217,822.678040 
	C282.453278,823.031921 281.887054,823.071838 280.901733,823.194458 
	C280.482697,823.277283 280.196747,823.337402 280.105408,823.223389 
	C279.555389,822.619934 278.937927,822.254150 278.923615,821.216919 
	C280.384674,821.179810 281.868713,821.037048 282.897217,822.678040 
z"/>
<path fill="#636364" opacity="1.000000" stroke="none" 
	d="
M627.485718,745.324707 
	C627.030273,745.179504 627.019653,744.986755 627.000000,744.504700 
	C627.870117,743.096375 628.951843,743.124023 630.207764,743.945923 
	C629.733521,745.094788 628.806396,745.128174 627.485718,745.324707 
z"/>
<path fill="#9B9D9E" opacity="1.000000" stroke="none" 
	d="
M704.736084,128.089020 
	C704.953247,128.440384 704.948181,128.618729 704.912354,129.063446 
	C704.025391,129.135498 703.169189,128.941193 702.164795,128.451096 
	C702.755676,127.101456 703.664490,127.818382 704.736084,128.089020 
z"/>
<path fill="#9E9EA0" opacity="1.000000" stroke="none" 
	d="
M253.146515,801.435181 
	C252.759460,800.705383 252.489227,800.095703 252.099380,799.172729 
	C253.193512,799.130432 254.615448,799.162354 254.187225,801.284607 
	C253.920853,801.555908 253.592072,801.620300 253.592072,801.620300 
	C253.592072,801.620300 253.263321,801.555420 253.146515,801.435181 
z"/>
<path fill="#979899" opacity="1.000000" stroke="none" 
	d="
M255.117279,803.212158 
	C255.588440,802.849182 256.005402,802.818909 256.716553,802.930664 
	C257.489929,803.416687 258.020325,803.709534 258.166840,804.595215 
	C258.088379,804.882812 257.991272,805.003967 257.942139,805.064148 
	C256.729156,804.992981 255.696320,804.626831 255.117279,803.212158 
z"/>
<path fill="#999999" opacity="1.000000" stroke="none" 
	d="
M386.236481,316.921753 
	C385.893311,315.338348 387.033295,315.014435 388.407837,314.707611 
	C388.960114,316.473511 387.628906,316.624390 386.236481,316.921753 
z"/>
<path fill="#999999" opacity="1.000000" stroke="none" 
	d="
M396.309296,309.242828 
	C396.227448,308.730743 396.490204,308.157715 396.876526,307.294922 
	C397.421051,306.880402 397.841949,306.755615 398.566833,306.765808 
	C398.886353,308.394501 397.551483,308.575684 396.309296,309.242828 
z"/>
<path fill="#979899" opacity="1.000000" stroke="none" 
	d="
M279.055298,820.930054 
	C279.313141,821.450928 279.561646,821.996338 279.912109,822.825623 
	C278.822815,823.094482 277.829865,822.679565 277.049774,821.353271 
	C276.971832,821.028198 277.075714,820.924561 277.127655,820.872681 
	C277.585876,820.556030 278.028381,820.462341 278.798187,820.738525 
	C279.089233,820.937256 279.045959,820.954651 279.055298,820.930054 
z"/>
<path fill="#9E9EA0" opacity="1.000000" stroke="none" 
	d="
M154.668701,660.795532 
	C154.273865,661.084656 153.917206,661.046326 153.290146,661.006836 
	C152.885941,660.555298 152.752136,660.105103 152.791138,659.341431 
	C154.101669,658.834229 154.530411,659.498474 154.668701,660.795532 
z"/>
<path fill="#ABACAC" opacity="1.000000" stroke="none" 
	d="
M477.371826,901.133423 
	C477.010986,900.873230 477.005920,900.698425 476.998413,900.261230 
	C477.812439,899.207825 478.485992,899.480713 479.088318,900.542969 
	C478.634338,900.943726 478.180939,901.081299 477.371826,901.133423 
z"/>
<path fill="#5F6061" opacity="1.000000" stroke="none" 
	d="
M724.175842,877.585815 
	C724.148071,876.597473 724.739258,876.119812 725.998535,876.161438 
	C725.912476,876.977417 725.383850,877.570068 724.175842,877.585815 
z"/>
<path fill="#9B9D9E" opacity="1.000000" stroke="none" 
	d="
M409.542358,299.390808 
	C409.005310,297.913177 409.651947,297.367554 411.247009,297.666229 
	C411.585876,299.092896 410.658173,299.241180 409.542358,299.390808 
z"/>
<path fill="#A2A2A2" opacity="1.000000" stroke="none" 
	d="
M566.753540,106.472565 
	C575.710388,105.855789 584.906067,105.507393 593.868530,109.148544 
	C584.852783,109.975044 575.755981,110.032227 566.753540,106.472565 
z"/>
<path fill="#A2A2A2" opacity="1.000000" stroke="none" 
	d="
M507.451660,109.681396 
	C511.369263,105.829483 516.923889,106.990242 521.946594,106.124649 
	C525.336670,105.540428 528.913391,106.039436 532.911377,106.106316 
	C529.262939,109.513214 524.088440,108.893555 519.311401,109.568573 
	C515.572815,110.096840 511.711700,109.757729 507.451660,109.681396 
z"/>
<path fill="#A2A2A2" opacity="1.000000" stroke="none" 
	d="
M793.955322,172.346222 
	C802.001709,175.847900 809.384399,180.774231 815.953613,187.294296 
	C808.222351,183.314240 801.117188,178.013168 793.955322,172.346222 
z"/>
<path fill="#9E9EA0" opacity="1.000000" stroke="none" 
	d="
M309.146973,840.574890 
	C302.592773,839.187195 298.065063,833.815186 292.224548,830.631348 
	C290.394867,829.633972 288.923492,827.979370 287.141510,826.321960 
	C291.639069,826.262451 294.124634,830.367737 297.917542,832.239990 
	C301.945099,834.227966 305.316345,837.545410 309.146973,840.574890 
z"/>
<path fill="#9E9EA0" opacity="1.000000" stroke="none" 
	d="
M222.011688,767.651672 
	C221.287888,767.671753 220.525955,767.335571 219.464539,766.916748 
	C217.188812,762.242920 213.605530,758.817871 210.493820,755.070374 
	C209.120682,753.416748 207.670013,751.891846 207.006226,749.434265 
	C212.750092,754.509094 218.009079,760.368408 222.011688,767.651672 
z"/>
<path fill="#9E9EA0" opacity="1.000000" stroke="none" 
	d="
M204.632263,745.691101 
	C203.667419,745.670227 202.734619,745.317505 201.510925,744.871826 
	C199.025345,738.642090 194.527908,733.950623 191.056778,728.248657 
	C194.718124,729.268921 196.089447,732.875305 198.271591,735.621765 
	C200.677170,738.649353 202.556030,742.095459 204.632263,745.691101 
z"/>
<path fill="#A1A1A2" opacity="1.000000" stroke="none" 
	d="
M347.222992,151.203003 
	C350.584869,146.250702 356.565857,145.733032 361.647156,142.984009 
	C361.745331,144.188660 361.073608,145.107773 359.997803,145.612183 
	C355.827423,147.567459 351.633118,149.471573 347.222992,151.203003 
z"/>
<path fill="#ABACAC" opacity="1.000000" stroke="none" 
	d="
M475.115204,899.516113 
	C471.301422,899.905029 467.121674,900.779846 464.014679,896.699463 
	C467.928528,896.048157 472.038452,895.294922 475.115204,899.516113 
z"/>
<path fill="#A2A2A2" opacity="1.000000" stroke="none" 
	d="
M819.032898,189.349060 
	C824.038696,191.005295 826.811462,196.181396 831.870117,198.759125 
	C826.035034,198.252548 822.648376,193.884613 819.032898,189.349060 
z"/>
<path fill="#A2A2A2" opacity="1.000000" stroke="none" 
	d="
M771.942566,159.341248 
	C776.855225,159.937820 780.759644,162.982590 784.889526,166.074097 
	C779.832703,165.765518 776.332947,161.954605 771.942566,159.341248 
z"/>
<path fill="#9E9EA0" opacity="1.000000" stroke="none" 
	d="
M329.082764,852.648987 
	C325.177399,851.240723 320.979889,849.815674 318.054810,845.898254 
	C322.110565,847.079102 325.924835,849.079041 329.082764,852.648987 
z"/>
<path fill="#9E9E9E" opacity="1.000000" stroke="none" 
	d="
M651.251343,740.117981 
	C654.661987,737.796204 658.225647,735.461792 663.026184,735.389404 
	C659.684875,737.737671 656.190979,740.527588 651.251343,740.117981 
z"/>
<path fill="#9E9EA0" opacity="1.000000" stroke="none" 
	d="
M161.434280,672.722778 
	C159.173065,673.093262 158.702164,671.422852 158.087906,669.865784 
	C157.065033,667.272949 156.008728,664.693237 154.910431,661.770447 
	C156.816696,661.332764 157.319290,662.893677 157.617950,664.238098 
	C158.295425,667.287537 159.996155,669.786560 161.434280,672.722778 
z"/>
<path fill="#A2A2A2" opacity="1.000000" stroke="none" 
	d="
M839.008179,206.334595 
	C843.129700,207.270493 845.243347,210.900360 847.954712,214.219101 
	C843.900330,213.195267 841.752014,209.637131 839.008179,206.334595 
z"/>
<path fill="#A2A2A2" opacity="1.000000" stroke="none" 
	d="
M714.701172,133.467865 
	C717.924500,133.291641 720.876526,134.731400 723.879395,136.873489 
	C720.188721,138.258041 717.857910,135.194077 714.701172,133.467865 
z"/>
<path fill="#9E9E9E" opacity="1.000000" stroke="none" 
	d="
M636.151733,744.592224 
	C637.830750,742.270874 640.559509,741.580444 643.672729,740.974243 
	C642.688416,744.594482 639.756470,744.984009 636.151733,744.592224 
z"/>
<path fill="#A2A2A2" opacity="1.000000" stroke="none" 
	d="
M737.639404,142.509293 
	C740.463318,142.833557 743.976990,142.296967 745.924316,146.024445 
	C742.710815,146.490341 740.499268,144.137268 737.639404,142.509293 
z"/>
<path fill="#A2A2A2" opacity="1.000000" stroke="none" 
	d="
M672.828369,120.442436 
	C675.544495,119.741196 677.768738,121.102875 679.909485,123.226715 
	C677.038757,124.195381 674.807617,123.022987 672.828369,120.442436 
z"/>
<path fill="#9E9EA0" opacity="1.000000" stroke="none" 
	d="
M189.405045,723.712769 
	C186.752075,723.151184 185.847519,720.972717 185.026337,718.358154 
	C187.572433,718.910522 188.445557,721.237793 189.405045,723.712769 
z"/>
<path fill="#9E9EA0" opacity="1.000000" stroke="none" 
	d="
M176.583466,703.660828 
	C174.619614,702.418518 173.672623,700.269653 172.939972,697.632996 
	C175.866135,698.230957 176.046417,700.903015 176.583466,703.660828 
z"/>
<path fill="#A1A1A2" opacity="1.000000" stroke="none" 
	d="
M339.124146,155.365768 
	C339.553925,152.101730 342.301392,151.904861 345.090088,151.300201 
	C343.532104,152.864029 341.862091,154.731857 339.124146,155.365768 
z"/>
<path fill="#9E9EA0" opacity="1.000000" stroke="none" 
	d="
M268.197876,811.572327 
	C265.887878,811.321289 264.333008,809.676270 263.056213,807.306274 
	C265.713959,807.192505 267.176422,808.885498 268.197876,811.572327 
z"/>
<path fill="#9E9EA0" opacity="1.000000" stroke="none" 
	d="
M258.422791,804.955078 
	C257.799133,804.440613 257.509857,803.998474 257.115692,803.314453 
	C259.592651,803.019531 261.647491,803.927612 262.964355,806.641968 
	C261.214447,807.185486 260.317200,805.382446 258.422791,804.955078 
z"/>
<path fill="#A2A2A2" opacity="1.000000" stroke="none" 
	d="
M751.017700,148.350250 
	C752.974304,148.285812 754.810181,148.918900 755.942627,151.192581 
	C753.776306,151.603119 752.211121,150.544342 751.017700,148.350250 
z"/>
<path fill="#A2A2A2" opacity="1.000000" stroke="none" 
	d="
M758.841980,152.421066 
	C760.859253,152.138336 762.687988,152.853104 763.936035,155.136475 
	C761.688843,155.738159 760.336914,154.257721 758.841980,152.421066 
z"/>
<path fill="#9E9EA0" opacity="1.000000" stroke="none" 
	d="
M243.527969,791.873291 
	C243.154205,791.190430 243.070312,790.605957 242.973083,789.730469 
	C245.039261,789.411316 246.012070,790.734741 246.638245,792.791199 
	C245.688370,792.736389 244.753113,792.354065 243.527969,791.873291 
z"/>
<path fill="#A1A1A2" opacity="1.000000" stroke="none" 
	d="
M369.124847,141.424591 
	C369.093140,139.024918 370.741425,138.421204 373.027832,138.223618 
	C372.330627,139.692551 371.448944,141.308685 369.124847,141.424591 
z"/>
<path fill="#A2A2A2" opacity="1.000000" stroke="none" 
	d="
M731.016357,139.341431 
	C733.019531,138.993912 734.170593,140.713364 735.926392,141.951355 
	C733.657959,142.889038 732.265381,141.501938 731.016357,139.341431 
z"/>
<path fill="#A2A2A2" opacity="1.000000" stroke="none" 
	d="
M856.750183,222.318436 
	C858.675598,222.873291 860.202881,224.233093 860.968872,226.702576 
	C858.806458,226.353790 857.503784,224.808624 856.750183,222.318436 
z"/>
<path fill="#9E9EA0" opacity="1.000000" stroke="none" 
	d="
M232.695435,778.777832 
	C230.980377,778.730347 229.879166,777.628967 229.043900,775.852417 
	C231.184204,775.280029 231.960968,776.842957 232.695435,778.777832 
z"/>
<path fill="#A2A2A2" opacity="1.000000" stroke="none" 
	d="
M786.946716,167.378555 
	C788.828308,166.957764 789.915833,168.210815 790.926025,169.979202 
	C788.724548,170.897919 788.013977,169.101364 786.946716,167.378555 
z"/>
<path fill="#9E9EA0" opacity="1.000000" stroke="none" 
	d="
M250.586502,796.704956 
	C248.793182,796.665100 247.766632,795.491211 246.966217,793.673340 
	C248.932007,793.384888 249.994019,794.623413 250.586502,796.704956 
z"/>
<path fill="#9E9EA0" opacity="1.000000" stroke="none" 
	d="
M236.648315,782.698425 
	C234.838455,782.707520 233.764999,781.524963 232.968719,779.627808 
	C234.941086,779.358459 235.906586,780.724243 236.648315,782.698425 
z"/>
<path fill="#BFC5C6" opacity="1.000000" stroke="none" 
	d="
M298.049713,178.685516 
	C298.105865,177.280350 298.962250,176.417206 300.536499,175.898193 
	C300.937439,177.591888 300.135742,178.584808 298.049713,178.685516 
z"/>
<path fill="#9E9EA0" opacity="1.000000" stroke="none" 
	d="
M286.926331,825.689697 
	C285.592773,825.967163 284.582153,825.375610 284.039673,823.723755 
	C285.594757,823.105652 286.288116,824.154907 286.926331,825.689697 
z"/>
<path fill="#BDBFBE" opacity="1.000000" stroke="none" 
	d="
M214.283203,252.927017 
	C213.957733,251.401123 214.853088,250.524078 216.471283,249.892212 
	C217.095322,251.584412 216.101395,252.422501 214.283203,252.927017 
z"/>
<path fill="#A2A2A2" opacity="1.000000" stroke="none" 
	d="
M852.761597,218.327606 
	C854.116943,218.402328 855.039001,219.432205 855.926270,220.977112 
	C854.468933,221.061096 853.247070,220.373993 852.761597,218.327606 
z"/>
<path fill="#9E9EA0" opacity="1.000000" stroke="none" 
	d="
M241.157959,787.665100 
	C240.688156,787.751709 240.143723,787.485107 239.330811,787.078369 
	C238.764832,786.420959 238.467331,785.903625 238.073822,785.100281 
	C239.507889,785.031433 240.700058,785.668762 241.157959,787.665100 
z"/>
<path fill="#BFC5C6" opacity="1.000000" stroke="none" 
	d="
M292.300659,181.951828 
	C292.286743,180.767700 293.176849,180.234879 294.571594,179.901764 
	C294.946747,181.440109 294.041260,181.963394 292.300659,181.951828 
z"/>
<path fill="#A2A2A2" opacity="1.000000" stroke="none" 
	d="
M849.075928,215.334229 
	C850.240906,215.002487 851.193054,215.530365 851.925842,216.981812 
	C850.914429,217.070694 849.770569,216.841110 849.075928,215.334229 
z"/>
<path fill="#BFC5C6" opacity="1.000000" stroke="none" 
	d="
M305.109406,173.785797 
	C304.965363,172.605698 305.577179,171.812027 306.948364,171.362946 
	C307.026337,172.457016 306.929443,173.658279 305.109406,173.785797 
z"/>
<path fill="#9E9EA0" opacity="1.000000" stroke="none" 
	d="
M279.001862,820.640503 
	C278.661804,820.936462 278.234344,820.935669 277.493256,820.877869 
	C277.131470,820.384705 277.083313,819.948608 277.049194,819.181274 
	C277.680328,819.347961 278.297424,819.845886 279.001862,820.640503 
z"/>
<path fill="#9E9EA0" opacity="1.000000" stroke="none" 
	d="
M205.438843,748.905273 
	C205.104034,748.425354 205.061050,747.996094 205.026154,747.241760 
	C205.860962,747.148804 206.556686,747.536438 206.870819,748.735168 
	C206.519348,749.013611 206.125015,748.984802 205.438843,748.905273 
z"/>
<path fill="#9E9EA0" opacity="1.000000" stroke="none" 
	d="
M272.719116,814.809387 
	C272.201569,814.765747 271.666473,814.435486 271.057007,813.879578 
	C271.865143,813.331116 272.413361,813.669678 272.719116,814.809387 
z"/>
<path fill="#BABCBE" opacity="1.000000" stroke="none" 
	d="
M259.126343,207.746246 
	C258.980469,206.826599 259.481750,206.253052 260.632385,205.968903 
	C260.962219,206.976974 260.552216,207.663086 259.126343,207.746246 
z"/>
<path fill="#9E9EA0" opacity="1.000000" stroke="none" 
	d="
M274.944336,816.694336 
	C274.171722,816.957581 273.419647,816.747864 272.991913,815.550964 
	C273.793396,815.237366 274.484985,815.547546 274.944336,816.694336 
z"/>
<path fill="#B7C0BF" opacity="1.000000" stroke="none" 
	d="
M247.174881,217.812271 
	C246.963104,216.851074 247.450256,216.239197 248.705750,216.022736 
	C248.964371,217.004761 248.547546,217.684616 247.174881,217.812271 
z"/>
<path fill="#9E9EA0" opacity="1.000000" stroke="none" 
	d="
M333.236786,854.615601 
	C332.722900,854.724304 332.057831,854.612061 331.185547,854.224243 
	C331.875854,853.175476 332.514496,853.625610 333.236786,854.615601 
z"/>
<path fill="#B9C1C3" opacity="1.000000" stroke="none" 
	d="
M229.114853,235.712280 
	C228.963562,234.801193 229.448929,234.224579 230.574615,233.916931 
	C230.943726,234.926132 230.572327,235.635590 229.114853,235.712280 
z"/>
<path fill="#B9C1C3" opacity="1.000000" stroke="none" 
	d="
M227.199280,237.841888 
	C226.943436,236.986282 227.262115,236.293701 228.358093,235.843109 
	C228.908936,236.803574 228.687271,237.575485 227.199280,237.841888 
z"/>
<path fill="#BDBFBE" opacity="1.000000" stroke="none" 
	d="
M211.264999,256.903076 
	C210.964249,256.039886 211.322968,255.362213 212.419342,254.878448 
	C212.966476,255.826004 212.681641,256.568298 211.264999,256.903076 
z"/>
<path fill="#9E9EA0" opacity="1.000000" stroke="none" 
	d="
M312.956909,842.694824 
	C312.200714,842.956055 311.460693,842.798279 311.051758,841.656677 
	C311.894043,841.210571 312.550690,841.517761 312.956909,842.694824 
z"/>
<path fill="#9E9EA0" opacity="1.000000" stroke="none" 
	d="
M315.205231,844.574463 
	C314.379547,844.927429 313.465973,844.851501 313.055573,843.341187 
	C313.938904,843.029724 314.577362,843.527283 315.205231,844.574463 
z"/>
</svg>