<?xml version="1.0" encoding="UTF-8"?>
<svg id="Ebene_1" data-name="Ebene 1" xmlns="http://www.w3.org/2000/svg" viewBox="0 0 485.93 157.21">
  <defs>
    <style>
      .cls-1 {
        fill: #5c5c5b;
      }

      .cls-2 {
        fill: #5068bd;
      }
    </style>
  </defs>
  <polygon class="cls-1" points="144.85 88.59 188.36 88.59 160.02 156.36 182.69 156.36 248.1 0 225.42 0 204.37 50.32 160.86 50.32 181.91 0 159.23 0 93.83 156.36 116.5 156.36 144.85 88.59"/>
  <g>
    <path class="cls-2" d="m454.57,147.85c2.38-5.62,1.55-7.39-5.21-7.39h-13.1c-1.01,0-1.35-.43-.92-1.44l.41-.96c.43-1.01,1.12-1.39,2.22-1.39h7.15l2.69-6.34h-10.08c-5.62,0-8.11,1.68-10.04,6.24l-.88,2.06c-2.08,4.9-1.73,6.91,4.36,6.91h13.73c1.3,0,1.71.38,1.18,1.63l-.33.77c-.53,1.25-1.29,1.68-2.68,1.68h-20.98l-2.85,6.72h22.56c7.58,0,9.94-1.82,12.12-6.96l.65-1.54Zm-39.66-6.91h-16.85l.47-1.1c1.06-2.5,2.2-3.02,4.69-3.02h11.38c1.49,0,1.88.43,1.35,1.68l-1.04,2.45Zm6.57,5.33l3.79-8.93c1.77-4.18.86-7.01-6.82-7.01h-12.67c-9.36,0-13.13,2.54-16.35,10.13l-2.55,6c-2.93,6.91-.89,9.89,7.51,9.89h8.59l2.73-6.43h-8.59c-2.16,0-2.66-.53-1.78-2.59l.45-1.06h25.68Zm-40.95,10.08l3.18-7.49h-18.72c-3.41,0-3.94-1.01-2.62-4.13l1.14-2.69c1.37-3.22,2.68-4.18,6.14-4.18h18.67l3.2-7.54h-19.15c-9.84,0-13.98,2.98-17.51,11.28l-1.49,3.5c-3.5,8.26-1.89,11.23,7.95,11.23h19.2Zm-25.97-27.46c2.3,0,3.31-.67,4.08-2.5l1.02-2.4c.75-1.78.3-2.4-2.01-2.4h-2.98c-2.26,0-3.29.62-4.04,2.4l-1.02,2.4c-.77,1.82-.29,2.5,1.96,2.5h2.98Zm2.17,2.02h-9.02l-10.8,25.44h9.02l10.8-25.44Zm-10.23-.58h-10.37c-7.12,6.48-13.27,12.14-19.8,18.48-1.15-6.34-2.44-12-4.16-18.48h-10.56l6.24,23.86c.47,1.82,1.55,3.02,4.76,3.02s5.28-1.25,7.28-3.02l26.59-23.86Zm-64.97,26.02l6.38-15.02c1.24-2.93,2.69-3.84,5.59-3.89l4.41-.1,2.97-7.01h-4.7c-8.93,0-13.78,3.17-17.08,10.94l-6.4,15.07h8.83Zm-13.45-15.41h-16.85l.47-1.1c1.06-2.5,2.2-3.02,4.69-3.02h11.38c1.49,0,1.88.43,1.35,1.68l-1.04,2.45Zm6.57,5.33l3.79-8.93c1.77-4.18.86-7.01-6.82-7.01h-12.67c-9.36,0-13.13,2.54-16.35,10.13l-2.55,6c-2.93,6.91-.89,9.89,7.51,9.89h8.59l2.73-6.43h-8.59c-2.16,0-2.66-.53-1.78-2.59l.45-1.06h25.68Zm-51.08,10.08c7.58,0,11.43-2.5,14.08-8.74l1.18-2.78c2.57-6.05.8-8.45-6.78-8.45h-14.69c-1.78,0-2.23-.62-1.58-2.16l.31-.72c.73-1.73,1.79-2.3,3.47-2.3h9.02l3.22-7.58h-10.03c-6.86,0-10.82,2.54-13.74,9.41l-.77,1.82c-2.49,5.86-1.56,8.54,6.12,8.54h15.02c1.92,0,2.52.62,1.87,2.16l-.49,1.15c-.65,1.54-1.74,2.06-3.71,2.06h-24.77l-3.22,7.58h25.49Z"/>
    <path class="cls-2" d="m485.93,71.93h-9.02l-14.61,34.42h9.02l14.61-34.42Zm-31.03,25.1c-1.1,2.59-2.44,3.26-4.79,3.26h-12.96c-1.3,0-1.84-.53-1.29-1.82l.49-1.15c.65-1.54,1.58-2.02,2.82-2.02h16.46l-.73,1.73Zm-7.17,9.31c9.36,0,13.13-2.54,16.33-10.08l2.63-6.19c2.87-6.77.82-9.74-7.62-9.74h-7.25l-2.65,6.24h7.25c2.11,0,2.64.67,1.73,2.83l-.31.72h-17.95c-7.39,0-10.3,2.45-12.16,6.82l-1.06,2.5c-1.79,4.22-.82,6.91,6.81,6.91h14.26Zm-17.14-27.46c2.3,0,3.31-.67,4.08-2.5l1.02-2.4c.75-1.78.3-2.4-2.01-2.4h-2.98c-2.26,0-3.29.62-4.04,2.4l-1.02,2.4c-.77,1.82-.29,2.5,1.96,2.5h2.98Zm2.17,2.02h-9.02l-10.8,25.44h9.02l10.8-25.44Zm-29.61,25.44l6.38-15.02c1.24-2.93,2.69-3.84,5.59-3.89l4.41-.1,2.97-7.01h-4.7c-8.93,0-13.78,3.17-17.08,10.94l-6.4,15.07h8.83Zm-18.17,0l8.05-18.96h8.35l2.89-6.82h-8.35l3.22-7.58h-9.02l-3.24,7.63-3.72.05-2.85,6.72h3.7l-8.05,18.96h9.02Zm-7.9-8.5c2.38-5.62,1.55-7.39-5.21-7.39h-13.1c-1.01,0-1.35-.43-.92-1.44l.41-.96c.43-1.01,1.12-1.39,2.22-1.39h7.15l2.69-6.34h-10.08c-5.62,0-8.11,1.68-10.04,6.24l-.88,2.06c-2.08,4.9-1.73,6.91,4.36,6.91h13.73c1.3,0,1.71.38,1.18,1.63l-.33.77c-.53,1.25-1.29,1.68-2.68,1.68h-20.98l-2.85,6.72h22.56c7.58,0,9.94-1.82,12.12-6.96l.65-1.54Zm-50.16,8.5c9.89,0,14.03-2.98,17.54-11.23l6.28-14.78h-8.74l-6.09,14.35c-1.41,3.31-2.76,4.13-6.26,4.13h-7.39c-3.36,0-4.17-.82-2.76-4.13l6.09-14.35h-8.93l-6.28,14.78c-3.5,8.26-1.89,11.23,7.95,11.23h8.59Zm-27.73-11.57c-1.37,3.22-2.71,4.13-6.12,4.13h-7.01c-4.51,0-5.56-.48-3.99-4.18l1.14-2.69c1.57-3.7,3.02-4.18,7.44-4.18h11.47l-2.93,6.91Zm-8.85,11.57c9.84,0,13.98-2.98,17.49-11.23l9.84-23.18h-8.78l-3.57,8.4h-13.2c-9.89,0-14.03,2.98-17.56,11.28l-1.49,3.5c-3.5,8.26-1.89,11.23,8,11.23h9.26Zm-24.15,0l6.26-14.74c3.52-8.3,1.91-11.28-7.98-11.28h-8.83c-9.84,0-13.98,2.98-17.51,11.28l-6.26,14.74h8.83l6.07-14.3c1.39-3.26,2.83-4.18,6.24-4.18h7.73c3.46,0,4.08.91,2.69,4.18l-6.07,14.3h8.83Zm-22.96-32.74h-9.02l-13.9,32.74h9.02l13.9-32.74Z"/>
  </g>
  <polygon class="cls-2" points="65.43 156.36 0 .45 51.02 .45 116.45 156.36 65.43 156.36"/>
  <polygon class="cls-2" points="131.66 156.36 66.24 .45 117.26 .45 182.69 156.36 131.66 156.36"/>
</svg>