<svg xmlns="http://www.w3.org/2000/svg" width="134.934" height="36.721" viewBox="0 0 134.934 36.721">
  <g transform="translate(3298.601 887.105)">
    <g transform="translate(-3298.6 -887.106)">
      <path d="M2840.73,2090.687v-7.035a1.207,1.207,0,0,1,.336.359,4.1,4.1,0,0,0,.381.4c2.229,2.21,4.108,2.311,7.343,3.079.767.182,1.63.306,2.486.467.876.165,1.637.312,2.475.478,1.685.336,3.568.6,3.568,2.511,0,1.46-2.013,2.345-3.561,2.345-1.473,0-2.672.034-3.884-.979a5.292,5.292,0,0,1-1.414-2.321c-.777,0-7.5.585-7.729.695Zm-71.042-3.213h18.151v3.734c-1.3,0-5.9-.589-7.647-.7-1.006-.064-.9.578-1.941,1.36a5.3,5.3,0,0,1-7.87-1.7,7.5,7.5,0,0,1-.694-2.694Zm5.037-10.509a4.413,4.413,0,0,1,4.7,3.375,8.366,8.366,0,0,1,.422,2.183h-10.161C2769.924,2079.7,2771.462,2076.965,2774.726,2076.965Zm-15.285,11.551-6.166-.7c-.118.247-.2.526-.322.807a5.057,5.057,0,0,1-4.628,3.362c-2.08,0-3.288-.2-4.752-1.935-1.919-2.276-2.138-9.4,1.6-11.468,2.311-1.281,6.777-1.031,7.671,2.808.446-.1,1.212-.19,1.666-.245l3.454-.455c.56-.079,1.211-.132,1.742-.256a6.311,6.311,0,0,1-.208.921,20.506,20.506,0,0,0-.349,3.037A23.011,23.011,0,0,0,2759.441,2088.516Zm-27.531-4.256c0,4.155.327,6.519,2.69,9.642a4.7,4.7,0,0,0,.415.454,11.472,11.472,0,0,0,2.331,2.1c3.547,2.344,7.581,2.571,11.933,2.571,3.409,0,7.563-1.064,9.967-3.495a14.406,14.406,0,0,0,1.114-1.144,7.8,7.8,0,0,1,.992-1.266,2.979,2.979,0,0,1,.5.633c.185.248.3.386.5.633a11.357,11.357,0,0,0,3.842,3.105c4.048,2.015,12.553,2.042,16.8.331,2.462-.991,2.364-1.343,3.809-2.444.4-.306.628-.765,1.042-1.042v4.082h10.422c0-3.779-.237-10.936.4-14.454a12.42,12.42,0,0,1,.594-2.272c.974-2.418,2.749-3.342,5.294-2.585,1.117.332,1.239.194,1.643,1.223l2.5,6.015c1.158,2.619,2.233,5.375,3.348,8.029.473,1.125,1.139,3.01,1.687,4.045h9.206a14.425,14.425,0,0,1,.918-2.208c1.5-3.579,3.227-7.431,4.653-10.98l1.388-3.3a3.847,3.847,0,0,1,.51-1.054v17.543h10.335v-2.605c.7.467,1.287,1.017,2.013,1.461a8.3,8.3,0,0,0,1.187.55c3.723,1.519,11.464,1.6,15.437.472a12.416,12.416,0,0,0,4.329-2.184c2.2-1.714,4.134-5.64,2.594-9.271-3.445-8.122-17.656-4.486-17.656-8.311a1.84,1.84,0,0,1,1.1-1.854c1.616-.868,4.767-.4,5.8,1.121a7.491,7.491,0,0,1,.57,1.167c1.583,0,7.176-.728,9.391-.865.462-.029.448-.029.292-.375a11.19,11.19,0,0,0-3.082-4.494,11.348,11.348,0,0,0-2.4-1.419c-3.279-1.474-11.911-1.306-15.3-.045-3.183,1.184-3.631,2.514-4.268,2.941v-3.3h-16.848c-.265,1.139-1.588,5.079-1.987,6.264-.428,1.273-3.276,10.161-3.311,10.584h-.174c-.065-.779-3.435-11.183-3.821-12.593-.2-.711-.45-1.386-.658-2.121l-.645-2.135c-1.4,0-4.573.1-5.818,0-.854-.068-3.094-1.3-6.033-.125a5.09,5.09,0,0,0-1.668,1.111,20.572,20.572,0,0,0-2.2,3.271v-4.256h-9.727v4.864a.7.7,0,0,1-.117-.143,11.729,11.729,0,0,0-3.328-3.1c-3.28-1.953-6.753-2.23-10.884-2.23a14.5,14.5,0,0,0-11.713,5.483,3.62,3.62,0,0,1-.533.683,12.587,12.587,0,0,0-3.349-3.686,11.859,11.859,0,0,0-5.01-2.025c-3.594-.714-8.971-.727-12.311.5a12.978,12.978,0,0,0-8.685,12.506Z" transform="translate(-2731.91 -2062.342)" fill="#fff" fill-rule="evenodd"/>
      <path d="M7636.26,1657.675h10.334v-7.035H7636.26Z" transform="translate(-7537.961 -1650.64)" fill="#fff" fill-rule="evenodd"/>
    </g>
  </g>
</svg>
