<?xml version="1.0" encoding="UTF-8"?> <svg xmlns="http://www.w3.org/2000/svg" xmlns:xlink="http://www.w3.org/1999/xlink" version="1.1" id="Ebene_2_00000080891049461167518490000017442097194422852516_" x="0px" y="0px" viewBox="0 0 529 114.4" style="enable-background:new 0 0 529 114.4;" xml:space="preserve"> <style type="text/css"> .st0{fill:#F86F03;} </style> <g id="Ebene_1-2"> <g> <g> <g> <path class="st0" d="M192.4,80.2c-5.4,0-10.6-1.8-13.7-5.4c-3.2-3.6-4.7-8.6-4.7-14.9s1.6-11.3,4.8-14.8 c3.2-3.6,7.4-5.4,12.8-5.4c4.8,0,8.8,1.5,12,4.6c3.1,3.1,4.7,7.6,4.7,13.5c0,2.2-0.1,3.9-0.3,5.1h-26.1c0.1,3.1,1,5.6,3,7.5 c1.9,1.9,5.2,2.8,7.8,2.9c1.5,0,6.1-0.1,7.9-3.5l7-0.1C205.5,78.3,198.1,80.2,192.4,80.2L192.4,80.2z M181.8,56.5h18.5 c-0.1-3.3-0.9-5.8-2.6-7.4c-1.7-1.6-3.8-2.4-6.1-2.4c-2.7,0-4.9,0.8-6.7,2.4C183,50.6,182,53.1,181.8,56.5z"></path> <path class="st0" d="M377.9,80.2c-5.4,0-10.6-1.8-13.7-5.4c-3.2-3.6-4.7-8.6-4.7-14.9s1.6-11.3,4.8-14.8 c3.2-3.6,7.4-5.4,12.8-5.4c4.8,0,8.8,1.5,12,4.6c3.1,3.1,4.7,7.6,4.7,13.5c0,2.2-0.1,3.9-0.3,5.1h-26.1c0,3.1,1,5.6,3,7.5 c1.9,1.9,5.2,2.8,7.8,2.9c1.5,0,6.1-0.1,7.9-3.5l7-0.1C390.9,78.3,383.5,80.2,377.9,80.2L377.9,80.2z M367.3,56.5h18.5 c0-3.3-0.9-5.8-2.6-7.4c-1.7-1.6-3.8-2.4-6.1-2.4c-2.7,0-4.9,0.8-6.7,2.4C368.5,50.6,367.5,53.1,367.3,56.5z"></path> <path class="st0" d="M474.2,80.2c-5.4,0-10.6-1.8-13.7-5.4c-3.2-3.6-4.7-8.6-4.7-14.9s1.6-11.3,4.8-14.8 c3.2-3.6,7.4-5.4,12.8-5.4c4.8,0,8.8,1.5,12,4.6c3.1,3.1,4.7,7.6,4.7,13.5c0,2.2-0.1,3.9-0.3,5.1h-26.1c0,3.1,1,5.6,3,7.5 c1.9,1.9,5.2,2.8,7.8,2.9c1.5,0,6.1-0.1,7.9-3.5l7-0.1C487.3,78.3,479.9,80.2,474.2,80.2L474.2,80.2z M463.6,56.5h18.5 c0-3.3-0.9-5.8-2.6-7.4c-1.7-1.6-3.8-2.4-6.1-2.4c-2.7,0-4.9,0.8-6.7,2.4C464.8,50.6,463.8,53.1,463.6,56.5z"></path> <path class="st0" d="M262.5,33.1c-0.9,0.9-2.1,1.4-3.4,1.4c-1.3,0-2.4-0.5-3.4-1.4c-0.9-0.9-1.4-2.1-1.4-3.4s0.5-2.4,1.4-3.4 c0.9-0.9,2.1-1.4,3.4-1.4c1.3,0,2.4,0.5,3.4,1.4c0.9,0.9,1.4,2.1,1.4,3.4S263.4,32.1,262.5,33.1z M255.2,79.2V40.5h7.9v38.7 H255.2z"></path> <path class="st0" d="M301.3,74.8c-3.2,3.6-7.5,5.4-13,5.4s-9.8-1.8-12.9-5.4c-3.2-3.6-4.7-8.5-4.7-14.8s1.6-11.3,4.7-14.9 c3.2-3.6,7.5-5.4,12.9-5.4s9.8,1.8,13,5.4c3.2,3.6,4.8,8.6,4.8,14.9S304.5,71.2,301.3,74.8z M288.3,72.7c3,0,5.4-1.1,7.2-3.4 c1.8-2.3,2.6-5.4,2.6-9.4s-0.9-7.1-2.6-9.4c-1.8-2.3-4.2-3.4-7.2-3.4s-5.3,1.1-7.1,3.4c-1.8,2.3-2.6,5.4-2.6,9.4 s0.9,7.1,2.6,9.4C283,71.6,285.3,72.7,288.3,72.7z"></path> <path class="st0" d="M521.1,79.3V56.2c0-3.1-0.7-5.4-2.1-6.9c-1.4-1.5-3.3-2.2-5.6-2.2c-5.6,0-8.3,3-8.3,8.9v23.3h-7.9V40.5h7.9 v3.7c2.4-3.1,5.8-4.6,10-4.6c9.3,0,13.9,5.5,13.9,16.5v23.1L521.1,79.3L521.1,79.3z"></path> </g> <path class="st0" d="M166.1,51.2c1.9-2.8,2.9-5.9,2.9-9.3c0-4.5-1.3-8.2-4-11.2s-7.1-4.5-13.1-4.5h-22.3v53h7.9V33.8h14.6 c3.2,0,5.4,0.8,6.8,2.4c1.3,1.6,2,3.5,2,5.7c0,2.2-0.7,4.3-2.1,5.8c-1.4,1.5-3.6,2.3-6.7,2.3h-6.7l5.8,12.2l0,0l8.2,17h9 l-10.9-22.3C161.3,55.9,164.2,54,166.1,51.2L166.1,51.2z"></path> <g> <path class="st0" d="M57.3,114.4c-31.5,0-57.2-25.6-57.2-57.2S25.7,0,57.3,0s57.2,25.6,57.2,57.2S88.8,114.4,57.3,114.4z M57.3,4C27.9,4,4.1,27.9,4.1,57.2s23.9,53.2,53.2,53.2s53.2-23.9,53.2-53.2S86.6,4,57.3,4z"></path> <path class="st0" d="M96.5,47.4c0.7-0.5,1-1.5,0.7-2.3c-0.3-0.9-1.1-1.4-2-1.4H69.7L61,16.9c-0.5-1.6-2-2.8-3.8-2.8 c-1.7,0-3.3,1.1-3.8,2.7l-8.7,26.8l-25.6,0c-0.8,0-1.6,0.5-1.9,1.3c-0.3,0.8,0,1.7,0.6,2.3l20.3,16.5l-8.2,25.2 c-0.6,2,0.2,4.3,2.2,5.1c0.5,0.2,1,0.3,1.5,0.3c0.6,0,1.2-0.1,1.8-0.4c0.2-0.1,0.4-0.2,0.6-0.3L50.6,83l-3.4-2.5l-8,5.8 l18.1-55.7l9.6,29.8l-16.3,12l27.9,21c0.7,0.5,1.5,0.7,2.3,0.7c1.2,0,2.4-0.6,3.2-1.6c0.8-1.1,0.9-2.5,0.5-3.7l-8.6-25.2 L96.5,47.4L96.5,47.4z M24.8,47.6h18.7l-3.9,12L24.8,47.6z M89.6,47.6L74.8,59.3L71,47.6C71,47.6,89.6,47.6,89.6,47.6z M78.4,83.8L63.7,72.6l8.7-6.3L78.4,83.8L78.4,83.8z"></path> </g> <polygon class="st0" points="343.8,30.7 343.8,50.2 321.7,50.2 321.7,24.9 313.8,30.7 313.8,79.3 321.7,79.3 321.7,57.5 343.8,57.5 343.8,79.3 351.7,79.3 351.7,24.9 "></polygon> <polygon class="st0" points="401.2,30.7 401.2,79.3 409.1,79.3 409.1,24.9 "></polygon> <path class="st0" d="M441.3,30.7v12.6c-2.3-2.4-5.4-3.6-9.2-3.6c-4.8,0-8.7,1.8-11.6,5.4c-3,3.6-4.4,8.5-4.4,14.8 s1.4,11.3,4.4,14.9c2.9,3.6,6.8,5.4,11.7,5.4c3.9,0,7-1.2,9.2-3.6v2.7h7.9V24.9L441.3,30.7L441.3,30.7z M441.3,68.3 c-1.8,2.9-4.5,4.4-8,4.4c-2.9,0-5.1-1.2-6.8-3.6c-1.7-2.4-2.5-5.5-2.5-9.3c0-4.1,0.8-7.2,2.4-9.5c1.6-2.2,3.9-3.3,6.9-3.3 c1.9,0,3.5,0.4,4.9,1.2s2.4,1.8,3.1,3L441.3,68.3L441.3,68.3z"></path> </g> <path class="st0" d="M238.7,40.5v2.7c-2.3-2.4-5.4-3.6-9.2-3.6c-4.8,0-8.7,1.8-11.6,5.4c-3,3.6-3.4,8.5-3.4,14.8s0.5,11.5,3.5,15 c3,3.5,6.8,5.3,11.4,5.3c4,0,7.1-1.3,9.3-4v3.4c0,2.6-1.2,4.4-3.1,6.1c-3.8,3.1-14.1,1.7-14.1,1.7v6.3c0,0,15,2.3,20.7-4 c2.7-3,4.5-7,4.5-13V40.5H238.7z M238.7,68.2c-1.8,3-4.4,4.5-7.9,4.5c-2.9,0-5.2-1.2-6.9-3.5c-1.7-2.3-2.5-5.5-2.5-9.4 c0-4.1,0.8-7.3,2.4-9.5c1.6-2.2,4-3.3,7-3.3c1.6,0,3.1,0.4,4.5,1.2c1.4,0.8,2.6,1.9,3.4,3.2V68.2L238.7,68.2z"></path> </g> </g> </svg> 